<svg xmlns="http://www.w3.org/2000/svg" viewBox="0 0 3840 562.52"><defs><style>.cls-1{fill:#ffe6d5;}.cls-2{fill:#abc837;}.cls-3{fill:#85a800;}.cls-4{fill:#46a0b5;}.cls-5{fill:#677821;}</style></defs><title>back-bushes_1</title><g id="Layer_2" data-name="Layer 2"><g id="svg1266"><path class="cls-1" d="M3834.13,37.82c-14.1-7.4-7.41,5.52-23,11.44s-6,0-22.25-3.94-14.1,3-33.32,9.37-24.45-3.45-33.33,1-28.2,15.39-43.77,11.93a187.48,187.48,0,0,0-30.4-3.94s-22.25,6.41-31.12-2-39.28-4-60.8-10.95-21.52,1.48-21.52,1.48,0-5.42-10.34-6.9-6.69,3.94-13.37,7.4-6,.49-6.69-3-8.88-1-8.88-1-3,5.92-12.64,2-11.18,2-20.06,4.44-7.41-.49-7.41-.49-10.45-11.45-20.79-.49-11.91-2.47-27.47-3-4.5,4.44-22.25,5.92-20.06-4.94-28.94-6.91-13.37,4-28.21,1.48-2.92-9-7.41-16.87-25.91-5.43-39.28-6.42-13.79-11.15-23.71-12.53-9,6.61-18.91,10.17-1.57-4.15-11-5.92-9,4.53-22,3.84-3.76-2.07-15.78-3.15-9,3.45-19.95,4.53-13.58-1.77-28.83-5.62-16.82,4.93-25.17,7-41.48,3.15-53.49.69-6.79-2.08-12.53-8.39-46.18-12.23-62.37-12.23-18.8-.4-35.1-4.25-7.31-.69-30.92,1.38-20.47.4-30.4-2.07-18.91-3.16-29.35,1.78-3.66,3.85-26.74,1.38-12.64,0-22,3.55-20.37,5.23-39.8,6.61-32,10.16-51.91,17.17A120.36,120.36,0,0,1,2682.64,39s-47.74,21.41-58.18,17.86-57.67,7.7-83.36,9.08-33,5.92-33,5.92-28.84,12.73-47.74,10.55-32,5.23-32,5.23-17.24,9.08-36.67,7.7-38.23,9.47-38.23,9.47-5.74-2.46-14.1-5.23-26.74,2.86-44.61,8.78,20.9,13-22,8.09-53,18.55-53,18.55-2.09,7.4-13.06,4.94-28.31,7-40.84,11.94-26.75,6.31-36.67,3.55-5.33,3.45-15.25,4.54-31.44-1.38-41.37-4.94-29.35,4.25-29.35,4.25-2.61-2.77-8.88-3.85a18.28,18.28,0,0,0-11.49,2.07S2017,154,2006.56,154s-11.59,1.77-18.91,4.24-18.9,1.78-26.74-2.47-22.77.79-26.43,5.92-8.88-1.77-12-5.13-16.3-6.21-24.65-5.82-3.87,3.46-20.9,1.48-3.76-1.48-13.37-3.94-8.88,1-31.13,6.9-14-1-48.89-7.4-15.46,6.51-39.59,6.12-25.17-3.45-61.84-5.92-39.38,7-48.26-.69-13.16-9.77-21-10.16-21-4.54-25.17-9.08-7.94-7-15.78-8.09-21-6.61-30.92-15.39-27.26-20.33-34.57-21-30.92-.69-36.15-4.54-16.19-7.3-41.89-9.77S1410,66,1396.4,52s-65.5-6-70.2-4.24-.52-2.46-22.56-5.62-12,2.86-29.36,4.24-6.27-3.16-37.19-2.07-21.41,7-38.23,9.47-32.49,11.54-62.89,9.47-37.19,18.65-41.36,16.87-26.22-5.62-33-4.24-30.92-1.68-38.76-5.23-15.77,1-18.38-1.08-9.93-7.7-27.79-10.17S963,63,949.93,58s-44.09,2.47-53.49,5.63-16.82-1.38-27.26,0S848.7,57.65,834.6,51s-27.79-1.38-27.79-1.38-11.49,0-27.26-8.09-26.74-2.08-38.76.69-16.71-5.63-35.62-8.78-16.71,7-34,6.61-17.87,1.38-17.87,1.38-12.53,8.38-33.53,1.38-49.83,2.76-49.83,2.76-3.65,2.17-13.06,1.09-11.07,8.09-18.9,6.31-11.6,4.84-16.82,5.92-3.14,2.76-13.06-3.55-7.42-2.47-15.77-4.24-3.76,4.14-15.25,5.92-20.48-5.92-28.84-4.54S445,61.69,431.38,64.46s-15.26-5.23-15.26-5.23l-8.88-3.85s-12.53,2.76-14.62-3.55-15.25-2.77-15.25-2.77-10,8.1-16.3,7-15.25,4.24-17.86,3.16a38.18,38.18,0,0,0-6.79-1.78S326,60.9,324.93,57.06s-16.82-5.63-16.82-5.63-15.25,1.38-15.25-3.15-4.18-9.08-12.54-9.77-12.64-3.16-17.86-7.7S247.21,29,247.21,29,232,27,224.64,22.42s-9-2.07-20.47-.69S191.11,25.29,175.34,19s-28.83,5.92-37.19,7.7-4.18,2.46-12,4.54-11.6-2.17-20.48-3.56-12,4.25-12,4.25-6.27,7.3-10.45,4.54-14.73-3.95-19.43-3.56-3.13,1.78-11.49,7.7-.52,6.31-10.44,8.78-10-3.16-20.48-.69,1.57,3.85-7.31,7.7C6.3,59.73,1.73,64.44,0,63.48V81c1.73.87,6.3-3.42,14.05-6.44,8.88-3.55-3.14-4.83,7.31-7s10.45,2.86,20.48.59,2.08-2.57,10.44-8,6.79-6.71,11.49-7S79,53.7,83.2,56.27s10.45-4.15,10.45-4.15,3.13-5.13,12-3.84,12.54,5.13,20.48,3.15,3.65-2.56,12-4.14,21.52-12.73,37.19-7,17.34,3.85,28.83,2.57,13.06-3.55,20.47.59,22.57,6,22.57,6,9.92-2.57,15.25,1.58,9.4,6.41,17.86,7,12.54,4.84,12.54,9,15.25,2.86,15.25,2.86,15.77,1.58,16.82,5.13,11.49.3,11.49.3a39.7,39.7,0,0,1,6.79,1.58c2.61,1,11.49-3.85,17.86-2.86s16.3-6.42,16.3-6.42,13.06-3.15,15.25,2.57,14.62,3.16,14.62,3.16l8.88,3.55s1.57,7.3,15.26,4.83,8.35-9.57,16.81-10.85S465.53,76.59,477,75s6.79-7,15.25-5.42,5.74-1.88,15.77,3.85,7.84,4.14,13.06,3.15,8.88-7,16.82-5.42,9.4-6.71,18.9-5.73,13.06-1,13.06-1,28.83-9,49.83-2.57,33.53-1.28,33.53-1.28.53-1.58,17.87-1.28,15.25-9,34-6,23.61,10.55,35.62,8,23.09-8,38.76-.59S806.81,68,806.81,68s13.58-4.84,27.79,1.28S858.73,82,869.18,80.74s17.86,2.86,27.26,0,40.32-9.57,53.49-5.13,8.88-1,26.74,1.28,25.17,7.3,27.79,9.27,10.44-2.27,18.38,1,32,6,38.76,4.84,28.83,2.26,33,3.84,11-17.26,41.36-15.29,46.18-6.41,62.89-8.58,7.31-7.7,38.23-8.59,20,3.16,37.19,1.88,7.31-6.71,29.36-3.85,17.86,6.71,22.56,5.13,56.62-9,70.2,3.85,6.27,13.42,32,15.59,36.67,5.42,41.89,9,28.83,3.56,36.15,4.15,24.65,11.15,34.57,19.14,23.09,13.12,30.92,14,11.5,3.16,15.78,7.3,17.34,8,25.17,8.29,12,2.27,21,9.28,11.49-1.58,48.26.59,37.71,5.13,61.84,5.42,4.7-11.44,39.59-5.52,26.64,12.13,48.89,6.81,21.52-8.59,31.13-6.32-3.65,1.78,13.37,3.65,12.54-1.08,20.9-1.38,21.52,2.27,24.65,5.23,8.36,9.28,12,4.64,18.6-9.28,26.43-5.43,19.43,4.44,26.74,2.27,8.36-3.85,18.91-3.85,16.3,3.16,16.3,3.16a19.83,19.83,0,0,1,11.49-1.87c6.27,1,8.88,3.55,8.88,3.55s19.43-7,29.35-3.85,31.45,5.43,41.37,4.44,5.22-6.71,15.25-4.14,24.13,1.28,36.67-3.16,29.87-13.12,40.84-10.86,13.06-4.44,13.06-4.44,9.92-21.41,53-16.87,4.18-1.87,22-7.3,36.15-10.56,44.61-8,14.1,4.83,14.1,4.83,18.91-9.86,38.23-8.58,36.67-7,36.67-7,13.06-6.7,32-4.83,47.74-9.57,47.74-9.57,7.31-4.14,33-5.43,72.81-11.44,83.36-8.29,58.18-16.28,58.18-16.28a134.08,134.08,0,0,0,38.24-6c19.95-6.42,32.48-14.41,51.91-15.59s30.4-2.87,39.8-6-1-5.43,22-3.16,16.29,3.16,26.74-1.28,19.43-3.85,29.35-1.58,6.79,3.85,30.4,1.87,14.63-4.83,30.92-1.28,18.91,3.85,35.1,3.85,56.62,5.43,62.37,11.15.52,5.42,12.53,7.69,45.13,1.29,53.49-.59,9.92-9.86,25.17-6.41,17.86,6,28.83,5.13,7.84-5.13,19.95-4.14,2.62,2.26,15.78,2.86,12.53-5.13,22-3.56,1,8.59,11,5.43,8.88-10.56,18.91-9.27,10.34,10.46,23.71,11.34,34.89-1.38,39.28,5.83-7.42,13.12,7.41,15.39,19.23-3.16,28.21-1.38,11.07,7.69,28.94,6.31,6.68-5.82,22.25-5.43,17,12.63,27.47,2.67,20.79.49,20.79.49-1.47,2.67,7.41.49,10.35-7.69,20.06-4,12.64-1.78,12.64-1.78,8.15-2.27,8.88.89,0,5.82,6.69,2.67,2.92-8.1,13.37-6.81,10.34,6.31,10.34,6.31,0-7.69,21.52-1.38,51.92,2.27,60.8,10,31.12,1.77,31.12,1.77a209,209,0,0,1,30.4,3.65c15.57,3.16,34.89-6.81,43.77-10.85s14.11,4.93,33.33-.89,17-12.13,33.32-8.58,6.69,9,22.25,3.65,8.88-17.17,23-10.36c2.58,1.24,4.47,2.27,5.87,3.12V41.21C3838.6,40.29,3836.71,39.17,3834.13,37.82Z"/><path class="cls-2" d="M3811.15,68.11c-15.56,5.33-6,0-22.25-3.65s-14.1,2.76-33.32,8.58-24.45-3.16-33.33.89-28.2,14-43.77,10.85a209,209,0,0,0-30.4-3.65s-22.25,5.92-31.12-1.77-39.28-3.65-60.8-10-21.52,1.38-21.52,1.38,0-4.93-10.34-6.31-6.69,3.65-13.37,6.81-6,.49-6.69-2.67-8.88-.89-8.88-.89-3,5.43-12.64,1.78-11.18,1.78-20.06,4-7.41-.49-7.41-.49-10.45-10.46-20.79-.49-11.91-2.17-27.47-2.67-4.5,4.05-22.25,5.43-20.06-4.54-28.94-6.31-13.37,3.65-28.21,1.38-2.92-8.19-7.41-15.39-25.91-4.94-39.28-5.83-13.79-10.06-23.71-11.34-9,6.11-18.91,9.27-1.57-3.85-11-5.43-9,4.15-22,3.56-3.76-1.88-15.78-2.86-9,3.15-19.95,4.14-13.58-1.58-28.83-5.13-16.82,4.54-25.17,6.41-41.48,2.86-53.49.59-6.79-2-12.53-7.69-46.18-11.15-62.37-11.15-18.8-.3-35.1-3.85-7.31-.59-30.92,1.28-20.47.4-30.4-1.87-18.91-2.86-29.35,1.58-3.66,3.55-26.74,1.28-12.64,0-22,3.16-20.37,4.73-39.8,6-32,9.17-51.91,15.59a134.08,134.08,0,0,1-38.24,6S2634.9,78.17,2624.46,75s-57.67,7-83.36,8.29-33,5.43-33,5.43-28.84,11.44-47.74,9.57-32,4.83-32,4.83-17.34,8.29-36.67,7-38.23,8.58-38.23,8.58-5.74-2.27-14.1-4.83-26.74,2.56-44.61,8,20.9,11.74-22,7.3-53,16.87-53,16.87-2.09,6.71-13.06,4.44-28.31,6.42-40.84,10.86-26.75,5.72-36.67,3.16-5.33,3.15-15.25,4.14-31.44-1.28-41.37-4.44-29.35,3.85-29.35,3.85-2.61-2.57-8.88-3.55a19.83,19.83,0,0,0-11.49,1.87s-5.85-3.16-16.3-3.16-11.59,1.58-18.91,3.85-18.9,1.58-26.74-2.27-22.77.79-26.43,5.43-8.88-1.58-12-4.64-16.3-5.52-24.65-5.23-3.87,3.16-20.9,1.38-3.76-1.38-13.37-3.65-8.88.89-31.13,6.32-14-1-48.89-6.81-15.46,5.82-39.59,5.52-25.17-3.15-61.84-5.42-39.38,6.41-48.26-.59-13.16-9-21-9.28-21-4.14-25.17-8.29-7.94-6.31-15.78-7.3-21-6-30.92-14-27.26-18.55-34.57-19.14-30.92-.59-36.15-4.15-16.19-6.7-41.89-9-18.38-2.86-32-15.59-65.5-5.43-70.2-3.85-.52-2.27-22.56-5.13-12,2.56-29.36,3.85-6.27-2.87-37.19-1.88-21.41,6.32-38.23,8.59-32.49,10.45-62.89,8.58-37.19,16.87-41.36,15.29-26.22-5.13-33-3.84-30.92-1.68-38.76-4.84-15.77.89-18.38-1-9.93-7-27.79-9.27S963,80.05,949.93,75.61s-44.09,2.27-53.49,5.13-16.82-1.29-27.26,0S848.7,75.31,834.6,69.29,806.81,68,806.81,68s-11.49,0-27.26-7.3-26.74-2-38.76.59-16.71-5.13-35.62-8-16.71,6.31-34,6-17.87,1.28-17.87,1.28-12.53,7.69-33.53,1.28-49.83,2.57-49.83,2.57-3.65,2-13.06,1-11.07,7.3-18.9,5.73-11.6,4.44-16.82,5.42-3.14,2.57-13.06-3.15-7.42-2.27-15.77-3.85S488.52,73.44,477,75s-20.48-5.42-28.84-4.14S445,79.16,431.38,81.72s-15.26-4.83-15.26-4.83l-8.88-3.55s-12.53,2.56-14.62-3.16-15.25-2.57-15.25-2.57-10,7.4-16.3,6.42-15.25,3.85-17.86,2.86a39.7,39.7,0,0,0-6.79-1.58S326,78.57,324.93,75s-16.82-5.13-16.82-5.13S292.86,71.17,292.86,67s-4.18-8.38-12.54-9-12.64-2.86-17.86-7-15.25-1.58-15.25-1.58-15.25-1.88-22.57-6-9-1.87-20.47-.59S191.11,46,175.34,40.28s-28.83,5.43-37.19,7-4.18,2.27-12,4.14-11.6-1.87-20.48-3.15-12,3.84-12,3.84-6.27,6.71-10.45,4.15-14.73-3.46-19.43-3.16-3.13,1.58-11.49,7-.52,5.72-10.44,8-10-2.86-20.48-.59,1.57,3.45-7.31,7C6.3,77.54,1.73,81.83,0,81v65.3c7-.85,4.5,6.33,17.48,9.94,15.56,4.44,5.95,0,22.24-2.86s14,2.17,33.33,6.91,24.44-2.57,33.32.69,28.2,11.25,43.77,8.68a266.81,266.81,0,0,1,30.39-2.86s22.25,4.74,31.13-1.48,39.28-3,60.79-8S294,158.37,294,158.37s0-3.94,10.34-5,6.69,2.86,13.37,5.43,6,.39,6.69-2.17,8.88-.69,8.88-.69,3,4.34,12.64,1.48,11.17,1.48,20.05,3.25,7.42-.39,7.42-.39,10.45-8.39,20.79-.4,11.9-1.77,27.47-2.17,4.49,3.26,22.25,4.35,20.05-3.56,28.93-5,13.37,2.86,28.21,1.09,2.92-6.51,7.41-12.33,25.91-4.05,39.28-4.74,13.79-8.19,23.71-9.18,9,4.84,18.91,7.4,1.56-3.06,11-4.34,9,3.36,22,2.86,3.77-1.48,15.78-2.27,9,2.57,19.95,3.36,13.58-1.28,28.83-4.15,16.82,3.56,25.17,5.14,41.47,2.26,53.48.49,6.79-1.48,12.54-6.12,46.07-9,62.36-9,18.8-.19,35.1-3.06,7.31-.59,30.92,1,20.47.2,30.39-1.58,18.91-2.27,29.36,1.28,3.65,2.77,26.74,1,12.64,0,22,2.57,20.37,3.84,39.8,4.83,32,7.4,51.91,12.53a161.45,161.45,0,0,0,38.23,4.84s47.74,15.68,58.18,13.12,57.66,5.72,83.36,6.71,33,4.34,33,4.34,28.83,9.27,47.74,7.7,32,3.84,32,3.84,17.23,6.61,36.66,5.63,38.23,6.9,38.23,6.9,5.75-1.77,14.11-3.84,26.74,2.07,44.6,6.41-20.89,9.47,22,5.92,53,13.62,53,13.62,2.09,5.32,13.06,3.55,28.3,5.13,40.84,8.68,26.74,4.64,36.66,2.57,5.33,2.56,15.25,3.35,31.45-1,41.37-3.55,29.35,3.06,29.35,3.06,2.61-2.07,8.88-2.86a25.06,25.06,0,0,1,11.49,1.57s5.75-2.56,16.3-2.56,11.59,1.28,18.9,3.06,18.91,1.28,26.74-1.78,22.77.59,26.43,4.34,8.88-1.28,12-3.75,16.3-4.53,24.66-4.24,3.86,2.57,20.89,1.09,3.76-1.09,13.37-2.86,8.88.69,31.13,5,14-.69,48.88-5.43,15.46,4.74,39.59,4.44,25.17-2.56,61.84-4.34,39.38,5.13,48.26-.49,13.16-7.11,21-7.4,21-3.36,25.18-6.71,7.94-5.13,15.77-5.92,21-4.84,30.92-11.25,27.26-14.9,34.58-15.39,30.91-.5,36.14-3.36,16.19-5.42,41.88-7.2,18.39-2.27,32-12.53,65.49-4.34,70.19-3.06.53-1.87,22.57-4.14,12,2.07,29.35,3.05,6.27-2.36,37.19-1.57,21.41,5.13,38.23,6.9,32.48,8.49,62.88,6.91,37.19,13.62,41.37,12.33,26.21-4,33-3.06,30.92-1.28,38.76-3.84,15.77.79,18.38-.79,9.92-5.63,27.79-7.4,13.68,2.56,26.74-1,44.08,1.87,53.48,4.14,16.82-1,27.26,0,20.48-4.44,34.58-9.27,27.78-1,27.78-1,11.49,0,27.27-5.92,26.74-1.58,38.75.5,16.71-4.15,35.62-6.42,16.71,5.13,34.05,4.84,17.87,1,17.87,1,12.53,6.12,33.53,1,49.82,2.07,49.82,2.07,3.66,1.58,13.06.79,11.07,5.92,18.91,4.64,11.59,3.55,16.81,4.34,3.14,2.07,13.06-2.56,7.42-1.78,15.77-3.06,3.77,3.06,15.26,4.34,20.47-4.34,28.83-3.36,3.23,6.61,16.81,8.69,15.25-3.85,15.25-3.85l8.88-2.86s12.54,2.07,14.73-2.57,15.25-2.07,15.25-2.07,10,5.92,16.3,5.13,15.25,3.06,17.86,2.27a49.71,49.71,0,0,1,6.79-1.28s10.45,2.56,11.49-.3,16.82-4.14,16.82-4.14,15.25,1.08,15.25-2.27,4.18-6.71,12.53-7.21,12.64-2.26,17.87-5.62,15.25-1.28,15.25-1.28,15.25-1.48,22.56-4.84,9-1.48,20.47-.49,13.06,2.57,28.83-2.07,28.83,4.34,37.19,5.62,4.18,1.78,12,3.36,11.6-1.58,20.48-2.57,12,3.06,12,3.06,6.27,5.43,10.44,3.35,14.73-2.86,19.43-2.56,3.14,1.28,11.49,5.62.53,4.64,10.45,6.42,10-2.27,20.47-.5-1.56,2.77,7.31,5.63,13.69,6.9,14.73,4.63,3.74-2.1,10.79-3.72V60.87c-1.4-.85-3.29-1.88-5.87-3.12C3820,50.94,3826.72,62.78,3811.15,68.11Z"/><path class="cls-3" d="M3829.21,165.77c-1,2.27-5.74-1.77-14.73-4.63s3.14-3.85-7.31-5.63-10.44,2.27-20.47.5-2.09-2.08-10.45-6.42-6.79-5.42-11.49-5.62-15.25.49-19.43,2.56-10.44-3.35-10.44-3.35-3.14-4.14-12-3.06-12.54,4.15-20.48,2.57-3.65-2.08-12-3.36-21.52-10.26-37.19-5.62-17.34,3.06-28.83,2.07-13-2.86-20.47.49-22.56,4.84-22.56,4.84-9.93-2.07-15.25,1.28-9.41,5.13-17.87,5.62-12.53,3.85-12.53,7.21-15.25,2.27-15.25,2.27-15.78,1.28-16.82,4.14-11.49.3-11.49.3a49.71,49.71,0,0,0-6.79,1.28c-2.61.79-11.49-3.06-17.86-2.27s-16.3-5.13-16.3-5.13-13-2.57-15.25,2.07-14.73,2.57-14.73,2.57l-8.88,2.86s-1.56,5.92-15.25,3.85-8.35-7.7-16.81-8.69-17.34,4.64-28.83,3.36-6.79-5.63-15.26-4.34-5.74-1.58-15.77,3.06-7.83,3.35-13.06,2.56-8.87-5.62-16.81-4.34-9.4-5.43-18.91-4.64-13.06-.79-13.06-.79-28.83-7.2-49.82-2.07-33.53-1-33.53-1-.53-1.28-17.87-1-15.25-7.21-34.05-4.84-23.61,8.49-35.62,6.42-23.08-6.42-38.75-.5-27.27,5.92-27.27,5.92-13.58-3.85-27.78,1-24.13,10.26-34.58,9.27-17.86,2.27-27.26,0-40.32-7.69-53.48-4.14-8.88-.79-26.74,1-25.18,5.92-27.79,7.4-10.44-1.78-18.38.79-32,4.83-38.76,3.84-28.83,1.78-33,3.06-11-13.81-41.37-12.33-46.17-5.13-62.88-6.91-7.31-6.11-38.23-6.9-20,2.56-37.19,1.57-7.31-5.42-29.35-3.05S2507,156.3,2502.29,155s-56.61-7.2-70.19,3.06-6.27,10.75-32,12.53-36.66,4.34-41.88,7.2-28.83,2.86-36.14,3.36-24.66,9-34.58,15.39-23.08,10.56-30.92,11.25-11.49,2.56-15.77,5.92-17.34,6.41-25.18,6.71-12,1.77-21,7.4-11.49-1.29-48.26.49-37.71,4.14-61.84,4.34-4.7-9.18-39.59-4.44-26.64,9.77-48.88,5.43-21.52-6.91-31.13-5,3.65,1.48-13.37,2.86-12.54-.79-20.89-1.09-21.52,1.78-24.66,4.24-8.35,7.4-12,3.75-18.59-7.4-26.43-4.34-19.43,3.55-26.74,1.78-8.35-3.06-18.9-3.06-16.3,2.56-16.3,2.56a25.06,25.06,0,0,0-11.49-1.57c-6.27.79-8.88,2.86-8.88,2.86s-19.43-5.63-29.35-3.06-31.44,4.34-41.37,3.55-5.22-5.43-15.25-3.35-24.13,1-36.66-2.57-29.88-10.56-40.84-8.68-13.06-3.55-13.06-3.55-9.92-17.17-53-13.62-4.18-1.58-22-5.92-36.14-8.49-44.6-6.41-14.11,3.84-14.11,3.84-18.9-8-38.23-6.9-36.66-5.63-36.66-5.63-13.06-5.42-32-3.84-47.74-7.7-47.74-7.7-7.31-3.35-33-4.34-72.81-9.28-83.36-6.71-58.18-13.12-58.18-13.12a161.45,161.45,0,0,1-38.23-4.84c-20-5.13-32.49-11.54-51.91-12.53s-30.4-2.27-39.8-4.83,1-4.35-22-2.57-16.3,2.57-26.74-1-19.43-3-29.36-1.28-6.79,3.06-30.39,1.58-14.73-3.85-30.92-1-18.91,3.06-35.1,3.06-56.62,4.34-62.36,9-.52,4.34-12.54,6.12-45.12,1-53.48-.49-9.92-8-25.17-5.14-17.86,4.84-28.83,4.15-7.84-4.15-19.95-3.36-2.61,1.78-15.78,2.27-12.53-4.14-22-2.86-1,6.91-11,4.34-8.88-8.48-18.91-7.4-10.34,8.39-23.71,9.18-34.89-1.09-39.28,4.74,7.42,10.55-7.41,12.33-19.33-2.57-28.21-1.09-11.07,6.22-28.93,5-6.69-4.74-22.25-4.35-17,10.17-27.47,2.17-20.79.4-20.79.4,1.46,2.17-7.42.39-10.34-6.21-20.05-3.25-12.64-1.48-12.64-1.48-8.15-1.78-8.88.69,0,4.73-6.69,2.17-2.92-6.51-13.37-5.43-10.34,5-10.34,5,0-6.21-21.52-1.08-51.91,1.78-60.79,8-31.13,1.48-31.13,1.48a266.81,266.81,0,0,0-30.39,2.86c-15.57,2.57-34.89-5.42-43.77-8.68s-14.1,3.95-33.32-.69-17-9.77-33.33-6.91-6.68,7.3-22.24,2.86C4.5,152.59,7,145.41,0,146.26v51.48c7.28-1,4.62,6.35,17.7,10.06,15.53,4.5,5.84,0,22.19-2.9s14.07,2.2,33.35,7,24.48-2.6,33.34.7,28.23,11.4,43.76,8.8a263.12,263.12,0,0,1,30.42-2.9s22.29,4.8,31.15-1.5,39.28-3,60.74-8.1,21.47,1.1,21.47,1.1,0-4,10.42-5.1,6.66,2.9,13.33,5.5,5.94.4,6.67-2.2,8.86-.7,8.86-.7,3,4.4,12.61,1.5,11.14,1.5,20,3.3,7.4-.4,7.4-.4,10.33-8.5,20.74-.4,11.88-1.8,27.41-2.2,4.38,3.3,22.19,4.4,20-3.6,28.87-5.1,13.34,2.9,28.14,1.1,2.92-6.6,7.4-12.5,25.94-4.1,39.28-4.8,13.7-8.3,23.66-9.3,8.95,4.9,18.91,7.5,1.55-3.1,11-4.4,8.95,3.4,22,2.9,3.66-1.5,15.72-2.3,8.95,2.6,19.91,3.4,13.7-1.3,28.87-4.2,16.71,3.6,25.12,5.2,41.38,2.3,53.44.5,6.85-1.5,12.6-6.2,46.14-9.1,62.4-9.1,18.81-.2,35.07-3.1,7.4-.6,31,1,20.46.2,30.42-1.6,18.82-2.3,29.33,1.3,3.74,2.8,26.76,1,12.61,0,22,2.6,20.46,3.9,39.82,4.9,32,7.5,51.89,12.7a159.8,159.8,0,0,0,38.28,4.9s47.68,15.9,58.19,13.3,57.64,5.8,83.31,6.8,33,4.4,33,4.4,28.77,9.4,47.68,7.8,32,3.9,32,3.9,17.36,6.7,36.73,5.7,38.27,7,38.27,7,5.76-1.8,14.16-3.9,26.77,2.1,44.58,6.5-21,9.6,22,6,53,13.8,53,13.8,2,5.4,13.06,3.6,28.32,5.2,40.93,8.8,26.76,4.7,36.72,2.6,5.21,2.6,15.16,3.4,31.43-1,41.39-3.6,29.32,3.1,29.32,3.1,2.65-2.1,9-2.9a24.71,24.71,0,0,1,11.51,1.6s5.76-2.6,16.26-2.6,11.6,1.3,18.91,3.1,18.91,1.3,26.77-1.8,22.83.6,26.49,4.4,9-1.3,12.06-3.8,16.26-4.6,24.66-4.3,3.84,2.6,20.92,1.1,3.75-1.1,13.34-2.9,8.95.7,31.15,5.1,14.16-.7,49-5.5,15.44,4.8,39.56,4.5,25.12-2.6,61.84-4.4,39.28,5.2,48.23-.5,13.16-7.2,21-7.5,20.92-3.4,25.13-6.8,7.85-5.2,15.71-6,21-4.9,31-11.4,27.31-15.1,34.62-15.6,31-.5,36.17-3.4,16.26-5.5,41.93-7.3,18.36-2.3,32-12.7,65.5-4.4,70.25-3.1.55-1.9,22.57-4.2,12.05,2.1,29.32,3.1,6.21-2.4,37.18-1.6,21.47,5.2,38.28,7,32.52,8.6,62.94,7,37.17,13.8,41.38,12.5,26.12-4.1,33-3.1,31-1.3,38.83-3.9,15.71.8,18.36-.8,10-5.7,27.77-7.5,13.7,2.6,26.77-1,44,1.9,53.44,4.2,16.71-1,27.22,0,20.46-4.5,34.62-9.4,27.77-1,27.77-1,11.51,0,27.22-6,26.77-1.6,38.83.5,16.71-4.2,35.62-6.5,16.81,5.2,34.08,4.9,17.81,1,17.81,1,12.52,6.2,33.53,1,49.78,2.1,49.78,2.1,3.66,1.6,13.06.8,11.06,6,18.91,4.7,11.61,3.6,16.81,4.4,3.11,2.1,13.07-2.6,7.3-1.8,15.71-3.1,3.65,3.1,15.16,4.4,20.46-4.4,28.87-3.4,3.2,6.7,16.81,8.8,15.16-3.9,15.16-3.9l8.95-2.9s12.61,2.1,14.71-2.6,15.17-2.1,15.17-2.1,10,6,16.26,5.2,15.16,3.1,17.81,2.3a50.72,50.72,0,0,1,6.85-1.3s10.51,2.6,11.51-.3,16.81-4.2,16.81-4.2,15.16,1.1,15.16-2.3,4.21-6.8,12.61-7.3,12.61-2.3,17.81-5.7,15.17-1.3,15.17-1.3,15.25-1.5,22.56-4.9,8.95-1.5,20.46-.5,13.16,2.6,28.87-2.1,28.78,4.4,37.18,5.7,4.2,1.8,12.06,3.4,11.51-1.6,20.46-2.6,12.06,3.1,12.06,3.1,6.3,5.5,10.5,3.4,14.62-2.9,19.37-2.6,3.11,1.3,11.51,5.7.55,4.7,10.51,6.5,9.95-2.3,20.46-.5-1.65,2.8,7.31,5.7,13.61,7.1,14.7,4.7c1-2.23,3.78-2.13,10.9-3.79V162.05C3833,163.67,3830.18,163.58,3829.21,165.77Z"/><path class="cls-4" d="M0,533.77c5.6-.06,4.12-7.21,16.33-11,15.57-4.8,6,0,22.25,3.2s14-2.4,33.32-7.6,24.45,2.8,33.33-.8,28.2-12.4,43.76-9.6a229.61,229.61,0,0,0,30.4,3.2s22.25-5.2,31.13,1.6,39.27,3.2,60.79,8.8,21.52-1.2,21.52-1.2,0,4.4,10.34,5.6,6.69-3.2,13.37-6,6-.4,6.69,2.4,8.88.8,8.88.8,3-4.8,12.64-1.6,11.17-1.6,20.05-3.6,7.42.4,7.42.4,10.44,9.2,20.78.4,11.91,2,27.48,2.4,4.49-3.6,22.25-4.8,20,4,28.93,5.6,13.37-3.2,28.2-1.2,2.93,7.2,7.42,13.6,25.91,4.4,39.28,5.2,13.78,9,23.71,10.1,9-5.4,18.9-8.2,1.57,3.4,11,4.8,9-3.7,22-3.1,3.76,1.7,15.78,2.5,9-2.9,19.95-3.7,13.58,1.4,28.83,4.5,16.81-3.9,25.17-5.6,41.47-2.6,53.48-.6,6.79,1.7,12.54,6.8,46.17,9.9,62.36,9.9,18.8.3,35.1,3.4,7.31.6,30.92-1.1,20.47-.3,30.39,1.7,18.91,2.5,29.35-1.4,3.66-3.1,26.75-1.1,12.63,0,22-2.8,20.36-4.3,39.79-5.4,32-8.2,51.92-13.8a146.66,146.66,0,0,1,38.23-5.4s47.74-17.2,58.18-14.4,57.66-6.2,83.36-7.3,33-4.8,33-4.8,28.83-10.2,47.73-8.5,32-4.2,32-4.2,12,5.3,31.44,6.4,31.34,6.3,31.34,6.3,20.89,8.5,29.24,10.8,20.79,2.9,38.65-1.9-20.89-10.4,22-6.5,53-14.9,53-14.9,2.09-5.9,13.06-3.9,28.31-5.7,40.84-9.6,26.74-5.1,36.67-2.8,5.32-2.9,15.25-3.7,31.44,1.1,41.36,3.9,29.35-3.4,29.35-3.4,2.62,2.3,8.88,3.1a22.69,22.69,0,0,0,11.49-1.7s5.85,2.8,16.3,2.8,11.59-1.4,18.91-3.4,18.9-1.4,26.74,2,22.77-.7,26.42-4.8,8.88,1.4,12,4.1,16.29,5,24.65,4.7,3.86-2.8,20.89-1.2,3.76,1.2,13.37,3.2,8.88-.8,31.13-5.6,14,.8,48.88,6,15.46-5.2,39.59-4.9,25.18,2.8,61.84,4.8,39.38-5.6,48.26.6,13.16,7.9,21,8.2,20.89,3.6,25.17,7.3,7.94,5.7,15.77,6.5,26.95-4.8,36.88,2.2,24.34-11.7,31.65-11.1,30.92.6,36.14,3.7,16.19,5.9,41.89,7.9,18.38,2.5,32,13.8,65.5,4.8,70.2,3.4.52,2,22.56,4.5,12-2.3,29.35-3.4,6.27,2.5,37.19,1.7,21.41-5.6,38.23-7.6,32.49-9.3,62.88-7.6,37.19-14.9,41.37-13.5,26.22,4.5,33,3.4,30.92,1.4,38.75,4.2,15.77-.9,18.38.8,9.93,6.2,27.79,8.2,13.68-2.8,26.74,1.1,44.08-2,53.48-4.5,16.82,1.1,27.27,0,20.47,4.7,34.57,10.1,27.79,1.1,27.79,1.1,11.49,0,27.26,6.5,26.74,1.7,38.75-.6,16.72,4.5,35.62,7,16.72-5.7,34.06-5.4,17.86-1.1,17.86-1.1,12.53-6.7,33.53-1.1,49.83-2.3,49.83-2.3,3.65-1.6,13-.8,11.07-6.5,18.91-5.1,11.59-4,16.82-4.8,3.13-2.3,13.05,2.8,7.42,2,15.78,3.4,3.76-3.4,15.25-4.8,20.47,4.8,28.83,3.7,3.24-7.3,16.82-9.6,15.25,4.2,15.25,4.2l8.88,3.1s12.53-2.3,14.72,2.8,15.25,2.3,15.25,2.3,10-6.4,16.3-5.6,15.25-3.3,17.86-2.5a57.13,57.13,0,0,0,6.79,1.4s10.45-2.8,11.49.3,16.82,4.5,16.82,4.5,15.25-1.2,15.25,2.5,4.18,7.3,12.54,7.9,12.63,2.5,17.86,6.2,15.25,1.4,15.25,1.4,15.25,1.7,22.56,5.4,9,1.7,20.47.6,13.06-2.8,28.83,2.3,28.84-4.8,37.19-6.2,4.18-2,12-3.7,11.6,1.7,20.48,2.8,12-3.4,12-3.4,6.27-6,10.45-3.7,14.72,3.1,19.43,2.8,3.13-1.5,11.49-6.2.52-5,10.44-7,10,2.6,20.47.6-1.56-3.1,7.32-6.2,13.68-7.6,14.73-5.1,4,2.22,11.82,4.31V360.22l-913.59-1.48L0,363.1Z"/><path class="cls-5" d="M3829.1,217.5c-1.09,2.4-5.75-1.8-14.7-4.7s3.1-3.9-7.31-5.7-10.51,2.3-20.46.5-2.11-2.1-10.51-6.5-6.85-5.5-11.51-5.7-15.16.5-19.37,2.6-10.5-3.4-10.5-3.4-3.11-4.2-12.06-3.1-12.61,4.2-20.46,2.6-3.66-2.1-12.06-3.4-21.47-10.4-37.18-5.7-17.27,3.1-28.87,2.1-13.06-2.9-20.46.5-22.56,4.9-22.56,4.9-10-2.1-15.17,1.3-9.41,5.2-17.81,5.7-12.61,3.9-12.61,7.3-15.16,2.3-15.16,2.3-15.71,1.3-16.81,4.2-11.51.3-11.51.3a50.72,50.72,0,0,0-6.85,1.3c-2.65.8-11.51-3.1-17.81-2.3s-16.26-5.2-16.26-5.2-13.07-2.6-15.17,2.1-14.71,2.6-14.71,2.6l-8.95,2.9s-1.55,6-15.16,3.9-8.41-7.8-16.81-8.8-17.27,4.7-28.87,3.4-6.85-5.7-15.16-4.4-5.76-1.6-15.71,3.1-7.86,3.4-13.07,2.6-8.95-5.7-16.81-4.4-9.4-5.5-18.91-4.7-13.06-.8-13.06-.8-28.87-7.3-49.78-2.1-33.53-1-33.53-1-.55-1.3-17.81-1-15.17-7.3-34.08-4.9-23.57,8.6-35.62,6.5-23-6.5-38.83-.5-27.22,6-27.22,6-13.61-3.9-27.77,1-24.12,10.4-34.62,9.4-17.81,2.3-27.22,0-40.38-7.8-53.44-4.2-9-.8-26.77,1-25.12,6-27.77,7.5-10.51-1.8-18.36.8-32,4.9-38.83,3.9-28.86,1.8-33,3.1-11-14-41.38-12.5-46.14-5.2-62.94-7-7.31-6.2-38.28-7-19.91,2.6-37.18,1.6S2547,200,2525,202.4s-17.82,5.5-22.57,4.2-56.63-7.3-70.25,3.1-6.3,10.9-32,12.7-36.72,4.4-41.93,7.3-28.86,2.9-36.17,3.4-24.67,9.1-34.62,15.6-23,10.7-31,11.4-11.51,2.6-15.71,6-17.27,6.5-25.13,6.8-12.05,1.8-21,7.5-11.51-1.3-48.23.5-37.73,4.2-61.84,4.4-4.66-9.3-39.56-4.5-26.67,9.9-49,5.5-21.47-7-31.15-5.1,3.74,1.5-13.34,2.9-12.51-.8-20.92-1.1-21.47,1.8-24.66,4.3-8.41,7.5-12.06,3.8-18.64-7.5-26.49-4.4-19.37,3.6-26.77,1.8-8.4-3.1-18.91-3.1-16.26,2.6-16.26,2.6a24.71,24.71,0,0,0-11.51-1.6c-6.3.8-9,2.9-9,2.9s-19.37-5.7-29.32-3.1-31.43,4.4-41.39,3.6-5.2-5.5-15.16-3.4-24.12,1-36.72-2.6-29.87-10.7-40.93-8.8-13.06-3.6-13.06-3.6-10-17.4-53-13.8-4.21-1.6-22-6-36.17-8.6-44.58-6.5-14.16,3.9-14.16,3.9-18.91-8.1-38.27-7-36.73-5.7-36.73-5.7-13.06-5.5-32-3.9-47.68-7.8-47.68-7.8-7.31-3.4-33-4.4-72.9-9.4-83.31-6.8-58.19-13.3-58.19-13.3a159.8,159.8,0,0,1-38.28-4.9c-19.91-5.2-32.52-11.7-51.89-12.7s-30.41-2.3-39.82-4.9,1-4.4-22-2.6-16.26,2.6-26.76-1-19.37-3.1-29.33-1.3-6.85,3.1-30.42,1.6-14.71-3.9-31-1-18.91,3.1-35.07,3.1-56.64,4.4-62.4,9.1-.54,4.4-12.6,6.2-45,1-53.44-.5-10-8.1-25.12-5.2-17.82,4.9-28.87,4.2-7.86-4.2-19.91-3.4-2.65,1.8-15.72,2.3-12.6-4.2-22-2.9-1,7-11,4.4-9-8.6-18.91-7.5-10.33,8.5-23.66,9.3-34.81-1.1-39.28,4.8,7.39,10.7-7.4,12.5-19.28-2.6-28.14-1.1-11.14,6.3-28.87,5.1-6.66-4.8-22.19-4.4-17.09,10.3-27.41,2.2-20.74.4-20.74.4,1.47,2.2-7.4.4S355.6,206,346,209s-12.61-1.5-12.61-1.5-8.13-1.8-8.86.7,0,4.8-6.67,2.2-2.92-6.6-13.33-5.5-10.42,5.1-10.42,5.1,0-6.3-21.47-1.1-51.88,1.8-60.74,8.1-31.15,1.5-31.15,1.5a263.12,263.12,0,0,0-30.42,2.9c-15.53,2.6-34.81-5.5-43.76-8.8s-14.07,4-33.34-.7-17.09-9.9-33.35-7-6.66,7.4-22.19,2.9C4.62,204.09,7.28,196.71,0,197.74V363.1l2926.41-4.36L3840,357.38V213.71C3832.88,215.37,3830.12,215.27,3829.1,217.5Z"/></g></g></svg>