<svg xmlns="http://www.w3.org/2000/svg" viewBox="0 0 715.14 230.94"><defs><style>.cls-1{fill:#e8f1f8;}.cls-2{fill:#fefffa;}</style></defs><title>cloud-5</title><g id="Layer_2" data-name="Layer 2"><g id="svg1266"><g id="g2085"><path id="path2051" class="cls-1" d="M268.6,229.9c-12.07-1.74-25.86-8-25.86-11.81,0-1.46-.81-1.6-5.68-.8-6.87,1.13-13,.28-17.51-2.45a14.7,14.7,0,0,0-5-2c-.9,0-5.87,3.06-11,6.77-8.88,6.45-9.73,6.83-18.37,8-12.41,1.69-31.35,1.55-40.51-.38-10.59-2.21-21.51-5.88-22.56-7.63-.91-1.55-7.26-2.07-7.26-.56,0,1.36-14.69,4.47-27.43,5.84-14.27,1.46-28,0-31.54-3.44-2-2-2-2.21-.28-4.14s1.52-2.07-13.08-2.78c-18.18-.89-28.67-2.92-33.82-6.45-3.82-2.59-8.4-8.76-7.35-9.79.28-.28,6.53-1.46,13.93-2.64,11.21-1.79,14.27-1.93,18.8-.84,8.49,2,22.42,7.2,25.91,9.69,3,2.17,4.05,2.22,20,1.7,21.43-.71,34.83-4.19,43-11.16,4.68-4-5.68-24.85-3.81-29.56,1-2.73,20.08,5.74,20.46,5.74s7,1.22,14.75,2.73c19.75,3.81,36.11,5.84,47.66,5.84,8.44,0,10.69-.38,15.51-2.78,6.68-3.29-23-9.88-18.85-18.41-131.92-12.14,36.88-19.67,37.69-29.75l38.7,22c5.15,6.4-15.27,23.68-6.16,28.1,10.26,5,19.51,7.34,29.34,7.39,11.5.05,17.75-1.83,23.57-7.2l2.82-2.59,2.81,2.21c9.78,7.63,28,10.92,35.26,6.45,3.63-2.26-25.24-5.55-25.24-9.65,0-1.22-.48-5.6.29-5.84,15.36-4.7,54.44-5.88,61.59-9.55,11.5-5.93-38.5-23.49-37.55-36.58l32.64-25.19,61,27.83c10,13-11,30.08,2.1,33.8,8,2.26,18.61,2.35,23.9.14,3.87-1.6,4.3-1.6,7,.37,1.57,1.13,5.82,2.83,9.4,3.72,7.68,2,24,3.3,28.05,2.26,4.34-1.08-4.58-18.69-1.72-24.71l22.19-15.91,3.91,6.35c9.11,14.78,12.41,42.84,30.11,49.71,9.3,3.58,12.26,4.24,18.94,4.24,9.35,0,22-2.82,33.4-7.39a83.17,83.17,0,0,1,9.11-3.3c.53,0,3.1,1.7,5.68,3.77,5.53,4.47,13.79,8.24,22.09,10.07,10.73,2.36,31.77-2.77,28,2-7.53,9.37-59.21,23.68-72.9,21.14-2.81-.52-3.86-1.27-3.86-2.73s-1.72-.33-6.44,4.33a56.67,56.67,0,0,1-30.87,15.2c-10,1.42-44.42-1.31-51.1-4a36,36,0,0,1-18.37-16.39c-.1-.14-6.35.71-13.88,1.93-16.56,2.64-20.9,2.12-34.21-4.23-9.07-4.33-16.46-5.65-18-3.2-1.86,3-23.43,18.78-29.2,21.42l-6.49,3-24.9-1c-29.2-1.17-40.85-2.87-46.76-6.82-5.44-3.63-7.16-3.49-10.83.89-2,2.31-6,4.85-10.83,7-7.73,3.29-7.92,3.29-26,3.15-10.16,0-21.13-.52-24.47-1Z"/><path id="path2053" class="cls-2" d="M55.43,203.82c-14.84-7.06-22.81-8.23-40.32-5.88-17,2.26-17.08,2.21-12.6-15.35,3.49-13.6,8-16.8,21.9-15.53,6.3.56,12.93,1.69,14.7,2.45,2.72,1.13,3.15-.33,2.48-8.48-.67-8.38.09-10.73,5.15-16,7.64-7.86,19.61-13.46,25.58-11.95,3.24.84,6.58-.66,11.16-5C100.32,112.31,129,106.1,144.31,115l7.78,4.52,6.53-6.45c6.64-6.54,36.55-7.06,36.55-3.2,0,1.18-17-2.12-15.89-2.12s-4.62-1.88-2.76-8.14c3.86-13.09,10.68-23.82,19.08-29.94,4.3-3.16,10.4-4.57,22.76-5.27l16.89-1,6.25-13.56c12.17-26.5,27.1-38.41,57.78-46,15-3.72,22.28-4.33,43.13-3.44,14,.62,30,2.59,36.26,4.57C394,9.73,410,20.75,415.07,30l4.2,7.77s17.13-5.41,26.05-5.65c12.41-.33,25.72.33,36.64,6,10.45,5.41,22.52,17.13,24.58,25.18,1.43,5.65,2.52,5.89,8.2,1.6,10.5-7.81,38.08-.47,38.08,10.22,0,4.75.43,4.85,20.37,4.09,44.61-1.6,66.46,10.64,74.91,42l2.48,9.18,6.68-4.7c12.74-9,34.68-7.54,46.71,3.06,7.25,6.4,12.11,23.2,11,38.13-.77,10.64-2,13.79-7.49,19.2a26.26,26.26,0,0,1-15.27,7.63c-10.93,1.46-31.83-4.33-41.32-11.39l-7.06-5.27-16.08,5.46c-21.33,7.25-33.59,7.1-50-.66-14.36-6.78-21.95-13.8-29.82-27.59l-5.25-9.13-3.91,8.52c-6.35,13.93-9.78,15.82-26,14.54-7.88-.61-16.61-2.73-19.76-4.75-4.72-3.06-6.63-3.2-11.92-1-17.32,7.11-45.28-7.62-62.17-32.71-3-4.43-6.06-8-6.82-8s-1.05,6.12-.58,13.61c.53,7.86-.19,15.53-1.62,18.17-3,5.41-19.42,14.08-33.49,17.56-8.16,2-10,3.39-10,7.25,0,5.93-6.35,11.81-12.69,11.81-6.11,0-19.52-5.5-24.91-10.26-3.15-2.73-4.44-3-5.15-.94-1.72,4.8-13.07,9-24.24,9-17.79,0-33.78-7.3-49.86-22.79-7.77-7.48-14.26-13.6-14.45-13.6s-1,3-1.72,6.68-5.15,10.41-9.78,15c-8.16,8.05-8.88,8.29-23.29,8.24a223.88,223.88,0,0,1-32.2-3.2c-34.73-6.26-32.59-6.17-33-1-.43,5.69-9.78,18.07-17.27,22.92C111,204.58,89.06,209.28,76,209.1c-5.58,0-14.31-2.31-20.56-5.28Z"/></g></g></g></svg>