<svg xmlns="http://www.w3.org/2000/svg" viewBox="0 0 552.29 173.85"><defs><style>.cls-1{fill:#e5eff6;}.cls-2{fill:#fffefa;}</style></defs><title>cloud-4</title><g id="Layer_2" data-name="Layer 2"><g id="svg1266"><g id="g4821"><path id="path2115-4" class="cls-1" d="M300.18,173.26c-24.6-2.27-41-6.61-47.8-12.83l-1.9-1.77-10.4,3.55c-18.5,6.21-30.6,7.79-44.9,5.62-11.1-1.67-20.5-4.14-25.2-6.71l-3.6-2-2.2,1.68c-4.5,3.55-11.3,5.13-21.3,5a78.42,78.42,0,0,1-13-.89c-3-.69-5.2-.39-12.1,1.19-25.7,6.21-45.8,5.92-60.2-1.09-4.5-2.17-11.4-8-12.1-10.26-.3-.89-1.3-.69-4.8,1.08-5.1,2.57-12.9,4.74-17.1,4.74a55.41,55.41,0,0,1-8.5-1c-4.6-.79-6-1.48-8.1-3.75-2.5-2.76-7.7-11.24-6.9-11.24a14.5,14.5,0,0,1,3.2,1.67c4.7,2.77,13.2,4.34,18.7,3.46s14.4-4.25,20.8-7.8l4.5-2.46,2.1,2.46c3.1,3.55,6.4,4.64,12.7,4.15,5.7-.5,15.1-4.54,16.9-7.4.8-1.29,1.1-1.19,3.8.59,5.6,3.75,12.5,3.45,22.2-1,4-1.87,4.8-2,5.9-.89,2.2,2,9.1,3.26,14.7,2.77,9.8-.89,24.1-9.67,27-16.58l1-2.47,4.2,3.65a40.06,40.06,0,0,0,19,9.18c6.3,1.09,15.6-.49,26.8-4.34l7-2.47,6.8,3.26c9.8,4.64,14.5,5.52,23.4,4.24a50.61,50.61,0,0,0,9.5-2.17c2.4-1.28,7.3-6.12,10.1-10.06,1.7-2.37,2-2.47,8.7-2.67,11.4-.29,14.1-3.25,17.5-19.53.4-1.88.6-1.78,4.8,2.17,5.3,4.93,13.7,10.65,19.1,13,7.4,3.26,22.2,1.88,33.1-3.06l4.3-2-.4,3.65c-.4,3.16,14.3-18.65,16.4-16.77,1.7,1.57-11.2,24.66-8.6,24.66,3.6,0,10-2.37,11.1-4.14.4-.59,1.2,0,2.1,1.77.8,1.48,30.4-16.47,32-15.39,3.7,2.47-19.8,22.2-7.6,18.16,4.7-1.58,8.9-2.86,9.1-2.86s.5.88.5,1.87c0,2.76,12.3-14,16-12.53,4.4,1.78-2.2,18.85,3,15.59l4-2.47,3.1,2.27c1.7,1.28,4.6,3.65,6.3,5.23,3.2,3,3.2,3.06,10.6,3a85.1,85.1,0,0,0,20.6-3.25c.8-.2,12.6-11.06,13.7-8.79,3.1,6.61-1.4,19,17.2,14.31,5.2-1.28,9.5-2.37,9.5-2.27a27.55,27.55,0,0,0,1.3,2.57,13.48,13.48,0,0,0,9,6.41c4.7,1.09,16.5,1,20-.2,4.1-1.38,8-5.33,10.3-10.46,1.1-2.46,2.2-4.53,2.5-4.53s1.2,1.77,1.9,3.84c1.7,4.84.7,9.87-3,15.59-3.2,4.94-7.4,8.29-14.6,11.55-10.6,4.93-21.6,5.13-27.4.69-1.2-1-2.3-1.58-2.5-1.38s-1.1,1.67-2.1,3.45c-3.5,5.72-9.4,8.29-12,5.23-.9-1.09-.8-1.78.3-4.15,1.7-3.55,1.3-3.65-6.7-.88-10.5,3.55-25.2,6.61-31.8,6.71-5.3.09-7.2-.3-11.4-2.27a48.67,48.67,0,0,1-7.8-4.44l-2.7-2.08-4.1,2.08a40.25,40.25,0,0,1-18.5,3.94c-7.7.1-11.9-1.18-17.5-4.93-2.9-2-4.6-2.66-4.8-2.07-1.6,4.73-15.4,11-31.6,14.4-9.5,2.17-39.1,3.06-53.1,1.78Z"/><path id="path2117-5" class="cls-2" d="M9.48,152.54c-8.8-3.55-9.8-5.82-6.2-13.42,2.6-5.33,6.4-9,12.8-11.94,4.5-2.07,6-2.37,12.7-2.27a40.55,40.55,0,0,1,11,1.29c3.3,1.18,3.5,1.18,10.2-1.88,8.9-4.14,19.2-6.22,27.1-5.43a86.9,86.9,0,0,1,25,6.42c3,1.38,5.6,2.46,5.7,2.46a19.46,19.46,0,0,0,1.2-3.84c2.1-8.29,8.4-17.67,14.2-20.92,4.9-2.86,13-3,19.9-.4a44.91,44.91,0,0,0,5.3,1.78c.4,0,.6-1.78.6-4a35.63,35.63,0,0,1,1.3-8.38c1.7-5.53,4.9-7.9,11.2-8.39,3.2-.29,4.5-.69,4.2-1.38-4-10.36-6.2-24.27-4.9-30.59,1.8-8.38,7.7-16.47,14.8-20.13,3.1-1.57,4.2-3,7.3-8.88,4.3-8.28,11.9-16.67,18.1-20.12C205.28.1,206.08,0,214.88,0c10.9,0,17,1.87,22.3,6.81,3,2.76,3.3,2.86,5.3,1.68,9.6-5.53,10.3-5.83,17.4-5.33,17.2,1.18,44.7,13.12,56.3,24.57a38.28,38.28,0,0,1,11.3,21.11l.9,5.13,4-3c9.9-7.5,22.7-11.25,32.5-9.57,11,1.87,22.3,9.27,25.6,16.67a13.32,13.32,0,0,0,2,3.56,10,10,0,0,0,2.5-1.38c2.6-1.68,10.3-1.19,16.9,1.08,5.7,1.88,10.9,7.2,12.2,12.24l1,3.84,7.5-.39c24-1.38,43.6,12.33,49.9,34.83.8,2.86,1.8,5.23,2.2,5.23a.8.8,0,0,0,.7-.89c0-1.68,5.9-3.35,11.7-3.26a23.24,23.24,0,0,1,20.6,11.45c.9,1.48,1,1.48,1.8,0,2.6-4.24,7.9-6.51,15.7-6.51,5.9,0,10.2,2.86,14.3,9.47,1.4,2.27,1.4,2.47-1.3,8.19-4.8,10.26-9.1,12.33-23,11.44-8.1-.59-11.6-2.27-13.9-7l-1.7-3.36-5.1,1.58c-6.5,2-20.8,4.84-24.1,4.84-3.7,0-8.6-4.34-8.6-7.7,0-2.07-.3-2.37-1.5-2-4.7,1.77-16.8,4-22.5,4.14-6.4.1-6.6,0-9.8-3-4.2-3.85-9.1-7.5-10.3-7.5a21.18,21.18,0,0,0-5.2,2.67c-4.9,3-10.2,3.55-14,1.58-2.2-1.19-2.3-1.48-1.8-4.94.5-3.25.3-3.65-1-3.06a183.92,183.92,0,0,1-21.7,7.11c-4.4.89-5.2.79-7.6-.59a14.43,14.43,0,0,1-4.5-5.13l-1.8-3.56-2.2,1.68c-5.5,4.24-11.8,5.33-14.9,2.47-2.3-2.17-2.4-4.64-.1-8.19,1-1.58,1.5-3.06,1.3-3.26s-3.4.89-7.1,2.57c-8.8,4-15.3,5.62-23.6,5.62-6,0-7.6-.29-11.9-2.47-6.9-3.45-16.4-10.65-19.4-14.89-1.4-2-3-3.56-3.5-3.56s-1.4,2.87-1.9,6.42c-1.2,7.3-3.8,13.22-6.9,15.49-2.4,1.77-13.1,2.27-14.7.79-.6-.59-1.6.29-3.4,3.06-3.1,4.83-7.1,9.17-10.1,10.65a47.56,47.56,0,0,1-9.3,2.17c-8.3,1.19-12.9.2-23.4-4.93l-6.1-3-4.5,1.78c-12.5,4.93-24,6.7-31.4,4.83-7-1.78-12-4.74-17.5-10.36-2.9-3-4.5-4-4.5-3.16,0,4.15-5.6,10.86-12.7,15.2-10.2,6.21-23.8,7.3-28.5,2.17-1.4-1.58-1.6-1.58-6.8.89a59.63,59.63,0,0,1-9.9,3.45c-4.1.89-5,.79-8.4-.79a44.36,44.36,0,0,1-5.3-2.86c-1.2-.89-1.8-.69-3.6,1.28-3.4,3.55-12,7.3-17.1,7.3-4.9,0-9.3-2.17-10.8-5.42-.5-1.19-1.3-2.08-1.6-2.08a29.7,29.7,0,0,0-5.6,3c-13,7.4-25.5,9.48-35.2,5.53Z"/></g></g></g></svg>