<svg xmlns="http://www.w3.org/2000/svg" viewBox="0 0 552.29 176.1"><defs><style>.cls-1{fill:#e5eff6;}.cls-2{fill:#fffefa;}</style></defs><title>cloud-3</title><g id="Layer_2" data-name="Layer 2"><g id="svg1266"><g id="g12191"><path id="path12187" class="cls-1" d="M252.1,175.5c24.6-2.3,41-6.7,47.8-13l1.9-1.8,10.4,3.6c18.5,6.3,30.6,7.9,44.9,5.7,11.1-1.7,20.5-4.2,25.2-6.8l3.6-2,2.2,1.7c4.5,3.6,11.3,5.2,21.3,5.1,5.1,0,11-.4,13-.9,3-.7,5.2-.4,12.1,1.2,25.7,6.3,45.8,6,60.2-1.1,4.5-2.2,11.4-8.1,12.1-10.4.3-.9,1.3-.7,4.8,1.1,5.1,2.6,12.9,4.8,17.1,4.8a55.64,55.64,0,0,0,8.5-1c4.6-.8,6-1.5,8.1-3.8,2.5-2.8,7.7-11.4,6.9-11.4a14.29,14.29,0,0,0-3.2,1.7c-4.7,2.8-13.2,4.4-18.7,3.5s-14.4-4.3-20.8-7.9l-4.5-2.5-2.1,2.5c-3.1,3.6-6.4,4.7-12.7,4.2-5.7-.5-15.1-4.6-16.9-7.5-.8-1.3-1.1-1.2-3.8.6-5.6,3.8-12.5,3.5-22.2-1-4-1.9-4.8-2-5.9-.9-2.2,2-9.1,3.3-14.7,2.8-9.8-.9-24.1-9.8-27-16.8l-1-2.5-4.2,3.7a39.91,39.91,0,0,1-19,9.3c-6.3,1.1-15.6-.5-26.8-4.4l-7-2.5-6.8,3.3c-9.8,4.7-14.5,5.6-23.4,4.3a50,50,0,0,1-9.5-2.2c-2.4-1.3-7.3-6.2-10.1-10.2-1.7-2.4-2-2.5-8.7-2.7-11.4-.3-14.1-3.3-17.5-19.8-.4-1.9-.6-1.8-4.8,2.2-5.3,5-13.7,10.8-19.1,13.2-7.4,3.3-22.2,1.9-33.1-3.1l-4.3-2,.4,3.7c.4,3.2-14.3-18.9-16.4-17-1.7,1.6,11.2,25,8.6,25-3.6,0-10-2.4-11.1-4.2-.4-.6-1.2,0-2.1,1.8-.8,1.5-30.4-16.7-32-15.6-3.7,2.5,19.8,22.5,7.6,18.4-4.7-1.6-8.9-2.9-9.1-2.9s-.5.9-.5,1.9c0,2.8-12.3-14.2-16-12.7-4.4,1.8,2.2,19.1-3,15.8l-4-2.5-3.1,2.3c-1.7,1.3-4.6,3.7-6.3,5.3-3.2,3.1-3.2,3.1-10.6,3a83.86,83.86,0,0,1-20.6-3.3c-.8-.2-12.6-11.2-13.7-8.9-3.1,6.7,1.4,19.3-17.2,14.5-5.2-1.3-9.5-2.4-9.5-2.3a27.48,27.48,0,0,1-1.3,2.6,13.46,13.46,0,0,1-9,6.5c-4.7,1.1-16.5,1-20-.2-4.1-1.4-8-5.4-10.3-10.6-1.1-2.5-2.2-4.6-2.5-4.6s-1.2,1.8-1.9,3.9c-1.7,4.9-.7,10,3,15.8,3.2,5,7.4,8.4,14.6,11.7,10.6,5,21.6,5.2,27.4.7,1.2-1,2.3-1.6,2.5-1.4s1.1,1.7,2.1,3.5c3.5,5.8,9.4,8.4,12,5.3.9-1.1.8-1.8-.3-4.2-1.7-3.6-1.3-3.7,6.7-.9,10.5,3.6,25.2,6.7,31.8,6.8,5.3.1,7.2-.3,11.4-2.3a47.66,47.66,0,0,0,7.8-4.5l2.7-2.1,4.1,2.1a39.75,39.75,0,0,0,18.5,4c7.7.1,11.9-1.2,17.5-5,2.9-2,4.6-2.7,4.8-2.1,1.6,4.8,15.4,11.2,31.6,14.6,9.5,2.2,39,3.1,53.1,1.8Z"/><path id="path12189" class="cls-2" d="M542.7,154.6c8.8-3.6,9.8-5.9,6.2-13.6-2.6-5.4-6.4-9.1-12.8-12.1-4.5-2.1-6-2.4-12.7-2.3a40.47,40.47,0,0,0-11,1.3c-3.3,1.2-3.5,1.2-10.2-1.9-8.9-4.2-19.2-6.3-27.1-5.5a86,86,0,0,0-25,6.5c-3,1.4-5.6,2.5-5.7,2.5a20.05,20.05,0,0,1-1.2-3.9c-2.1-8.4-8.4-17.9-14.2-21.2-4.9-2.9-13-3-19.9-.4a44.79,44.79,0,0,1-5.3,1.8c-.4,0-.6-1.8-.6-4.1a36.53,36.53,0,0,0-1.3-8.5c-1.7-5.6-4.9-8-11.2-8.5-3.2-.3-4.5-.7-4.2-1.4,4-10.5,6.2-24.6,4.9-31-1.8-8.5-7.7-16.7-14.8-20.4-3.1-1.6-4.2-3-7.3-9C365,14.5,357.4,6,351.2,2.5,346.9.1,346.1,0,337.3,0c-10.9,0-17,1.9-22.3,6.9-3,2.8-3.3,2.9-5.3,1.7-9.6-5.6-10.3-5.9-17.4-5.4C275.1,4.4,247.6,16.5,236,28.1a39,39,0,0,0-11.3,21.4l-.9,5.2-4-3c-9.9-7.6-22.7-11.4-32.5-9.7-11,1.9-22.3,9.4-25.6,16.9a13.55,13.55,0,0,1-2,3.6,9.65,9.65,0,0,1-2.5-1.4c-2.6-1.7-10.3-1.2-16.9,1.1-5.7,1.9-10.9,7.3-12.2,12.4l-1,3.9-7.5-.4c-24-1.4-43.6,12.5-49.9,35.3-.8,2.9-1.8,5.3-2.2,5.3a.81.81,0,0,1-.7-.9c0-1.7-5.9-3.4-11.7-3.3a23.17,23.17,0,0,0-20.6,11.6c-.9,1.5-1,1.5-1.8,0-2.6-4.3-7.9-6.6-15.7-6.6-5.9,0-10.2,2.9-14.3,9.6-1.4,2.3-1.4,2.5,1.3,8.3,4.8,10.4,9.1,12.5,23,11.6,8.1-.6,11.6-2.3,13.9-7.1l1.7-3.4,5.1,1.6c6.5,2,20.8,4.9,24.1,4.9,3.7,0,8.6-4.4,8.6-7.8,0-2.1.3-2.4,1.5-2,4.7,1.8,16.8,4.1,22.5,4.2,6.4.1,6.6,0,9.8-3,4.2-3.9,9.1-7.6,10.3-7.6a21,21,0,0,1,5.2,2.7c4.9,3,10.2,3.6,14,1.6,2.2-1.2,2.3-1.5,1.8-5-.5-3.3-.3-3.7,1-3.1a182.29,182.29,0,0,0,21.7,7.2c4.4.9,5.2.8,7.6-.6a14.52,14.52,0,0,0,4.5-5.2l1.8-3.6,2.2,1.7c5.5,4.3,11.8,5.4,14.9,2.5,2.3-2.2,2.4-4.7.1-8.3-1-1.6-1.5-3.1-1.3-3.3s3.4.9,7.1,2.6c8.8,4.1,15.3,5.7,23.6,5.7,6,0,7.6-.3,11.9-2.5,6.9-3.5,16.4-10.8,19.4-15.1,1.4-2,3-3.6,3.5-3.6s1.4,2.9,1.9,6.5c1.2,7.4,3.8,13.4,6.9,15.7,2.4,1.8,13.1,2.3,14.7.8.6-.6,1.6.3,3.4,3.1,3.1,4.9,7.1,9.3,10.1,10.8a47,47,0,0,0,9.3,2.2c8.3,1.2,12.9.2,23.4-5l6.1-3,4.5,1.8c12.5,5,24,6.8,31.4,4.9,7-1.8,12-4.8,17.5-10.5,2.9-3,4.5-4.1,4.5-3.2,0,4.2,5.6,11,12.7,15.4,10.2,6.3,23.8,7.4,28.5,2.2,1.4-1.6,1.6-1.6,6.8.9a59.18,59.18,0,0,0,9.9,3.5c4.1.9,5,.8,8.4-.8a43.38,43.38,0,0,0,5.3-2.9c1.2-.9,1.8-.7,3.6,1.3,3.4,3.6,12,7.4,17.1,7.4,4.9,0,9.3-2.2,10.8-5.5.5-1.2,1.3-2.1,1.6-2.1a32.55,32.55,0,0,1,5.6,3c13.1,7.5,25.6,9.6,35.2,5.6Z"/></g></g></g></svg>