<svg xmlns="http://www.w3.org/2000/svg" viewBox="0 0 728.6 246.53"><defs><style>.cls-1{fill:#e8f1f8;}.cls-2{fill:#fefffa;}</style></defs><title>cloud-1</title><g id="Layer_2" data-name="Layer 2"><g id="svg1266"><g id="g2081"><path id="path2075" class="cls-1" d="M488.29,244.67c-1.82-1.31-8.35-3.43-14.51-4.66a112.8,112.8,0,0,1-21.94-7.48L441.1,227.3,429,231.07c-15.31,4.75-31.34,8.19-38.17,8.19-2.91,0-20.85-3.06-39.93-6.83-27.2-5.36-37-8-45.33-12l-10.68-5.13-33.55,8.33c-29.43,7.3-34.92,8.24-45,7.67-12.93-.7-26.38-5.5-39.22-14l-8-5.27-16,4.43c-34.11,9.5-59.68,10-87.74,1.6-15.84-4.71-16.17-4.76-30.49-3-17,2.12-23,.52-29.29-7.86-5.15-6.92-6.58-11-3.39-9.79,4.63,1.74,23.14,2.82,30.35,1.74,5.39-.8-1.82-34,2.91-29.47l17.27,16.52L61,167.89c11.6,5.75,24.19,25.33,37.12,17.61,8.35-5,9-5.13,16.46-3.53,9.12,1.93,23.57.75,34.12-2.78,9.44-3.15,25.33-18.55,32.77-31.77l9.07-32.35,20.51,16.76c13.7,11.21,12,31.87,24.43,27.17,3.87-1.46,46.28-20.06,45.42-16.43-.52,2.07,10.6,12.28,10.17,14.21-.53,2.22,4.77-5.88,7.06-2.54,3.1,4.62-54.06,28.29-47.67,28.72,7.88.52,12.22-1.84,24-12.85l5.48-5.14,13.36,3.86c7.35,2.12,14.84,3.82,16.65,3.82,9.64-.1,27.58-15,29.49-24.53,1.24-6.21-.91-31.54,6.15-26.36,4.73,3.48,10.17,11.58,15,11.58,9.4,0,15,16.19,20.9,8.47l5.3-6.87,17-15.68c2.2,19.16,8.06,50.85,33.26,43.08l9-2.78,13.07-18.83c8.59-12.38,15,38.56,31.3,39.26s16.08.75,34.73-16.57l9.59-8.9,32.92-13.69c6.49-2.69,4.49,14.16,10.74,18.4,9.59,6.55,1.24,26.32,31,17.7,6.87-2,6.68-2,36.64,4.85,13.93,3.2,16.75,3.39,25.77,1.88,20-3.39,31.72-11.44,42-28.9l3.86-6.54,3.77,5c6,8.15,7.68,14,7,24.67-1.05,16.1-8.64,24.39-30.21,32.76-7.1,2.78-13,3.44-38.88,4.38l-30.49,1.13-13.74,6.55-13.74,6.54-22.85,1c-21.81.94-23.91,1.32-45,8.1-25.1,8.09-40,10.12-45.28,6.3Z"/><path id="path2077" class="cls-2" d="M9.22,200.47c-7.87-1.41-8-1.51-8.92-7.86-1.2-7.72,1.38-22.74,4.77-27.78,4-6.12,12-8.42,26-7.48,6.73.42,13.41,1.27,14.84,1.83,1.86.76,3.2-.18,4.87-3.34,3.19-6.07,14-16.47,21.94-21,14-8.1,35.12-10.64,42.32-5.08a22.56,22.56,0,0,0,4.58,3c.39,0,1.15-4.8,1.67-10.69s2-12.85,3.11-15.49c4.38-10.07,20.13-20.33,39.79-26a153.84,153.84,0,0,0,17.27-6.31c11.16-5,27.15-6.17,40.46-2.87,5.48,1.36,10.83,2.64,11.88,2.78s4.2-4.85,7.06-11.35c6.63-15,20.8-36,31.54-46.74,6.15-6.17,10.92-9.42,17.41-11.77,17.13-6.22,41.56-5.7,69.56,1.5C368.1,8.07,377.5,9,395,9.39c28.25.61,51,4,61.22,9.13,12.83,6.41,23.09,22,23.09,35.12,0,4,0,4,8.54,2,13.69-3.11,40.22-4.62,54.25-3.06,23,2.59,47.9,13.18,53.43,22.78,2.39,4.1,3.2,4.43,11.74,4.47,18.75,0,41.08,7.77,49.33,17.09,5.78,6.45,7.26,12.85,6.21,26.13-.43,5.32-.34,9.7.23,9.7s9.64,1,20.14,2.3c19.56,2.4,25,4.47,34.73,13.18,3.25,2.87,3.25,3.25,1,7.77-6.44,12.52-12.89,19-24.48,24.62-10.45,5.09-12.64,5.6-24,5.6-8.92,0-16.7-1.17-27.1-4.05-17.17-4.8-23.66-5-36-1.17-13.83,4.28-31.73,6.73-40.08,5.46-10.54-1.56-19.32-10.45-22.9-23.21-1.43-5.13-3.15-9.37-3.81-9.37s-2.68,2.07-4.54,4.66-8.54,9-14.88,14.36l-11.55,9.7h-10.3a75,75,0,0,1-17.85-2.26c-9.11-2.68-23.71-12.34-25.86-17.09-1-2.21-2.29-3.06-3.81-2.4-23.67,10.17-43.71,8.19-53-5.23-2.91-4.23-3.77-7.43-3.77-14.21,0-4.8-.58-8.71-1.24-8.71s-4.16,4.09-7.78,9.13-8.26,9.79-10.35,10.59c-6.64,2.5-13.84,1.65-18.47-2.12-5.91-4.84-11-7.34-12.74-6.26-.81.47-2.19,3.63-3.1,7-2.29,8.33-14.07,20.15-22.61,22.64-6.06,1.75-7.69,1.56-21.19-2.87l-14.65-4.75L279,170.48c-7,8.19-18.13,15.21-24.19,15.21-4.58,0-6.06-.85-8.45-4.66-3-4.8-2.67-8.9,1.19-18.5,2.39-5.89,2.29-5.93-3.05-3.2-6.54,3.34-19.66,4.47-26.43,2.26-6.54-2.12-21.52-15.16-24.95-21.66l-2.39-4.52-6.49,11.82c-16.6,30.08-37.6,41.94-65.55,37.05-9.17-1.6-10.93-1.56-13.17.47-5.2,4.66-19.42,10.07-26.48,10.07-8.16,0-16.18-2.31-20.52-6-5.25-4.48-7.54-5.37-6.44-2.59,1.29,3.29-5.77,11.44-12.21,14.12-5.63,2.16-18.71,2.26-30.68.14Z"/></g></g></g></svg>