<svg xmlns="http://www.w3.org/2000/svg" viewBox="0 0 386.9 177.51"><defs><style>.cls-1{fill:#e5eff6;}.cls-2{fill:#fffefa;}</style></defs><title>cloud-6</title><g id="Layer_2" data-name="Layer 2"><g id="svg1266"><g id="g4813"><path id="path2133" class="cls-1" d="M186.9,173.71c-20-6.41-42.2-17.36-46.7-23-3.3-4-6.5-3.85-24.2,1.87-31.8,10.16-52.8,12.93-70,9.27-20.9-4.53-29.8-8.78-38.2-18.45-10.3-11.93-8.8-15.29,3.1-6.8,9.2,6.61,13.6,7.4,45.3,7.4,27.1,0,36-1.09,39.3-4.74,2.5-2.76,8.3-4.44,14.2-4.05,6.4.5,14.3-2.07,21.9-7l11.9-7.7,16.9,9.77c16.4,9.47,17.7,9.67,44.5,7.7,15.2-1.19,37.8-4.25,50.2-6.91l22.5-4.83,21.9,10.06c27.9,12.83,51.7,12.33,71.1-1.48,13-9.27,15.5-7.89,6.7,3.45-14.2,18.36-35.1,22-71.2,12.63L286,145.69l-8.2,9.87c-14.7,17.76-21.5,20.72-50.1,21.81-16.9.59-31.6-.7-40.8-3.66Z"/><path id="path2135" class="cls-2" d="M33.6,147.77c-3.3-.6-9.4-1.58-13.5-2.18C9.4,143.92,0,134.54,0,125.66,0,115,15.2,105.44,29.6,107.11L40,108.3l4-11C49.3,82.64,61.1,66.76,69.2,63.5c3.6-1.48,11.4-2.86,17.3-3.25,10-.59,10.9-1.19,12.3-8.09,1.8-8.69,7.1-15,18.2-21.81,6.3-3.85,10.9-4.64,21.8-4,7.6.5,15.4,1.68,17.4,2.47,2.6,1.09,5-1.28,8.4-8.48C170.8,7.46,182.5,1.64,205.5.26c20.9-1.28,33.1,2.17,40,11.44,4.7,6.22,5.5,6.52,10.1,3.36,7.7-5.33,16.7-4.15,27.5,3.55,11.2,8,15.5,14.6,14.4,22.1-.5,3.55.4,5,2.7,4.54,16.5-3.55,16.4-3.55,28.1,7.3,9.9,9.18,11.5,11.94,11.6,20.13l.1,9.47,12.3,1c19.3,1.58,34.5,16.18,34.6,33,0,10.56-12,23.88-25.7,28.52-16.1,5.42-45.1,3.75-65.5-3.75l-18-6.61-28.8,4.24c-15.8,2.27-39.7,4.24-53,4.34-21.5.1-25.8-.59-38.5-6.41l-14.3-6.51L129,136.12c-10.7,4.74-16.2,5.82-22.6,4.64-5.8-1.09-9.7-.49-12.4,1.87-5.4,4.74-20.9,8-18.3,3.85,1.4-2.17.3-2.56-3.9-1.58-9.2,2.37-31.6,3.95-38.2,2.87Z"/></g></g></g></svg>