<svg xmlns="http://www.w3.org/2000/svg" viewBox="0 0 384.95 150.78"><defs><style>.cls-1{fill:#e5eff6;}.cls-2{fill:#fffefa;}</style></defs><title>cloud-2</title><g id="Layer_2" data-name="Layer 2"><g id="svg1266"><g id="g4817"><path id="path2137" class="cls-1" d="M210.64,141.7l-23.9-9.08L176.64,138c-9.5,5-10.9,5.13-23.9,1.58-11.8-3.16-16.8-3.26-35.3-.3-18.2,2.87-23.9,2.87-37.4-.09-8.7-2-19.4-5.43-23.6-7.7-5.6-3.06-10.6-3.75-18.2-2.57-16.6,2.67-24.2-.19-28.3-10.55-3.6-9.18-5-27.33-1.6-21.71,3.8,6.31,35.7-.1,52.7-.2,9.4-.1-5.2-19.53,1.4-19.24,9.2.5,22.1,15.49,27.9,11l20.2-5.92,35.4-9.76-21.6,14.4,17.1-24.47c8-4.14,9.8,12.43,16.2,11.45,6.7-1.09,27-35.62,30.9-39.08l18.8,27.43.8,14.8c9,19.54,17.2,18.65,43.2,11.65,12.9-3.56,21-8.88,24.2-5.92,7.7,7.1,2.2,13.12,16,6.41,10-4.83,14.9-3.45,17.2-1.38,1.7,1.48,11.2-.4,18.8.89s9.2,8.38,13.8,9.17c6.8,1.19,9.4.5,18.1-5.72,12.1-8.68,27.9,6.31,25.2,20.23s-11,18.35-33.1,17.76c-17.7-.5-20.5.19-37.1,8.68-17,8.68-19.5,9.27-49,10.66l-30.9,1.28Z"/><path id="path2139" class="cls-2" d="M333.74,101.74a151,151,0,0,1-22.8-6.31c-10.6-4.05-11-4-20.4,1.28-12.4,7-23.8,7.1-28.6.39-3.5-4.93-3.9-4.93-13.4-1.18-12,4.74-33.5,5-44.2.59-10.9-4.44-18.4-14.5-18.4-24.67V63.56l-10.8,9.76c-8.6,7.9-12.5,9.77-19.8,9.77-5.5,0-15,3-24,7.5l-14.9,7.5-13-4.34c-13-4.34-13.1-4.34-20.3.79-10.2,7.1-20.1,8.68-28.5,4.34-5.7-2.86-9.2-3.06-18.3-1-12.6,2.86-27.4-.1-34.2-6.9-3.5-3.46-3.1-4.25,4.1-9.57,7.7-5.63,15.4-6.12,27.3-1.58,2.3.88,3.4-.3,3.4-3.46a29.81,29.81,0,0,1,1.5-8.68c2.3-6,19.5-13.52,29-12.73,7.9.69,8.6.1,11.7-8.68,3.7-10.66,9.8-16.18,16.2-14.5,2.7.69,4.8-.4,5.6-2.87,4.8-15.49,7.9-18.94,21.7-24.07A77.05,77.05,0,0,1,149.84,0c7.3.2,24.3.5,37.7.79,22.3.4,25,1,30.6,6.22,3.4,3.16,6.2,7.79,6.2,10.26,0,4,1.3,4.34,12.6,3,15.7-2,44,4.15,51.4,11.05A40.9,40.9,0,0,1,296.54,43c2.6,6.12,4.1,6.91,13.5,6.91,13.3,0,21.2,7,23.6,20.92,1.7,9.67,1.8,9.86,11.7,10a57,57,0,0,1,19.3,4.25l9.3,4.14-9.3,6.22c-11.9,8.19-16.2,9-30.9,6.31Z"/></g></g></g></svg>