<svg xmlns="http://www.w3.org/2000/svg" viewBox="0 0 415.23 87.64"><defs><style>.cls-1{fill:#f7db72;fill-opacity:0;}.cls-2{fill:#9e4f41;stroke-width:0.67px;}.cls-10,.cls-11,.cls-2,.cls-3,.cls-4,.cls-5,.cls-6,.cls-7,.cls-8,.cls-9{stroke:#5f4512;}.cls-10,.cls-11,.cls-3,.cls-4,.cls-5,.cls-6,.cls-7,.cls-8,.cls-9{fill:none;}.cls-3{stroke-width:0.35px;}.cls-4{stroke-width:0.45px;}.cls-5{stroke-width:0.45px;}.cls-6{stroke-width:0.32px;}.cls-7{stroke-width:0.44px;}.cls-8{stroke-width:0.39px;}.cls-9{stroke-width:0.42px;}.cls-10{stroke-width:0.41px;}.cls-11{stroke-width:0.35px;}</style></defs><title>dark-red-wood-button</title><g id="Layer_2" data-name="Layer 2"><g id="svg2316"><path id="path1974" class="cls-1" d="M246.64,15.22a5.7,5.7,0,0,1-.42,8.52c-1.84,1.5-2.48,1.11-3.79-2.29-2.48-6.43.11-10.27,4.21-6.23Z"/><path id="path2043" class="cls-2" d="M8.34,4.11c39.75-9,84.32.84,126.48,1.16,24.9.19,49.84-.38,74.71.45,3.41.12,6.79.53,10.21.63,23.8.71,47.66-.15,71.49-.09,23.55.06,47.1.46,70.65.45,15.25,0,30.74-2.09,45.75-.36,1.53.17,3.31.33,4.34,1.07,1.73,1.24,1.63,3.18,2,4.83a24.83,24.83,0,0,1,0,5.45c-.07,3.52.27,7.06-.42,10.55-.37,1.85-1.67,3.6-2,5.45a24.68,24.68,0,0,0,.28,6.53,34.23,34.23,0,0,0,1,5.54,21.59,21.59,0,0,1,.84,2.23c1.62,10.69,2.33,21.83-2.1,32.19a4.89,4.89,0,0,1-2.1,2.5,13.17,13.17,0,0,1-4.62,1.07c-18.7,2.08-38-.19-56.94-.18-31.2,0-62.4.3-93.6.45q-64.56.31-129.13.63c-39.22.17-79.27,5.57-117.66.44-1.8-.24-3.9-.5-5-1.43-1.63-1.33-1.21-3.31-1.4-5C.14,70.13-.4,61.35,2.6,53c.58-1.59,2.59-2.87,3.08-4.47a11.86,11.86,0,0,0-.28-7.6c-.32-.89-1.48-1.61-1.82-2.5a28.07,28.07,0,0,1-1-15.55c.35-1.73,2.12-3.28,2.38-5,.33-2.12-.66-4.23-1-6.35C3.77,10,2.36,8.26,3.3,6.79c.84-1.29,3-2.21,5-2.68Z"/><path id="path2046" class="cls-3" d="M131.64,73.79,10.51,75.18"/><path id="path2055" class="cls-4" d="M113.1,39.19,12.55,40.29"/><path id="path2057" class="cls-5" d="M66.47,6.65,26.29,8.08"/><path id="path2059" class="cls-6" d="M214.53,79.3,6.8,80.56"/><path id="path2061" class="cls-5" d="M407.39,76.89l-98.3-3.42"/><path id="path2067" class="cls-5" d="M402.42,21.5l-45.79,1.41"/><path id="path2069" class="cls-7" d="M401.4,11.23,14,12.47"/><path id="path2071" class="cls-8" d="M409.61,57.05,324,58.41"/><path id="path2073" class="cls-9" d="M408.87,43.65l-87.75-6.46"/><path id="path2081" class="cls-10" d="M107.51,53.94,12.71,64.21"/><path id="path2085" class="cls-4" d="M117.57,27,16.25,22.9"/><path id="path2089" class="cls-11" d="M347.79,19,321,20.43"/></g></g></svg>