<svg xmlns="http://www.w3.org/2000/svg" viewBox="0 0 414.91 87.64"><defs><style>.cls-1{fill:#95a74f;stroke-width:0.67px;}.cls-1,.cls-2,.cls-3,.cls-4,.cls-5,.cls-6,.cls-7{stroke:#5f4512;}.cls-2,.cls-3,.cls-4,.cls-5,.cls-6,.cls-7{fill:none;}.cls-2{stroke-width:0.45px;}.cls-3{stroke-width:0.42px;}.cls-4{stroke-width:0.43px;}.cls-5{stroke-width:0.41px;}.cls-6{stroke-width:0.43px;}.cls-7{stroke-width:0.42px;}</style></defs><title>dark-green-wood-button</title><g id="Layer_2" data-name="Layer 2"><g id="svg2316"><path id="path2013" class="cls-1" d="M406.57,4.11c-39.71-9-84.24.84-126.37,1.16-24.88.19-49.8-.38-74.65.45-3.42.12-6.79.53-10.21.63-23.78.71-47.62-.15-71.43-.09-23.54.06-47.07.46-70.6.44-15.24,0-30.72-2.08-45.71-.35-1.53.17-3.31.33-4.34,1.07C1.53,8.66,1.63,10.6,1.31,12.25a24.83,24.83,0,0,0,0,5.45c.06,3.52-.27,7.06.42,10.55.36,1.85,1.66,3.6,2,5.45a24.68,24.68,0,0,1-.28,6.53,34.23,34.23,0,0,1-1,5.54A21.5,21.5,0,0,0,1.59,48C0,58.69-.74,69.83,3.68,80.18a4.87,4.87,0,0,0,2.1,2.51,13.17,13.17,0,0,0,4.61,1.07c18.69,2.08,37.93-.19,56.9-.18,31.18,0,62.35.3,93.52.45q64.51.31,129,.62c39.19.17,79.2,5.58,117.56.45,1.8-.24,3.9-.5,5-1.43,1.63-1.33,1.21-3.31,1.39-5,.93-8.54,1.47-17.32-1.53-25.66-.57-1.59-2.58-2.87-3.08-4.47a11.86,11.86,0,0,1,.28-7.6c.33-.89,1.48-1.61,1.82-2.5a28.1,28.1,0,0,0,1-15.56c-.35-1.72-2.11-3.27-2.38-5-.33-2.12.66-4.23,1-6.35.23-1.58,1.64-3.27.7-4.74-.84-1.29-3-2.21-5-2.68Z"/><path id="path2017" class="cls-2" d="M319,19.42l87.46,6.66"/><path id="path2019" class="cls-2" d="M11,74l398.83,1.26"/><path id="path2021" class="cls-3" d="M14.77,68.91l85.33-3.43"/><path id="path2024" class="cls-4" d="M8,11.43,170.4,12.68"/><path id="path2026" class="cls-2" d="M14.72,51.7l72.57,1.39"/><path id="path2028" class="cls-2" d="M14.72,41.34l60.66,1.39"/><path id="path2030" class="cls-2" d="M14.82,29.06,87.2,22.44"/><path id="path2032" class="cls-5" d="M331.21,38.24l75.36,1.39"/><path id="path2034" class="cls-6" d="M311.92,53l94.65,1.39"/><path id="path2037" class="cls-2" d="M269.72,11.6l132,1.39"/><path id="path3229" class="cls-7" d="M314.34,61.42l92.11,6.66"/></g></g></svg>