<svg xmlns="http://www.w3.org/2000/svg" viewBox="0 0 1598.62 746.9"><defs><style>.cls-1{fill:#d38d5f;}.cls-2{fill:none;stroke:#5f4512;stroke-linecap:round;stroke-linejoin:round;stroke-width:0;}.cls-3{fill:#a05a2c;}.cls-4{fill:#c87137;}</style></defs><title>dock</title><g id="Layer_2" data-name="Layer 2"><g id="svg1266"><path class="cls-1" d="M267.88,521.81l-34.31,49.1h0L183,643.21h0L129.41,720l1333.17,1.56L129.41,720,110.57,746.9H1488.82L1331.51,521.81Zm91.2,160.4,1051-14.3Z"/><path class="cls-1" d="M455.88,252.81l-188,269H1331.51l-188.63-269.9,5.94-.36c-101.07-2.37-606.16-1-705.13.48l0,.05Zm634.8,128.7h0Zm-597.9-28h0ZM328,479.71h0Zm211.4-35h0Zm91.4-136.4h0Zm525.4-19.7h0Z"/><line class="cls-2" x1="1156.18" y1="288.61" x2="461.38" y2="288.61"/><line class="cls-2" x1="359.08" y1="682.21" x2="1410.08" y2="667.91"/><line class="cls-2" x1="233.57" y1="570.91" x2="1152.38" y2="570.91"/><line class="cls-2" x1="267.88" y1="521.81" x2="1331.51" y2="521.81"/><line class="cls-2" x1="1176.68" y1="479.71" x2="327.98" y2="479.71"/><line class="cls-2" x1="539.38" y1="444.71" x2="1276.88" y2="444.71"/><line class="cls-2" x1="414.88" y1="381.51" x2="1090.68" y2="381.51"/><line class="cls-2" x1="1135.48" y1="353.51" x2="492.78" y2="353.51"/><polygon class="cls-3" points="234.75 154.12 239.35 133.1 215.75 123.93 191.35 137.25 193.75 150.96 194.12 511.63 232.79 464.76 234.75 154.12"/><polygon class="cls-3" points="337.15 30.19 341.75 9.18 318.15 0 293.75 13.32 296.15 27.04 299.29 384.17 332.19 344.29 337.15 30.19"/><polygon class="cls-3" points="138.66 271.63 143.25 250.62 119.66 241.44 95.25 254.76 97.66 268.47 110.11 613.45 140.68 576.39 138.66 271.63"/><polygon class="cls-3" points="1393.95 160.73 1396.36 147.01 1371.95 133.69 1348.36 142.87 1352.95 163.89 1355.42 452.15 1383.42 486.07 1393.95 160.73"/><polygon class="cls-3" points="1291.56 34.93 1293.95 21.21 1269.56 7.89 1245.95 17.07 1250.56 38.09 1255.18 330.65 1288.61 371.17 1291.56 34.93"/><polygon class="cls-3" points="1490.06 278.34 1492.45 264.63 1468.06 251.31 1444.45 260.48 1449.06 281.5 1446.1 562.04 1477.09 599.6 1490.06 278.34"/><line class="cls-2" x1="630.78" y1="308.31" x2="1169.88" y2="308.31"/><line class="cls-2" x1="129.41" y1="719.95" x2="1462.58" y2="721.51"/><line class="cls-2" x1="183.04" y1="643.21" x2="735.48" y2="643.21"/><polygon class="cls-3" points="1561.93 746.9 1598.62 746.9 1477.09 599.6 1446.1 562.04 1383.42 486.07 1355.42 452.15 1288.61 371.17 1255.18 330.65 1187.98 249.21 1154.18 251.11 1154.27 251.23 1174.88 250.01 1561.93 746.9"/><polygon class="cls-4" points="1331.51 521.81 1488.82 746.9 1561.93 746.9 1174.88 250.01 1154.27 251.23 1148.82 251.55 1142.88 251.91 1331.51 521.81"/><polygon class="cls-3" points="423.88 250.91 443.65 252.08 443.69 252.03 443.78 251.91 409.98 250.01 332.19 344.29 299.29 384.17 232.79 464.76 194.12 511.63 140.68 576.39 110.11 613.45 0 746.9 37.53 746.9 423.88 250.91"/><polygon class="cls-4" points="183.04 643.21 233.57 570.91 267.88 521.81 455.88 252.81 443.65 252.08 423.88 250.91 37.53 746.9 110.57 746.9 129.41 719.95 183.04 643.21"/></g></g></svg>