<svg xmlns="http://www.w3.org/2000/svg" viewBox="0 0 1941.91 954.93"><defs><style>.cls-1{fill:#f7db72;fill-opacity:0;}.cls-2{fill:#d38d5f;}.cls-3,.cls-4{fill:none;stroke-linecap:round;stroke-linejoin:round;stroke-width:0;}.cls-3{stroke:#000;}.cls-4{stroke:#5f4512;}.cls-5{fill:#a05a2c;}.cls-6{fill:#c87137;}</style></defs><title>dock</title><g id="Layer_2" data-name="Layer 2"><g id="svg1266"><path class="cls-1" d="M1555.06,486.07l62.68,76,3-280.54-4.6-21,23.6-9.17,24.4,13.32-2.4,13.71-11.65,288.57h69.47l6.7-10.3c18.6-28.7,34.2-68.1,40.3-101.6,4.4-24.5,4.4-67.5-.1-91.3-11.3-59.6-37.4-107.6-81.4-149.6-33.06-31.49-71.89-53.36-117.23-65.88l-2.19,12.5Z"/><path class="cls-1" d="M1527.07,452.15l-2.47-288.26-4.6-21,5.53-2.15a458.52,458.52,0,0,0-63.26.26l-2,230.19Z"/><path class="cls-1" d="M1325.91,251.23l-.09-.12,33.8-1.9,67.2,81.44-2.88-182.5a291.31,291.31,0,0,0-84.22,38.46c-19,12.9-49,41.2-62.8,59.3q-1.87,2.47-3.7,5c20,.17,36.07.39,47.24.65Z"/><path class="cls-2" d="M223.78,830.51,136.83,954.93h1669l-87-124.42Zm-44.76,96h0Z"/><path class="cls-2" d="M1324,570.91H405.21l-50.53,72.3h0L301.05,720l1333.17,1.56L301.05,720l-18.42,26.36H1660.05l-156.9-224.5H439.53l-34.32,49.1Zm-793.3,111.3,1051-14.3Z"/><path class="cls-2" d="M627.52,252.81,517.94,409.61h0l-78.41,112.2H1503.15l-188.63-269.9,5.94-.36c-11.17-.26-27.28-.48-47.24-.65-160.54-1.42-569.86-.21-657.89,1.13l0,.05Zm-41,128.7h0Zm77.9-28h0Zm-164.8,126.2h0Zm211.4-35h0Zm91.4-136.4h0Zm525.4-19.7h0Z"/><polygon class="cls-2" points="282.63 746.31 223.78 830.51 1718.89 830.51 1660.05 746.31 282.63 746.31"/><line class="cls-3" x1="179.02" y1="926.51" x2="1748.82" y2="926.51"/><line class="cls-4" x1="633.02" y1="288.61" x2="1327.82" y2="288.61"/><line class="cls-4" x1="223.78" y1="830.51" x2="1718.89" y2="830.51"/><line class="cls-4" x1="282.63" y1="746.31" x2="1660.05" y2="746.31"/><line class="cls-4" x1="1581.72" y1="667.91" x2="530.72" y2="682.21"/><line class="cls-4" x1="405.21" y1="570.91" x2="1324.02" y2="570.91"/><line class="cls-4" x1="1503.15" y1="521.81" x2="439.53" y2="521.81"/><line class="cls-4" x1="1348.32" y1="479.71" x2="499.62" y2="479.71"/><line class="cls-4" x1="1448.52" y1="444.71" x2="711.02" y2="444.71"/><line class="cls-4" x1="517.94" y1="409.61" x2="1087.82" y2="409.61"/><line class="cls-4" x1="1262.32" y1="381.51" x2="586.52" y2="381.51"/><line class="cls-4" x1="1307.12" y1="353.51" x2="664.42" y2="353.51"/><polygon class="cls-5" points="406.4 154.12 411 133.1 387.4 123.93 363 137.25 365.4 150.96 365.76 511.63 404.43 464.76 406.4 154.12"/><polygon class="cls-5" points="508.8 30.19 513.4 9.18 489.8 0 465.4 13.32 467.8 27.04 470.93 384.17 503.83 344.29 508.8 30.19"/><polygon class="cls-5" points="310.3 271.63 314.9 250.62 291.3 241.44 266.9 254.76 269.3 268.47 281.75 613.45 312.33 576.39 310.3 271.63"/><polygon class="cls-5" points="1524.6 163.89 1527.07 452.15 1555.06 486.07 1565.6 160.73 1567.79 148.23 1568 147.01 1543.6 133.69 1525.53 140.72 1520 142.87 1524.6 163.89"/><polygon class="cls-5" points="1460.25 371.17 1462.27 140.98 1463.2 34.93 1465.6 21.21 1441.2 7.89 1417.6 17.07 1422.2 38.09 1423.94 148.15 1426.83 330.65 1460.25 371.17"/><polygon class="cls-5" points="1664.1 264.63 1639.7 251.31 1616.1 260.48 1620.7 281.5 1617.74 562.04 1648.73 599.6 1650.05 566.91 1661.7 278.34 1664.1 264.63"/><line class="cls-4" x1="1341.52" y1="308.31" x2="802.42" y2="308.31"/><line class="cls-4" x1="1634.22" y1="721.51" x2="301.05" y2="719.95"/><line class="cls-4" x1="354.68" y1="643.21" x2="907.12" y2="643.21"/><polygon class="cls-5" points="1617.74 562.04 1555.06 486.07 1527.07 452.15 1460.25 371.17 1426.83 330.65 1359.62 249.21 1325.82 251.1 1325.91 251.23 1346.52 250.01 1895.62 954.93 1941.91 954.93 1648.73 599.6 1617.74 562.04"/><polygon class="cls-6" points="1346.52 250.01 1325.91 251.23 1320.46 251.55 1314.52 251.91 1503.15 521.81 1660.05 746.31 1718.89 830.51 1805.85 954.93 1895.62 954.93 1346.52 250.01"/><polygon class="cls-5" points="595.52 250.91 615.29 252.08 615.34 252.03 615.42 251.91 581.62 250.01 503.83 344.29 470.93 384.17 404.43 464.76 365.76 511.63 312.33 576.39 281.75 613.45 0 954.93 47.13 954.93 595.52 250.91"/><polygon class="cls-6" points="282.63 746.31 301.05 719.95 354.68 643.21 405.21 570.91 439.53 521.81 517.94 409.61 627.52 252.81 615.29 252.08 595.52 250.91 47.13 954.93 136.83 954.93 223.78 830.51 282.63 746.31"/></g></g></svg>