<svg xmlns="http://www.w3.org/2000/svg" xmlns:xlink="http://www.w3.org/1999/xlink" viewBox="0 0 1972.32 984.95"><defs><style>.cls-1{fill:none;}.cls-2{clip-path:url(#clip-path);}.cls-3{fill:#d38d5f;}.cls-4{fill:#a05a2c;}.cls-5{fill:#c87137;}.cls-6{fill:#f7db72;fill-opacity:0;}.cls-7{fill:#5f4512;stroke:#5f4512;stroke-width:0.5px;}</style><clipPath id="clip-path" transform="translate(-48.29 -119.98)"><rect class="cls-1" width="2091.11" height="1074.3" rx="3.34" ry="3.34"/></clipPath></defs><title>dock</title><g id="Layer_2" data-name="Layer 2"><g id="svg1266"><g class="cls-2"><g id="g1809"><g id="g3402"><path id="path4534" class="cls-3" d="M96.37,1104.93s543-729.31,566.11-732.53c12.72-1.78,735.9-3.92,739.35,0,9.64,10.93,530.1,714.49,530.1,714.49Z" transform="translate(-48.29 -119.98)"/></g><g id="g1921"><path id="path1287" class="cls-4" d="M468,622l2.17-348,4.57-21-23.63-9.16L426.77,257.2l2.42,13.7.45,400.21Z" transform="translate(-48.29 -119.98)"/><path id="path1320" class="cls-4" d="M567.1,497.94l5.46-347.77,4.57-21L553.5,120l-24.37,13.37L531.55,147,535,535Z" transform="translate(-48.29 -119.98)"/><path id="path1322" class="cls-4" d="M376.42,737.14l-2.27-345.59,4.57-21-23.63-9.17-24.37,13.37,2.42,13.7,14,387.9Z" transform="translate(-48.29 -119.98)"/><path id="path1329" class="cls-4" d="M1591.36,634.11l-3-350.22-4.58-21,23.63-9.17,24.37,13.37-2.42,13.7-12.52,385.84Z" transform="translate(-48.29 -119.98)"/><path id="path1331" class="cls-4" d="M1491.49,505.83,1486,158.06l-4.58-21,23.63-9.17,24.37,13.37-2.42,13.7-3.41,388Z" transform="translate(-48.29 -119.98)"/><path id="path1333" class="cls-4" d="M1680.78,752.45l3.66-351-4.58-21,23.63-9.17,24.37,13.37-2.42,13.69L1709.6,789.8Z" transform="translate(-48.29 -119.98)"/></g><path id="path2680" class="cls-4" d="M1423.44,369.08l597.17,723.83-99.32-3.56-531.74-718.3Z" transform="translate(-48.29 -119.98)"/><path id="path2047" class="cls-5" d="M1410.37,369.94l563.76,723.83-93.76-3.56-502-718.29Z" transform="translate(-48.29 -119.98)"/><path id="path2678" class="cls-4" d="M645.45,369.94,48.29,1093.77l99.32-3.56L679.35,371.92Z" transform="translate(-48.29 -119.98)"/><path id="path2045" class="cls-5" d="M659.38,370.87,95.62,1094.7l93.76-3.56,502-718.3Z" transform="translate(-48.29 -119.98)"/></g></g><path id="path6122" class="cls-6" d="M1220,941.09c-37.29-119.82,24-245.62,146.32-300.44,84.74-38,142.83-37.17,227.22,3.13,88.75,42.4,148,137.46,148,237.41,0,70.56-37.17,130.18-60.89,97.67-16.54-22.66-114.16-27.72-114.16-5.92,0,14-6,13.73-23.88-.92-13.13-10.75-23.87-12.79-23.87-4.54s-20.8,15-46.22,15c-32,0-43.72-6.45-38.09-20.94,4.48-11.51,1-20.93-7.77-20.93s-20,10.6-25.07,23.55c-11,28.32-75.52,31.94-69.84,3.93,2.21-10.93-14.88-21.78-38.56-24.48-33.21-3.79-43.67,2.53-47.74,28.85-3.89,25.17-10.34,17.21-25.47-31.38Z" transform="translate(-48.29 -119.98)"/><path id="path6124" class="cls-6" d="M1220,941.09c-37.29-119.82,24-245.62,146.32-300.44,84.74-38,142.83-37.17,227.22,3.13,88.75,42.4,148,137.46,148,237.41,0,70.56-37.17,130.18-60.89,97.67-16.54-22.66-114.16-27.72-114.16-5.92,0,14-6,13.73-23.88-.92-13.13-10.75-23.87-12.79-23.87-4.54s-20.8,15-46.22,15c-32,0-43.72-6.45-38.09-20.94,4.48-11.51,1-20.93-7.77-20.93s-20,10.6-25.07,23.55c-11,28.32-75.52,31.94-69.84,3.93,2.21-10.93-14.88-21.78-38.56-24.48-33.21-3.79-43.67,2.53-47.74,28.85-3.89,25.17-10.34,17.21-25.47-31.38Z" transform="translate(-48.29 -119.98)"/><path id="path6126" class="cls-6" d="M1526.92,1011.54c1.83-1.84,7.35-3.6,12.55-4,11.17-.87,20-4.71,20-8.7,0-1.61-2-3.2-4.47-3.55s-4.48-1.89-4.48-3.43c0-1.81-2.12-2.81-6-2.81-7.34,0-7.62-2.41-.79-6.82l5.18-3.35-5.68-5.88c-7.59-7.87-12.06-10-17.79-8.62-6.09,1.51-6.08,5.12,0,10.77,5.92,5.49,7.75,12,5.2,18.65l-1.93,5-7.44-5c-5.77-3.86-9.44-4.84-16.44-4.39-7.63.49-9.62,1.53-13,6.78-4.42,6.84-12.59,9.79-14.38,5.19-.61-1.57-.06-6.36,1.26-10.64,3-9.82,1.42-14.73-5.85-18.44-8-4.07-8.73-3.83-12.59,4.16-3,6.23-4.14,7-9.4,6.22-5.6-.81-5.91-.52-4.82,4.38,1.3,5.82-1.18,8.79-9,10.71-3.93,1-5.38.29-7-3.28-1.24-2.81-4.23-4.87-8-5.48-5.5-.91-6-1.64-6.14-9.28s.15-8.22,4.48-7.15c5.57,1.38,12.2-.21,17.44-4.18,3.78-2.87,3.77-3-.36-7.35-2.31-2.44-5.85-8.84-7.87-14.24-4.34-11.58-11.12-14.6-13.33-5.93a11,11,0,0,1-6.21,6.93c-4.78,1.79-4.92,2.39-5,22-.06,14.66-.61,19.23-2.09,16.73-2.79-4.73-7.2-4.3-10,1a56,56,0,0,1-3,5.13c-.35.39-3-1.16-6-3.44-7-5.43-9.5-5.25-23.71,1.74-21.64,10.65-34.81,7.07-34.81-9.47,0-6.66,1.35-9.66,7.27-16.13,4.69-5.12,6.59-8.61,5.35-9.84-1.06-1.05-8.58-3.19-16.72-4.77-22.29-4.32-29-6.58-35.41-11.88-7.43-6.17-8.5-6.07-12.67,1.17-3.06,5.31-4.18,5.83-10.08,4.74-4.4-.82-7.34-.35-8.76,1.38-3,3.62-10.65,31.26-9.29,33.44.61,1,3.72,1.22,6.89.53s5.78-.44,5.78.66S1253,989.16,1246.8,997l-11.27,14.21-5.59-10.92c-3.08-6-6.46-14.69-7.51-19.3-1.67-7.33-1.42-8.73,2-11.06,4.67-3.23,4.95-10.66.81-22.21-3.79-10.62-8.23-15.56-14-15.56s-6.5-2.11-9.29-29.64c-3.75-37,2.88-85.84,16.2-119.17,41.09-102.85,135.34-169.71,245.82-174.38,45.79-1.94,94.13,7.88,132.56,26.9,80.68,39.95,135.47,113.66,150.2,202,6.87,41.28-1.49,119-13.2,122.7-6.85,2.14-21.89,18.48-21.89,23.78,0,4-.74,4.71-3.81,3.75-2.1-.66-4.39-.26-5.09.85s-4.14,2-7.63,2.06c-7.18,0-18.92,6.61-15.49,8.7,2.78,1.69,2.86,8.95.12,8.95-1.14,0-6.54-3-12-6.6l-9.94-6.61,6-2.47c3.32-1.35,6-3.29,6-4.3s.9-1.3,2-.63c3.25,2,6.39-9.09,5.44-19.18-.49-5.15-1.36-9.84-2-10.42s-4-.29-7.69.65c-5.3,1.35-6.88,2.94-7.92,8-2.53,12.19-7.92,14.62-20.73,9.34-6.2-2.56-7.06-2.51-8.83.49-1.08,1.82-2,2.55-2,1.6s-1.32-.68-2.86.59c-2.37,1.94-2.63,1-1.69-6,1.4-10.28-2.3-13.55-15.28-13.5-5,0-8.18.68-7.08,1.47,2.23,1.61,10.94,13.53,10.94,15,0,.51-4.91,1.93-10.91,3.16s-11.42,3.06-12,4.06-3.83,1.83-7.11,1.83c-6.6,0-15.73,8.3-19.8,18-1.73,4.11-3.7,5.57-7.56,5.58a61.4,61.4,0,0,0-12.2,1.77c-3.83,1-9.64,2.35-12.93,3.06-5.56,1.21-5.74,1.08-2.7-2Zm51-30.74a7.59,7.59,0,0,0-.56-11.35c-2.45-2-3.31-1.5-5.05,3-3.31,8.58.14,13.7,5.61,8.31Z" transform="translate(-48.29 -119.98)"/><path id="path6128" class="cls-6" d="M1526.92,1011.54c1.83-1.84,7.35-3.6,12.55-4,11.17-.87,20-4.71,20-8.7,0-1.61-2-3.2-4.47-3.55s-4.48-1.89-4.48-3.43c0-1.81-2.12-2.81-6-2.81-7.34,0-7.62-2.41-.79-6.82l5.18-3.35-5.68-5.88c-7.59-7.87-12.06-10-17.79-8.62-6.09,1.51-6.08,5.12,0,10.77,5.92,5.49,7.75,12,5.2,18.65l-1.93,5-7.44-5c-5.77-3.86-9.44-4.84-16.44-4.39-7.63.49-9.62,1.53-13,6.78-4.42,6.84-12.59,9.79-14.38,5.19-.61-1.57-.06-6.36,1.26-10.64,3-9.82,1.42-14.73-5.85-18.44-8-4.07-8.73-3.83-12.59,4.16-3,6.23-4.14,7-9.4,6.22-5.6-.81-5.91-.52-4.82,4.38,1.3,5.82-1.18,8.79-9,10.71-3.93,1-5.38.29-7-3.28-1.24-2.81-4.23-4.87-8-5.48-5.5-.91-6-1.64-6.14-9.28s.15-8.22,4.48-7.15c5.57,1.38,12.2-.21,17.44-4.18,3.78-2.87,3.77-3-.36-7.35-2.31-2.44-5.85-8.84-7.87-14.24-4.34-11.58-11.12-14.6-13.33-5.93a11,11,0,0,1-6.21,6.93c-4.78,1.79-4.92,2.39-5,22-.06,14.66-.61,19.23-2.09,16.73-2.79-4.73-7.2-4.3-10,1a56,56,0,0,1-3,5.13c-.35.39-3-1.16-6-3.44-7-5.43-9.5-5.25-23.71,1.74-21.64,10.65-34.81,7.07-34.81-9.47,0-6.66,1.35-9.66,7.27-16.13,4.69-5.12,6.59-8.61,5.35-9.84-1.06-1.05-8.58-3.19-16.72-4.77-22.29-4.32-29-6.58-35.41-11.88-7.43-6.17-8.5-6.07-12.67,1.17-3.06,5.31-4.18,5.83-10.08,4.74-4.4-.82-7.34-.35-8.76,1.38-3,3.62-10.65,31.26-9.29,33.44.61,1,3.72,1.22,6.89.53s5.78-.44,5.78.66S1253,989.16,1246.8,997l-11.27,14.21-5.59-10.92c-3.08-6-6.46-14.69-7.51-19.3-1.67-7.33-1.42-8.73,2-11.06,4.67-3.23,4.95-10.66.81-22.21-3.79-10.62-8.23-15.56-14-15.56s-6.5-2.11-9.29-29.64c-3.75-37,2.88-85.84,16.2-119.17,41.09-102.85,135.34-169.71,245.82-174.38,45.79-1.94,94.13,7.88,132.56,26.9,80.68,39.95,135.47,113.66,150.2,202,6.87,41.28-1.49,119-13.2,122.7-6.85,2.14-21.89,18.48-21.89,23.78,0,4-.74,4.71-3.81,3.75-2.1-.66-4.39-.26-5.09.85s-4.14,2-7.63,2.06c-7.18,0-18.92,6.61-15.49,8.7,2.78,1.69,2.86,8.95.12,8.95-1.14,0-6.54-3-12-6.6l-9.94-6.61,6-2.47c3.32-1.35,6-3.29,6-4.3s.9-1.3,2-.63c3.25,2,6.39-9.09,5.44-19.18-.49-5.15-1.36-9.84-2-10.42s-4-.29-7.69.65c-5.3,1.35-6.88,2.94-7.92,8-2.53,12.19-7.92,14.62-20.73,9.34-6.2-2.56-7.06-2.51-8.83.49-1.08,1.82-2,2.55-2,1.6s-1.32-.68-2.86.59c-2.37,1.94-2.63,1-1.69-6,1.4-10.28-2.3-13.55-15.28-13.5-5,0-8.18.68-7.08,1.47,2.23,1.61,10.94,13.53,10.94,15,0,.51-4.91,1.93-10.91,3.16s-11.42,3.06-12,4.06-3.83,1.83-7.11,1.83c-6.6,0-15.73,8.3-19.8,18-1.73,4.11-3.7,5.57-7.56,5.58a61.4,61.4,0,0,0-12.2,1.77c-3.83,1-9.64,2.35-12.93,3.06-5.56,1.21-5.74,1.08-2.7-2Zm51-30.74a7.59,7.59,0,0,0-.56-11.35c-2.45-2-3.31-1.5-5.05,3-3.31,8.58.14,13.7,5.61,8.31Z" transform="translate(-48.29 -119.98)"/><path id="path6130" class="cls-6" d="M1526.92,1011.54c1.83-1.84,7.35-3.6,12.55-4,11.17-.87,20-4.71,20-8.7,0-1.61-2-3.2-4.47-3.55s-4.48-1.89-4.48-3.43c0-1.81-2.12-2.81-6-2.81-7.34,0-7.62-2.41-.79-6.82l5.18-3.35-5.68-5.88c-7.59-7.87-12.06-10-17.79-8.62-6.09,1.51-6.08,5.12,0,10.77,5.92,5.49,7.75,12,5.2,18.65l-1.93,5-7.44-5c-5.77-3.86-9.44-4.84-16.44-4.39-7.63.49-9.62,1.53-13,6.78-4.42,6.84-12.59,9.79-14.38,5.19-.61-1.57-.06-6.36,1.26-10.64,3-9.82,1.42-14.73-5.85-18.44-8-4.07-8.73-3.83-12.59,4.16-3,6.23-4.14,7-9.4,6.22-5.6-.81-5.91-.52-4.82,4.38,1.3,5.82-1.18,8.79-9,10.71-3.93,1-5.38.29-7-3.28-1.24-2.81-4.23-4.87-8-5.48-5.5-.91-6-1.64-6.14-9.28s.15-8.22,4.48-7.15c5.57,1.38,12.2-.21,17.44-4.18,3.78-2.87,3.77-3-.36-7.35-2.31-2.44-5.85-8.84-7.87-14.24-4.34-11.58-11.12-14.6-13.33-5.93a11,11,0,0,1-6.21,6.93c-4.78,1.79-4.92,2.39-5,22-.06,14.66-.61,19.23-2.09,16.73-2.79-4.73-7.2-4.3-10,1a56,56,0,0,1-3,5.13c-.35.39-3-1.16-6-3.44-7-5.43-9.5-5.25-23.71,1.74-21.64,10.65-34.81,7.07-34.81-9.47,0-6.66,1.35-9.66,7.27-16.13,4.69-5.12,6.59-8.61,5.35-9.84-1.06-1.05-8.58-3.19-16.72-4.77-22.29-4.32-29-6.58-35.41-11.88-7.43-6.17-8.5-6.07-12.67,1.17-3.06,5.31-4.18,5.83-10.08,4.74-4.4-.82-7.34-.35-8.76,1.38-3,3.62-10.65,31.26-9.29,33.44.61,1,3.72,1.22,6.89.53s5.78-.44,5.78.66S1253,989.16,1246.8,997l-11.27,14.21-5.59-10.92c-3.08-6-6.46-14.69-7.51-19.3-1.67-7.33-1.42-8.73,2-11.06,4.67-3.23,4.95-10.66.81-22.21-3.79-10.62-8.23-15.56-14-15.56s-6.5-2.11-9.29-29.64c-3.75-37,2.88-85.84,16.2-119.17,41.09-102.85,135.34-169.71,245.82-174.38,45.79-1.94,94.13,7.88,132.56,26.9,80.68,39.95,135.47,113.66,150.2,202,6.87,41.28-1.49,119-13.2,122.7-6.85,2.14-21.89,18.48-21.89,23.78,0,4-.74,4.71-3.81,3.75-2.1-.66-4.39-.26-5.09.85s-4.14,2-7.63,2.06c-7.18,0-18.92,6.61-15.49,8.7,2.78,1.69,2.86,8.95.12,8.95-1.14,0-6.54-3-12-6.6l-9.94-6.61,6-2.47c3.32-1.35,6-3.29,6-4.3s.9-1.3,2-.63c3.25,2,6.39-9.09,5.44-19.18-.49-5.15-1.36-9.84-2-10.42s-4-.29-7.69.65c-5.3,1.35-6.88,2.94-7.92,8-2.53,12.19-7.92,14.62-20.73,9.34-6.2-2.56-7.06-2.51-8.83.49-1.08,1.82-2,2.55-2,1.6s-1.32-.68-2.86.59c-2.37,1.94-2.63,1-1.69-6,1.4-10.28-2.3-13.55-15.28-13.5-5,0-8.18.68-7.08,1.47,2.23,1.61,10.94,13.53,10.94,15,0,.51-4.91,1.93-10.91,3.16s-11.42,3.06-12,4.06-3.83,1.83-7.11,1.83c-6.6,0-15.73,8.3-19.8,18-1.73,4.11-3.7,5.57-7.56,5.58a61.4,61.4,0,0,0-12.2,1.77c-3.83,1-9.64,2.35-12.93,3.06-5.56,1.21-5.74,1.08-2.7-2Zm51-30.74a7.59,7.59,0,0,0-.56-11.35c-2.45-2-3.31-1.5-5.05,3-3.31,8.58.14,13.7,5.61,8.31Z" transform="translate(-48.29 -119.98)"/><path id="path6132" class="cls-6" d="M1526.92,1011.54c1.83-1.84,7.35-3.6,12.55-4,11.17-.87,20-4.71,20-8.7,0-1.61-2-3.2-4.47-3.55s-4.48-1.89-4.48-3.43c0-1.81-2.12-2.81-6-2.81-7.34,0-7.62-2.41-.79-6.82l5.18-3.35-5.68-5.88c-7.59-7.87-12.06-10-17.79-8.62-6.09,1.51-6.08,5.12,0,10.77,5.92,5.49,7.75,12,5.2,18.65l-1.93,5-7.44-5c-5.77-3.86-9.44-4.84-16.44-4.39-7.63.49-9.62,1.53-13,6.78-4.42,6.84-12.59,9.79-14.38,5.19-.61-1.57-.06-6.36,1.26-10.64,3-9.82,1.42-14.73-5.85-18.44-8-4.07-8.73-3.83-12.59,4.16-3,6.23-4.14,7-9.4,6.22-5.6-.81-5.91-.52-4.82,4.38,1.3,5.82-1.18,8.79-9,10.71-3.93,1-5.38.29-7-3.28-1.24-2.81-4.23-4.87-8-5.48-5.5-.91-6-1.64-6.14-9.28s.15-8.22,4.48-7.15c5.57,1.38,12.2-.21,17.44-4.18,3.78-2.87,3.77-3-.36-7.35-2.31-2.44-5.85-8.84-7.87-14.24-4.34-11.58-11.12-14.6-13.33-5.93a11,11,0,0,1-6.21,6.93c-4.78,1.79-4.92,2.39-5,22-.06,14.66-.61,19.23-2.09,16.73-2.79-4.73-7.2-4.3-10,1a56,56,0,0,1-3,5.13c-.35.39-3-1.16-6-3.44-7-5.43-9.5-5.25-23.71,1.74-21.64,10.65-34.81,7.07-34.81-9.47,0-6.66,1.35-9.66,7.27-16.13,4.69-5.12,6.59-8.61,5.35-9.84-1.06-1.05-8.58-3.19-16.72-4.77-22.29-4.32-29-6.58-35.41-11.88-7.43-6.17-8.5-6.07-12.67,1.17-3.06,5.31-4.18,5.83-10.08,4.74-4.4-.82-7.34-.35-8.76,1.38-3,3.62-10.65,31.26-9.29,33.44.61,1,3.72,1.22,6.89.53s5.78-.44,5.78.66S1253,989.16,1246.8,997l-11.27,14.21-5.59-10.92c-3.08-6-6.46-14.69-7.51-19.3-1.67-7.33-1.42-8.73,2-11.06,4.67-3.23,4.95-10.66.81-22.21-3.79-10.62-8.23-15.56-14-15.56s-6.5-2.11-9.29-29.64c-3.75-37,2.88-85.84,16.2-119.17,41.09-102.85,135.34-169.71,245.82-174.38,45.79-1.94,94.13,7.88,132.56,26.9,80.68,39.95,135.47,113.66,150.2,202,6.87,41.28-1.49,119-13.2,122.7-6.85,2.14-21.89,18.48-21.89,23.78,0,4-.74,4.71-3.81,3.75-2.1-.66-4.39-.26-5.09.85s-4.14,2-7.63,2.06c-7.18,0-18.92,6.61-15.49,8.7,2.78,1.69,2.86,8.95.12,8.95-1.14,0-6.54-3-12-6.6l-9.94-6.61,6-2.47c3.32-1.35,6-3.29,6-4.3s.9-1.3,2-.63c3.25,2,6.39-9.09,5.44-19.18-.49-5.15-1.36-9.84-2-10.42s-4-.29-7.69.65c-5.3,1.35-6.88,2.94-7.92,8-2.53,12.19-7.92,14.62-20.73,9.34-6.2-2.56-7.06-2.51-8.83.49-1.08,1.82-2,2.55-2,1.6s-1.32-.68-2.86.59c-2.37,1.94-2.63,1-1.69-6,1.4-10.28-2.3-13.55-15.28-13.5-5,0-8.18.68-7.08,1.47,2.23,1.61,10.94,13.53,10.94,15,0,.51-4.91,1.93-10.91,3.16s-11.42,3.06-12,4.06-3.83,1.83-7.11,1.83c-6.6,0-15.73,8.3-19.8,18-1.73,4.11-3.7,5.57-7.56,5.58a61.4,61.4,0,0,0-12.2,1.77c-3.83,1-9.64,2.35-12.93,3.06-5.56,1.21-5.74,1.08-2.7-2Zm51-30.74a7.59,7.59,0,0,0-.56-11.35c-2.45-2-3.31-1.5-5.05,3-3.31,8.58.14,13.7,5.61,8.31Z" transform="translate(-48.29 -119.98)"/><path id="path6134" class="cls-6" d="M1526.92,1011.54c1.83-1.84,7.35-3.6,12.55-4,11.17-.87,20-4.71,20-8.7,0-1.61-2-3.2-4.47-3.55s-4.48-1.89-4.48-3.43c0-1.81-2.12-2.81-6-2.81-7.34,0-7.62-2.41-.79-6.82l5.18-3.35-5.68-5.88c-7.59-7.87-12.06-10-17.79-8.62-6.09,1.51-6.08,5.12,0,10.77,5.92,5.49,7.75,12,5.2,18.65l-1.93,5-7.44-5c-5.77-3.86-9.44-4.84-16.44-4.39-7.63.49-9.62,1.53-13,6.78-4.42,6.84-12.59,9.79-14.38,5.19-.61-1.57-.06-6.36,1.26-10.64,3-9.82,1.42-14.73-5.85-18.44-8-4.07-8.73-3.83-12.59,4.16-3,6.23-4.14,7-9.4,6.22-5.6-.81-5.91-.52-4.82,4.38,1.3,5.82-1.18,8.79-9,10.71-3.93,1-5.38.29-7-3.28-1.24-2.81-4.23-4.87-8-5.48-5.5-.91-6-1.64-6.14-9.28s.15-8.22,4.48-7.15c5.57,1.38,12.2-.21,17.44-4.18,3.78-2.87,3.77-3-.36-7.35-2.31-2.44-5.85-8.84-7.87-14.24-4.34-11.58-11.12-14.6-13.33-5.93a11,11,0,0,1-6.21,6.93c-4.78,1.79-4.92,2.39-5,22-.06,14.66-.61,19.23-2.09,16.73-2.79-4.73-7.2-4.3-10,1a56,56,0,0,1-3,5.13c-.35.39-3-1.16-6-3.44-7-5.43-9.5-5.25-23.71,1.74-21.64,10.65-34.81,7.07-34.81-9.47,0-6.66,1.35-9.66,7.27-16.13,4.69-5.12,6.59-8.61,5.35-9.84-1.06-1.05-8.58-3.19-16.72-4.77-22.29-4.32-29-6.58-35.41-11.88-7.43-6.17-8.5-6.07-12.67,1.17-3.06,5.31-4.18,5.83-10.08,4.74-4.4-.82-7.34-.35-8.76,1.38-3,3.62-10.65,31.26-9.29,33.44.61,1,3.72,1.22,6.89.53s5.78-.44,5.78.66S1253,989.16,1246.8,997l-11.27,14.21-5.59-10.92c-3.08-6-6.46-14.69-7.51-19.3-1.67-7.33-1.42-8.73,2-11.06,4.67-3.23,4.95-10.66.81-22.21-3.79-10.62-8.23-15.56-14-15.56s-6.5-2.11-9.29-29.64c-3.75-37,2.88-85.84,16.2-119.17,41.09-102.85,135.34-169.71,245.82-174.38,45.79-1.94,94.13,7.88,132.56,26.9,80.68,39.95,135.47,113.66,150.2,202,6.87,41.28-1.49,119-13.2,122.7-6.85,2.14-21.89,18.48-21.89,23.78,0,4-.74,4.71-3.81,3.75-2.1-.66-4.39-.26-5.09.85s-4.14,2-7.63,2.06c-7.18,0-18.92,6.61-15.49,8.7,2.78,1.69,2.86,8.95.12,8.95-1.14,0-6.54-3-12-6.6l-9.94-6.61,6-2.47c3.32-1.35,6-3.29,6-4.3s.9-1.3,2-.63c3.25,2,6.39-9.09,5.44-19.18-.49-5.15-1.36-9.84-2-10.42s-4-.29-7.69.65c-5.3,1.35-6.88,2.94-7.92,8-2.53,12.19-7.92,14.62-20.73,9.34-6.2-2.56-7.06-2.51-8.83.49-1.08,1.82-2,2.55-2,1.6s-1.32-.68-2.86.59c-2.37,1.94-2.63,1-1.69-6,1.4-10.28-2.3-13.55-15.28-13.5-5,0-8.18.68-7.08,1.47,2.23,1.61,10.94,13.53,10.94,15,0,.51-4.91,1.93-10.91,3.16s-11.42,3.06-12,4.06-3.83,1.83-7.11,1.83c-6.6,0-15.73,8.3-19.8,18-1.73,4.11-3.7,5.57-7.56,5.58a61.4,61.4,0,0,0-12.2,1.77c-3.83,1-9.64,2.35-12.93,3.06-5.56,1.21-5.74,1.08-2.7-2Zm51-30.74a7.59,7.59,0,0,0-.56-11.35c-2.45-2-3.31-1.5-5.05,3-3.31,8.58.14,13.7,5.61,8.31Z" transform="translate(-48.29 -119.98)"/><g id="g1198"><path id="path1519" class="cls-7" d="M242.85,1046.44H1812.61" transform="translate(-48.29 -119.98)"/><path id="path1549" class="cls-7" d="M696.85,408.5h694.84" transform="translate(-48.29 -119.98)"/><path id="path1523" class="cls-7" d="M290.49,950.39H1779.17" transform="translate(-48.29 -119.98)"/><path id="path1525" class="cls-7" d="M352.59,866.22H1720" transform="translate(-48.29 -119.98)"/><path id="path1527" class="cls-7" d="M594.49,802.13l1051-14.3" transform="translate(-48.29 -119.98)"/><path id="path1531" class="cls-7" d="M472.54,690.85h915.34" transform="translate(-48.29 -119.98)"/><path id="path1533" class="cls-7" d="M505,641.74H1561.65" transform="translate(-48.29 -119.98)"/><path id="path1535" class="cls-7" d="M563.4,599.66h848.67" transform="translate(-48.29 -119.98)"/><path id="path1537" class="cls-7" d="M774.88,564.58h737.49" transform="translate(-48.29 -119.98)"/><path id="path1539" class="cls-7" d="M583.65,528h568" transform="translate(-48.29 -119.98)"/><path id="path1541" class="cls-7" d="M650.31,501.45h675.87" transform="translate(-48.29 -119.98)"/><path id="path1543" class="cls-7" d="M728.2,473.39h642.73" transform="translate(-48.29 -119.98)"/><path id="path1545" class="cls-7" d="M642.62,446.43h519.75" transform="translate(-48.29 -119.98)"/><path id="path4838" class="cls-7" d="M866.2,428.23h539.14" transform="translate(-48.29 -119.98)"/><path id="path4842" class="cls-7" d="M370.29,839.78,1698,841.34" transform="translate(-48.29 -119.98)"/><path id="path4846" class="cls-7" d="M421,763.09H971" transform="translate(-48.29 -119.98)"/><path id="path1173" class="cls-7" d="M590.13,726.66h934.3" transform="translate(-48.29 -119.98)"/></g></g></g></svg>