<svg xmlns="http://www.w3.org/2000/svg" viewBox="0 0 1972.32 984.95"><defs><style>.cls-1{fill:#f7db72;fill-opacity:0;}.cls-2{fill:#d38d5f;}.cls-3,.cls-4,.cls-5,.cls-6{stroke:#5f4512;}.cls-3,.cls-5{stroke-width:0.5px;}.cls-4,.cls-5{fill:#5f4512;}.cls-4{stroke-width:0.58px;}.cls-6{fill:none;stroke-width:0.47px;}.cls-7{fill:#a05a2c;}.cls-8{fill:#c87137;}</style></defs><title>dock_1</title><g id="Layer_2" data-name="Layer 2"><g id="svg1266"><path id="path6122" class="cls-1" d="M1171.73,821.11c-37.29-119.82,24-245.62,146.32-300.44,84.73-38,142.82-37.17,227.21,3.13,88.76,42.4,148,137.46,148,237.41,0,70.56-37.17,130.18-60.89,97.67-16.54-22.66-114.17-27.72-114.17-5.92,0,14-6,13.73-23.87-.92-13.13-10.75-23.87-12.79-23.87-4.54s-20.8,15-46.23,15c-32,0-43.72-6.45-38.08-20.94,4.48-11.51,1-20.93-7.77-20.93s-20,10.6-25.08,23.55c-11,28.31-75.52,31.94-69.84,3.93,2.22-10.93-14.87-21.78-38.55-24.48-33.22-3.79-43.68,2.53-47.75,28.85-3.89,25.17-10.34,17.21-25.46-31.39Z"/><path id="path6124" class="cls-1" d="M1171.73,821.11c-37.29-119.82,24-245.62,146.32-300.44,84.73-38,142.82-37.17,227.21,3.13,88.76,42.4,148,137.46,148,237.41,0,70.56-37.17,130.18-60.89,97.67-16.54-22.66-114.17-27.72-114.17-5.92,0,14-6,13.73-23.87-.92-13.13-10.75-23.87-12.79-23.87-4.54s-20.8,15-46.23,15c-32,0-43.72-6.45-38.08-20.94,4.48-11.51,1-20.93-7.77-20.93s-20,10.6-25.08,23.55c-11,28.31-75.52,31.94-69.84,3.93,2.22-10.93-14.87-21.78-38.55-24.48-33.22-3.79-43.68,2.53-47.75,28.85-3.89,25.17-10.34,17.21-25.46-31.39Z"/><path id="path6126" class="cls-1" d="M1478.64,891.56c1.83-1.84,7.34-3.6,12.55-4,11.17-.87,20-4.71,20-8.71,0-1.6-2-3.2-4.48-3.54s-4.48-1.89-4.48-3.44c0-1.81-2.11-2.8-6-2.8-7.34,0-7.62-2.41-.79-6.82l5.17-3.35L1495,853c-7.6-7.88-12.06-10-17.8-8.62-6.08,1.51-6.08,5.12,0,10.77,5.93,5.49,7.75,12,5.21,18.65l-1.94,5-7.43-5c-5.78-3.87-9.44-4.85-16.44-4.39-7.63.49-9.62,1.53-13,6.78-4.42,6.84-12.59,9.79-14.38,5.18-.61-1.56-.05-6.35,1.26-10.64,3-9.81,1.43-14.72-5.84-18.43-8-4.07-8.73-3.83-12.59,4.16-3,6.23-4.14,7-9.41,6.22-5.59-.81-5.91-.53-4.81,4.38,1.29,5.82-1.19,8.79-9,10.71-3.92,1-5.38.29-7-3.28-1.24-2.81-4.24-4.87-8-5.48-5.5-.91-6-1.64-6.13-9.28s.14-8.22,4.47-7.15c5.57,1.38,12.21-.21,17.44-4.18,3.78-2.87,3.78-3-.36-7.35-2.31-2.44-5.85-8.85-7.87-14.24-4.33-11.58-11.12-14.6-13.33-5.93a11,11,0,0,1-6.21,6.93c-4.78,1.79-4.92,2.39-5,22-.06,14.66-.62,19.23-2.09,16.73-2.8-4.73-7.2-4.3-10,1a53.17,53.17,0,0,1-2.95,5.13c-.34.4-3-1.15-6-3.43-7-5.43-9.51-5.25-23.71,1.74-21.65,10.65-34.82,7.06-34.82-9.47,0-6.66,1.36-9.66,7.28-16.13,4.69-5.12,6.59-8.62,5.34-9.84-1.06-1.05-8.58-3.19-16.72-4.77-22.28-4.32-29-6.58-35.41-11.88-7.43-6.17-8.5-6.07-12.67,1.17-3.06,5.3-4.18,5.83-10.07,4.74-4.41-.82-7.35-.35-8.77,1.38-3,3.62-10.65,31.26-9.29,33.44.62,1,3.72,1.21,6.9.52s5.78-.43,5.78.67-5.07,8.31-11.27,16.13l-11.27,14.21-5.6-10.92c-3.08-6-6.45-14.69-7.5-19.31-1.67-7.33-1.43-8.72,1.94-11.05,4.68-3.23,5-10.66.82-22.22-3.8-10.61-8.23-15.55-14-15.55s-6.49-2.11-9.28-29.64c-3.75-37,2.88-85.84,16.19-119.17,41.09-102.85,135.34-169.71,245.83-174.38,45.78-1.94,94.12,7.87,132.55,26.9,80.68,39.95,135.47,113.66,150.2,202,6.88,41.28-1.49,119-13.2,122.7-6.85,2.14-21.88,18.48-21.88,23.78,0,4-.75,4.71-3.82,3.75-2.09-.66-4.38-.26-5.09.85s-4.13,2-7.62,2.06c-7.19,0-18.93,6.61-15.49,8.7,2.77,1.69,2.86,9,.11,9-1.13,0-6.54-3-12-6.61l-9.94-6.6,6-2.47c3.32-1.35,6-3.29,6-4.3s.89-1.3,2-.63c3.24,2,6.38-9.1,5.43-19.18-.49-5.15-1.36-9.84-2-10.42s-4-.29-7.69.64c-5.3,1.36-6.88,2.94-7.92,8-2.53,12.2-7.91,14.63-20.73,9.34-6.2-2.55-7-2.5-8.83.5-1.08,1.82-2,2.54-2,1.6s-1.33-.68-2.87.59c-2.37,1.94-2.63,1-1.69-6,1.4-10.28-2.29-13.55-15.28-13.5-5,0-8.17.67-7.08,1.47,2.23,1.61,10.94,13.53,10.94,15,0,.51-4.9,1.93-10.9,3.16s-11.43,3-12.06,4.06-3.83,1.83-7.11,1.83c-6.59,0-15.73,8.3-19.79,18-1.73,4.11-3.71,5.57-7.57,5.58a61.31,61.31,0,0,0-12.19,1.77c-3.83,1-9.65,2.34-12.93,3.06-5.56,1.21-5.75,1.07-2.7-2Zm51-30.74a7.58,7.58,0,0,0-.57-11.35c-2.45-2-3.3-1.5-5,3-3.31,8.58.15,13.7,5.62,8.31Z"/><path id="path6128" class="cls-1" d="M1478.64,891.56c1.83-1.84,7.34-3.6,12.55-4,11.17-.87,20-4.71,20-8.71,0-1.6-2-3.2-4.48-3.54s-4.48-1.89-4.48-3.44c0-1.81-2.11-2.8-6-2.8-7.34,0-7.62-2.41-.79-6.82l5.17-3.35L1495,853c-7.6-7.88-12.06-10-17.8-8.62-6.08,1.51-6.08,5.12,0,10.77,5.93,5.49,7.75,12,5.21,18.65l-1.94,5-7.43-5c-5.78-3.87-9.44-4.85-16.44-4.39-7.63.49-9.62,1.53-13,6.78-4.42,6.84-12.59,9.79-14.38,5.18-.61-1.56-.05-6.35,1.26-10.64,3-9.81,1.43-14.72-5.84-18.43-8-4.07-8.73-3.83-12.59,4.16-3,6.23-4.14,7-9.41,6.22-5.59-.81-5.91-.53-4.81,4.38,1.29,5.82-1.19,8.79-9,10.71-3.92,1-5.38.29-7-3.28-1.24-2.81-4.24-4.87-8-5.48-5.5-.91-6-1.64-6.13-9.28s.14-8.22,4.47-7.15c5.57,1.38,12.21-.21,17.44-4.18,3.78-2.87,3.78-3-.36-7.35-2.31-2.44-5.85-8.85-7.87-14.24-4.33-11.58-11.12-14.6-13.33-5.93a11,11,0,0,1-6.21,6.93c-4.78,1.79-4.92,2.39-5,22-.06,14.66-.62,19.23-2.09,16.73-2.8-4.73-7.2-4.3-10,1a53.17,53.17,0,0,1-2.95,5.13c-.34.4-3-1.15-6-3.43-7-5.43-9.51-5.25-23.71,1.74-21.65,10.65-34.82,7.06-34.82-9.47,0-6.66,1.36-9.66,7.28-16.13,4.69-5.12,6.59-8.62,5.34-9.84-1.06-1.05-8.58-3.19-16.72-4.77-22.28-4.32-29-6.58-35.41-11.88-7.43-6.17-8.5-6.07-12.67,1.17-3.06,5.3-4.18,5.83-10.07,4.74-4.41-.82-7.35-.35-8.77,1.38-3,3.62-10.65,31.26-9.29,33.44.62,1,3.72,1.21,6.9.52s5.78-.43,5.78.67-5.07,8.31-11.27,16.13l-11.27,14.21-5.6-10.92c-3.08-6-6.45-14.69-7.5-19.31-1.67-7.33-1.43-8.72,1.94-11.05,4.68-3.23,5-10.66.82-22.22-3.8-10.61-8.23-15.55-14-15.55s-6.49-2.11-9.28-29.64c-3.75-37,2.88-85.84,16.19-119.17,41.09-102.85,135.34-169.71,245.83-174.38,45.78-1.94,94.12,7.87,132.55,26.9,80.68,39.95,135.47,113.66,150.2,202,6.88,41.28-1.49,119-13.2,122.7-6.85,2.14-21.88,18.48-21.88,23.78,0,4-.75,4.71-3.82,3.75-2.09-.66-4.38-.26-5.09.85s-4.13,2-7.62,2.06c-7.19,0-18.93,6.61-15.49,8.7,2.77,1.69,2.86,9,.11,9-1.13,0-6.54-3-12-6.61l-9.94-6.6,6-2.47c3.32-1.35,6-3.29,6-4.3s.89-1.3,2-.63c3.24,2,6.38-9.1,5.43-19.18-.49-5.15-1.36-9.84-2-10.42s-4-.29-7.69.64c-5.3,1.36-6.88,2.94-7.92,8-2.53,12.2-7.91,14.63-20.73,9.34-6.2-2.55-7-2.5-8.83.5-1.08,1.82-2,2.54-2,1.6s-1.33-.68-2.87.59c-2.37,1.94-2.63,1-1.69-6,1.4-10.28-2.29-13.55-15.28-13.5-5,0-8.17.67-7.08,1.47,2.23,1.61,10.94,13.53,10.94,15,0,.51-4.9,1.93-10.9,3.16s-11.43,3-12.06,4.06-3.83,1.83-7.11,1.83c-6.59,0-15.73,8.3-19.79,18-1.73,4.11-3.71,5.57-7.57,5.58a61.31,61.31,0,0,0-12.19,1.77c-3.83,1-9.65,2.34-12.93,3.06-5.56,1.21-5.75,1.07-2.7-2Zm51-30.74a7.58,7.58,0,0,0-.57-11.35c-2.45-2-3.3-1.5-5,3-3.31,8.58.15,13.7,5.62,8.31Z"/><path id="path6130" class="cls-1" d="M1478.64,891.56c1.83-1.84,7.34-3.6,12.55-4,11.17-.87,20-4.71,20-8.71,0-1.6-2-3.2-4.48-3.54s-4.48-1.89-4.48-3.44c0-1.81-2.11-2.8-6-2.8-7.34,0-7.62-2.41-.79-6.82l5.17-3.35L1495,853c-7.6-7.88-12.06-10-17.8-8.62-6.08,1.51-6.08,5.12,0,10.77,5.93,5.49,7.75,12,5.21,18.65l-1.94,5-7.43-5c-5.78-3.87-9.44-4.85-16.44-4.39-7.63.49-9.62,1.53-13,6.78-4.42,6.84-12.59,9.79-14.38,5.18-.61-1.56-.05-6.35,1.26-10.64,3-9.81,1.43-14.72-5.84-18.43-8-4.07-8.73-3.83-12.59,4.16-3,6.23-4.14,7-9.41,6.22-5.59-.81-5.91-.53-4.81,4.38,1.29,5.82-1.19,8.79-9,10.71-3.92,1-5.38.29-7-3.28-1.24-2.81-4.24-4.87-8-5.48-5.5-.91-6-1.64-6.13-9.28s.14-8.22,4.47-7.15c5.57,1.38,12.21-.21,17.44-4.18,3.78-2.87,3.78-3-.36-7.35-2.31-2.44-5.85-8.85-7.87-14.24-4.33-11.58-11.12-14.6-13.33-5.93a11,11,0,0,1-6.21,6.93c-4.78,1.79-4.92,2.39-5,22-.06,14.66-.62,19.23-2.09,16.73-2.8-4.73-7.2-4.3-10,1a53.17,53.17,0,0,1-2.95,5.13c-.34.4-3-1.15-6-3.43-7-5.43-9.51-5.25-23.71,1.74-21.65,10.65-34.82,7.06-34.82-9.47,0-6.66,1.36-9.66,7.28-16.13,4.69-5.12,6.59-8.62,5.34-9.84-1.06-1.05-8.58-3.19-16.72-4.77-22.28-4.32-29-6.58-35.41-11.88-7.43-6.17-8.5-6.07-12.67,1.17-3.06,5.3-4.18,5.83-10.07,4.74-4.41-.82-7.35-.35-8.77,1.38-3,3.62-10.65,31.26-9.29,33.44.62,1,3.72,1.21,6.9.52s5.78-.43,5.78.67-5.07,8.31-11.27,16.13l-11.27,14.21-5.6-10.92c-3.08-6-6.45-14.69-7.5-19.31-1.67-7.33-1.43-8.72,1.94-11.05,4.68-3.23,5-10.66.82-22.22-3.8-10.61-8.23-15.55-14-15.55s-6.49-2.11-9.28-29.64c-3.75-37,2.88-85.84,16.19-119.17,41.09-102.85,135.34-169.71,245.83-174.38,45.78-1.94,94.12,7.87,132.55,26.9,80.68,39.95,135.47,113.66,150.2,202,6.88,41.28-1.49,119-13.2,122.7-6.85,2.14-21.88,18.48-21.88,23.78,0,4-.75,4.71-3.82,3.75-2.09-.66-4.38-.26-5.09.85s-4.13,2-7.62,2.06c-7.19,0-18.93,6.61-15.49,8.7,2.77,1.69,2.86,9,.11,9-1.13,0-6.54-3-12-6.61l-9.94-6.6,6-2.47c3.32-1.35,6-3.29,6-4.3s.89-1.3,2-.63c3.24,2,6.38-9.1,5.43-19.18-.49-5.15-1.36-9.84-2-10.42s-4-.29-7.69.64c-5.3,1.36-6.88,2.94-7.92,8-2.53,12.2-7.91,14.63-20.73,9.34-6.2-2.55-7-2.5-8.83.5-1.08,1.82-2,2.54-2,1.6s-1.33-.68-2.87.59c-2.37,1.94-2.63,1-1.69-6,1.4-10.28-2.29-13.55-15.28-13.5-5,0-8.17.67-7.08,1.47,2.23,1.61,10.94,13.53,10.94,15,0,.51-4.9,1.93-10.9,3.16s-11.43,3-12.06,4.06-3.83,1.83-7.11,1.83c-6.59,0-15.73,8.3-19.79,18-1.73,4.11-3.71,5.57-7.57,5.58a61.31,61.31,0,0,0-12.19,1.77c-3.83,1-9.65,2.34-12.93,3.06-5.56,1.21-5.75,1.07-2.7-2Zm51-30.74a7.58,7.58,0,0,0-.57-11.35c-2.45-2-3.3-1.5-5,3-3.31,8.58.15,13.7,5.62,8.31Z"/><path id="path6132" class="cls-1" d="M1478.64,891.56c1.83-1.84,7.34-3.6,12.55-4,11.17-.87,20-4.71,20-8.71,0-1.6-2-3.2-4.48-3.54s-4.48-1.89-4.48-3.44c0-1.81-2.11-2.8-6-2.8-7.34,0-7.62-2.41-.79-6.82l5.17-3.35L1495,853c-7.6-7.88-12.06-10-17.8-8.62-6.08,1.51-6.08,5.12,0,10.77,5.93,5.49,7.75,12,5.21,18.65l-1.94,5-7.43-5c-5.78-3.87-9.44-4.85-16.44-4.39-7.63.49-9.62,1.53-13,6.78-4.42,6.84-12.59,9.79-14.38,5.18-.61-1.56-.05-6.35,1.26-10.64,3-9.81,1.43-14.72-5.84-18.43-8-4.07-8.73-3.83-12.59,4.16-3,6.23-4.14,7-9.41,6.22-5.59-.81-5.91-.53-4.81,4.38,1.29,5.82-1.19,8.79-9,10.71-3.92,1-5.38.29-7-3.28-1.24-2.81-4.24-4.87-8-5.48-5.5-.91-6-1.64-6.13-9.28s.14-8.22,4.47-7.15c5.57,1.38,12.21-.21,17.44-4.18,3.78-2.87,3.78-3-.36-7.35-2.31-2.44-5.85-8.85-7.87-14.24-4.33-11.58-11.12-14.6-13.33-5.93a11,11,0,0,1-6.21,6.93c-4.78,1.79-4.92,2.39-5,22-.06,14.66-.62,19.23-2.09,16.73-2.8-4.73-7.2-4.3-10,1a53.17,53.17,0,0,1-2.95,5.13c-.34.4-3-1.15-6-3.43-7-5.43-9.51-5.25-23.71,1.74-21.65,10.65-34.82,7.06-34.82-9.47,0-6.66,1.36-9.66,7.28-16.13,4.69-5.12,6.59-8.62,5.34-9.84-1.06-1.05-8.58-3.19-16.72-4.77-22.28-4.32-29-6.58-35.41-11.88-7.43-6.17-8.5-6.07-12.67,1.17-3.06,5.3-4.18,5.83-10.07,4.74-4.41-.82-7.35-.35-8.77,1.38-3,3.62-10.65,31.26-9.29,33.44.62,1,3.72,1.21,6.9.52s5.78-.43,5.78.67-5.07,8.31-11.27,16.13l-11.27,14.21-5.6-10.92c-3.08-6-6.45-14.69-7.5-19.31-1.67-7.33-1.43-8.72,1.94-11.05,4.68-3.23,5-10.66.82-22.22-3.8-10.61-8.23-15.55-14-15.55s-6.49-2.11-9.28-29.64c-3.75-37,2.88-85.84,16.19-119.17,41.09-102.85,135.34-169.71,245.83-174.38,45.78-1.94,94.12,7.87,132.55,26.9,80.68,39.95,135.47,113.66,150.2,202,6.88,41.28-1.49,119-13.2,122.7-6.85,2.14-21.88,18.48-21.88,23.78,0,4-.75,4.71-3.82,3.75-2.09-.66-4.38-.26-5.09.85s-4.13,2-7.62,2.06c-7.19,0-18.93,6.61-15.49,8.7,2.77,1.69,2.86,9,.11,9-1.13,0-6.54-3-12-6.61l-9.94-6.6,6-2.47c3.32-1.35,6-3.29,6-4.3s.89-1.3,2-.63c3.24,2,6.38-9.1,5.43-19.18-.49-5.15-1.36-9.84-2-10.42s-4-.29-7.69.64c-5.3,1.36-6.88,2.94-7.92,8-2.53,12.2-7.91,14.63-20.73,9.34-6.2-2.55-7-2.5-8.83.5-1.08,1.82-2,2.54-2,1.6s-1.33-.68-2.87.59c-2.37,1.94-2.63,1-1.69-6,1.4-10.28-2.29-13.55-15.28-13.5-5,0-8.17.67-7.08,1.47,2.23,1.61,10.94,13.53,10.94,15,0,.51-4.9,1.93-10.9,3.16s-11.43,3-12.06,4.06-3.83,1.83-7.11,1.83c-6.59,0-15.73,8.3-19.79,18-1.73,4.11-3.71,5.57-7.57,5.58a61.31,61.31,0,0,0-12.19,1.77c-3.83,1-9.65,2.34-12.93,3.06-5.56,1.21-5.75,1.07-2.7-2Zm51-30.74a7.58,7.58,0,0,0-.57-11.35c-2.45-2-3.3-1.5-5,3-3.31,8.58.15,13.7,5.62,8.31Z"/><path id="path6134" class="cls-1" d="M1478.64,891.56c1.83-1.84,7.34-3.6,12.55-4,11.17-.87,20-4.71,20-8.71,0-1.6-2-3.2-4.48-3.54s-4.48-1.89-4.48-3.44c0-1.81-2.11-2.8-6-2.8-7.34,0-7.62-2.41-.79-6.82l5.17-3.35L1495,853c-7.6-7.88-12.06-10-17.8-8.62-6.08,1.51-6.08,5.12,0,10.77,5.93,5.49,7.75,12,5.21,18.65l-1.94,5-7.43-5c-5.78-3.87-9.44-4.85-16.44-4.39-7.63.49-9.62,1.53-13,6.78-4.42,6.84-12.59,9.79-14.38,5.18-.61-1.56-.05-6.35,1.26-10.64,3-9.81,1.43-14.72-5.84-18.43-8-4.07-8.73-3.83-12.59,4.16-3,6.23-4.14,7-9.41,6.22-5.59-.81-5.91-.53-4.81,4.38,1.29,5.82-1.19,8.79-9,10.71-3.92,1-5.38.29-7-3.28-1.24-2.81-4.24-4.87-8-5.48-5.5-.91-6-1.64-6.13-9.28s.14-8.22,4.47-7.15c5.57,1.38,12.21-.21,17.44-4.18,3.78-2.87,3.78-3-.36-7.35-2.31-2.44-5.85-8.85-7.87-14.24-4.33-11.58-11.12-14.6-13.33-5.93a11,11,0,0,1-6.21,6.93c-4.78,1.79-4.92,2.39-5,22-.06,14.66-.62,19.23-2.09,16.73-2.8-4.73-7.2-4.3-10,1a53.17,53.17,0,0,1-2.95,5.13c-.34.4-3-1.15-6-3.43-7-5.43-9.51-5.25-23.71,1.74-21.65,10.65-34.82,7.06-34.82-9.47,0-6.66,1.36-9.66,7.28-16.13,4.69-5.12,6.59-8.62,5.34-9.84-1.06-1.05-8.58-3.19-16.72-4.77-22.28-4.32-29-6.58-35.41-11.88-7.43-6.17-8.5-6.07-12.67,1.17-3.06,5.3-4.18,5.83-10.07,4.74-4.41-.82-7.35-.35-8.77,1.38-3,3.62-10.65,31.26-9.29,33.44.62,1,3.72,1.21,6.9.52s5.78-.43,5.78.67-5.07,8.31-11.27,16.13l-11.27,14.21-5.6-10.92c-3.08-6-6.45-14.69-7.5-19.31-1.67-7.33-1.43-8.72,1.94-11.05,4.68-3.23,5-10.66.82-22.22-3.8-10.61-8.23-15.55-14-15.55s-6.49-2.11-9.28-29.64c-3.75-37,2.88-85.84,16.19-119.17,41.09-102.85,135.34-169.71,245.83-174.38,45.78-1.94,94.12,7.87,132.55,26.9,80.68,39.95,135.47,113.66,150.2,202,6.88,41.28-1.49,119-13.2,122.7-6.85,2.14-21.88,18.48-21.88,23.78,0,4-.75,4.71-3.82,3.75-2.09-.66-4.38-.26-5.09.85s-4.13,2-7.62,2.06c-7.19,0-18.93,6.61-15.49,8.7,2.77,1.69,2.86,9,.11,9-1.13,0-6.54-3-12-6.61l-9.94-6.6,6-2.47c3.32-1.35,6-3.29,6-4.3s.89-1.3,2-.63c3.24,2,6.38-9.1,5.43-19.18-.49-5.15-1.36-9.84-2-10.42s-4-.29-7.69.64c-5.3,1.36-6.88,2.94-7.92,8-2.53,12.2-7.91,14.63-20.73,9.34-6.2-2.55-7-2.5-8.83.5-1.08,1.82-2,2.54-2,1.6s-1.33-.68-2.87.59c-2.37,1.94-2.63,1-1.69-6,1.4-10.28-2.29-13.55-15.28-13.5-5,0-8.17.67-7.08,1.47,2.23,1.61,10.94,13.53,10.94,15,0,.51-4.9,1.93-10.9,3.16s-11.43,3-12.06,4.06-3.83,1.83-7.11,1.83c-6.59,0-15.73,8.3-19.79,18-1.73,4.11-3.71,5.57-7.57,5.58a61.31,61.31,0,0,0-12.19,1.77c-3.83,1-9.65,2.34-12.93,3.06-5.56,1.21-5.75,1.07-2.7-2Zm51-30.74a7.58,7.58,0,0,0-.57-11.35c-2.45-2-3.3-1.5-5,3-3.31,8.58.15,13.7,5.62,8.31Z"/><g id="g3402"><path id="path4534" class="cls-2" d="M48.08,985s543-729.31,566.11-732.54c12.73-1.77,735.9-3.91,739.36,0,9.64,10.93,530.09,714.5,530.09,714.5Z"/></g><path id="path1519" class="cls-3" d="M194.56,926.46H1764.33"/><path id="path1549" class="cls-4" d="M648.56,288.52H1343.4"/><path id="path1523" class="cls-5" d="M165.31,830.41H1756.69"/><path id="path1525" class="cls-5" d="M231.61,746.23H1692.79"/><path id="path1527" class="cls-5" d="M546.2,682.15l1051-14.31"/><path id="path1531" class="cls-5" d="M405.3,570.87h934.29"/><path id="path1533" class="cls-5" d="M407.74,521.76H1523.9"/><path id="path1535" class="cls-5" d="M515.11,479.67h848.67"/><path id="path1537" class="cls-5" d="M726.59,444.6h737.5"/><path id="path1539" class="cls-5" d="M494.81,409.53h608.52"/><path id="path1541" class="cls-5" d="M602,381.47h675.86"/><path id="path1543" class="cls-5" d="M679.92,353.41h642.72"/><path id="path1545" class="cls-6" d="M560.89,326.45h553.19"/><g id="g1921"><path id="path1287" class="cls-7" d="M419.74,502l2.17-348,4.57-21-23.62-9.17-24.37,13.37,2.42,13.7.45,400.21Z"/><path id="path1320" class="cls-7" d="M518.81,378l5.46-347.77,4.57-21L505.22,0,480.85,13.37l2.42,13.69,3.41,388Z"/><path id="path1322" class="cls-7" d="M328.14,617.16l-2.28-345.59,4.57-21-23.62-9.17-24.37,13.37,2.42,13.7,13.95,387.9Z"/><path id="path1329" class="cls-7" d="M1543.07,514.13l-3-350.23-4.57-21,23.62-9.17,24.37,13.37-2.42,13.69-12.51,385.85Z"/><path id="path1331" class="cls-7" d="M1443.2,385.85l-5.46-347.77-4.57-21,23.62-9.17,24.37,13.37L1478.74,35l-3.41,388Z"/><path id="path1333" class="cls-7" d="M1632.5,632.47l3.65-351-4.57-21,23.62-9.17,24.37,13.37-2.42,13.69-15.84,391.51Z"/></g><path id="path4838" class="cls-5" d="M817.92,308.25h539.13"/><path id="path4842" class="cls-5" d="M279.11,719.8l1370.6,1.56"/><path id="path4846" class="cls-5" d="M335.29,643.11H922.71"/><path id="path2680" class="cls-7" d="M1375.16,249.1l597.16,723.83L1873,969.37l-531.74-718.3Z"/><path id="path2047" class="cls-8" d="M1362.08,250l563.77,723.83-93.77-3.56-502-718.29Z"/><path id="path2678" class="cls-7" d="M597.17,250,0,973.79l99.32-3.56L631.06,251.94Z"/><path id="path2045" class="cls-8" d="M611.1,250.89,47.33,974.72l93.77-3.56,502-718.3Z"/></g></g></svg>