<svg xmlns="http://www.w3.org/2000/svg" viewBox="0 0 3840 432.13"><defs><style>.cls-1{fill:#46a0b5;}.cls-2{fill:#edffaa;}.cls-3{fill:#677821;}</style></defs><title>front-bushes</title><g id="Layer_2" data-name="Layer 2"><g id="svg1266"><path class="cls-1" d="M125.26,384.4c-.94,1.06-1.91,2.15-2.94,3.28-5.27,5.77-10.47,9.3-15.74,11.28-8.84,3.44-17.89,2.36-27.84.11-15.9-3.46-34.1-9.79-57.44-5.79a165.78,165.78,0,0,1-21.3,2v36.83c10.58-2.78,3.28-2,11.63-3.3,8.91-1.4,10.11,0,20.33-3.5s6.4-2.8,21.62-.7,26.73-.7,48.35-8.9,19-3.6,24.13-6.4,1.3-9.6,10.21-12.4C145,394.19,152.46,393.46,125.26,384.4Z"/><path class="cls-2" d="M10.29,249c9.91,11.5,6.21,9.2,20.92,2.3s25.73,2.3,46.66,28.6,18.42,11.4,23.32,20.6,24.83,30.9,33.44,40.1c3.82,4.08,7.37,7.73,7.69,13.23.31-6.58-3.53-10.64-7.69-15.23-8.61-9.5-28.53-32-33.44-41.5s-2.5,5.9-23.32-21.3-31.94-36.7-46.66-29.6-11,9.5-20.92-2.4c-4.92-5.92-7.68-7.69-10.29-8.57v5.42C2.61,241.49,5.37,243.21,10.29,249Z"/><path class="cls-2" d="M78.74,399.07c10,2.25,19,3.33,27.84-.11C97.74,402.28,88.69,401.24,78.74,399.07Z"/><path class="cls-3" d="M101.19,300.48c-4.9-9.2-2.5,5.7-23.32-20.6s-31.94-35.5-46.66-28.6-11,9.2-20.92-2.3c-4.92-5.77-7.68-7.49-10.29-8.35V395.3a165.78,165.78,0,0,0,21.3-2c23.34-4,41.54,2.33,57.44,5.79,10,2.17,19,3.21,27.84-.11,5.27-2,10.47-5.51,15.74-11.28,1-1.13,2-2.22,2.94-3.28,13.34-15.18,17.43-24.15,17.06-30.59-.32-5.5-3.87-9.15-7.69-13.23C126,331.38,106.1,309.68,101.19,300.48Z"/><path class="cls-2" d="M3680.06,165.25c12.25,1.58,3.69-14.41,13.57-15.19,8.95-.72,6.76-8,16.27-3.41a38.5,38.5,0,0,0-6.65-5c-13.7-8.29-9.88.89-19.89,1.68-9.07.8-2.69,14.46-10.69,15.8C3672.64,161.62,3671.11,164.1,3680.06,165.25Z"/><path class="cls-2" d="M3734.07,158.05c12.25-4,8.56.79,22.13-4.84s24.5,0,20.81-12.82c-2-7-6.18-6.61-9.18-7.63.07.24.15.46.22.72,3.69,13.22-7.51,7.4-21.2,13.22s-9.88.79-22.4,4.93a26.84,26.84,0,0,1-5,1.28C3725.51,158.32,3724.26,161.29,3734.07,158.05Z"/><path class="cls-2" d="M3764.76,122c2.5-17.56-12.25-3.15-6.19-27.13s12.25-19.14,22.13-23.19,2.5-2.36,4.87-12.82-4.87-11.15,7.38-16.78-1.19-2.36,15.94-11.94c16.29-9,13.92-1.72,31.11-13V0c-1.4,1-2.92,2.13-4.64,3.34-21.21,15-17.39,5.82-34.9,15.78s-3.69,6.61-16.21,12.44-5,6.61-7.5,17.36,5,9.08-5,13.22-16.2-.79-22.39,24.08,8.69,10,6.19,28.22c-1.91,13.94,4.25,10,8.91,13.23A26.43,26.43,0,0,1,3764.76,122Z"/><path class="cls-2" d="M3532.8,305.85c-19.63-9.57,4.87-45.58,4.87-45.58s0-22.4,6.19-27.93,12.25-20.81,35.57-27.13,15.94-18.35,24.5-26.34,12.25-7.21,19.63-11.94,20.81-3.16,18.44-4.84c-1.71-1.07,10.88-4.75,20.26-6-.77-1.83.87-4.07-1.3-6-3.68-3.26-32.4,4.14-29.9,5.82s-11.19,0-18.7,4.93-11.2,4.14-19.89,12.43-1.19,20.72-24.9,27.33-29.9,22.4-36.09,28.22-6.19,29-6.19,29-24.89,37.3-5,47.26c18.9,9.47,7.46,3.17,28.8,12.52,2.85-.38,3.36-.37,8.74-1C3541.33,309.63,3550.39,314.52,3532.8,305.85Z"/><path class="cls-1" d="M3840,326.35c-20.39-.85-.77-2.91-47.05.32-56.51,3.95-14.75-2.37-81,0s-28.19,8-81,2.37-40.57,1.58-66.25-9.57c-2.69-1.16-4.94-2.12-6.85-2.92-5.38.66-5.89.65-8.74,1-1.89.26-4.81.68-10.89,1.59-19.76,3,5,14.21,5,14.21s0,7,6.19,8.68,12.38,6.42,35.83,8.49,16.06,5.72,24.76,8.19,12.38,2.27,19.76,3.75,21.07,1,18.57,1.48,25.95,2.76,29.64,1.77-3.69-2.27,8.69-2.76,3.69,4.44,13.57,4.74,6.19,3,19.76.49,8.69-4.24,21.07-3,8.69-.3,22.26,1.48,24.76,0,21.08,3.95-14.89.29-12.39,5.72-12.38,1-6.19,8.48,12.39,5.92,22.26,7.21,2.51.79,5,3.94-5,3.46,7.38,5.23-1.19.79,16.07,3.75c13.37,2.28,14.21,1.23,23.47,2.65Z"/><path class="cls-3" d="M3642,162.09c2.37,1.68-11.07,0-18.44,4.84s-11.07,3.94-19.63,11.94-1.19,19.93-24.5,26.34-29.37,21.51-35.57,27.13-6.19,27.93-6.19,27.93-24.5,36-4.87,45.58c17.59,8.67,8.53,3.78,25,10.7,1.91.8,4.16,1.76,6.85,2.92,25.68,11.15,13.43,3.94,66.25,9.57s14.75,0,81-2.37,24.5,3.95,81,0c46.28-3.23,26.66-1.17,47.05-.32V17.18c-17.19,11.27-14.82,4-31.11,13-17.13,9.58-3.69,6.32-15.94,11.94s-4.88,6.42-7.38,16.78,5,8.88-4.87,12.82-15.94-.79-22.13,23.19,8.69,9.57,6.19,27.13a26.43,26.43,0,0,0-.31,5.64c.25,3.38,1.61,4.48,3.38,5.09,3,1,7.18.66,9.18,7.63,3.69,12.82-7.24,7.2-20.81,12.82s-9.88.89-22.13,4.84c-9.81,3.24-8.56.27-14.64-5.14a38.79,38.79,0,0,0-6.17-4.43c-1.26-.75-2.37-1.36-3.36-1.83-9.51-4.59-7.32,2.69-16.27,3.41-9.88.78-1.32,16.77-13.57,15.19-8.95-1.15-7.42-3.63-7.39-6.1a3.18,3.18,0,0,0-1.17-2.68c-1.17-1-4.86-1-9.24-.38C3652.88,157.34,3640.29,161,3642,162.09Z"/></g></g></svg>