<svg xmlns="http://www.w3.org/2000/svg" viewBox="0 0 636.43 255.26"><defs><style>.cls-1{fill:#86a021;}.cls-17,.cls-2{fill:#f9f6c1;}.cls-10,.cls-16,.cls-3,.cls-9{fill:none;}.cls-17,.cls-3{stroke:#e3dc62;stroke-width:0.26px;}.cls-4{fill:#abc837;}.cls-5{fill:#ac9393;}.cls-6{fill:#f95;}.cls-7{fill:#46a0b5;}.cls-8{fill:#ff5100;}.cls-10,.cls-16,.cls-9{stroke:#677821;}.cls-9{stroke-width:0.44px;}.cls-10{stroke-width:0.4px;}.cls-11,.cls-12{stroke:#000;}.cls-11{stroke-width:0.37px;}.cls-12{stroke-width:0.39px;}.cls-13,.cls-14{fill:#2c5aa0;}.cls-14{isolation:isolate;font-size:19.73px;font-family:ArialMT, Arial;}.cls-15{letter-spacing:-0.04em;}.cls-16{stroke-width:0.33px;}</style></defs><title>gator-boat</title><g id="Layer_2" data-name="Layer 2"><g id="svg1266"><path id="path1064" class="cls-1" d="M336,119.6s-6.8,1.3-8.5,10.1,5.1,13-9.8,15.9-19.1,26-19.1,26l58.2-20.5-18.7-31.8-.4,2.1Z"/><path id="path1054" class="cls-2" d="M260,75.6s1.3,13.4,8.5,15.5,39.9,4.6,39.9,4.6l31,2.9s-9.3,40.6,8.1,78.7A434.34,434.34,0,0,0,384,242.2l56.5-31.4L407.8,107.3,385.3,54.9,334.8,68.7Z"/><g id="g10727"><path id="path10713" class="cls-1" d="M479.05,201.18l3.3,5.43c.39-1.29.79-2.27,1.39-4.44C485.24,196.84,481,199.7,479.05,201.18Z"/><path id="path10711" class="cls-1" d="M469.45,185.49l6.6,10.66-.3-1.09s-1.6-1.08,0-7.1-4.7,0-4.7,0Z"/><path id="path10709" class="cls-1" d="M433.35,126.68l35.6,58s.4-1.28,3.6-9.87-12.9-8.38-12.9-8.38l-3.2-5.63s0-.59,3.2-9.17-12.9-5.23-12.9-5.23l-3.4-6.12s-.9-.39,1.5-9.47C447,122.64,435.35,126.09,433.35,126.68Z"/><path id="path10707" class="cls-1" d="M420.65,106l8.7,14.11c0-.19.1-1,3.5-7,4-7-11.9-7.11-12.2-7.11Z"/><path id="path10705" class="cls-1" d="M407.15,81.69l-.3,1.68,13.6,22.1-2.2-5.42s-.8-.79,3.8-9-12.7-4.64-12.7-4.64S408.15,84.06,407.15,81.69Z"/></g><path id="path10795" class="cls-3" d="M338.9,112.5s8,2.8,12.1,2.9c9.6.2,25.7-5.4,28.2-5.4"/><path id="path10693" class="cls-4" d="M373.2,19.5c-3.9.8-6.4,6.2-6.4,6.2-3.7-3.3-5.4-3.9-10.3-5.1s-16.1,4.6-16.1,4.6-1.1,1-3.4-2.3-4-1.9-8.5-2.5-9.3,20.5-10.6,23-49,5-49,5-.4,0-2.1-2.3-1.7,0-7.9-1.5-5.5,8.8-5.5,8.8-4.5.6-3.8,10.5,23.1,16.8,28.9,17.4,8.5,3.8,17.6,3.8,5.7-1.3,12.1-1.3,12.3,2.3,18.7,2.1,8.1-2.3,12.5-2.7,12.5.6,22.9-.2,5.9-1.5,11.9-5.2S378.9,65,378.9,65l5.7,5.4,5.1,9.8c5.1,9.8-9.6,12.6-9.6,12.6s-.2-.2.8,4.4,8.9,33.5,8.9,33.5,0,.8,2.3,7.5,1.9,4.4,7.2,14.7,10.6,22.2,18.7,40.8,10.8,25.1,10.8,25.1l54.8-1.3-.4-2.9,1.1-1a40.27,40.27,0,0,0,1.5-3.9l-3.3-5.4c-.4.3-1.4.9-1.4.9l-1.6-5.9-6.6-10.7-.5-.8h0l-35.6-58a4.08,4.08,0,0,1-.7.2l-3.4-6.5.1-.29L424.1,109H424l-.2-.5L410.2,86.4l.3-1.7c-1.5-3.5-3-7.5-2.1-9,1.5-2.4.4-5,.3-10.8s-11.1-11.1-13.4-13a19,19,0,0,1-3.8-5.2s.4.3-1.8-10.7-6.3-11.3-12.5-15.7a4.86,4.86,0,0,0-4-.8Z"/><path id="path10797" class="cls-3" d="M338.6,123.4s8.8,5.2,21.9,3.5,20.5-7,20.5-7"/><path id="path10758" class="cls-1" d="M387.3,137.5s13.9-23.9,19.7-11.1-5.8,31.6-15.4,38.3-4.3-27.2-4.3-27.2Z"/><path id="path1066-6" class="cls-1" d="M284.1,165.2c-8.7,1.3-10.3,16.9-10.3,16.9s-1.3,11.9,5.3,4.5c6.6-7.2,5-21.4,5-21.4Z"/><path id="path10801" class="cls-3" d="M339.6,134.5s3.2,2.8,13.1,3.5,27.6-5.6,27.6-5.6l-1.1-.3h.7"/><path id="path10756" class="cls-4" d="M386.1,135.9S400,112,405.8,124.8s-5.8,31.6-15.4,38.3S386.1,135.9,386.1,135.9Z"/><path id="path10803" class="cls-3" d="M339.3,145.3s8.8,5.2,21.9,3.5,20.5-7,20.5-7"/><path id="path10813" class="cls-3" d="M343.7,158.9a36.2,36.2,0,0,0,15.2,4.9c8.7.7,27.9-3.8,27.9-3.8v.71"/><path id="path1085" class="cls-1" d="M380.6,134.7c-7.4,3.8-8.7,9.7-8.7,9.7s-.3,5.5,6,16,11.8,7.7,15.3,2.5c3.3-4.9.1-14.6-2.2-20.8C388.8,136.4,385,132.4,380.6,134.7Z"/><path id="path1058" class="cls-5" d="M283.1,179.4,562.3,52.6,566.8,63l-260,115.5Z"/><path id="path1068-6" class="cls-1" d="M292.3,163c-8.7,1.3-10.3,16.9-10.3,16.9s-1.3,11.9,5.3,4.5,5-21.4,5-21.4Z"/><path id="path1068-9-9" class="cls-1" d="M300.8,159.5c-8.7,1.3-10.3,16.9-10.3,16.9s-1.3,11.9,5.3,4.5,5-21.4,5-21.4Z"/><path id="path252" class="cls-6" d="M15.2,190S122.6,249,190,246.2s233.2,1.2,233.2,1.2,82.1,3.4,107.1-14.4c0,0-11.1,6.71,35.3-21.2,53.9-26,50-24.6,50-24.6Z"/><g id="g2067"><path id="path2063" class="cls-7" d="M180.14,223.12s-121.52-1.18-143.3.6S6.11,225,2.38,226.87s-4,3.85,6,3.95,12.16.3,14.72,1.38,5.31,1.19,9.26,1.09.6-.2,11,.49-1.1.4,14.06,1.28,18.41.79,27.66.5,14.31.59,12.22,1.58-7.22,2.66-2.11,3.45-3.4,0,7.16,1.08,5.91,1.19,13.67,1.88,16.17,1.48,20,1.08,5.15-.29,8.41.79,10.82,1.58,11.28,2.47.82,1.58,7.77,2.07,15.66.5,17.27,1.09,9.71.79,15.65.49-.7,0,10.16.3,3.84-.3,10.85.29a67.2,67.2,0,0,0,15.54-.89c2.6-.19-.21-.39,10.24-.88s-4.74,1.08,9.21,1,8.8.2,12.55-.29,6.49-1,11.09-.59a70.9,70.9,0,0,0,11.1.19c3.9-.19-.45-.29,7.56.5s.9-.2,11.16.88,4.52,1.58,12.87,1.68,3.54-.89,9.9-.2,11.92,1.78,17.41,1.39,1.64-1.29,9.7-.6,6.66,1.29,13.4.79,1.24-.89,9.09-1.18,1.84-.89,8.55-.3a88.24,88.24,0,0,0,17.54-.29,58.18,58.18,0,0,1,10.75-.5c4.35.1,8.49-.39,7.74-1.08s.49-.4,4.49-1,8-.59,8-.59a79.94,79.94,0,0,0,10.95.49c8.67-16.48,7-12.82-.11-27.23,0,0-12.1-.2-27.54.3s-11.89,1-24.4.59,7.5-.4-24.41-.79-18.15-.3-52.15-.1-35.43,1.28-51.54.49-30-.59-58.26-.88c-28,0-27.65.09-27.65.09Z"/><path id="path2065" class="cls-7" d="M432.34,223.12s123.28-1.18,147.5.6,32.87,1.28,38.64,3.15,8.19,3.85-2.05,3.95-12.15.3-13.69,1.38-4.19,1.19-8.34,1.09-.8-.2-10.74.49,1.6.4-13,1.28a232.74,232.74,0,0,1-27.84.5c-9.7-.2-14.09.59-10.78,1.58s10.18,2.66,5.79,3.45,3.5,0-6.24,1.08c-29.65,4.15-73.16,8.39-106.88,10.46-24.71-.39-42-3-61.77-1.67-9,.09-15.85.49-18.39.78-18.08,2-55.51,4-82.82,2.67-8.41-.4-2.86-.89-9.06-.3-10.55-.49-29.39.79-39-1.87,0-.69-.9-.4-5.61-1-27.11-1.18-36.58-7.3-48.06-27.33,0,0,12.2-.2,28.55.3s13.22,1,25.61.59-8.1-.4,24.29-.79,18.35-.3,53.35-.1,37.67,1.28,53.36.49,30.19-.59,58.74-.88c28.7,0,28.45.09,28.45.09Z"/></g><g id="g4826"><path id="path1060" class="cls-8" d="M527.84,78.94s-14-23.38,5.2-35.42,44.5-29.4,44.5-29.4,23.3-23.38,30.5-10,15,25.46,15,25.46Z"/><path id="path1062" class="cls-8" d="M525.44,74.5s11.5,24.67,32.8,16.78,50.9-17.47,50.9-17.47,33.4-4.44,26.3-18-12.6-26.65-12.6-26.65Z"/></g><g id="g2136"><path id="path2126-7" class="cls-9" d="M370.56,32.53c-11.6-8.88-16.5-1.48-16.5-1.48"/><path id="path2128-7" class="cls-10" d="M343,29.87c-10-9.38-13.9-2-13.9-2"/><path id="path2130-8" class="cls-11" d="M314,36.48c-.21,3.25-.61,7.2,1.6,9.77a12.09,12.09,0,0,0,11.1,3.45c4.3-1,7.3-5.23,9.6-9a14.21,14.21,0,0,0,1.3-4l-22.4-4A14.83,14.83,0,0,0,314,36.48Z"/><path id="path2132-4" class="cls-12" d="M347.46,41.51c0,3.55,0,7.8,2.39,10.36A12.24,12.24,0,0,0,361.56,55c4.2-1.28,7-6,9.1-10.07a15.9,15.9,0,0,0,1-4.34l-23.2-3.16a11.46,11.46,0,0,0-1,4Z"/><polygon id="rect2134" points="327.25 40.13 357.95 42.5 357.15 47.23 326.45 44.87 327.25 40.13"/></g><path id="path3263" class="cls-13" d="M15.2,184.2l605.4-13-6.9,16.9L19.9,197.2Z"/><text class="cls-14" transform="translate(111.25 214.59) scale(1.01 1)">Lake <tspan class="cls-15" x="48.27" y="0">W</tspan><tspan x="66.17" y="0">auberg</tspan></text><text class="cls-14" transform="translate(111.25 214.94) scale(1.01 1)">Lake <tspan class="cls-15" x="48.27" y="0">W</tspan><tspan x="66.17" y="0">auberg</tspan></text><text class="cls-14" transform="translate(111.25 214.59) scale(1.01 1)">Lake <tspan class="cls-15" x="48.27" y="0">W</tspan><tspan x="66.17" y="0">auberg</tspan></text><text class="cls-14" transform="translate(111.43 214.77) scale(1.01 1)">Lake <tspan class="cls-15" x="48.27" y="0">W</tspan><tspan x="66.17" y="0">auberg</tspan></text><path id="path1066" class="cls-4" d="M365.8,134.3c-8.1,3.4-5.7,18.9-5.7,18.9s1.7,11.8,6.3,3.1S365.8,134.3,365.8,134.3Z"/><path id="path1068" class="cls-4" d="M373.5,130.5c-8.1,3.4-5.7,18.9-5.7,18.9s1.7,11.8,6.3,3.1S373.5,130.5,373.5,130.5Z"/><path id="path1068-9" class="cls-4" d="M381.3,127.1c-8.1,3.4-5.7,18.9-5.7,18.9s1.7,11.8,6.3,3.1S381.3,127.1,381.3,127.1Z"/><path id="path10789" class="cls-16" d="M257,54.1s3.3-8.8,6.9-6.2,1.9,7.7,1.9,7.7,8.6-6.7,9.4,0-2.2,6.8-2.2,6.8l.1.1"/><path id="path10815" class="cls-17" d="M347.9,169.1s4.6,3.7,18.4,4.9,33.1-7.5,33.1-7.5"/><path id="path10817" class="cls-3" d="M266.9,90.3s7.6,1.9,12.3,2.5,6.6-.1,15.2,1.1c17.2,2.4,44,5.1,57.9,4.5C361.9,98,378,93,380.5,93"/><path id="path10819" class="cls-3" d="M260,75.1s.1,6.5,2.8,10.4,5,4.9,5,4.9"/></g></g></svg>