<svg xmlns="http://www.w3.org/2000/svg" viewBox="0 0 3839.3 664.31"><defs><style>.cls-1{fill:#f0e6ce;}.cls-2{fill:#46a0b5;}.cls-3{fill:#abc837;}</style></defs><title>middle-bushes</title><g id="Layer_2" data-name="Layer 2"><g id="svg1266"><path class="cls-1" d="M3113.91,386.49s10.4-35.52,24.3-38.87,17.3,2.76,26-5.33.8-5.33,18.2-10.06,19.1,15.39,25.2,10.06,20.8-1.28,37.3-12c11.68-7.61,10.72-7.17,7.93-12.92a84.87,84.87,0,0,1-7.93,5.82c-16.5,11.25-31.3,7.1-37.3,12.73s-7.8-15.49-25.2-10.56-9.5,2.07-18.2,10.56-12.2,2.07-26,5.62-24.3,40.95-24.3,40.95-22.6,5.62-21.7,18.35c0,.44.05.86.06,1.29C3093.65,391.28,3113.91,386.49,3113.91,386.49Z"/><path class="cls-1" d="M3092.24,404.61c-.2,4.44-1.11,8.33-.91,12.19C3091.52,413,3092.47,409.15,3092.24,404.61Z"/><path class="cls-1" d="M3289.11,267.21c16.5.69,17.3-15.5,26-17.47s21.7.59,22.6-8.09,31.3-18.75,38.2-21.41,11.3,2,13.9-10.06,0-11.35,19.1-15.4,0,0,20.8-15.39,92.9,0,92.9,0-1.8-24.86,13-27.53,22.6-15.39,22.6-15.39,54.7-25.45,73.8-22.79,11.3.69,21.7-12.73,6-3.35,15.6-20.13,0-14.7,23.4-18.74,28.6,4,28.6,4,25.2-15.49,58.2-14.11,14.8-16.08,25.2-19.44c9.66-3.11,5.86-.43,34.59,3.76V13.5c-28.73-4.38-24.93-7.22-34.59-3.91-10.4,3.55,7.8,21.9-25.2,20.52s-58.2,14.8-58.2,14.8-5.2-8.49-28.6-4.24-13.9,2.07-23.4,19.73-5.2,7.1-15.6,21.21S3651.11,97.89,3632,95s-73.8,24-73.8,24-7.8,13.42-22.6,16.28-13,28.91-13,28.91-72.1-16.28-92.9,0-1.7,12-20.8,16.28-16.5,3.55-19.1,16.28-6.9,7.79-13.9,10.55-37.3,13.42-38.2,22.6-13.9,6.31-22.6,8.48-9.5,19.05-26,18.36-43.4,21.21-39.9,40.94c0,.27.1.52.15.79C3252.76,282.13,3274.82,266.61,3289.11,267.21Z"/><path class="cls-2" d="M3815.81,464.24c-66,6-14.7.69-70.3-3.35s-9.6,0-33,0-79.9-1.28-84.2-2l-201.8,7.4s-236.1-6.71-253.5-11.45c-16.28-4.34-47-7-65.79-17.22a89.88,89.88,0,0,0-12,3.31c-18.4,6.61-10.5,10.65-11.4,17.36s22,9.67,22,9.67,10.5,19.64,24.6,21.51,17.5-1.48,26.3,3,.8,3,18.4,5.53,19.4-8.49,25.5-5.53,21.1.79,37.8,6.71,7.9,3,4.4,13.32,23.7,21.91,40.4,21.51,17.5,8.59,26.3,9.67,21.9-.39,22.8,4.44,31.6,10.36,38.6,11.84,11.5-1.18,14.1,5.53,0,6.21,19.3,8.48,0,0,21.1,8.49,94,0,94,0-1.7,13.71,13.2,15.19,22.8,8.49,22.8,8.49,55.4,14.11,74.7,12.63,11.5-.4,22,7,6.1,1.88,15.8,11.15,0,8.09,23.7,10.36,29-2.27,29-2.27,25.4,8.49,58.8,7.8,15,8.88,25.5,10.75c9.78,1.73,6,.27,34.39-2V461.81C3832.7,462.59,3825,463.41,3815.81,464.24Z"/><path class="cls-3" d="M3426.51,466.32l201.8-7.4c4.3.69,60.8,2,84.2,2s-22.6-4.05,33,0,4.3,9.37,70.3,3.35c9.18-.83,16.89-1.65,23.49-2.43V36.33c-28.73-4.19-24.93-6.87-34.59-3.76-10.4,3.36,7.8,20.82-25.2,19.44s-58.2,14.11-58.2,14.11-5.2-8.09-28.6-4-13.9,2-23.4,18.74-5.2,6.71-15.6,20.13-2.6,15.39-21.7,12.73-73.8,22.79-73.8,22.79-7.8,12.73-22.6,15.39-13,27.53-13,27.53-72.1-15.39-92.9,0-1.7,11.45-20.8,15.39-16.5,3.36-19.1,15.4-6.9,7.4-13.9,10.06-37.3,12.73-38.2,21.41-13.9,6-22.6,8.09-9.5,18.16-26,17.47c-14.29-.6-36.35,14.92-39.75,31.27a19.46,19.46,0,0,0-.15,7.6,42,42,0,0,0,3.63,11.25c2.79,5.75,3.75,5.31-7.93,12.92-16.5,10.76-31.3,6.71-37.3,12s-7.8-14.8-25.2-10.06-9.5,2-18.2,10.06-12.2,2-26,5.33-24.3,38.87-24.3,38.87-20.26,4.79-21.64,15.6a8.89,8.89,0,0,0-.06,1.87l0,.65c.23,4.54-.72,8.43-.91,12.19-.3,5.87,1.27,11.42,12.18,18.63,1.17.78,2.42,1.52,3.71,2.22,18.8,10.18,49.51,12.88,65.79,17.22C3190.41,459.61,3426.51,466.32,3426.51,466.32Z"/><path class="cls-1" d="M841.44,439.08c12.26-28.2,13.06-84.1-13.15-85.7s-31.42-4.7-36.71-20.4-12.26-17.2-22.68-15.7-1.77,3.1-28-7.8,3.53-6.3-34.94-18.8-47.13-11-71.58-7.8-36.71-9.4-29.66-23.5,17.48-21.9,5.21-34.5,13.95-17.2-12.26-32.9-14-17.2-33.18-28.2-40.16-21.9-50.66-15.7-14,4.7-20.92-11-26.21-23.5-26.21-36,0-23.5-17.47-29.8-40.16-7.8-43.69-15.7-24.44-11-40.15-7.8,1.76,0-26.21-4.7-10.5,4.7-28-4.7-34.94,9.4-41.92,12.5,0,6.3-28,12.5,13.95-15.7-22.68-14.1S196,47,185.46,53.18s-18.35,14.9-29.65,9.4-18.36-6.3-28.78-3.1.88,4.7-19.24-7.8-2.64,2.3-28-12.5S70.2,16.48,48.4,14.08s-10.5,12.5-26.21,2.3C14.32,11.27,7.11,4.6,0,0V23.59C5.07,27.32,10.26,31.52,15.78,35c15.71,9.7,4.41-4.6,26.13-2.3s6.09,9.8,31.34,24.1,7.77,0,27.81,12,8.74,10.5,19.16,7.5,17.39-2.3,28.69,3,19.16-3,29.58-9-3.45-2.3,33.1-3.8S206.38,86,234.2,80,255,71,262,68s24.37-21,41.76-12,0,0,27.81,4.5,10.5,7.5,26.13,4.5,36.55,0,40,7.5,26.13,9,43.52,15,17.39,16.6,17.39,28.6,19.16,19.6,26.13,34.6,10.5,16.5,20.92,10.5,31.34,4.5,50.5,15,7,12.1,33.1,27.1,0,19.6,12.19,31.6,1.76,19.6-5.21,33.1,5.21,25.6,29.57,22.6,33-4.5,71.34,7.5,8.66,7.6,34.79,18.1,17.39,9,27.81,7.5,17.39,0,22.6,15,10.42,18.1,36.55,19.6,25.33,55.2,13.15,82.3c-3.09,6.86-7,10.86-12.11,13.15.72.39,1.41.8,2.08,1.23C830.86,453.4,837,449.27,841.44,439.08Z"/><path class="cls-2" d="M735.39,459.08c-59.15,25.6-374.23,9-374.23,9s.88.7-71.82-2.2c-73.1-3-109.65-1.5-150.53-12s-46.08,5.2-134.89,7.5l-3.92.1V647c4.85-1.73,9.82-3.65,15.1-5.24,15.6-4.7,4.3,2.2,26,1.1s6-4.7,31.2-11.6,7.8,0,27.8-5.8,8.7-5,19.1-3.6,17.3,1,28.6-1.5,19.1,1.5,29.5,4.4-3.5,1.1,33,1.8-5.2-9.4,22.6-6.5,20.8,4.4,27.8,5.8,24.3,10.2,41.7,5.8,0,0,27.8-2.2,10.4-3.7,26-2.2,36.4,0,39.9-3.6,26-4.4,43.4-7.3,17.4-8,17.4-13.8,19.1-9.4,26-16.7,10.4-8,20.8-5.1,31.2-2.2,50.3-7.3,7-5.8,33-13.1,0-9.4,12.2-15.2,1.7-9.5-5.2-16,5.2-12.4,29.5-10.9,33,2.2,71.2-3.6,8.7-3.6,34.7-8.7,17.4-4.3,27.8-3.6,17.4,0,22.6-7.3,10.5-8.7,36.5-9.4,22.6-13.7,10.4-26.8A24.29,24.29,0,0,0,822,455c-.67-.43-1.36-.84-2.08-1.23C804.89,460.51,779.58,452.43,735.39,459.08Z"/><path class="cls-3" d="M0,461.48l3.92-.1c88.81-2.3,94-18.1,134.89-7.5s77.43,9,150.53,12c72.7,2.9,71.82,2.2,71.82,2.2s315.08,16.6,374.23-9c44.19-6.65,69.5,1.43,84.56-5.35,5.1-2.29,9-6.29,12.11-13.15,12.18-27.1,13-80.8-13.15-82.3s-31.34-4.5-36.55-19.6-12.18-16.6-22.6-15-1.76,3-27.81-7.5,3.44-6-34.79-18.1-47-10.5-71.34-7.5-36.55-9-29.57-22.6,17.39-21.1,5.21-33.1,13.94-16.6-12.19-31.6-13.94-16.6-33.1-27.1-40-21.1-50.5-15-13.94,4.5-20.92-10.5-26.13-22.6-26.13-34.6,0-22.6-17.39-28.6-40-7.5-43.52-15-24.37-10.5-40-7.5,1.76,0-26.13-4.5S321.16,65,303.77,56,269,65,262,68s0,6-27.81,12,13.94-15-22.61-13.5-22.6-2.3-33.1,3.8-18.28,14.3-29.58,9-18.27-6-28.69-3,.88,4.5-19.16-7.5-2.64,2.3-27.81-12S63.71,35,41.91,32.68s-10.42,12-26.13,2.3C10.26,31.52,5.07,27.32,0,23.59Z"/></g></g></svg>