<?xml version="1.0" encoding="UTF-8" standalone="no"?>
<!-- Created with Inkscape (http://www.inkscape.org/) -->

<svg
   xmlns:dc="http://purl.org/dc/elements/1.1/"
   xmlns:cc="http://creativecommons.org/ns#"
   xmlns:rdf="http://www.w3.org/1999/02/22-rdf-syntax-ns#"
   xmlns:svg="http://www.w3.org/2000/svg"
   xmlns="http://www.w3.org/2000/svg"
   xmlns:sodipodi="http://sodipodi.sourceforge.net/DTD/sodipodi-0.dtd"
   xmlns:inkscape="http://www.inkscape.org/namespaces/inkscape"
   width="150.37976mm"
   height="28.155399mm"
   viewBox="0 0 150.37976 28.155399"
   version="1.1"
   id="svg1711"
   inkscape:version="0.92.4 (5da689c313, 2019-01-14)"
   sodipodi:docname="Official New Text.svg">
  <defs
     id="defs1705" />
  <sodipodi:namedview
     id="base"
     pagecolor="#ffffff"
     bordercolor="#666666"
     borderopacity="1.0"
     inkscape:pageopacity="0.0"
     inkscape:pageshadow="2"
     inkscape:zoom="0.7"
     inkscape:cx="140.23875"
     inkscape:cy="-45.267891"
     inkscape:document-units="mm"
     inkscape:current-layer="g1086"
     showgrid="false"
     inkscape:window-width="1920"
     inkscape:window-height="1001"
     inkscape:window-x="-9"
     inkscape:window-y="-9"
     inkscape:window-maximized="1"
     fit-margin-top="0"
     fit-margin-left="0"
     fit-margin-right="0"
     fit-margin-bottom="0" />
  <metadata
     id="metadata1708">
    <rdf:RDF>
      <cc:Work
         rdf:about="">
        <dc:format>image/svg+xml</dc:format>
        <dc:type
           rdf:resource="http://purl.org/dc/dcmitype/StillImage" />
        <dc:title></dc:title>
      </cc:Work>
    </rdf:RDF>
  </metadata>
  <g
     inkscape:label="Layer 1"
     inkscape:groupmode="layer"
     id="layer1"
     transform="translate(-32.601044,-110.93185)">
    <path
       d="m 201.04566,118.77693 h -0.61753 v -0.73639 h 0.61753 z"
       style="font-style:normal;font-variant:normal;font-weight:normal;font-stretch:normal;font-size:5.29166651px;line-height:1.25;font-family:sans-serif;-inkscape-font-specification:sans-serif;font-variant-ligatures:normal;font-variant-caps:normal;font-variant-numeric:normal;font-feature-settings:normal;text-align:start;letter-spacing:0px;word-spacing:0px;writing-mode:lr-tb;text-anchor:start;display:inline;opacity:1;fill:#4d4d4d;fill-opacity:1;stroke:none;stroke-width:0.26458332"
       id="path1520"
       inkscape:connector-curvature="0" />
    <path
       d="m 213.82146,132.95086 h -0.62137 v -0.73184 h 0.62137 z"
       style="font-style:normal;font-variant:normal;font-weight:normal;font-stretch:normal;font-size:5.29166651px;line-height:1.25;font-family:sans-serif;-inkscape-font-specification:sans-serif;font-variant-ligatures:normal;font-variant-caps:normal;font-variant-numeric:normal;font-feature-settings:normal;text-align:start;letter-spacing:0px;word-spacing:0px;writing-mode:lr-tb;text-anchor:start;display:inline;opacity:1;fill:#333333;fill-opacity:1;stroke:none;stroke-width:0.09603555"
       id="path3664"
       inkscape:connector-curvature="0" />
    <path
       d="m 211.32608,110.06963 h -0.61753 v -0.73639 h 0.61753 z"
       style="font-style:normal;font-variant:normal;font-weight:normal;font-stretch:normal;font-size:5.29166651px;line-height:1.25;font-family:sans-serif;-inkscape-font-specification:sans-serif;font-variant-ligatures:normal;font-variant-caps:normal;font-variant-numeric:normal;font-feature-settings:normal;text-align:start;letter-spacing:0px;word-spacing:0px;writing-mode:lr-tb;text-anchor:start;fill:#4d4d4d;fill-opacity:1;stroke:none;stroke-width:0.26458332"
       id="path3666"
       inkscape:connector-curvature="0" />
    <path
       d="m 209.60877,111.03678 h -0.61753 v -0.73639 h 0.61753 z"
       style="font-style:normal;font-variant:normal;font-weight:normal;font-stretch:normal;font-size:5.29166651px;line-height:1.25;font-family:sans-serif;-inkscape-font-specification:sans-serif;font-variant-ligatures:normal;font-variant-caps:normal;font-variant-numeric:normal;font-feature-settings:normal;text-align:start;letter-spacing:0px;word-spacing:0px;writing-mode:lr-tb;text-anchor:start;fill:#4d4d4d;fill-opacity:1;stroke:none;stroke-width:0.26458332"
       id="path3732"
       inkscape:connector-curvature="0" />
    <g
       id="g3937"
       transform="translate(8.5526249,-0.26726953)">
      <g
         id="g1086">
        <g
           id="g1143"
           inkscape:export-xdpi="96"
           inkscape:export-ydpi="96">
          <g
             id="g3692"
             transform="translate(-9.7195104,-13.028618)">
            <path
               d="m 172.40385,144.18158 h -4.24196 l -3.18906,-5.85929 -0.99215,1.42588 v 4.43341 h -3.64465 v -18.64429 h 3.64465 v 11.13146 l 3.92811,-5.94317 h 4.20146 l -4.0901,5.79938 z"
               style="font-style:normal;font-variant:normal;font-weight:bold;font-stretch:normal;font-size:22.55663109px;line-height:1.25;font-family:'Avenir Light';-inkscape-font-specification:'Avenir Light, Bold';font-variant-ligatures:normal;font-variant-caps:normal;font-variant-numeric:normal;font-feature-settings:normal;text-align:start;letter-spacing:0px;word-spacing:0px;writing-mode:lr-tb;text-anchor:start;fill:#000000;fill-opacity:1;stroke:none;stroke-width:23.7203846"
               id="path3668"
               inkscape:connector-curvature="0" />
            <g
               id="g3690">
              <path
                 inkscape:connector-curvature="0"
                 id="path3670"
                 style="font-style:normal;font-variant:normal;font-weight:normal;font-stretch:normal;font-size:25.14128876px;line-height:1.25;font-family:'Avenir Light';-inkscape-font-specification:'Avenir Light, ';font-variant-ligatures:normal;font-variant-caps:normal;font-variant-numeric:normal;font-feature-settings:normal;text-align:start;letter-spacing:0px;word-spacing:0px;writing-mode:lr-tb;text-anchor:start;fill:#000000;fill-opacity:1;stroke:none;stroke-width:0.28669116"
                 d="m 44.092617,141.5738 q 0,1.9496 -1.501987,3.19835 -1.490161,1.24876 -4.080203,1.24876 -1.466507,0 -2.696481,-0.36952 -1.218149,-0.38227 -2.046016,-0.82826 v -2.68865 h 0.118267 q 1.052574,0.85374 2.341682,1.36343 1.289107,0.49695 2.471775,0.49695 1.466508,0 2.294375,-0.50969 0.827868,-0.5097 0.827868,-1.60554 0,-0.84101 -0.449414,-1.27425 -0.449414,-0.43324 -1.726695,-0.73907 -0.473067,-0.11467 -1.241801,-0.26758 -0.756907,-0.15291 -1.38372,-0.33131 -1.738522,-0.49695 -2.471776,-1.45264 -0.721427,-0.96842 -0.721427,-2.37008 0,-0.87924 0.331147,-1.65653 0.342973,-0.77728 1.02892,-1.38892 0.662295,-0.5989 1.679388,-0.94294 1.028921,-0.35679 2.294375,-0.35679 1.182668,0 2.388988,0.31856 1.218148,0.30582 2.022362,0.75181 v 2.56123 h -0.118267 q -0.85152,-0.67535 -2.069668,-1.13408 -1.218147,-0.47147 -2.388988,-0.47147 -1.218147,0 -2.057842,0.5097 -0.839693,0.49696 -0.839693,1.49086 0,0.87923 0.508547,1.32521 0.49672,0.44599 1.608428,0.72632 0.614987,0.15292 1.371894,0.30582 0.768733,0.15291 1.27728,0.28034 1.549295,0.38227 2.388989,1.31247 0.839693,0.94294 0.839693,2.49751 z" />
              <path
                 inkscape:connector-curvature="0"
                 id="path3672"
                 style="font-style:normal;font-variant:normal;font-weight:normal;font-stretch:normal;font-size:25.14128876px;line-height:1.25;font-family:'Avenir Light';-inkscape-font-specification:'Avenir Light, ';font-variant-ligatures:normal;font-variant-caps:normal;font-variant-numeric:normal;font-feature-settings:normal;text-align:start;letter-spacing:0px;word-spacing:0px;writing-mode:lr-tb;text-anchor:start;fill:#000000;fill-opacity:1;stroke:none;stroke-width:0.28669116"
                 d="m 63.902298,131.44357 -3.441562,14.2333 h -2.057841 l -3.394256,-10.97123 -3.370603,10.97123 h -2.046014 l -3.477043,-14.2333 h 2.318029 l 2.424468,11.0222 3.299642,-11.0222 h 1.833135 l 3.382428,11.0222 2.294376,-11.0222 z" />
              <path
                 inkscape:connector-curvature="0"
                 id="path3674"
                 style="font-style:normal;font-variant:normal;font-weight:normal;font-stretch:normal;font-size:25.14128876px;line-height:1.25;font-family:'Avenir Light';-inkscape-font-specification:'Avenir Light, ';font-variant-ligatures:normal;font-variant-caps:normal;font-variant-numeric:normal;font-feature-settings:normal;text-align:start;letter-spacing:0px;word-spacing:0px;writing-mode:lr-tb;text-anchor:start;fill:#000000;fill-opacity:1;stroke:none;stroke-width:0.28669116"
                 d="m 77.136345,145.67687 h -2.211587 v -1.51635 q -0.295668,0.21663 -0.804215,0.61163 -0.49672,0.38228 -0.969786,0.61164 -0.555854,0.29308 -1.277281,0.48422 -0.721428,0.20388 -1.691215,0.20388 -1.785828,0 -3.027629,-1.27425 -1.2418,-1.27424 -1.2418,-3.24932 0,-1.61829 0.63864,-2.6122 0.650467,-1.00665 1.844961,-1.58006 1.206321,-0.57341 2.897536,-0.77729 1.691213,-0.20388 3.630789,-0.30582 v -0.36953 q 0,-0.81551 -0.272014,-1.3507 -0.260187,-0.53518 -0.756907,-0.841 -0.473067,-0.29307 -1.135361,-0.39501 -0.662294,-0.10194 -1.383721,-0.10194 -0.875174,0 -1.951402,0.25485 -1.076226,0.24211 -2.223414,0.71358 h -0.118267 v -2.4338 q 0.650468,-0.19114 1.880442,-0.42051 1.229974,-0.22936 2.424468,-0.22936 1.395547,0 2.424468,0.25485 1.040748,0.24211 1.797655,0.841 0.74508,0.58616 1.135361,1.51635 0.390279,0.9302 0.390279,2.30639 z m -2.211587,-3.50417 v -3.9629 q -1.017095,0.0637 -2.400815,0.19114 -1.371895,0.12742 -2.176109,0.36953 -0.957961,0.29307 -1.549294,0.91745 -0.591334,0.61164 -0.591334,1.69475 0,1.22327 0.685948,1.84765 0.685947,0.61164 2.093321,0.61164 1.170841,0 2.140628,-0.48422 0.969787,-0.49695 1.797655,-1.18504 z" />
              <path
                 inkscape:connector-curvature="0"
                 id="path3676"
                 style="font-style:normal;font-variant:normal;font-weight:normal;font-stretch:normal;font-size:25.14128876px;line-height:1.25;font-family:'Avenir Light';-inkscape-font-specification:'Avenir Light, ';font-variant-ligatures:normal;font-variant-caps:normal;font-variant-numeric:normal;font-feature-settings:normal;text-align:start;letter-spacing:0px;word-spacing:0px;writing-mode:lr-tb;text-anchor:start;fill:#000000;fill-opacity:1;stroke:none;stroke-width:0.28669116"
                 d="m 100.71873,145.67687 h -2.223411 v -8.10419 q 0,-0.91745 -0.08276,-1.7712 -0.071,-0.85374 -0.319317,-1.36344 -0.272015,-0.54793 -0.780564,-0.82826 -0.508548,-0.28033 -1.466507,-0.28033 -0.934307,0 -1.868614,0.5097 -0.934308,0.49695 -1.868615,1.27424 0.03548,0.29308 0.05913,0.68809 0.02365,0.38227 0.02365,0.76455 v 9.11084 h -2.223415 v -8.10419 q 0,-0.94294 -0.08279,-1.78394 -0.07096,-0.85375 -0.31932,-1.36345 -0.272014,-0.54792 -0.780561,-0.81551 -0.508547,-0.28033 -1.466507,-0.28033 -0.910654,0 -1.833134,0.48421 -0.910655,0.48421 -1.821308,1.23602 v 10.62719 h -2.223415 v -14.2333 h 2.223415 v 1.58006 q 1.040746,-0.9302 2.069667,-1.45263 1.040748,-0.52245 2.211589,-0.52245 1.34824,0 2.282548,0.61164 0.946134,0.61164 1.407374,1.69474 1.348241,-1.22327 2.459948,-1.75845 1.111708,-0.54793 2.377159,-0.54793 2.176111,0 3.205028,1.42715 1.04075,1.41441 1.04075,3.9629 z" />
              <path
                 inkscape:connector-curvature="0"
                 id="path3678"
                 style="font-style:normal;font-variant:normal;font-weight:bold;font-stretch:normal;font-size:22.55663109px;line-height:1.25;font-family:'Avenir Light';-inkscape-font-specification:'Avenir Light, Bold';font-variant-ligatures:normal;font-variant-caps:normal;font-variant-numeric:normal;font-feature-settings:normal;text-align:start;letter-spacing:0px;word-spacing:0px;writing-mode:lr-tb;text-anchor:start;fill:#000000;fill-opacity:1;stroke:none;stroke-width:23.7203846"
                 d="m 130.93592,144.18158 h -3.66489 v -6.67408 q 0,-0.81479 -0.0709,-1.6176 -0.0709,-0.81478 -0.24298,-1.19822 -0.20248,-0.44334 -0.59732,-0.64703 -0.38471,-0.2037 -1.08327,-0.2037 -0.49607,0 -1.0124,0.19171 -0.5062,0.19172 -1.10351,0.61109 v 9.53783 h -3.64464 v -18.64429 h 3.64464 v 6.67408 q 0.9719,-0.89866 1.86281,-1.37795 0.90104,-0.47929 1.99443,-0.47929 1.84257,0 2.87522,1.27011 1.04278,1.27011 1.04278,3.79835 z" />
              <path
                 inkscape:connector-curvature="0"
                 id="path3680"
                 style="font-style:normal;font-variant:normal;font-weight:bold;font-stretch:normal;font-size:22.55663109px;line-height:1.25;font-family:'Avenir Light';-inkscape-font-specification:'Avenir Light, Bold';font-variant-ligatures:normal;font-variant-caps:normal;font-variant-numeric:normal;font-feature-settings:normal;text-align:start;letter-spacing:0px;word-spacing:0px;writing-mode:lr-tb;text-anchor:start;fill:#000000;fill-opacity:1;stroke:none;stroke-width:23.7203846"
                 d="m 141.18141,140.6708 v -2.80383 q -0.73905,0.0719 -1.59959,0.20369 -0.86054,0.11982 -1.306,0.28758 -0.5467,0.2037 -0.84029,0.59911 -0.28347,0.38342 -0.28347,1.01848 0,0.41937 0.0608,0.68298 0.0608,0.26361 0.30372,0.50326 0.23285,0.23964 0.55682,0.35946 0.32397,0.10781 1.0124,0.10781 0.5467,0 1.10352,-0.2636 0.56695,-0.26361 0.99215,-0.69496 z m 0,2.0849 q -0.29359,0.26361 -0.72892,0.63505 -0.43534,0.37145 -0.82005,0.58714 -0.53657,0.28756 -1.11364,0.41936 -0.57707,0.14379 -1.2655,0.14379 -1.61984,0 -2.71324,-1.18623 -1.09339,-1.18624 -1.09339,-3.0315 0,-1.47381 0.55682,-2.40842 0.55682,-0.93461 1.57935,-1.47381 1.0124,-0.5392 2.51075,-0.76685 1.49836,-0.22767 3.10807,-0.3355 v -0.0719 q 0,-1.11435 -0.76942,-1.53372 -0.76942,-0.43136 -2.26778,-0.43136 -0.90104,0 -1.92356,0.38343 -1.02252,0.37145 -1.46798,0.57515 h -0.3341 v -3.24718 q 0.57708,-0.17973 1.87295,-0.41938 1.30599,-0.25162 2.61199,-0.25162 3.10807,0 4.48494,1.1383 1.38698,1.12633 1.38698,3.54673 v 9.15439 h -3.61427 z" />
              <path
                 inkscape:connector-curvature="0"
                 id="path3682"
                 style="font-style:normal;font-variant:normal;font-weight:bold;font-stretch:normal;font-size:22.55663109px;line-height:1.25;font-family:'Avenir Light';-inkscape-font-specification:'Avenir Light, Bold';font-variant-ligatures:normal;font-variant-caps:normal;font-variant-numeric:normal;font-feature-settings:normal;text-align:start;letter-spacing:0px;word-spacing:0px;writing-mode:lr-tb;text-anchor:start;fill:#000000;fill-opacity:1;stroke:none;stroke-width:23.7203846"
                 d="m 154.06927,144.54104 q -1.48823,0 -2.72335,-0.41938 -1.22501,-0.41937 -2.13617,-1.29407 -0.90104,-0.8747 -1.39711,-2.20472 -0.49608,-1.33002 -0.49608,-3.11537 0,-1.88121 0.52645,-3.24717 0.53657,-1.36598 1.48822,-2.26464 0.92129,-0.85074 2.12605,-1.24615 1.20475,-0.39541 2.50062,-0.39541 1.16427,0 2.1463,0.29956 0.98202,0.29955 1.83244,0.77884 v 3.67853 h -0.51633 q -0.2126,-0.21568 -0.51632,-0.50325 -0.29359,-0.28757 -0.72892,-0.56316 -0.41509,-0.26361 -0.91116,-0.43137 -0.49609,-0.17973 -1.15415,-0.17973 -1.45785,0 -2.24752,1.10237 -0.77955,1.09037 -0.77955,2.97158 0,1.94111 0.7998,2.94761 0.80992,1.00651 2.28802,1.00651 0.68843,0 1.23513,-0.17973 0.55682,-0.19171 0.92129,-0.44335 0.34421,-0.23964 0.60743,-0.50324 0.26323,-0.26361 0.48595,-0.51524 h 0.51633 v 3.67854 q -0.86054,0.47929 -1.80207,0.75488 -0.93141,0.28756 -2.0653,0.28756 z" />
              <path
                 inkscape:connector-curvature="0"
                 id="path3684"
                 style="font-style:normal;font-variant:normal;font-weight:bold;font-stretch:normal;font-size:22.55663109px;line-height:1.25;font-family:'Avenir Light';-inkscape-font-specification:'Avenir Light, Bold';font-variant-ligatures:normal;font-variant-caps:normal;font-variant-numeric:normal;font-feature-settings:normal;text-align:start;letter-spacing:0px;word-spacing:0px;writing-mode:lr-tb;text-anchor:start;fill:#000000;fill-opacity:1;stroke:none;stroke-width:23.7203846"
                 d="m 184.14769,139.91592 q 0,2.0849 -1.57935,3.36699 -1.57934,1.27012 -4.32295,1.27012 -1.51859,0 -2.75372,-0.33551 -1.23514,-0.3355 -1.98431,-0.74289 v -3.54673 h 0.33409 q 0.27335,0.22767 0.62769,0.50326 0.36446,0.2636 1.02253,0.57514 0.56694,0.27559 1.28575,0.47929 0.7188,0.19171 1.53884,0.19171 1.07315,0 1.58948,-0.27559 0.51632,-0.28758 0.51632,-0.83875 0,-0.49127 -0.30372,-0.70695 -0.30372,-0.22766 -1.15414,-0.43136 -0.40496,-0.10782 -1.10352,-0.22766 -0.68843,-0.13181 -1.25537,-0.31154 -1.54898,-0.47929 -2.29816,-1.48579 -0.74917,-1.01849 -0.74917,-2.52824 0,-1.94111 1.54897,-3.22321 1.5591,-1.29408 4.25209,-1.29408 1.27562,0 2.43988,0.31153 1.17438,0.29956 1.83245,0.64705 v 3.40294 h -0.31384 q -0.80993,-0.65902 -1.8527,-1.06642 -1.03265,-0.41938 -2.09567,-0.41938 -0.88079,0 -1.48823,0.28758 -0.59732,0.28758 -0.59732,0.81479 0,0.47929 0.27335,0.73091 0.27335,0.25163 1.28575,0.50325 0.55683,0.1318 1.19464,0.26361 0.64793,0.11983 1.29587,0.31154 1.4376,0.44334 2.12604,1.40192 0.68843,0.94659 0.68843,2.37247 z" />
              <g
                 aria-label="p"
                 transform="scale(0.99515083,1.0048728)"
                 style="font-style:normal;font-variant:normal;font-weight:normal;font-stretch:normal;font-size:15.95235538px;line-height:1.25;font-family:'Ink Free';-inkscape-font-specification:'Ink Free';font-variant-ligatures:normal;font-variant-caps:normal;font-variant-numeric:normal;font-feature-settings:normal;text-align:start;letter-spacing:0px;word-spacing:0px;writing-mode:lr-tb;text-anchor:start;fill:#000000;fill-opacity:1;stroke:none;stroke-width:0.26587257"
                 id="g3688">
                <path
                   d="m 116.86843,137.64757 c 0,1.11845 -0.16037,2.14233 -0.4811,3.07163 -0.32073,0.92107 -0.77305,1.70234 -1.35694,2.34381 -0.54278,0.60857 -1.18424,1.08144 -1.92439,1.41862 -0.73193,0.32895 -1.50909,0.49343 -2.33148,0.49343 -0.71548,0 -1.36517,-0.0781 -1.94906,-0.23438 -0.57567,-0.15625 -1.16368,-0.39886 -1.76403,-0.72781 v 6.61099 h -2.31913 v -19.69932 h 2.31913 v 1.4433 c 0.61679,-0.51811 1.3076,-0.94986 2.07243,-1.29527 0.77304,-0.35363 1.59543,-0.53044 2.46716,-0.53044 1.66123,0 2.95238,0.62913 3.87346,1.88738 0.9293,1.25003 1.39395,2.98939 1.39395,5.21806 z m -2.39316,0.0617 c 0,-1.66123 -0.28372,-2.90303 -0.85117,-3.72542 -0.56745,-0.82239 -1.43918,-1.23358 -2.6152,-1.23358 -0.66613,0 -1.33638,0.14392 -2.01074,0.43175 -0.67436,0.28784 -1.31994,0.66614 -1.93673,1.1349 v 7.80858 c 0.65791,0.29606 1.22125,0.49755 1.69001,0.60446 0.47699,0.10691 1.01565,0.16037 1.616,0.16037 1.29115,0 2.29858,-0.43587 3.02228,-1.3076 0.7237,-0.87173 1.08555,-2.16289 1.08555,-3.87346 z"
                   style="font-style:normal;font-variant:normal;font-weight:normal;font-stretch:normal;font-size:25.26379776px;font-family:sans-serif;-inkscape-font-specification:sans-serif;stroke-width:0.26587257"
                   id="path3686"
                   inkscape:connector-curvature="0"
                   sodipodi:nodetypes="scccsccccccccscssssccccsss" />
              </g>
            </g>
          </g>
          <g
             id="g1029">
            <path
               d="m 28.514771,114.03374 q 0,0.47439 -0.10542,0.82872 -0.102492,0.3514 -0.339686,0.58566 -0.225482,0.22256 -0.5271,0.32505 -0.301618,0.10249 -0.7028,0.10249 -0.409966,0 -0.714512,-0.10835 -0.304547,-0.10835 -0.512458,-0.31919 -0.237195,-0.24012 -0.342615,-0.57981 -0.102492,-0.33968 -0.102492,-0.83457 v -2.60914 h 0.57981 v 2.63842 q 0,0.35433 0.04685,0.55931 0.04978,0.20499 0.163987,0.3719 0.128846,0.19034 0.348471,0.28698 0.222553,0.0966 0.532956,0.0966 0.313332,0 0.532957,-0.0937 0.219625,-0.0966 0.3514,-0.28991 0.114204,-0.16691 0.161058,-0.38068 0.04978,-0.2167 0.04978,-0.53588 v -2.65307 h 0.57981 z"
               style="font-style:normal;font-variant:normal;font-weight:normal;font-stretch:normal;font-size:5.99722242px;line-height:1.25;font-family:sans-serif;-inkscape-font-specification:sans-serif;font-variant-ligatures:normal;font-variant-caps:normal;font-variant-numeric:normal;font-feature-settings:normal;text-align:start;letter-spacing:0px;word-spacing:0px;writing-mode:lr-tb;text-anchor:start;fill:#4d4d4d;fill-opacity:1;stroke:none;stroke-width:0.26458332"
               id="path3694"
               inkscape:connector-curvature="0" />
            <path
               d="m 33.126032,115.78488 h -0.550526 v -1.86242 q 0,-0.22548 -0.02636,-0.42168 -0.02636,-0.19912 -0.09663,-0.3104 -0.07321,-0.12299 -0.21084,-0.18156 -0.137632,-0.0615 -0.357256,-0.0615 -0.225482,0 -0.471462,0.11128 -0.24598,0.11127 -0.471461,0.28404 v 2.44223 h -0.550526 v -3.27094 h 0.550526 v 0.36311 q 0.257693,-0.21377 0.532956,-0.33383 0.275263,-0.12006 0.565168,-0.12006 0.530028,0 0.80822,0.31919 0.278191,0.31918 0.278191,0.91949 z"
               style="font-style:normal;font-variant:normal;font-weight:normal;font-stretch:normal;font-size:5.99722242px;line-height:1.25;font-family:sans-serif;-inkscape-font-specification:sans-serif;font-variant-ligatures:normal;font-variant-caps:normal;font-variant-numeric:normal;font-feature-settings:normal;text-align:start;letter-spacing:0px;word-spacing:0px;writing-mode:lr-tb;text-anchor:start;fill:#4d4d4d;fill-opacity:1;stroke:none;stroke-width:0.26458332"
               id="path3696"
               inkscape:connector-curvature="0" />
            <path
               d="m 35.72019,111.98288 h -0.620806 v -0.57103 h 0.620806 z m -0.03514,3.81854 h -0.550526 v -3.27094 h 0.550526 z"
               style="font-style:normal;font-variant:normal;font-weight:normal;font-stretch:normal;font-size:5.99722242px;line-height:1.25;font-family:sans-serif;-inkscape-font-specification:sans-serif;font-variant-ligatures:normal;font-variant-caps:normal;font-variant-numeric:normal;font-feature-settings:normal;text-align:start;letter-spacing:0px;word-spacing:0px;writing-mode:lr-tb;text-anchor:start;fill:#4d4d4d;fill-opacity:1;stroke:none;stroke-width:0.26458332"
               id="path3698"
               inkscape:connector-curvature="0" />
            <path
               d="m 40.551592,112.51394 -1.323606,3.27094 h -0.553454 l -1.314821,-3.27094 h 0.597379 l 1.013203,2.60328 1.004418,-2.60328 z"
               style="font-style:normal;font-variant:normal;font-weight:normal;font-stretch:normal;font-size:5.99722242px;line-height:1.25;font-family:sans-serif;-inkscape-font-specification:sans-serif;font-variant-ligatures:normal;font-variant-caps:normal;font-variant-numeric:normal;font-feature-settings:normal;text-align:start;letter-spacing:0px;word-spacing:0px;writing-mode:lr-tb;text-anchor:start;fill:#4d4d4d;fill-opacity:1;stroke:none;stroke-width:0.26458332"
               id="path3700"
               inkscape:connector-curvature="0" />
            <path
               d="m 44.740312,114.20651 h -2.410017 q 0,0.30162 0.09078,0.5271 0.09078,0.22255 0.248909,0.36604 0.152273,0.14056 0.360184,0.21084 0.21084,0.0703 0.462677,0.0703 0.333829,0 0.670588,-0.13177 0.339686,-0.13471 0.483174,-0.26355 h 0.02928 v 0.60031 q -0.278191,0.11713 -0.568096,0.19619 -0.289905,0.0791 -0.609093,0.0791 -0.814076,0 -1.270895,-0.43925 -0.45682,-0.44218 -0.45682,-1.25333 0,-0.80236 0.436321,-1.27382 0.43925,-0.47146 1.153763,-0.47146 0.661803,0 1.019059,0.38654 0.360185,0.38654 0.360185,1.09812 z m -0.535885,-0.42168 q -0.0029,-0.43339 -0.219625,-0.67059 -0.213768,-0.23719 -0.653018,-0.23719 -0.442178,0 -0.705727,0.26062 -0.260622,0.26062 -0.295762,0.64716 z"
               style="font-style:normal;font-variant:normal;font-weight:normal;font-stretch:normal;font-size:5.99722242px;line-height:1.25;font-family:sans-serif;-inkscape-font-specification:sans-serif;font-variant-ligatures:normal;font-variant-caps:normal;font-variant-numeric:normal;font-feature-settings:normal;text-align:start;letter-spacing:0px;word-spacing:0px;writing-mode:lr-tb;text-anchor:start;fill:#4d4d4d;fill-opacity:1;stroke:none;stroke-width:0.26458332"
               id="path3702"
               inkscape:connector-curvature="0" />
            <path
               d="m 48.260856,113.13078 h -0.02928 q -0.12299,-0.0293 -0.240123,-0.041 -0.114205,-0.0146 -0.272335,-0.0146 -0.254765,0 -0.49196,0.1142 -0.237195,0.11128 -0.45682,0.28991 v 2.32216 h -0.550526 v -3.27094 h 0.550526 v 0.48317 q 0.327974,-0.26355 0.576882,-0.3719 0.251836,-0.11127 0.512458,-0.11127 0.143488,0 0.207911,0.009 0.06442,0.006 0.19327,0.0264 z"
               style="font-style:normal;font-variant:normal;font-weight:normal;font-stretch:normal;font-size:5.99722242px;line-height:1.25;font-family:sans-serif;-inkscape-font-specification:sans-serif;font-variant-ligatures:normal;font-variant-caps:normal;font-variant-numeric:normal;font-feature-settings:normal;text-align:start;letter-spacing:0px;word-spacing:0px;writing-mode:lr-tb;text-anchor:start;fill:#4d4d4d;fill-opacity:1;stroke:none;stroke-width:0.26458332"
               id="path3704"
               inkscape:connector-curvature="0" />
            <path
               d="m 52.825091,114.84196 q 0,0.44803 -0.371898,0.73501 -0.368969,0.28698 -1.010274,0.28698 -0.363113,0 -0.667659,-0.0849 -0.301619,-0.0879 -0.506602,-0.19035 v -0.61787 h 0.02928 q 0.260621,0.19619 0.579809,0.31333 0.319188,0.1142 0.612021,0.1142 0.363113,0 0.568097,-0.11713 0.204983,-0.11713 0.204983,-0.36897 0,-0.19327 -0.111277,-0.29283 -0.111276,-0.0996 -0.427536,-0.16985 -0.117133,-0.0264 -0.307475,-0.0615 -0.187413,-0.0351 -0.342615,-0.0761 -0.430464,-0.1142 -0.612021,-0.33383 -0.178628,-0.22255 -0.178628,-0.54467 0,-0.20205 0.08199,-0.38068 0.08492,-0.17863 0.254765,-0.31919 0.163987,-0.13763 0.415823,-0.2167 0.254765,-0.082 0.568096,-0.082 0.292833,0 0.591523,0.0732 0.301618,0.0703 0.500745,0.17277 v 0.5886 h -0.02928 q -0.21084,-0.15521 -0.512458,-0.26063 -0.301619,-0.10834 -0.591523,-0.10834 -0.301618,0 -0.50953,0.11713 -0.207911,0.1142 -0.207911,0.34261 0,0.20206 0.125918,0.30455 0.12299,0.10249 0.398253,0.16692 0.152273,0.0351 0.339686,0.0703 0.190342,0.0351 0.31626,0.0644 0.383611,0.0878 0.591523,0.30162 0.207911,0.21669 0.207911,0.57395 z"
               style="font-style:normal;font-variant:normal;font-weight:normal;font-stretch:normal;font-size:5.99722242px;line-height:1.25;font-family:sans-serif;-inkscape-font-specification:sans-serif;font-variant-ligatures:normal;font-variant-caps:normal;font-variant-numeric:normal;font-feature-settings:normal;text-align:start;letter-spacing:0px;word-spacing:0px;writing-mode:lr-tb;text-anchor:start;fill:#4d4d4d;fill-opacity:1;stroke:none;stroke-width:0.26458332"
               id="path3706"
               inkscape:connector-curvature="0" />
            <path
               d="m 55.497109,111.96634 h -0.620807 v -0.57103 h 0.620807 z m -0.03514,3.81854 h -0.550527 v -3.27094 h 0.550527 z"
               style="font-style:normal;font-variant:normal;font-weight:normal;font-stretch:normal;font-size:5.99722242px;line-height:1.25;font-family:sans-serif;-inkscape-font-specification:sans-serif;font-variant-ligatures:normal;font-variant-caps:normal;font-variant-numeric:normal;font-feature-settings:normal;text-align:start;letter-spacing:0px;word-spacing:0px;writing-mode:lr-tb;text-anchor:start;fill:#4d4d4d;fill-opacity:1;stroke:none;stroke-width:0.26458332"
               id="path3708"
               inkscape:connector-curvature="0" />
            <path
               d="m 59.611588,115.7556 q -0.155202,0.041 -0.339687,0.0674 -0.181556,0.0264 -0.325044,0.0264 -0.500745,0 -0.761367,-0.26941 -0.260621,-0.26941 -0.260621,-0.86386 v -1.73943 h -0.371898 v -0.46267 h 0.371898 v -0.94 h 0.550526 v 0.94 h 1.136193 v 0.46267 h -1.136193 v 1.49052 q 0,0.2577 0.01171,0.40411 0.01171,0.14349 0.08199,0.26941 0.06442,0.11713 0.1757,0.17277 0.114205,0.0527 0.345543,0.0527 0.134703,0 0.28112,-0.0381 0.146416,-0.041 0.210839,-0.0673 h 0.02928 z"
               style="font-style:normal;font-variant:normal;font-weight:normal;font-stretch:normal;font-size:5.99722242px;line-height:1.25;font-family:sans-serif;-inkscape-font-specification:sans-serif;font-variant-ligatures:normal;font-variant-caps:normal;font-variant-numeric:normal;font-feature-settings:normal;text-align:start;letter-spacing:0px;word-spacing:0px;writing-mode:lr-tb;text-anchor:start;fill:#4d4d4d;fill-opacity:1;stroke:none;stroke-width:0.26458332"
               id="path3710"
               inkscape:connector-curvature="0" />
            <path
               d="m 64.308287,112.51394 -1.909272,4.47741 h -0.588594 l 0.609093,-1.3646 -1.303108,-3.11281 h 0.59738 l 1.004417,2.42465 1.013203,-2.42465 z"
               style="font-style:normal;font-variant:normal;font-weight:normal;font-stretch:normal;font-size:5.99722242px;line-height:1.25;font-family:sans-serif;-inkscape-font-specification:sans-serif;font-variant-ligatures:normal;font-variant-caps:normal;font-variant-numeric:normal;font-feature-settings:normal;text-align:start;letter-spacing:0px;word-spacing:0px;writing-mode:lr-tb;text-anchor:start;fill:#4d4d4d;fill-opacity:1;stroke:none;stroke-width:0.26458332"
               id="path3712"
               inkscape:connector-curvature="0" />
            <path
               d="m 71.462719,114.15087 q 0,0.79944 -0.409966,1.26211 -0.409967,0.46268 -1.098124,0.46268 -0.694015,0 -1.103981,-0.46268 -0.407038,-0.46267 -0.407038,-1.26211 0,-0.79943 0.407038,-1.26211 0.409966,-0.4656 1.103981,-0.4656 0.688157,0 1.098124,0.4656 0.409966,0.46268 0.409966,1.26211 z m -0.568096,0 q 0,-0.63544 -0.248908,-0.94292 -0.248908,-0.3104 -0.691086,-0.3104 -0.448035,0 -0.696943,0.3104 -0.24598,0.30748 -0.24598,0.94292 0,0.61495 0.248908,0.93414 0.248908,0.31626 0.694015,0.31626 0.439249,0 0.688157,-0.31333 0.251837,-0.31626 0.251837,-0.93707 z"
               style="font-style:normal;font-variant:normal;font-weight:normal;font-stretch:normal;font-size:5.99722242px;line-height:1.25;font-family:sans-serif;-inkscape-font-specification:sans-serif;font-variant-ligatures:normal;font-variant-caps:normal;font-variant-numeric:normal;font-feature-settings:normal;text-align:start;letter-spacing:0px;word-spacing:0px;writing-mode:lr-tb;text-anchor:start;fill:#4d4d4d;fill-opacity:1;stroke:none;stroke-width:0.26458332"
               id="path3714"
               inkscape:connector-curvature="0" />
            <path
               d="m 74.491128,111.76136 h -0.02928 q -0.09078,-0.0264 -0.237195,-0.0527 -0.146416,-0.0293 -0.257693,-0.0293 -0.354328,0 -0.515386,0.15813 -0.15813,0.1552 -0.15813,0.56517 v 0.11128 h 0.992704 v 0.46267 h -0.975137 v 2.80827 h -0.550527 v -2.80827 h -0.371898 v -0.46267 h 0.371898 v -0.10835 q 0,-0.58274 0.289905,-0.89314 0.289905,-0.31333 0.837503,-0.31333 0.184485,0 0.330901,0.0176 0.149345,0.0176 0.272335,0.041 z"
               style="font-style:normal;font-variant:normal;font-weight:normal;font-stretch:normal;font-size:5.99722242px;line-height:1.25;font-family:sans-serif;-inkscape-font-specification:sans-serif;font-variant-ligatures:normal;font-variant-caps:normal;font-variant-numeric:normal;font-feature-settings:normal;text-align:start;letter-spacing:0px;word-spacing:0px;writing-mode:lr-tb;text-anchor:start;fill:#4d4d4d;fill-opacity:1;stroke:none;stroke-width:0.26458332"
               id="path3716"
               inkscape:connector-curvature="0" />
            <path
               d="M 82.224163,111.97305 H 80.01913 v 1.2299 h 1.89463 v 0.51539 h -1.89463 v 2.09961 h -0.57981 v -4.36028 h 2.784843 z"
               style="font-style:normal;font-variant:normal;font-weight:normal;font-stretch:normal;font-size:5.99722242px;line-height:1.25;font-family:sans-serif;-inkscape-font-specification:sans-serif;font-variant-ligatures:normal;font-variant-caps:normal;font-variant-numeric:normal;font-feature-settings:normal;text-align:start;letter-spacing:0px;word-spacing:0px;writing-mode:lr-tb;text-anchor:start;fill:#4d4d4d;fill-opacity:1;stroke:none;stroke-width:0.26458332"
               id="path3718"
               inkscape:connector-curvature="0" />
            <path
               d="m 84.635731,115.85103 h -0.550526 v -4.55648 h 0.550526 z"
               style="font-style:normal;font-variant:normal;font-weight:normal;font-stretch:normal;font-size:5.99722242px;line-height:1.25;font-family:sans-serif;-inkscape-font-specification:sans-serif;font-variant-ligatures:normal;font-variant-caps:normal;font-variant-numeric:normal;font-feature-settings:normal;text-align:start;letter-spacing:0px;word-spacing:0px;writing-mode:lr-tb;text-anchor:start;fill:#4d4d4d;fill-opacity:1;stroke:none;stroke-width:0.26458332"
               id="path3720"
               inkscape:connector-curvature="0" />
            <path
               d="m 89.940836,114.15087 q 0,0.79944 -0.409966,1.26211 -0.409967,0.46268 -1.098124,0.46268 -0.694015,0 -1.103981,-0.46268 -0.407038,-0.46267 -0.407038,-1.26211 0,-0.79943 0.407038,-1.26211 0.409966,-0.4656 1.103981,-0.4656 0.688157,0 1.098124,0.4656 0.409966,0.46268 0.409966,1.26211 z m -0.568096,0 q 0,-0.63544 -0.248908,-0.94292 -0.248908,-0.3104 -0.691086,-0.3104 -0.448035,0 -0.696943,0.3104 -0.24598,0.30748 -0.24598,0.94292 0,0.61495 0.248908,0.93414 0.248908,0.31626 0.694015,0.31626 0.439249,0 0.688157,-0.31333 0.251837,-0.31626 0.251837,-0.93707 z"
               style="font-style:normal;font-variant:normal;font-weight:normal;font-stretch:normal;font-size:5.99722242px;line-height:1.25;font-family:sans-serif;-inkscape-font-specification:sans-serif;font-variant-ligatures:normal;font-variant-caps:normal;font-variant-numeric:normal;font-feature-settings:normal;text-align:start;letter-spacing:0px;word-spacing:0px;writing-mode:lr-tb;text-anchor:start;fill:#4d4d4d;fill-opacity:1;stroke:none;stroke-width:0.26458332"
               id="path3722"
               inkscape:connector-curvature="0" />
            <path
               d="m 94.077211,113.11424 h -0.0293 q -0.12299,-0.0293 -0.24013,-0.041 -0.1142,-0.0146 -0.27233,-0.0146 -0.25477,0 -0.49196,0.1142 -0.2372,0.11128 -0.45683,0.28991 v 2.32216 h -0.55053 v -3.27094 h 0.55053 v 0.48317 q 0.32797,-0.26355 0.57688,-0.3719 0.25184,-0.11127 0.51247,-0.11127 0.14348,0 0.20791,0.009 0.0644,0.006 0.19327,0.0264 z"
               style="font-style:normal;font-variant:normal;font-weight:normal;font-stretch:normal;font-size:5.99722242px;line-height:1.25;font-family:sans-serif;-inkscape-font-specification:sans-serif;font-variant-ligatures:normal;font-variant-caps:normal;font-variant-numeric:normal;font-feature-settings:normal;text-align:start;letter-spacing:0px;word-spacing:0px;writing-mode:lr-tb;text-anchor:start;fill:#4d4d4d;fill-opacity:1;stroke:none;stroke-width:0.26458332"
               id="path3724"
               inkscape:connector-curvature="0" />
            <path
               d="m 96.515841,111.99941 h -0.62081 v -0.57103 h 0.62081 z m -0.0351,3.81854 h -0.55053 v -3.27094 h 0.55053 z"
               style="font-style:normal;font-variant:normal;font-weight:normal;font-stretch:normal;font-size:5.99722242px;line-height:1.25;font-family:sans-serif;-inkscape-font-specification:sans-serif;font-variant-ligatures:normal;font-variant-caps:normal;font-variant-numeric:normal;font-feature-settings:normal;text-align:start;letter-spacing:0px;word-spacing:0px;writing-mode:lr-tb;text-anchor:start;fill:#4d4d4d;fill-opacity:1;stroke:none;stroke-width:0.26458332"
               id="path3726"
               inkscape:connector-curvature="0" />
            <path
               d="m 101.33693,115.81795 h -0.55052 v -0.34261 q -0.2372,0.20498 -0.4949,0.31919 -0.25769,0.1142 -0.559309,0.1142 -0.58567,0 -0.93122,-0.45096 -0.34261,-0.45097 -0.34261,-1.2504 0,-0.41582 0.11713,-0.74087 0.12006,-0.32504 0.32212,-0.55345 0.19913,-0.22256 0.46268,-0.33969 0.26648,-0.11713 0.55053,-0.11713 0.257689,0 0.456819,0.0556 0.19913,0.0527 0.41876,0.16691 v -1.41731 h 0.55052 z m -0.55052,-0.80529 v -1.87706 q -0.22256,-0.0996 -0.39826,-0.13763 -0.1757,-0.0381 -0.38362,-0.0381 -0.462669,0 -0.720369,0.32212 -0.25769,0.32211 -0.25769,0.91364 0,0.58273 0.19913,0.88728 0.19912,0.30162 0.63837,0.30162 0.234269,0 0.474399,-0.10249 0.24012,-0.10542 0.44804,-0.26941 z"
               style="font-style:normal;font-variant:normal;font-weight:normal;font-stretch:normal;font-size:5.99722242px;line-height:1.25;font-family:sans-serif;-inkscape-font-specification:sans-serif;font-variant-ligatures:normal;font-variant-caps:normal;font-variant-numeric:normal;font-feature-settings:normal;text-align:start;letter-spacing:0px;word-spacing:0px;writing-mode:lr-tb;text-anchor:start;fill:#4d4d4d;fill-opacity:1;stroke:none;stroke-width:0.26458332"
               id="path3728"
               inkscape:connector-curvature="0" />
            <path
               d="m 105.70637,115.78488 h -0.5476 v -0.34847 q -0.0732,0.0498 -0.19913,0.14056 -0.12299,0.0879 -0.24012,0.14056 -0.13763,0.0674 -0.31626,0.11128 -0.17863,0.0468 -0.41876,0.0468 -0.44218,0 -0.74965,-0.29283 -0.30748,-0.29284 -0.30748,-0.74673 0,-0.37189 0.15813,-0.6003 0.16106,-0.23134 0.45682,-0.36312 0.29869,-0.13177 0.71745,-0.17863 0.41875,-0.0469 0.899,-0.0703 v -0.0849 q 0,-0.18741 -0.0673,-0.3104 -0.0644,-0.12299 -0.18742,-0.19327 -0.11713,-0.0674 -0.28112,-0.0908 -0.16399,-0.0234 -0.34261,-0.0234 -0.2167,0 -0.48318,0.0586 -0.26648,0.0556 -0.55053,0.16399 h -0.0293 v -0.55931 q 0.16106,-0.0439 0.46561,-0.0966 0.30454,-0.0527 0.60031,-0.0527 0.34554,0 0.60031,0.0586 0.25769,0.0556 0.4451,0.19327 0.18448,0.1347 0.28112,0.34847 0.0966,0.21377 0.0966,0.53003 z m -0.5476,-0.80529 v -0.91071 q -0.25184,0.0146 -0.59446,0.0439 -0.33968,0.0293 -0.53881,0.0849 -0.2372,0.0674 -0.38361,0.21084 -0.14642,0.14056 -0.14642,0.38946 0,0.28112 0.16984,0.42461 0.16985,0.14056 0.51832,0.14056 0.28991,0 0.53003,-0.11127 0.24013,-0.11421 0.44511,-0.27234 z"
               style="font-style:normal;font-variant:normal;font-weight:normal;font-stretch:normal;font-size:5.99722242px;line-height:1.25;font-family:sans-serif;-inkscape-font-specification:sans-serif;font-variant-ligatures:normal;font-variant-caps:normal;font-variant-numeric:normal;font-feature-settings:normal;text-align:start;letter-spacing:0px;word-spacing:0px;writing-mode:lr-tb;text-anchor:start;fill:#4d4d4d;fill-opacity:1;stroke:none;stroke-width:0.26458332"
               id="path3730"
               inkscape:connector-curvature="0" />
          </g>
          <g
             id="g1008">
            <path
               d="m 101.3249,137.30077 q 0,0.53175 -0.32556,0.81933 -0.32285,0.28758 -0.86816,0.28758 -0.13023,0 -0.347269,-0.0244 -0.217041,-0.0217 -0.363544,-0.0543 v -0.5019 h 0.02984 q 0.111233,0.038 0.274014,0.0787 0.162781,0.0407 0.333709,0.0407 0.24959,0 0.3961,-0.057 0.14921,-0.057 0.21975,-0.16278 0.0733,-0.10853 0.0922,-0.26588 0.0217,-0.15735 0.0217,-0.36354 v -2.35761 h -0.854607 v -0.42866 h 1.391777 z"
               style="font-style:normal;font-variant:normal;font-weight:normal;font-stretch:normal;font-size:5.5562501px;line-height:1.25;font-family:Sans-serif;-inkscape-font-specification:Sans-serif;font-variant-ligatures:normal;font-variant-caps:normal;font-variant-numeric:normal;font-feature-settings:normal;text-align:start;letter-spacing:0px;word-spacing:0px;writing-mode:lr-tb;text-anchor:start;fill:#4d4d4d;fill-opacity:1;stroke:none;stroke-width:0.26458332"
               id="path923"
               inkscape:connector-curvature="0" />
            <path
               d="m 104.68633,138.35071 h -0.50734 v -0.32285 q -0.0678,0.0461 -0.18448,0.13022 -0.11395,0.0814 -0.22247,0.13023 -0.12751,0.0624 -0.29301,0.10309 -0.16549,0.0434 -0.38796,0.0434 -0.40966,0 -0.69453,-0.2713 -0.28486,-0.2713 -0.28486,-0.69182 0,-0.34455 0.1465,-0.55617 0.14921,-0.21432 0.42323,-0.33641 0.27673,-0.12208 0.66469,-0.16549 0.38796,-0.0434 0.83289,-0.0651 v -0.0787 q 0,-0.17364 -0.0624,-0.28758 -0.0597,-0.11395 -0.17363,-0.17906 -0.10852,-0.0624 -0.26045,-0.0841 -0.15193,-0.0217 -0.31742,-0.0217 -0.20076,0 -0.44765,0.0543 -0.24688,0.0515 -0.51005,0.15193 h -0.0271 v -0.51818 q 0.14922,-0.0407 0.43137,-0.0895 0.28216,-0.0488 0.55617,-0.0488 0.32014,0 0.55617,0.0543 0.23874,0.0516 0.41238,0.17906 0.17092,0.1248 0.26045,0.32285 0.0895,0.19805 0.0895,0.49105 z m -0.50734,-0.74608 v -0.84375 q -0.23332,0.0136 -0.55074,0.0407 -0.31471,0.0271 -0.49919,0.0787 -0.21976,0.0624 -0.35541,0.19533 -0.13565,0.13023 -0.13565,0.36083 0,0.26045 0.15736,0.39339 0.15735,0.13022 0.4802,0.13022 0.26859,0 0.49105,-0.10309 0.22247,-0.10581 0.41238,-0.25231 z"
               style="font-style:normal;font-variant:normal;font-weight:normal;font-stretch:normal;font-size:5.5562501px;line-height:1.25;font-family:Sans-serif;-inkscape-font-specification:Sans-serif;font-variant-ligatures:normal;font-variant-caps:normal;font-variant-numeric:normal;font-feature-settings:normal;text-align:start;letter-spacing:0px;word-spacing:0px;writing-mode:lr-tb;text-anchor:start;fill:#4d4d4d;fill-opacity:1;stroke:none;stroke-width:0.26458332"
               id="path925"
               inkscape:connector-curvature="0" />
            <path
               d="m 108.20782,138.35071 h -0.51005 v -1.72548 q 0,-0.2089 -0.0244,-0.39067 -0.0244,-0.18449 -0.0895,-0.28758 -0.0678,-0.11395 -0.19533,-0.16821 -0.12752,-0.057 -0.33099,-0.057 -0.2089,0 -0.4368,0.10309 -0.22789,0.1031 -0.43679,0.26317 v 2.26265 h -0.51005 v -3.03044 h 0.51005 v 0.33642 q 0.23874,-0.19805 0.49377,-0.30929 0.25502,-0.11123 0.52361,-0.11123 0.49105,0 0.74879,0.29572 0.25774,0.29572 0.25774,0.85188 z"
               style="font-style:normal;font-variant:normal;font-weight:normal;font-stretch:normal;font-size:5.5562501px;line-height:1.25;font-family:Sans-serif;-inkscape-font-specification:Sans-serif;font-variant-ligatures:normal;font-variant-caps:normal;font-variant-numeric:normal;font-feature-settings:normal;text-align:start;letter-spacing:0px;word-spacing:0px;writing-mode:lr-tb;text-anchor:start;fill:#4d4d4d;fill-opacity:1;stroke:none;stroke-width:0.26458332"
               id="path927"
               inkscape:connector-curvature="0" />
            <path
               d="m 110.02282,138.35071 h -0.64841 v -0.77321 h 0.64841 z"
               style="font-style:normal;font-variant:normal;font-weight:normal;font-stretch:normal;font-size:5.5562501px;line-height:1.25;font-family:Sans-serif;-inkscape-font-specification:Sans-serif;font-variant-ligatures:normal;font-variant-caps:normal;font-variant-numeric:normal;font-feature-settings:normal;text-align:start;letter-spacing:0px;word-spacing:0px;writing-mode:lr-tb;text-anchor:start;fill:#4d4d4d;fill-opacity:1;stroke:none;stroke-width:0.26458332"
               id="path929"
               inkscape:connector-curvature="0" />
            <path
               d="m 115.47598,136.40548 q 0.13022,0.11666 0.21433,0.293 0.0841,0.17635 0.0841,0.45579 0,0.27673 -0.10038,0.50733 -0.10038,0.23061 -0.28216,0.40153 -0.20347,0.18991 -0.4802,0.28215 -0.27401,0.0895 -0.60229,0.0895 -0.33641,0 -0.66197,-0.0814 -0.32556,-0.0787 -0.53447,-0.17363 v -0.56702 h 0.0407 q 0.2306,0.15193 0.5426,0.25231 0.312,0.10038 0.60229,0.10038 0.17092,0 0.36354,-0.057 0.19263,-0.057 0.312,-0.16821 0.1248,-0.11937 0.18448,-0.26316 0.0624,-0.14379 0.0624,-0.36355 0,-0.21704 -0.0705,-0.35811 -0.0678,-0.14379 -0.18992,-0.22518 -0.12208,-0.0841 -0.29571,-0.11395 -0.17364,-0.0326 -0.3744,-0.0326 h -0.24417 v -0.45036 h 0.18991 q 0.41238,0 0.65655,-0.17092 0.24688,-0.17363 0.24688,-0.50462 0,-0.1465 -0.0624,-0.25502 -0.0624,-0.11123 -0.17363,-0.18177 -0.11666,-0.0705 -0.2496,-0.0977 -0.13293,-0.0271 -0.30114,-0.0271 -0.25774,0 -0.54803,0.0922 -0.29029,0.0922 -0.54803,0.26045 h -0.0271 v -0.56702 q 0.19263,-0.095 0.51276,-0.17363 0.32285,-0.0814 0.624,-0.0814 0.29571,0 0.52089,0.0543 0.22518,0.0543 0.40696,0.17363 0.19533,0.13023 0.29571,0.31471 0.10039,0.18449 0.10039,0.43137 0,0.33641 -0.23875,0.58872 -0.23603,0.2496 -0.55888,0.31471 v 0.038 q 0.13022,0.0217 0.29843,0.0922 0.16821,0.0678 0.28487,0.17092 z"
               style="font-style:normal;font-variant:normal;font-weight:normal;font-stretch:normal;font-size:5.5562501px;line-height:1.25;font-family:Sans-serif;-inkscape-font-specification:Sans-serif;font-variant-ligatures:normal;font-variant-caps:normal;font-variant-numeric:normal;font-feature-settings:normal;text-align:start;letter-spacing:0px;word-spacing:0px;writing-mode:lr-tb;text-anchor:start;fill:#4d4d4d;fill-opacity:1;stroke:none;stroke-width:0.26458332"
               id="path931"
               inkscape:connector-curvature="0" />
            <path
               d="m 119.13854,138.35071 h -2.18668 v -0.41238 h 0.84103 v -2.70759 h -0.84103 v -0.36897 q 0.17091,0 0.36625,-0.0271 0.19534,-0.0298 0.29572,-0.0841 0.1248,-0.0678 0.19534,-0.17092 0.0733,-0.10581 0.0841,-0.28215 h 0.42052 v 3.64086 h 0.82475 z"
               style="font-style:normal;font-variant:normal;font-weight:normal;font-stretch:normal;font-size:5.5562501px;line-height:1.25;font-family:Sans-serif;-inkscape-font-specification:Sans-serif;font-variant-ligatures:normal;font-variant-caps:normal;font-variant-numeric:normal;font-feature-settings:normal;text-align:start;letter-spacing:0px;word-spacing:0px;writing-mode:lr-tb;text-anchor:start;fill:#4d4d4d;fill-opacity:1;stroke:none;stroke-width:0.26458332"
               id="path933"
               inkscape:connector-curvature="0" />
            <path
               d="m 122.4023,137.47712 q 0,0.41509 -0.34455,0.68096 -0.34184,0.26588 -0.93599,0.26588 -0.33642,0 -0.61857,-0.0787 -0.27944,-0.0814 -0.46935,-0.17634 v -0.57245 h 0.0271 q 0.24146,0.18177 0.53717,0.29029 0.29572,0.10581 0.56702,0.10581 0.33642,0 0.52633,-0.10852 0.18991,-0.10852 0.18991,-0.34184 0,-0.17906 -0.10309,-0.2713 -0.1031,-0.0922 -0.3961,-0.15736 -0.10852,-0.0244 -0.28487,-0.057 -0.17363,-0.0326 -0.31742,-0.0705 -0.39882,-0.1058 -0.56702,-0.30928 -0.1655,-0.20619 -0.1655,-0.50462 0,-0.1872 0.076,-0.35269 0.0787,-0.1655 0.23603,-0.29572 0.15193,-0.12751 0.38525,-0.20076 0.23603,-0.076 0.52632,-0.076 0.2713,0 0.54803,0.0678 0.27944,0.0651 0.46393,0.16006 v 0.54532 h -0.0271 q -0.19534,-0.14379 -0.47478,-0.24146 -0.27944,-0.10038 -0.54803,-0.10038 -0.27944,0 -0.47206,0.10852 -0.19263,0.10581 -0.19263,0.31742 0,0.1872 0.11666,0.28216 0.11395,0.0949 0.36897,0.15464 0.14108,0.0325 0.31471,0.0651 0.17635,0.0326 0.29301,0.0597 0.3554,0.0814 0.54802,0.27944 0.19263,0.20076 0.19263,0.53175 z"
               style="font-style:normal;font-variant:normal;font-weight:normal;font-stretch:normal;font-size:5.5562501px;line-height:1.25;font-family:Sans-serif;-inkscape-font-specification:Sans-serif;font-variant-ligatures:normal;font-variant-caps:normal;font-variant-numeric:normal;font-feature-settings:normal;text-align:start;letter-spacing:0px;word-spacing:0px;writing-mode:lr-tb;text-anchor:start;fill:#4d4d4d;fill-opacity:1;stroke:none;stroke-width:0.26458332"
               id="path935"
               inkscape:connector-curvature="0" />
            <path
               d="m 124.70836,138.32358 q -0.14379,0.038 -0.31471,0.0624 -0.16821,0.0244 -0.30115,0.0244 -0.46392,0 -0.70538,-0.24959 -0.24146,-0.2496 -0.24146,-0.80034 v -1.61153 h -0.34455 v -0.42866 h 0.34455 v -0.87087 h 0.51005 v 0.87087 h 1.05265 v 0.42866 h -1.05265 v 1.38092 q 0,0.23875 0.0109,0.3744 0.0108,0.13294 0.076,0.2496 0.0597,0.10852 0.16278,0.16006 0.1058,0.0488 0.32013,0.0488 0.1248,0 0.26045,-0.0353 0.13565,-0.038 0.19534,-0.0624 h 0.0271 z"
               style="font-style:normal;font-variant:normal;font-weight:normal;font-stretch:normal;font-size:5.5562501px;line-height:1.25;font-family:Sans-serif;-inkscape-font-specification:Sans-serif;font-variant-ligatures:normal;font-variant-caps:normal;font-variant-numeric:normal;font-feature-settings:normal;text-align:start;letter-spacing:0px;word-spacing:0px;writing-mode:lr-tb;text-anchor:start;fill:#4d4d4d;fill-opacity:1;stroke:none;stroke-width:0.26458332"
               id="path937"
               inkscape:connector-curvature="0" />
            <path
               d="m 128.8864,136.82871 h -1.69292 v -0.49106 h 1.69292 z"
               style="font-style:normal;font-variant:normal;font-weight:normal;font-stretch:normal;font-size:5.5562501px;line-height:1.25;font-family:Sans-serif;-inkscape-font-specification:Sans-serif;font-variant-ligatures:normal;font-variant-caps:normal;font-variant-numeric:normal;font-feature-settings:normal;text-align:start;letter-spacing:0px;word-spacing:0px;writing-mode:lr-tb;text-anchor:start;fill:#4d4d4d;fill-opacity:1;stroke:none;stroke-width:0.26458332"
               id="path939"
               inkscape:connector-curvature="0" />
            <path
               d="m 134.38296,134.78852 h -2.0429 v 1.13947 h 1.75532 v 0.47749 h -1.75532 v 1.94523 h -0.53717 v -4.03968 h 2.58007 z"
               style="font-style:normal;font-variant:normal;font-weight:normal;font-stretch:normal;font-size:5.5562501px;line-height:1.25;font-family:Sans-serif;-inkscape-font-specification:Sans-serif;font-variant-ligatures:normal;font-variant-caps:normal;font-variant-numeric:normal;font-feature-settings:normal;text-align:start;letter-spacing:0px;word-spacing:0px;writing-mode:lr-tb;text-anchor:start;fill:#4d4d4d;fill-opacity:1;stroke:none;stroke-width:0.26458332"
               id="path941"
               inkscape:connector-curvature="0" />
            <path
               d="m 137.35914,136.88839 h -2.23281 q 0,0.27944 0.0841,0.48835 0.0841,0.20619 0.23061,0.33912 0.14108,0.13023 0.3337,0.19534 0.19534,0.0651 0.42866,0.0651 0.30928,0 0.62128,-0.12208 0.3147,-0.1248 0.44764,-0.24417 h 0.0271 v 0.55616 q -0.25773,0.10852 -0.52632,0.18177 -0.26859,0.0733 -0.56431,0.0733 -0.75422,0 -1.17745,-0.40696 -0.42323,-0.40966 -0.42323,-1.16117 0,-0.74336 0.40424,-1.18016 0.40695,-0.43679 1.06893,-0.43679 0.61314,0 0.94413,0.35812 0.3337,0.35811 0.3337,1.01738 z m -0.49648,-0.39067 q -0.003,-0.40153 -0.20348,-0.62128 -0.19805,-0.21975 -0.605,-0.21975 -0.40967,0 -0.65384,0.24145 -0.24145,0.24146 -0.27401,0.59958 z"
               style="font-style:normal;font-variant:normal;font-weight:normal;font-stretch:normal;font-size:5.5562501px;line-height:1.25;font-family:Sans-serif;-inkscape-font-specification:Sans-serif;font-variant-ligatures:normal;font-variant-caps:normal;font-variant-numeric:normal;font-feature-settings:normal;text-align:start;letter-spacing:0px;word-spacing:0px;writing-mode:lr-tb;text-anchor:start;fill:#4d4d4d;fill-opacity:1;stroke:none;stroke-width:0.26458332"
               id="path943"
               inkscape:connector-curvature="0" />
            <path
               d="m 140.79924,136.81243 q 0,0.37982 -0.10852,0.68368 -0.10581,0.30386 -0.28758,0.51005 -0.19263,0.21432 -0.42323,0.32284 -0.23061,0.10581 -0.50733,0.10581 -0.25774,0 -0.45036,-0.0624 -0.19263,-0.0597 -0.37983,-0.16278 l -0.0326,0.14108 h -0.47749 v -4.22145 h 0.51004 v 1.50844 q 0.21433,-0.17635 0.45579,-0.28758 0.24146,-0.11395 0.5426,-0.11395 0.53718,0 0.84646,0.41238 0.312,0.41238 0.312,1.16388 z m -0.52633,0.0136 q 0,-0.5426 -0.17905,-0.82204 -0.17906,-0.28215 -0.57788,-0.28215 -0.22246,0 -0.45036,0.0977 -0.22789,0.095 -0.42323,0.24688 v 1.73633 q 0.21704,0.0977 0.37169,0.13565 0.15735,0.038 0.3554,0.038 0.42323,0 0.66198,-0.27673 0.24145,-0.27944 0.24145,-0.87359 z"
               style="font-style:normal;font-variant:normal;font-weight:normal;font-stretch:normal;font-size:5.5562501px;line-height:1.25;font-family:Sans-serif;-inkscape-font-specification:Sans-serif;font-variant-ligatures:normal;font-variant-caps:normal;font-variant-numeric:normal;font-feature-settings:normal;text-align:start;letter-spacing:0px;word-spacing:0px;writing-mode:lr-tb;text-anchor:start;fill:#4d4d4d;fill-opacity:1;stroke:none;stroke-width:0.26458332"
               id="path945"
               inkscape:connector-curvature="0" />
            <path
               d="m 142.37279,138.35071 h -0.64841 v -0.77321 h 0.64841 z"
               style="font-style:normal;font-variant:normal;font-weight:normal;font-stretch:normal;font-size:5.5562501px;line-height:1.25;font-family:Sans-serif;-inkscape-font-specification:Sans-serif;font-variant-ligatures:normal;font-variant-caps:normal;font-variant-numeric:normal;font-feature-settings:normal;text-align:start;letter-spacing:0px;word-spacing:0px;writing-mode:lr-tb;text-anchor:start;fill:#4d4d4d;fill-opacity:1;stroke:none;stroke-width:0.26458332"
               id="path947"
               inkscape:connector-curvature="0" />
            <path
               d="m 148.18135,138.35071 h -2.73472 v -0.56702 q 0.28487,-0.24417 0.56973,-0.48834 0.28758,-0.24418 0.53447,-0.48563 0.52089,-0.50462 0.71352,-0.80034 0.19262,-0.29843 0.19262,-0.64299 0,-0.31471 -0.2089,-0.49105 -0.20619,-0.17906 -0.57787,-0.17906 -0.24689,0 -0.53447,0.0868 -0.28757,0.0868 -0.56159,0.26587 h -0.0271 v -0.56973 q 0.19262,-0.095 0.51276,-0.17363 0.32285,-0.0787 0.62399,-0.0787 0.62128,0 0.97397,0.30114 0.3527,0.29843 0.3527,0.81119 0,0.23061 -0.0597,0.43137 -0.057,0.19805 -0.17092,0.37711 -0.10581,0.16821 -0.2496,0.33099 -0.14107,0.16278 -0.34455,0.36083 -0.29029,0.28487 -0.59958,0.55345 -0.30928,0.26588 -0.57787,0.49377 h 2.17313 z"
               style="font-style:normal;font-variant:normal;font-weight:normal;font-stretch:normal;font-size:5.5562501px;line-height:1.25;font-family:Sans-serif;-inkscape-font-specification:Sans-serif;font-variant-ligatures:normal;font-variant-caps:normal;font-variant-numeric:normal;font-feature-settings:normal;text-align:start;letter-spacing:0px;word-spacing:0px;writing-mode:lr-tb;text-anchor:start;fill:#4d4d4d;fill-opacity:1;stroke:none;stroke-width:0.26458332"
               id="path949"
               inkscape:connector-curvature="0" />
            <path
               d="m 151.58346,138.35071 h -0.51004 v -1.72548 q 0,-0.2089 -0.0244,-0.39067 -0.0244,-0.18449 -0.0895,-0.28758 -0.0678,-0.11395 -0.19533,-0.16821 -0.12752,-0.057 -0.33099,-0.057 -0.2089,0 -0.4368,0.10309 -0.22789,0.1031 -0.43679,0.26317 v 2.26265 h -0.51005 v -3.03044 h 0.51005 v 0.33642 q 0.23874,-0.19805 0.49377,-0.30929 0.25502,-0.11123 0.52361,-0.11123 0.49105,0 0.74879,0.29572 0.25773,0.29572 0.25773,0.85188 z"
               style="font-style:normal;font-variant:normal;font-weight:normal;font-stretch:normal;font-size:5.5562501px;line-height:1.25;font-family:Sans-serif;-inkscape-font-specification:Sans-serif;font-variant-ligatures:normal;font-variant-caps:normal;font-variant-numeric:normal;font-feature-settings:normal;text-align:start;letter-spacing:0px;word-spacing:0px;writing-mode:lr-tb;text-anchor:start;fill:#4d4d4d;fill-opacity:1;stroke:none;stroke-width:0.26458332"
               id="path951"
               inkscape:connector-curvature="0" />
            <path
               d="m 155.02356,138.35071 h -0.51004 v -0.31742 q -0.21976,0.18991 -0.4585,0.29571 -0.23875,0.10581 -0.51819,0.10581 -0.5426,0 -0.86273,-0.4178 -0.31743,-0.41781 -0.31743,-1.15846 0,-0.38525 0.10852,-0.68639 0.11124,-0.30115 0.29843,-0.51276 0.18449,-0.20619 0.42866,-0.31471 0.24688,-0.10852 0.51005,-0.10852 0.23874,0 0.42323,0.0516 0.18448,0.0488 0.38796,0.15464 v -1.3131 h 0.51004 z m -0.51004,-0.74608 v -1.73904 q -0.20619,-0.0922 -0.36897,-0.12751 -0.16278,-0.0353 -0.35541,-0.0353 -0.42865,0 -0.6674,0.29843 -0.23874,0.29843 -0.23874,0.84646 0,0.53989 0.18448,0.82204 0.18449,0.27944 0.59144,0.27944 0.21704,0 0.43951,-0.095 0.22246,-0.0977 0.41509,-0.2496 z"
               style="font-style:normal;font-variant:normal;font-weight:normal;font-stretch:normal;font-size:5.5562501px;line-height:1.25;font-family:Sans-serif;-inkscape-font-specification:Sans-serif;font-variant-ligatures:normal;font-variant-caps:normal;font-variant-numeric:normal;font-feature-settings:normal;text-align:start;letter-spacing:0px;word-spacing:0px;writing-mode:lr-tb;text-anchor:start;fill:#4d4d4d;fill-opacity:1;stroke:none;stroke-width:0.26458332"
               id="path953"
               inkscape:connector-curvature="0" />
            <path
               d="m 157.08545,137.5775 -0.76507,1.77702 h -0.3961 l 0.47207,-1.77702 z"
               style="font-style:normal;font-variant:normal;font-weight:normal;font-stretch:normal;font-size:5.5562501px;line-height:1.25;font-family:Sans-serif;-inkscape-font-specification:Sans-serif;font-variant-ligatures:normal;font-variant-caps:normal;font-variant-numeric:normal;font-feature-settings:normal;text-align:start;letter-spacing:0px;word-spacing:0px;writing-mode:lr-tb;text-anchor:start;fill:#4d4d4d;fill-opacity:1;stroke:none;stroke-width:0.26458332"
               id="path955"
               inkscape:connector-curvature="0" />
            <path
               d="m 162.66883,138.35071 h -2.73471 v -0.56702 q 0.28486,-0.24417 0.56973,-0.48834 0.28758,-0.24418 0.53446,-0.48563 0.5209,-0.50462 0.71353,-0.80034 0.19262,-0.29843 0.19262,-0.64299 0,-0.31471 -0.2089,-0.49105 -0.20619,-0.17906 -0.57787,-0.17906 -0.24689,0 -0.53447,0.0868 -0.28758,0.0868 -0.56159,0.26587 h -0.0271 v -0.56973 q 0.19262,-0.095 0.51276,-0.17363 0.32285,-0.0787 0.62399,-0.0787 0.62128,0 0.97397,0.30114 0.35269,0.29843 0.35269,0.81119 0,0.23061 -0.0597,0.43137 -0.057,0.19805 -0.17092,0.37711 -0.10581,0.16821 -0.2496,0.33099 -0.14108,0.16278 -0.34455,0.36083 -0.29029,0.28487 -0.59958,0.55345 -0.30928,0.26588 -0.57787,0.49377 h 2.17312 z"
               style="font-style:normal;font-variant:normal;font-weight:normal;font-stretch:normal;font-size:5.5562501px;line-height:1.25;font-family:Sans-serif;-inkscape-font-specification:Sans-serif;font-variant-ligatures:normal;font-variant-caps:normal;font-variant-numeric:normal;font-feature-settings:normal;text-align:start;letter-spacing:0px;word-spacing:0px;writing-mode:lr-tb;text-anchor:start;fill:#4d4d4d;fill-opacity:1;stroke:none;stroke-width:0.26458332"
               id="path957"
               inkscape:connector-curvature="0" />
            <path
               d="m 166.20118,136.32951 q 0,1.08792 -0.34184,1.59797 -0.33913,0.50733 -1.05536,0.50733 -0.72709,0 -1.06351,-0.51547 -0.3337,-0.51547 -0.3337,-1.5844 0,-1.07707 0.33913,-1.58983 0.33913,-0.51547 1.05808,-0.51547 0.72708,0 1.06078,0.52361 0.33642,0.5209 0.33642,1.57626 z m -0.71353,1.23171 q 0.095,-0.21975 0.12752,-0.51547 0.0353,-0.29843 0.0353,-0.71624 0,-0.41237 -0.0353,-0.71623 -0.0326,-0.30386 -0.13023,-0.51547 -0.0949,-0.20891 -0.26045,-0.31471 -0.16278,-0.10581 -0.42051,-0.10581 -0.25503,0 -0.42323,0.10581 -0.1655,0.1058 -0.26317,0.32013 -0.0922,0.20076 -0.12751,0.52361 -0.0326,0.32285 -0.0326,0.7081 0,0.42323 0.0298,0.7081 0.0298,0.28486 0.12751,0.51004 0.0895,0.21162 0.25231,0.32285 0.16549,0.11123 0.4368,0.11123 0.25502,0 0.42323,-0.1058 0.1682,-0.10581 0.26044,-0.32014 z"
               style="font-style:normal;font-variant:normal;font-weight:normal;font-stretch:normal;font-size:5.5562501px;line-height:1.25;font-family:Sans-serif;-inkscape-font-specification:Sans-serif;font-variant-ligatures:normal;font-variant-caps:normal;font-variant-numeric:normal;font-feature-settings:normal;text-align:start;letter-spacing:0px;word-spacing:0px;writing-mode:lr-tb;text-anchor:start;fill:#4d4d4d;fill-opacity:1;stroke:none;stroke-width:0.26458332"
               id="path959"
               inkscape:connector-curvature="0" />
            <path
               d="m 169.74437,138.35071 h -2.73471 v -0.56702 q 0.28486,-0.24417 0.56973,-0.48834 0.28758,-0.24418 0.53446,-0.48563 0.5209,-0.50462 0.71352,-0.80034 0.19263,-0.29843 0.19263,-0.64299 0,-0.31471 -0.2089,-0.49105 -0.20619,-0.17906 -0.57788,-0.17906 -0.24688,0 -0.53446,0.0868 -0.28758,0.0868 -0.56159,0.26587 h -0.0271 v -0.56973 q 0.19262,-0.095 0.51276,-0.17363 0.32285,-0.0787 0.62399,-0.0787 0.62128,0 0.97397,0.30114 0.35269,0.29843 0.35269,0.81119 0,0.23061 -0.0597,0.43137 -0.057,0.19805 -0.17092,0.37711 -0.10581,0.16821 -0.2496,0.33099 -0.14108,0.16278 -0.34455,0.36083 -0.2903,0.28487 -0.59958,0.55345 -0.30928,0.26588 -0.57787,0.49377 h 2.17312 z"
               style="font-style:normal;font-variant:normal;font-weight:normal;font-stretch:normal;font-size:5.5562501px;line-height:1.25;font-family:Sans-serif;-inkscape-font-specification:Sans-serif;font-variant-ligatures:normal;font-variant-caps:normal;font-variant-numeric:normal;font-feature-settings:normal;text-align:start;letter-spacing:0px;word-spacing:0px;writing-mode:lr-tb;text-anchor:start;fill:#4d4d4d;fill-opacity:1;stroke:none;stroke-width:0.26458332"
               id="path961"
               inkscape:connector-curvature="0" />
            <path
               d="m 173.27671,136.32951 q 0,1.08792 -0.34184,1.59797 -0.33912,0.50733 -1.05536,0.50733 -0.72709,0 -1.0635,-0.51547 -0.3337,-0.51547 -0.3337,-1.5844 0,-1.07707 0.33913,-1.58983 0.33912,-0.51547 1.05807,-0.51547 0.72709,0 1.06079,0.52361 0.33641,0.5209 0.33641,1.57626 z m -0.71352,1.23171 q 0.095,-0.21975 0.12751,-0.51547 0.0353,-0.29843 0.0353,-0.71624 0,-0.41237 -0.0353,-0.71623 -0.0325,-0.30386 -0.13022,-0.51547 -0.095,-0.20891 -0.26045,-0.31471 -0.16278,-0.10581 -0.42052,-0.10581 -0.25502,0 -0.42323,0.10581 -0.16549,0.1058 -0.26316,0.32013 -0.0922,0.20076 -0.12751,0.52361 -0.0326,0.32285 -0.0326,0.7081 0,0.42323 0.0298,0.7081 0.0298,0.28486 0.12752,0.51004 0.0895,0.21162 0.25231,0.32285 0.16549,0.11123 0.43679,0.11123 0.25502,0 0.42323,-0.1058 0.16821,-0.10581 0.26045,-0.32014 z"
               style="font-style:normal;font-variant:normal;font-weight:normal;font-stretch:normal;font-size:5.5562501px;line-height:1.25;font-family:Sans-serif;-inkscape-font-specification:Sans-serif;font-variant-ligatures:normal;font-variant-caps:normal;font-variant-numeric:normal;font-feature-settings:normal;text-align:start;letter-spacing:0px;word-spacing:0px;writing-mode:lr-tb;text-anchor:start;fill:#4d4d4d;fill-opacity:1;stroke:none;stroke-width:0.26458332"
               id="path963"
               inkscape:connector-curvature="0" />
          </g>
        </g>
      </g>
    </g>
  </g>
</svg>
