<?xml version="1.0" encoding="UTF-8" standalone="no"?>
<!-- Created with Inkscape (http://www.inkscape.org/) -->

<svg
   xmlns:dc="http://purl.org/dc/elements/1.1/"
   xmlns:cc="http://creativecommons.org/ns#"
   xmlns:rdf="http://www.w3.org/1999/02/22-rdf-syntax-ns#"
   xmlns:svg="http://www.w3.org/2000/svg"
   xmlns="http://www.w3.org/2000/svg"
   xmlns:sodipodi="http://sodipodi.sourceforge.net/DTD/sodipodi-0.dtd"
   xmlns:inkscape="http://www.inkscape.org/namespaces/inkscape"
   width="210mm"
   height="297mm"
   viewBox="0 0 210 297"
   version="1.1"
   id="svg1711"
   inkscape:version="0.92.4 (5da689c313, 2019-01-14)"
   sodipodi:docname="Official New Text.svg">
  <defs
     id="defs1705" />
  <sodipodi:namedview
     id="base"
     pagecolor="#ffffff"
     bordercolor="#666666"
     borderopacity="1.0"
     inkscape:pageopacity="0.0"
     inkscape:pageshadow="2"
     inkscape:zoom="0.7"
     inkscape:cx="374.46712"
     inkscape:cy="560"
     inkscape:document-units="mm"
     inkscape:current-layer="layer1"
     showgrid="false"
     inkscape:window-width="1920"
     inkscape:window-height="1001"
     inkscape:window-x="-9"
     inkscape:window-y="-9"
     inkscape:window-maximized="1" />
  <metadata
     id="metadata1708">
    <rdf:RDF>
      <cc:Work
         rdf:about="">
        <dc:format>image/svg+xml</dc:format>
        <dc:type
           rdf:resource="http://purl.org/dc/dcmitype/StillImage" />
        <dc:title></dc:title>
      </cc:Work>
    </rdf:RDF>
  </metadata>
  <g
     inkscape:label="Layer 1"
     inkscape:groupmode="layer"
     id="layer1">
    <path
       d="m 201.04566,118.77693 h -0.61753 v -0.73639 h 0.61753 z"
       style="font-style:normal;font-variant:normal;font-weight:normal;font-stretch:normal;font-size:5.29166651px;line-height:1.25;font-family:sans-serif;-inkscape-font-specification:sans-serif;font-variant-ligatures:normal;font-variant-caps:normal;font-variant-numeric:normal;font-feature-settings:normal;text-align:start;letter-spacing:0px;word-spacing:0px;writing-mode:lr-tb;text-anchor:start;display:inline;opacity:1;fill:#4d4d4d;fill-opacity:1;stroke:none;stroke-width:0.26458332"
       id="path1520"
       inkscape:connector-curvature="0" />
    <path
       d="m 213.82146,132.95086 h -0.62137 v -0.73184 h 0.62137 z"
       style="font-style:normal;font-variant:normal;font-weight:normal;font-stretch:normal;font-size:5.29166651px;line-height:1.25;font-family:sans-serif;-inkscape-font-specification:sans-serif;font-variant-ligatures:normal;font-variant-caps:normal;font-variant-numeric:normal;font-feature-settings:normal;text-align:start;letter-spacing:0px;word-spacing:0px;writing-mode:lr-tb;text-anchor:start;display:inline;opacity:1;fill:#333333;fill-opacity:1;stroke:none;stroke-width:0.09603555"
       id="path3664"
       inkscape:connector-curvature="0" />
    <path
       d="m 211.32608,110.06963 h -0.61753 v -0.73639 h 0.61753 z"
       style="font-style:normal;font-variant:normal;font-weight:normal;font-stretch:normal;font-size:5.29166651px;line-height:1.25;font-family:sans-serif;-inkscape-font-specification:sans-serif;font-variant-ligatures:normal;font-variant-caps:normal;font-variant-numeric:normal;font-feature-settings:normal;text-align:start;letter-spacing:0px;word-spacing:0px;writing-mode:lr-tb;text-anchor:start;fill:#4d4d4d;fill-opacity:1;stroke:none;stroke-width:0.26458332"
       id="path3666"
       inkscape:connector-curvature="0" />
    <path
       d="m 209.60877,111.03678 h -0.61753 v -0.73639 h 0.61753 z"
       style="font-style:normal;font-variant:normal;font-weight:normal;font-stretch:normal;font-size:5.29166651px;line-height:1.25;font-family:sans-serif;-inkscape-font-specification:sans-serif;font-variant-ligatures:normal;font-variant-caps:normal;font-variant-numeric:normal;font-feature-settings:normal;text-align:start;letter-spacing:0px;word-spacing:0px;writing-mode:lr-tb;text-anchor:start;fill:#4d4d4d;fill-opacity:1;stroke:none;stroke-width:0.26458332"
       id="path3732"
       inkscape:connector-curvature="0" />
    <g
       id="g3937"
       transform="translate(8.5526249,-0.26726953)">
      <g
         id="g3692"
         transform="translate(-9.7195104,-13.028618)">
        <path
           d="m 172.40385,144.18158 h -4.24196 l -3.18906,-5.85929 -0.99215,1.42588 v 4.43341 h -3.64465 v -18.64429 h 3.64465 v 11.13146 l 3.92811,-5.94317 h 4.20146 l -4.0901,5.79938 z"
           style="font-style:normal;font-variant:normal;font-weight:bold;font-stretch:normal;font-size:22.55663109px;line-height:1.25;font-family:'Avenir Light';-inkscape-font-specification:'Avenir Light, Bold';font-variant-ligatures:normal;font-variant-caps:normal;font-variant-numeric:normal;font-feature-settings:normal;text-align:start;letter-spacing:0px;word-spacing:0px;writing-mode:lr-tb;text-anchor:start;fill:#000000;fill-opacity:1;stroke:none;stroke-width:23.7203846"
           id="path3668"
           inkscape:connector-curvature="0" />
        <g
           id="g3690">
          <path
             inkscape:connector-curvature="0"
             id="path3670"
             style="font-style:normal;font-variant:normal;font-weight:normal;font-stretch:normal;font-size:25.14128876px;line-height:1.25;font-family:'Avenir Light';-inkscape-font-specification:'Avenir Light, ';font-variant-ligatures:normal;font-variant-caps:normal;font-variant-numeric:normal;font-feature-settings:normal;text-align:start;letter-spacing:0px;word-spacing:0px;writing-mode:lr-tb;text-anchor:start;fill:#000000;fill-opacity:1;stroke:none;stroke-width:0.28669116"
             d="m 44.092617,141.5738 q 0,1.9496 -1.501987,3.19835 -1.490161,1.24876 -4.080203,1.24876 -1.466507,0 -2.696481,-0.36952 -1.218149,-0.38227 -2.046016,-0.82826 v -2.68865 h 0.118267 q 1.052574,0.85374 2.341682,1.36343 1.289107,0.49695 2.471775,0.49695 1.466508,0 2.294375,-0.50969 0.827868,-0.5097 0.827868,-1.60554 0,-0.84101 -0.449414,-1.27425 -0.449414,-0.43324 -1.726695,-0.73907 -0.473067,-0.11467 -1.241801,-0.26758 -0.756907,-0.15291 -1.38372,-0.33131 -1.738522,-0.49695 -2.471776,-1.45264 -0.721427,-0.96842 -0.721427,-2.37008 0,-0.87924 0.331147,-1.65653 0.342973,-0.77728 1.02892,-1.38892 0.662295,-0.5989 1.679388,-0.94294 1.028921,-0.35679 2.294375,-0.35679 1.182668,0 2.388988,0.31856 1.218148,0.30582 2.022362,0.75181 v 2.56123 h -0.118267 q -0.85152,-0.67535 -2.069668,-1.13408 -1.218147,-0.47147 -2.388988,-0.47147 -1.218147,0 -2.057842,0.5097 -0.839693,0.49696 -0.839693,1.49086 0,0.87923 0.508547,1.32521 0.49672,0.44599 1.608428,0.72632 0.614987,0.15292 1.371894,0.30582 0.768733,0.15291 1.27728,0.28034 1.549295,0.38227 2.388989,1.31247 0.839693,0.94294 0.839693,2.49751 z" />
          <path
             inkscape:connector-curvature="0"
             id="path3672"
             style="font-style:normal;font-variant:normal;font-weight:normal;font-stretch:normal;font-size:25.14128876px;line-height:1.25;font-family:'Avenir Light';-inkscape-font-specification:'Avenir Light, ';font-variant-ligatures:normal;font-variant-caps:normal;font-variant-numeric:normal;font-feature-settings:normal;text-align:start;letter-spacing:0px;word-spacing:0px;writing-mode:lr-tb;text-anchor:start;fill:#000000;fill-opacity:1;stroke:none;stroke-width:0.28669116"
             d="m 63.902298,131.44357 -3.441562,14.2333 h -2.057841 l -3.394256,-10.97123 -3.370603,10.97123 h -2.046014 l -3.477043,-14.2333 h 2.318029 l 2.424468,11.0222 3.299642,-11.0222 h 1.833135 l 3.382428,11.0222 2.294376,-11.0222 z" />
          <path
             inkscape:connector-curvature="0"
             id="path3674"
             style="font-style:normal;font-variant:normal;font-weight:normal;font-stretch:normal;font-size:25.14128876px;line-height:1.25;font-family:'Avenir Light';-inkscape-font-specification:'Avenir Light, ';font-variant-ligatures:normal;font-variant-caps:normal;font-variant-numeric:normal;font-feature-settings:normal;text-align:start;letter-spacing:0px;word-spacing:0px;writing-mode:lr-tb;text-anchor:start;fill:#000000;fill-opacity:1;stroke:none;stroke-width:0.28669116"
             d="m 77.136345,145.67687 h -2.211587 v -1.51635 q -0.295668,0.21663 -0.804215,0.61163 -0.49672,0.38228 -0.969786,0.61164 -0.555854,0.29308 -1.277281,0.48422 -0.721428,0.20388 -1.691215,0.20388 -1.785828,0 -3.027629,-1.27425 -1.2418,-1.27424 -1.2418,-3.24932 0,-1.61829 0.63864,-2.6122 0.650467,-1.00665 1.844961,-1.58006 1.206321,-0.57341 2.897536,-0.77729 1.691213,-0.20388 3.630789,-0.30582 v -0.36953 q 0,-0.81551 -0.272014,-1.3507 -0.260187,-0.53518 -0.756907,-0.841 -0.473067,-0.29307 -1.135361,-0.39501 -0.662294,-0.10194 -1.383721,-0.10194 -0.875174,0 -1.951402,0.25485 -1.076226,0.24211 -2.223414,0.71358 h -0.118267 v -2.4338 q 0.650468,-0.19114 1.880442,-0.42051 1.229974,-0.22936 2.424468,-0.22936 1.395547,0 2.424468,0.25485 1.040748,0.24211 1.797655,0.841 0.74508,0.58616 1.135361,1.51635 0.390279,0.9302 0.390279,2.30639 z m -2.211587,-3.50417 v -3.9629 q -1.017095,0.0637 -2.400815,0.19114 -1.371895,0.12742 -2.176109,0.36953 -0.957961,0.29307 -1.549294,0.91745 -0.591334,0.61164 -0.591334,1.69475 0,1.22327 0.685948,1.84765 0.685947,0.61164 2.093321,0.61164 1.170841,0 2.140628,-0.48422 0.969787,-0.49695 1.797655,-1.18504 z" />
          <path
             inkscape:connector-curvature="0"
             id="path3676"
             style="font-style:normal;font-variant:normal;font-weight:normal;font-stretch:normal;font-size:25.14128876px;line-height:1.25;font-family:'Avenir Light';-inkscape-font-specification:'Avenir Light, ';font-variant-ligatures:normal;font-variant-caps:normal;font-variant-numeric:normal;font-feature-settings:normal;text-align:start;letter-spacing:0px;word-spacing:0px;writing-mode:lr-tb;text-anchor:start;fill:#000000;fill-opacity:1;stroke:none;stroke-width:0.28669116"
             d="m 100.71873,145.67687 h -2.223411 v -8.10419 q 0,-0.91745 -0.08276,-1.7712 -0.071,-0.85374 -0.319317,-1.36344 -0.272015,-0.54793 -0.780564,-0.82826 -0.508548,-0.28033 -1.466507,-0.28033 -0.934307,0 -1.868614,0.5097 -0.934308,0.49695 -1.868615,1.27424 0.03548,0.29308 0.05913,0.68809 0.02365,0.38227 0.02365,0.76455 v 9.11084 h -2.223415 v -8.10419 q 0,-0.94294 -0.08279,-1.78394 -0.07096,-0.85375 -0.31932,-1.36345 -0.272014,-0.54792 -0.780561,-0.81551 -0.508547,-0.28033 -1.466507,-0.28033 -0.910654,0 -1.833134,0.48421 -0.910655,0.48421 -1.821308,1.23602 v 10.62719 h -2.223415 v -14.2333 h 2.223415 v 1.58006 q 1.040746,-0.9302 2.069667,-1.45263 1.040748,-0.52245 2.211589,-0.52245 1.34824,0 2.282548,0.61164 0.946134,0.61164 1.407374,1.69474 1.348241,-1.22327 2.459948,-1.75845 1.111708,-0.54793 2.377159,-0.54793 2.176111,0 3.205028,1.42715 1.04075,1.41441 1.04075,3.9629 z" />
          <path
             inkscape:connector-curvature="0"
             id="path3678"
             style="font-style:normal;font-variant:normal;font-weight:bold;font-stretch:normal;font-size:22.55663109px;line-height:1.25;font-family:'Avenir Light';-inkscape-font-specification:'Avenir Light, Bold';font-variant-ligatures:normal;font-variant-caps:normal;font-variant-numeric:normal;font-feature-settings:normal;text-align:start;letter-spacing:0px;word-spacing:0px;writing-mode:lr-tb;text-anchor:start;fill:#000000;fill-opacity:1;stroke:none;stroke-width:23.7203846"
             d="m 130.93592,144.18158 h -3.66489 v -6.67408 q 0,-0.81479 -0.0709,-1.6176 -0.0709,-0.81478 -0.24298,-1.19822 -0.20248,-0.44334 -0.59732,-0.64703 -0.38471,-0.2037 -1.08327,-0.2037 -0.49607,0 -1.0124,0.19171 -0.5062,0.19172 -1.10351,0.61109 v 9.53783 h -3.64464 v -18.64429 h 3.64464 v 6.67408 q 0.9719,-0.89866 1.86281,-1.37795 0.90104,-0.47929 1.99443,-0.47929 1.84257,0 2.87522,1.27011 1.04278,1.27011 1.04278,3.79835 z" />
          <path
             inkscape:connector-curvature="0"
             id="path3680"
             style="font-style:normal;font-variant:normal;font-weight:bold;font-stretch:normal;font-size:22.55663109px;line-height:1.25;font-family:'Avenir Light';-inkscape-font-specification:'Avenir Light, Bold';font-variant-ligatures:normal;font-variant-caps:normal;font-variant-numeric:normal;font-feature-settings:normal;text-align:start;letter-spacing:0px;word-spacing:0px;writing-mode:lr-tb;text-anchor:start;fill:#000000;fill-opacity:1;stroke:none;stroke-width:23.7203846"
             d="m 141.18141,140.6708 v -2.80383 q -0.73905,0.0719 -1.59959,0.20369 -0.86054,0.11982 -1.306,0.28758 -0.5467,0.2037 -0.84029,0.59911 -0.28347,0.38342 -0.28347,1.01848 0,0.41937 0.0608,0.68298 0.0608,0.26361 0.30372,0.50326 0.23285,0.23964 0.55682,0.35946 0.32397,0.10781 1.0124,0.10781 0.5467,0 1.10352,-0.2636 0.56695,-0.26361 0.99215,-0.69496 z m 0,2.0849 q -0.29359,0.26361 -0.72892,0.63505 -0.43534,0.37145 -0.82005,0.58714 -0.53657,0.28756 -1.11364,0.41936 -0.57707,0.14379 -1.2655,0.14379 -1.61984,0 -2.71324,-1.18623 -1.09339,-1.18624 -1.09339,-3.0315 0,-1.47381 0.55682,-2.40842 0.55682,-0.93461 1.57935,-1.47381 1.0124,-0.5392 2.51075,-0.76685 1.49836,-0.22767 3.10807,-0.3355 v -0.0719 q 0,-1.11435 -0.76942,-1.53372 -0.76942,-0.43136 -2.26778,-0.43136 -0.90104,0 -1.92356,0.38343 -1.02252,0.37145 -1.46798,0.57515 h -0.3341 v -3.24718 q 0.57708,-0.17973 1.87295,-0.41938 1.30599,-0.25162 2.61199,-0.25162 3.10807,0 4.48494,1.1383 1.38698,1.12633 1.38698,3.54673 v 9.15439 h -3.61427 z" />
          <path
             inkscape:connector-curvature="0"
             id="path3682"
             style="font-style:normal;font-variant:normal;font-weight:bold;font-stretch:normal;font-size:22.55663109px;line-height:1.25;font-family:'Avenir Light';-inkscape-font-specification:'Avenir Light, Bold';font-variant-ligatures:normal;font-variant-caps:normal;font-variant-numeric:normal;font-feature-settings:normal;text-align:start;letter-spacing:0px;word-spacing:0px;writing-mode:lr-tb;text-anchor:start;fill:#000000;fill-opacity:1;stroke:none;stroke-width:23.7203846"
             d="m 154.06927,144.54104 q -1.48823,0 -2.72335,-0.41938 -1.22501,-0.41937 -2.13617,-1.29407 -0.90104,-0.8747 -1.39711,-2.20472 -0.49608,-1.33002 -0.49608,-3.11537 0,-1.88121 0.52645,-3.24717 0.53657,-1.36598 1.48822,-2.26464 0.92129,-0.85074 2.12605,-1.24615 1.20475,-0.39541 2.50062,-0.39541 1.16427,0 2.1463,0.29956 0.98202,0.29955 1.83244,0.77884 v 3.67853 h -0.51633 q -0.2126,-0.21568 -0.51632,-0.50325 -0.29359,-0.28757 -0.72892,-0.56316 -0.41509,-0.26361 -0.91116,-0.43137 -0.49609,-0.17973 -1.15415,-0.17973 -1.45785,0 -2.24752,1.10237 -0.77955,1.09037 -0.77955,2.97158 0,1.94111 0.7998,2.94761 0.80992,1.00651 2.28802,1.00651 0.68843,0 1.23513,-0.17973 0.55682,-0.19171 0.92129,-0.44335 0.34421,-0.23964 0.60743,-0.50324 0.26323,-0.26361 0.48595,-0.51524 h 0.51633 v 3.67854 q -0.86054,0.47929 -1.80207,0.75488 -0.93141,0.28756 -2.0653,0.28756 z" />
          <path
             inkscape:connector-curvature="0"
             id="path3684"
             style="font-style:normal;font-variant:normal;font-weight:bold;font-stretch:normal;font-size:22.55663109px;line-height:1.25;font-family:'Avenir Light';-inkscape-font-specification:'Avenir Light, Bold';font-variant-ligatures:normal;font-variant-caps:normal;font-variant-numeric:normal;font-feature-settings:normal;text-align:start;letter-spacing:0px;word-spacing:0px;writing-mode:lr-tb;text-anchor:start;fill:#000000;fill-opacity:1;stroke:none;stroke-width:23.7203846"
             d="m 184.14769,139.91592 q 0,2.0849 -1.57935,3.36699 -1.57934,1.27012 -4.32295,1.27012 -1.51859,0 -2.75372,-0.33551 -1.23514,-0.3355 -1.98431,-0.74289 v -3.54673 h 0.33409 q 0.27335,0.22767 0.62769,0.50326 0.36446,0.2636 1.02253,0.57514 0.56694,0.27559 1.28575,0.47929 0.7188,0.19171 1.53884,0.19171 1.07315,0 1.58948,-0.27559 0.51632,-0.28758 0.51632,-0.83875 0,-0.49127 -0.30372,-0.70695 -0.30372,-0.22766 -1.15414,-0.43136 -0.40496,-0.10782 -1.10352,-0.22766 -0.68843,-0.13181 -1.25537,-0.31154 -1.54898,-0.47929 -2.29816,-1.48579 -0.74917,-1.01849 -0.74917,-2.52824 0,-1.94111 1.54897,-3.22321 1.5591,-1.29408 4.25209,-1.29408 1.27562,0 2.43988,0.31153 1.17438,0.29956 1.83245,0.64705 v 3.40294 h -0.31384 q -0.80993,-0.65902 -1.8527,-1.06642 -1.03265,-0.41938 -2.09567,-0.41938 -0.88079,0 -1.48823,0.28758 -0.59732,0.28758 -0.59732,0.81479 0,0.47929 0.27335,0.73091 0.27335,0.25163 1.28575,0.50325 0.55683,0.1318 1.19464,0.26361 0.64793,0.11983 1.29587,0.31154 1.4376,0.44334 2.12604,1.40192 0.68843,0.94659 0.68843,2.37247 z" />
          <g
             aria-label="p"
             transform="scale(0.99515083,1.0048728)"
             style="font-style:normal;font-variant:normal;font-weight:normal;font-stretch:normal;font-size:15.95235538px;line-height:1.25;font-family:'Ink Free';-inkscape-font-specification:'Ink Free';font-variant-ligatures:normal;font-variant-caps:normal;font-variant-numeric:normal;font-feature-settings:normal;text-align:start;letter-spacing:0px;word-spacing:0px;writing-mode:lr-tb;text-anchor:start;fill:#000000;fill-opacity:1;stroke:none;stroke-width:0.26587257"
             id="g3688">
            <path
               d="m 116.86843,137.64757 c 0,1.11845 -0.16037,2.14233 -0.4811,3.07163 -0.32073,0.92107 -0.77305,1.70234 -1.35694,2.34381 -0.54278,0.60857 -1.18424,1.08144 -1.92439,1.41862 -0.73193,0.32895 -1.50909,0.49343 -2.33148,0.49343 -0.71548,0 -1.36517,-0.0781 -1.94906,-0.23438 -0.57567,-0.15625 -1.16368,-0.39886 -1.76403,-0.72781 v 6.61099 h -2.31913 v -19.69932 h 2.31913 v 1.4433 c 0.61679,-0.51811 1.3076,-0.94986 2.07243,-1.29527 0.77304,-0.35363 1.59543,-0.53044 2.46716,-0.53044 1.66123,0 2.95238,0.62913 3.87346,1.88738 0.9293,1.25003 1.39395,2.98939 1.39395,5.21806 z m -2.39316,0.0617 c 0,-1.66123 -0.28372,-2.90303 -0.85117,-3.72542 -0.56745,-0.82239 -1.43918,-1.23358 -2.6152,-1.23358 -0.66613,0 -1.33638,0.14392 -2.01074,0.43175 -0.67436,0.28784 -1.31994,0.66614 -1.93673,1.1349 v 7.80858 c 0.65791,0.29606 1.22125,0.49755 1.69001,0.60446 0.47699,0.10691 1.01565,0.16037 1.616,0.16037 1.29115,0 2.29858,-0.43587 3.02228,-1.3076 0.7237,-0.87173 1.08555,-2.16289 1.08555,-3.87346 z"
               style="font-style:normal;font-variant:normal;font-weight:normal;font-stretch:normal;font-size:25.26379776px;font-family:sans-serif;-inkscape-font-specification:sans-serif;stroke-width:0.26587257"
               id="path3686"
               inkscape:connector-curvature="0"
               sodipodi:nodetypes="scccsccccccccscssssccccsss" />
          </g>
        </g>
      </g>
      <path
         inkscape:connector-curvature="0"
         id="path3694"
         style="font-style:normal;font-variant:normal;font-weight:normal;font-stretch:normal;font-size:5.99722242px;line-height:1.25;font-family:sans-serif;-inkscape-font-specification:sans-serif;font-variant-ligatures:normal;font-variant-caps:normal;font-variant-numeric:normal;font-feature-settings:normal;text-align:start;letter-spacing:0px;word-spacing:0px;writing-mode:lr-tb;text-anchor:start;fill:#4d4d4d;fill-opacity:1;stroke:none;stroke-width:0.26458332"
         d="m 28.514771,114.03374 q 0,0.47439 -0.10542,0.82872 -0.102492,0.3514 -0.339686,0.58566 -0.225482,0.22256 -0.5271,0.32505 -0.301618,0.10249 -0.7028,0.10249 -0.409966,0 -0.714512,-0.10835 -0.304547,-0.10835 -0.512458,-0.31919 -0.237195,-0.24012 -0.342615,-0.57981 -0.102492,-0.33968 -0.102492,-0.83457 v -2.60914 h 0.57981 v 2.63842 q 0,0.35433 0.04685,0.55931 0.04978,0.20499 0.163987,0.3719 0.128846,0.19034 0.348471,0.28698 0.222553,0.0966 0.532956,0.0966 0.313332,0 0.532957,-0.0937 0.219625,-0.0966 0.3514,-0.28991 0.114204,-0.16691 0.161058,-0.38068 0.04978,-0.2167 0.04978,-0.53588 v -2.65307 h 0.57981 z" />
      <path
         inkscape:connector-curvature="0"
         id="path3696"
         style="font-style:normal;font-variant:normal;font-weight:normal;font-stretch:normal;font-size:5.99722242px;line-height:1.25;font-family:sans-serif;-inkscape-font-specification:sans-serif;font-variant-ligatures:normal;font-variant-caps:normal;font-variant-numeric:normal;font-feature-settings:normal;text-align:start;letter-spacing:0px;word-spacing:0px;writing-mode:lr-tb;text-anchor:start;fill:#4d4d4d;fill-opacity:1;stroke:none;stroke-width:0.26458332"
         d="m 33.126032,115.78488 h -0.550526 v -1.86242 q 0,-0.22548 -0.02636,-0.42168 -0.02636,-0.19912 -0.09663,-0.3104 -0.07321,-0.12299 -0.21084,-0.18156 -0.137632,-0.0615 -0.357256,-0.0615 -0.225482,0 -0.471462,0.11128 -0.24598,0.11127 -0.471461,0.28404 v 2.44223 h -0.550526 v -3.27094 h 0.550526 v 0.36311 q 0.257693,-0.21377 0.532956,-0.33383 0.275263,-0.12006 0.565168,-0.12006 0.530028,0 0.80822,0.31919 0.278191,0.31918 0.278191,0.91949 z" />
      <path
         inkscape:connector-curvature="0"
         id="path3698"
         style="font-style:normal;font-variant:normal;font-weight:normal;font-stretch:normal;font-size:5.99722242px;line-height:1.25;font-family:sans-serif;-inkscape-font-specification:sans-serif;font-variant-ligatures:normal;font-variant-caps:normal;font-variant-numeric:normal;font-feature-settings:normal;text-align:start;letter-spacing:0px;word-spacing:0px;writing-mode:lr-tb;text-anchor:start;fill:#4d4d4d;fill-opacity:1;stroke:none;stroke-width:0.26458332"
         d="m 35.72019,111.98288 h -0.620806 v -0.57103 h 0.620806 z m -0.03514,3.81854 h -0.550526 v -3.27094 h 0.550526 z" />
      <path
         inkscape:connector-curvature="0"
         id="path3700"
         style="font-style:normal;font-variant:normal;font-weight:normal;font-stretch:normal;font-size:5.99722242px;line-height:1.25;font-family:sans-serif;-inkscape-font-specification:sans-serif;font-variant-ligatures:normal;font-variant-caps:normal;font-variant-numeric:normal;font-feature-settings:normal;text-align:start;letter-spacing:0px;word-spacing:0px;writing-mode:lr-tb;text-anchor:start;fill:#4d4d4d;fill-opacity:1;stroke:none;stroke-width:0.26458332"
         d="m 40.551592,112.51394 -1.323606,3.27094 h -0.553454 l -1.314821,-3.27094 h 0.597379 l 1.013203,2.60328 1.004418,-2.60328 z" />
      <path
         inkscape:connector-curvature="0"
         id="path3702"
         style="font-style:normal;font-variant:normal;font-weight:normal;font-stretch:normal;font-size:5.99722242px;line-height:1.25;font-family:sans-serif;-inkscape-font-specification:sans-serif;font-variant-ligatures:normal;font-variant-caps:normal;font-variant-numeric:normal;font-feature-settings:normal;text-align:start;letter-spacing:0px;word-spacing:0px;writing-mode:lr-tb;text-anchor:start;fill:#4d4d4d;fill-opacity:1;stroke:none;stroke-width:0.26458332"
         d="m 44.740312,114.20651 h -2.410017 q 0,0.30162 0.09078,0.5271 0.09078,0.22255 0.248909,0.36604 0.152273,0.14056 0.360184,0.21084 0.21084,0.0703 0.462677,0.0703 0.333829,0 0.670588,-0.13177 0.339686,-0.13471 0.483174,-0.26355 h 0.02928 v 0.60031 q -0.278191,0.11713 -0.568096,0.19619 -0.289905,0.0791 -0.609093,0.0791 -0.814076,0 -1.270895,-0.43925 -0.45682,-0.44218 -0.45682,-1.25333 0,-0.80236 0.436321,-1.27382 0.43925,-0.47146 1.153763,-0.47146 0.661803,0 1.019059,0.38654 0.360185,0.38654 0.360185,1.09812 z m -0.535885,-0.42168 q -0.0029,-0.43339 -0.219625,-0.67059 -0.213768,-0.23719 -0.653018,-0.23719 -0.442178,0 -0.705727,0.26062 -0.260622,0.26062 -0.295762,0.64716 z" />
      <path
         inkscape:connector-curvature="0"
         id="path3704"
         style="font-style:normal;font-variant:normal;font-weight:normal;font-stretch:normal;font-size:5.99722242px;line-height:1.25;font-family:sans-serif;-inkscape-font-specification:sans-serif;font-variant-ligatures:normal;font-variant-caps:normal;font-variant-numeric:normal;font-feature-settings:normal;text-align:start;letter-spacing:0px;word-spacing:0px;writing-mode:lr-tb;text-anchor:start;fill:#4d4d4d;fill-opacity:1;stroke:none;stroke-width:0.26458332"
         d="m 48.260856,113.13078 h -0.02928 q -0.12299,-0.0293 -0.240123,-0.041 -0.114205,-0.0146 -0.272335,-0.0146 -0.254765,0 -0.49196,0.1142 -0.237195,0.11128 -0.45682,0.28991 v 2.32216 h -0.550526 v -3.27094 h 0.550526 v 0.48317 q 0.327974,-0.26355 0.576882,-0.3719 0.251836,-0.11127 0.512458,-0.11127 0.143488,0 0.207911,0.009 0.06442,0.006 0.19327,0.0264 z" />
      <path
         inkscape:connector-curvature="0"
         id="path3706"
         style="font-style:normal;font-variant:normal;font-weight:normal;font-stretch:normal;font-size:5.99722242px;line-height:1.25;font-family:sans-serif;-inkscape-font-specification:sans-serif;font-variant-ligatures:normal;font-variant-caps:normal;font-variant-numeric:normal;font-feature-settings:normal;text-align:start;letter-spacing:0px;word-spacing:0px;writing-mode:lr-tb;text-anchor:start;fill:#4d4d4d;fill-opacity:1;stroke:none;stroke-width:0.26458332"
         d="m 52.825091,114.84196 q 0,0.44803 -0.371898,0.73501 -0.368969,0.28698 -1.010274,0.28698 -0.363113,0 -0.667659,-0.0849 -0.301619,-0.0879 -0.506602,-0.19035 v -0.61787 h 0.02928 q 0.260621,0.19619 0.579809,0.31333 0.319188,0.1142 0.612021,0.1142 0.363113,0 0.568097,-0.11713 0.204983,-0.11713 0.204983,-0.36897 0,-0.19327 -0.111277,-0.29283 -0.111276,-0.0996 -0.427536,-0.16985 -0.117133,-0.0264 -0.307475,-0.0615 -0.187413,-0.0351 -0.342615,-0.0761 -0.430464,-0.1142 -0.612021,-0.33383 -0.178628,-0.22255 -0.178628,-0.54467 0,-0.20205 0.08199,-0.38068 0.08492,-0.17863 0.254765,-0.31919 0.163987,-0.13763 0.415823,-0.2167 0.254765,-0.082 0.568096,-0.082 0.292833,0 0.591523,0.0732 0.301618,0.0703 0.500745,0.17277 v 0.5886 h -0.02928 q -0.21084,-0.15521 -0.512458,-0.26063 -0.301619,-0.10834 -0.591523,-0.10834 -0.301618,0 -0.50953,0.11713 -0.207911,0.1142 -0.207911,0.34261 0,0.20206 0.125918,0.30455 0.12299,0.10249 0.398253,0.16692 0.152273,0.0351 0.339686,0.0703 0.190342,0.0351 0.31626,0.0644 0.383611,0.0878 0.591523,0.30162 0.207911,0.21669 0.207911,0.57395 z" />
      <path
         inkscape:connector-curvature="0"
         id="path3708"
         style="font-style:normal;font-variant:normal;font-weight:normal;font-stretch:normal;font-size:5.99722242px;line-height:1.25;font-family:sans-serif;-inkscape-font-specification:sans-serif;font-variant-ligatures:normal;font-variant-caps:normal;font-variant-numeric:normal;font-feature-settings:normal;text-align:start;letter-spacing:0px;word-spacing:0px;writing-mode:lr-tb;text-anchor:start;fill:#4d4d4d;fill-opacity:1;stroke:none;stroke-width:0.26458332"
         d="m 55.497109,111.96634 h -0.620807 v -0.57103 h 0.620807 z m -0.03514,3.81854 h -0.550527 v -3.27094 h 0.550527 z" />
      <path
         inkscape:connector-curvature="0"
         id="path3710"
         style="font-style:normal;font-variant:normal;font-weight:normal;font-stretch:normal;font-size:5.99722242px;line-height:1.25;font-family:sans-serif;-inkscape-font-specification:sans-serif;font-variant-ligatures:normal;font-variant-caps:normal;font-variant-numeric:normal;font-feature-settings:normal;text-align:start;letter-spacing:0px;word-spacing:0px;writing-mode:lr-tb;text-anchor:start;fill:#4d4d4d;fill-opacity:1;stroke:none;stroke-width:0.26458332"
         d="m 59.611588,115.7556 q -0.155202,0.041 -0.339687,0.0674 -0.181556,0.0264 -0.325044,0.0264 -0.500745,0 -0.761367,-0.26941 -0.260621,-0.26941 -0.260621,-0.86386 v -1.73943 h -0.371898 v -0.46267 h 0.371898 v -0.94 h 0.550526 v 0.94 h 1.136193 v 0.46267 h -1.136193 v 1.49052 q 0,0.2577 0.01171,0.40411 0.01171,0.14349 0.08199,0.26941 0.06442,0.11713 0.1757,0.17277 0.114205,0.0527 0.345543,0.0527 0.134703,0 0.28112,-0.0381 0.146416,-0.041 0.210839,-0.0673 h 0.02928 z" />
      <path
         inkscape:connector-curvature="0"
         id="path3712"
         style="font-style:normal;font-variant:normal;font-weight:normal;font-stretch:normal;font-size:5.99722242px;line-height:1.25;font-family:sans-serif;-inkscape-font-specification:sans-serif;font-variant-ligatures:normal;font-variant-caps:normal;font-variant-numeric:normal;font-feature-settings:normal;text-align:start;letter-spacing:0px;word-spacing:0px;writing-mode:lr-tb;text-anchor:start;fill:#4d4d4d;fill-opacity:1;stroke:none;stroke-width:0.26458332"
         d="m 64.308287,112.51394 -1.909272,4.47741 h -0.588594 l 0.609093,-1.3646 -1.303108,-3.11281 h 0.59738 l 1.004417,2.42465 1.013203,-2.42465 z" />
      <path
         inkscape:connector-curvature="0"
         id="path3714"
         style="font-style:normal;font-variant:normal;font-weight:normal;font-stretch:normal;font-size:5.99722242px;line-height:1.25;font-family:sans-serif;-inkscape-font-specification:sans-serif;font-variant-ligatures:normal;font-variant-caps:normal;font-variant-numeric:normal;font-feature-settings:normal;text-align:start;letter-spacing:0px;word-spacing:0px;writing-mode:lr-tb;text-anchor:start;fill:#4d4d4d;fill-opacity:1;stroke:none;stroke-width:0.26458332"
         d="m 71.462719,114.15087 q 0,0.79944 -0.409966,1.26211 -0.409967,0.46268 -1.098124,0.46268 -0.694015,0 -1.103981,-0.46268 -0.407038,-0.46267 -0.407038,-1.26211 0,-0.79943 0.407038,-1.26211 0.409966,-0.4656 1.103981,-0.4656 0.688157,0 1.098124,0.4656 0.409966,0.46268 0.409966,1.26211 z m -0.568096,0 q 0,-0.63544 -0.248908,-0.94292 -0.248908,-0.3104 -0.691086,-0.3104 -0.448035,0 -0.696943,0.3104 -0.24598,0.30748 -0.24598,0.94292 0,0.61495 0.248908,0.93414 0.248908,0.31626 0.694015,0.31626 0.439249,0 0.688157,-0.31333 0.251837,-0.31626 0.251837,-0.93707 z" />
      <path
         inkscape:connector-curvature="0"
         id="path3716"
         style="font-style:normal;font-variant:normal;font-weight:normal;font-stretch:normal;font-size:5.99722242px;line-height:1.25;font-family:sans-serif;-inkscape-font-specification:sans-serif;font-variant-ligatures:normal;font-variant-caps:normal;font-variant-numeric:normal;font-feature-settings:normal;text-align:start;letter-spacing:0px;word-spacing:0px;writing-mode:lr-tb;text-anchor:start;fill:#4d4d4d;fill-opacity:1;stroke:none;stroke-width:0.26458332"
         d="m 74.491128,111.76136 h -0.02928 q -0.09078,-0.0264 -0.237195,-0.0527 -0.146416,-0.0293 -0.257693,-0.0293 -0.354328,0 -0.515386,0.15813 -0.15813,0.1552 -0.15813,0.56517 v 0.11128 h 0.992704 v 0.46267 h -0.975137 v 2.80827 h -0.550527 v -2.80827 h -0.371898 v -0.46267 h 0.371898 v -0.10835 q 0,-0.58274 0.289905,-0.89314 0.289905,-0.31333 0.837503,-0.31333 0.184485,0 0.330901,0.0176 0.149345,0.0176 0.272335,0.041 z" />
      <path
         inkscape:connector-curvature="0"
         id="path3718"
         style="font-style:normal;font-variant:normal;font-weight:normal;font-stretch:normal;font-size:5.99722242px;line-height:1.25;font-family:sans-serif;-inkscape-font-specification:sans-serif;font-variant-ligatures:normal;font-variant-caps:normal;font-variant-numeric:normal;font-feature-settings:normal;text-align:start;letter-spacing:0px;word-spacing:0px;writing-mode:lr-tb;text-anchor:start;fill:#4d4d4d;fill-opacity:1;stroke:none;stroke-width:0.26458332"
         d="M 82.224163,111.97305 H 80.01913 v 1.2299 h 1.89463 v 0.51539 h -1.89463 v 2.09961 h -0.57981 v -4.36028 h 2.784843 z" />
      <path
         inkscape:connector-curvature="0"
         id="path3720"
         style="font-style:normal;font-variant:normal;font-weight:normal;font-stretch:normal;font-size:5.99722242px;line-height:1.25;font-family:sans-serif;-inkscape-font-specification:sans-serif;font-variant-ligatures:normal;font-variant-caps:normal;font-variant-numeric:normal;font-feature-settings:normal;text-align:start;letter-spacing:0px;word-spacing:0px;writing-mode:lr-tb;text-anchor:start;fill:#4d4d4d;fill-opacity:1;stroke:none;stroke-width:0.26458332"
         d="m 84.635731,115.85103 h -0.550526 v -4.55648 h 0.550526 z" />
      <path
         inkscape:connector-curvature="0"
         id="path3722"
         style="font-style:normal;font-variant:normal;font-weight:normal;font-stretch:normal;font-size:5.99722242px;line-height:1.25;font-family:sans-serif;-inkscape-font-specification:sans-serif;font-variant-ligatures:normal;font-variant-caps:normal;font-variant-numeric:normal;font-feature-settings:normal;text-align:start;letter-spacing:0px;word-spacing:0px;writing-mode:lr-tb;text-anchor:start;fill:#4d4d4d;fill-opacity:1;stroke:none;stroke-width:0.26458332"
         d="m 89.940836,114.15087 q 0,0.79944 -0.409966,1.26211 -0.409967,0.46268 -1.098124,0.46268 -0.694015,0 -1.103981,-0.46268 -0.407038,-0.46267 -0.407038,-1.26211 0,-0.79943 0.407038,-1.26211 0.409966,-0.4656 1.103981,-0.4656 0.688157,0 1.098124,0.4656 0.409966,0.46268 0.409966,1.26211 z m -0.568096,0 q 0,-0.63544 -0.248908,-0.94292 -0.248908,-0.3104 -0.691086,-0.3104 -0.448035,0 -0.696943,0.3104 -0.24598,0.30748 -0.24598,0.94292 0,0.61495 0.248908,0.93414 0.248908,0.31626 0.694015,0.31626 0.439249,0 0.688157,-0.31333 0.251837,-0.31626 0.251837,-0.93707 z" />
      <path
         inkscape:connector-curvature="0"
         id="path3724"
         style="font-style:normal;font-variant:normal;font-weight:normal;font-stretch:normal;font-size:5.99722242px;line-height:1.25;font-family:sans-serif;-inkscape-font-specification:sans-serif;font-variant-ligatures:normal;font-variant-caps:normal;font-variant-numeric:normal;font-feature-settings:normal;text-align:start;letter-spacing:0px;word-spacing:0px;writing-mode:lr-tb;text-anchor:start;fill:#4d4d4d;fill-opacity:1;stroke:none;stroke-width:0.26458332"
         d="m 94.077211,113.11424 h -0.0293 q -0.12299,-0.0293 -0.24013,-0.041 -0.1142,-0.0146 -0.27233,-0.0146 -0.25477,0 -0.49196,0.1142 -0.2372,0.11128 -0.45683,0.28991 v 2.32216 h -0.55053 v -3.27094 h 0.55053 v 0.48317 q 0.32797,-0.26355 0.57688,-0.3719 0.25184,-0.11127 0.51247,-0.11127 0.14348,0 0.20791,0.009 0.0644,0.006 0.19327,0.0264 z" />
      <path
         inkscape:connector-curvature="0"
         id="path3726"
         style="font-style:normal;font-variant:normal;font-weight:normal;font-stretch:normal;font-size:5.99722242px;line-height:1.25;font-family:sans-serif;-inkscape-font-specification:sans-serif;font-variant-ligatures:normal;font-variant-caps:normal;font-variant-numeric:normal;font-feature-settings:normal;text-align:start;letter-spacing:0px;word-spacing:0px;writing-mode:lr-tb;text-anchor:start;fill:#4d4d4d;fill-opacity:1;stroke:none;stroke-width:0.26458332"
         d="m 96.515841,111.99941 h -0.62081 v -0.57103 h 0.62081 z m -0.0351,3.81854 h -0.55053 v -3.27094 h 0.55053 z" />
      <path
         inkscape:connector-curvature="0"
         id="path3728"
         style="font-style:normal;font-variant:normal;font-weight:normal;font-stretch:normal;font-size:5.99722242px;line-height:1.25;font-family:sans-serif;-inkscape-font-specification:sans-serif;font-variant-ligatures:normal;font-variant-caps:normal;font-variant-numeric:normal;font-feature-settings:normal;text-align:start;letter-spacing:0px;word-spacing:0px;writing-mode:lr-tb;text-anchor:start;fill:#4d4d4d;fill-opacity:1;stroke:none;stroke-width:0.26458332"
         d="m 101.33693,115.81795 h -0.55052 v -0.34261 q -0.2372,0.20498 -0.4949,0.31919 -0.25769,0.1142 -0.559309,0.1142 -0.58567,0 -0.93122,-0.45096 -0.34261,-0.45097 -0.34261,-1.2504 0,-0.41582 0.11713,-0.74087 0.12006,-0.32504 0.32212,-0.55345 0.19913,-0.22256 0.46268,-0.33969 0.26648,-0.11713 0.55053,-0.11713 0.257689,0 0.456819,0.0556 0.19913,0.0527 0.41876,0.16691 v -1.41731 h 0.55052 z m -0.55052,-0.80529 v -1.87706 q -0.22256,-0.0996 -0.39826,-0.13763 -0.1757,-0.0381 -0.38362,-0.0381 -0.462669,0 -0.720369,0.32212 -0.25769,0.32211 -0.25769,0.91364 0,0.58273 0.19913,0.88728 0.19912,0.30162 0.63837,0.30162 0.234269,0 0.474399,-0.10249 0.24012,-0.10542 0.44804,-0.26941 z" />
      <path
         inkscape:connector-curvature="0"
         id="path3730"
         style="font-style:normal;font-variant:normal;font-weight:normal;font-stretch:normal;font-size:5.99722242px;line-height:1.25;font-family:sans-serif;-inkscape-font-specification:sans-serif;font-variant-ligatures:normal;font-variant-caps:normal;font-variant-numeric:normal;font-feature-settings:normal;text-align:start;letter-spacing:0px;word-spacing:0px;writing-mode:lr-tb;text-anchor:start;fill:#4d4d4d;fill-opacity:1;stroke:none;stroke-width:0.26458332"
         d="m 105.70637,115.78488 h -0.5476 v -0.34847 q -0.0732,0.0498 -0.19913,0.14056 -0.12299,0.0879 -0.24012,0.14056 -0.13763,0.0674 -0.31626,0.11128 -0.17863,0.0468 -0.41876,0.0468 -0.44218,0 -0.74965,-0.29283 -0.30748,-0.29284 -0.30748,-0.74673 0,-0.37189 0.15813,-0.6003 0.16106,-0.23134 0.45682,-0.36312 0.29869,-0.13177 0.71745,-0.17863 0.41875,-0.0469 0.899,-0.0703 v -0.0849 q 0,-0.18741 -0.0673,-0.3104 -0.0644,-0.12299 -0.18742,-0.19327 -0.11713,-0.0674 -0.28112,-0.0908 -0.16399,-0.0234 -0.34261,-0.0234 -0.2167,0 -0.48318,0.0586 -0.26648,0.0556 -0.55053,0.16399 h -0.0293 v -0.55931 q 0.16106,-0.0439 0.46561,-0.0966 0.30454,-0.0527 0.60031,-0.0527 0.34554,0 0.60031,0.0586 0.25769,0.0556 0.4451,0.19327 0.18448,0.1347 0.28112,0.34847 0.0966,0.21377 0.0966,0.53003 z m -0.5476,-0.80529 v -0.91071 q -0.25184,0.0146 -0.59446,0.0439 -0.33968,0.0293 -0.53881,0.0849 -0.2372,0.0674 -0.38361,0.21084 -0.14642,0.14056 -0.14642,0.38946 0,0.28112 0.16984,0.42461 0.16985,0.14056 0.51832,0.14056 0.28991,0 0.53003,-0.11127 0.24013,-0.11421 0.44511,-0.27234 z" />
      <text
         xml:space="preserve"
         style="font-style:normal;font-variant:normal;font-weight:normal;font-stretch:normal;font-size:15.875px;line-height:1.25;font-family:'Ink Free';-inkscape-font-specification:'Ink Free';font-variant-ligatures:normal;font-variant-caps:normal;font-variant-numeric:normal;font-feature-settings:normal;text-align:start;letter-spacing:0px;word-spacing:0px;writing-mode:lr-tb;text-anchor:start;fill:#4d4d4d;fill-opacity:1;stroke:none;stroke-width:0.26458332"
         x="99.300995"
         y="138.35071"
         id="text3736"><tspan
           sodipodi:role="line"
           id="tspan3734"
           x="99.300995"
           y="138.35071"
           style="font-style:normal;font-variant:normal;font-weight:normal;font-stretch:normal;font-size:5.5562501px;font-family:Sans-serif;-inkscape-font-specification:Sans-serif;fill:#4d4d4d;stroke-width:0.26458332">Jan. 31st - Feb. 2nd, 2020</tspan></text>
    </g>
  </g>
</svg>
