<svg xmlns="http://www.w3.org/2000/svg" viewBox="0 0 426.27 84.54"><defs><style>.cls-1,.cls-3{fill:#4d4d4d;}.cls-2,.cls-3{isolation:isolate;}.cls-3{font-size:15.75px;font-family:Helvetica, Helvetica;}</style></defs><title>official_text_logo</title><g id="Layer_2" data-name="Layer 2"><g id="svg1711"><g id="g3937"><g id="g3692"><path id="path3668" d="M393,56.56H381l-9-16.61-2.81,4V56.56H358.78V3.71h10.33V35.27l11.13-16.85h11.91L380.56,34.86Z"/><g id="g3690"><path id="path3670" d="M29.27,49.17A11.27,11.27,0,0,1,25,58.24q-4.23,3.54-11.57,3.54A26.38,26.38,0,0,1,5.8,60.73,33.43,33.43,0,0,1,0,58.38V50.76H.34A25,25,0,0,0,7,54.62,19.46,19.46,0,0,0,14,56a12.4,12.4,0,0,0,6.5-1.44A5,5,0,0,0,22.83,50a4.81,4.81,0,0,0-1.27-3.62,11.18,11.18,0,0,0-4.9-2.09c-.89-.22-2.07-.47-3.52-.76s-2.74-.6-3.92-.94c-3.29-.94-5.62-2.31-7-4.12a10.94,10.94,0,0,1-2-6.71,11.78,11.78,0,0,1,.94-4.7A11.44,11.44,0,0,1,4,23.16a13.41,13.41,0,0,1,4.76-2.67,19.94,19.94,0,0,1,6.51-1,26.54,26.54,0,0,1,6.77.9,24.11,24.11,0,0,1,5.73,2.13v7.26h-.33a22,22,0,0,0-5.87-3.21,18.7,18.7,0,0,0-6.77-1.34A11,11,0,0,0,9,26.67,4.6,4.6,0,0,0,6.6,30.89a4.71,4.71,0,0,0,1.45,3.76,10.79,10.79,0,0,0,4.56,2.06c1.16.29,2.45.58,3.88.87s2.66.55,3.62.79a13,13,0,0,1,6.78,3.72A10.28,10.28,0,0,1,29.27,49.17Z"/><path id="path3672" d="M85.42,20.45,75.66,60.8H69.83L60.21,29.7,50.66,60.8h-5.8L35,20.45h6.57L48.44,51.7,57.8,20.45H63L72.58,51.7l6.5-31.25Z"/><path id="path3674" d="M122.93,60.8h-6.26V56.5q-.84.61-2.28,1.74A16.09,16.09,0,0,1,111.64,60,17.4,17.4,0,0,1,108,61.34a17.63,17.63,0,0,1-4.8.58,11.53,11.53,0,0,1-8.58-3.61,12.64,12.64,0,0,1-3.52-9.21,13.51,13.51,0,0,1,1.81-7.41,12.53,12.53,0,0,1,5.23-4.48,26.77,26.77,0,0,1,8.21-2.2q4.8-.57,10.3-.87v-1a8.34,8.34,0,0,0-.78-3.83,5.63,5.63,0,0,0-2.14-2.39,8.76,8.76,0,0,0-3.22-1.12,26.11,26.11,0,0,0-3.92-.28,24.21,24.21,0,0,0-5.53.72,38.6,38.6,0,0,0-6.31,2h-.33v-6.9c1.23-.36,3-.76,5.33-1.19a37.65,37.65,0,0,1,6.87-.65,28.86,28.86,0,0,1,6.87.72,12.67,12.67,0,0,1,5.1,2.39,10.53,10.53,0,0,1,3.22,4.29,16.93,16.93,0,0,1,1.1,6.54Zm-6.26-9.93V39.63c-1.93.12-4.2.31-6.81.55a33.47,33.47,0,0,0-6.17,1,10,10,0,0,0-4.39,2.6,6.63,6.63,0,0,0-1.68,4.81,6.73,6.73,0,0,0,1.95,5.24q1.94,1.73,5.93,1.73a13.46,13.46,0,0,0,6.07-1.37A28.11,28.11,0,0,0,116.67,50.87Z"/><path id="path3676" d="M189.78,60.8h-6.3v-23c0-1.74-.08-3.41-.24-5a11,11,0,0,0-.9-3.87,5.3,5.3,0,0,0-2.21-2.35A8.9,8.9,0,0,0,176,25.8a11,11,0,0,0-5.3,1.44,31.36,31.36,0,0,0-5.29,3.62c.06.55.12,1.2.16,2s.07,1.44.07,2.16V60.8h-6.3v-23c0-1.78-.08-3.47-.24-5.06a10.91,10.91,0,0,0-.9-3.86A5.13,5.13,0,0,0,156,26.59a8.93,8.93,0,0,0-4.16-.79,11.2,11.2,0,0,0-5.2,1.37,31.44,31.44,0,0,0-5.16,3.51V60.8h-6.3V20.45h6.3v4.48a27.69,27.69,0,0,1,5.87-4.11,13.72,13.72,0,0,1,6.27-1.49,11.55,11.55,0,0,1,6.47,1.74,10.53,10.53,0,0,1,4,4.8,30.36,30.36,0,0,1,7-5,15,15,0,0,1,6.74-1.56q6.17,0,9.08,4.05t2.95,11.23Z"/><path id="path3678" d="M275.44,56.56H265.05V37.64c0-1.54-.07-3.06-.2-4.58a11.63,11.63,0,0,0-.69-3.4,3.69,3.69,0,0,0-1.69-1.83,6.65,6.65,0,0,0-3.08-.58,8.31,8.31,0,0,0-2.87.54,14.74,14.74,0,0,0-3.12,1.74v27H243.07V3.71H253.4V22.63a26.08,26.08,0,0,1,5.28-3.91,11.88,11.88,0,0,1,5.65-1.35,9.92,9.92,0,0,1,8.15,3.6q3,3.6,3,10.76Z"/><path id="path3680" d="M304.48,46.61v-8c-1.4.14-2.91.33-4.54.58a19.15,19.15,0,0,0-3.7.81,5.2,5.2,0,0,0-2.38,1.7,4.8,4.8,0,0,0-.8,2.89,8.65,8.65,0,0,0,.17,1.94,2.92,2.92,0,0,0,.86,1.42,4.07,4.07,0,0,0,1.58,1,9.58,9.58,0,0,0,2.87.31,7.29,7.29,0,0,0,3.13-.75,9.49,9.49,0,0,0,2.81-2Zm0,5.91c-.56.5-1.24,1.1-2.07,1.8A14.13,14.13,0,0,1,300.09,56a12.5,12.5,0,0,1-3.16,1.19,14.39,14.39,0,0,1-3.59.41,10,10,0,0,1-7.69-3.36,12.21,12.21,0,0,1-3.1-8.59,13.2,13.2,0,0,1,1.58-6.83,11.11,11.11,0,0,1,4.48-4.18,22.15,22.15,0,0,1,7.12-2.17c2.83-.43,5.76-.75,8.81-1v-.21q0-3.15-2.18-4.35a13.53,13.53,0,0,0-6.43-1.22,15.49,15.49,0,0,0-5.46,1.09c-1.93.7-3.31,1.24-4.16,1.63h-.94V19.23a50.77,50.77,0,0,1,5.31-1.18,38.58,38.58,0,0,1,7.4-.72q8.81,0,12.71,3.23t3.93,10.05v26H304.48Z"/><path id="path3682" d="M341,57.58a24,24,0,0,1-7.72-1.19,16.09,16.09,0,0,1-6.05-3.67,16.42,16.42,0,0,1-4-6.25,25.13,25.13,0,0,1-1.41-8.83,25.68,25.68,0,0,1,1.49-9.2A17.53,17.53,0,0,1,327.58,22a16.09,16.09,0,0,1,6-3.53,22.48,22.48,0,0,1,7.09-1.12,20.64,20.64,0,0,1,6.08.85,25.63,25.63,0,0,1,5.19,2.2V30.85h-1.46c-.4-.41-.89-.88-1.46-1.43A13,13,0,0,0,347,27.83a11.81,11.81,0,0,0-2.58-1.23,9.86,9.86,0,0,0-3.27-.5,7.36,7.36,0,0,0-6.37,3.12c-1.48,2.06-2.21,4.87-2.21,8.42s.75,6.46,2.26,8.36a7.87,7.87,0,0,0,6.49,2.85,11.16,11.16,0,0,0,3.5-.51,11,11,0,0,0,2.61-1.25,12.55,12.55,0,0,0,1.72-1.43c.5-.5,1-1,1.38-1.46H352V54.63a24.81,24.81,0,0,1-5.1,2.14,20,20,0,0,1-5.86.81Z"/><path id="path3684" d="M426.27,44.47A11.69,11.69,0,0,1,421.8,54q-4.49,3.6-12.26,3.61a29.44,29.44,0,0,1-7.8-1,26.4,26.4,0,0,1-5.63-2.1V44.5h.95c.52.43,1.11.91,1.78,1.43a18.59,18.59,0,0,0,2.9,1.63,22.54,22.54,0,0,0,3.64,1.36,17,17,0,0,0,4.36.54,10,10,0,0,0,4.51-.78,2.58,2.58,0,0,0,1.46-2.38,2.28,2.28,0,0,0-.86-2,9.56,9.56,0,0,0-3.27-1.22c-.77-.21-1.81-.42-3.13-.65a31.42,31.42,0,0,1-3.56-.88,12.38,12.38,0,0,1-6.51-4.21,11.76,11.76,0,0,1-2.12-7.17A11.38,11.38,0,0,1,400.65,21q4.41-3.66,12.05-3.66a26.62,26.62,0,0,1,6.92.88,25.07,25.07,0,0,1,5.19,1.83v9.65h-.89a19.36,19.36,0,0,0-5.25-3,15.51,15.51,0,0,0-5.94-1.19,9.86,9.86,0,0,0-4.22.81,2.54,2.54,0,0,0-1.69,2.31,2.64,2.64,0,0,0,.77,2.07,9.35,9.35,0,0,0,3.65,1.43c1.05.25,2.18.5,3.38.75a35.07,35.07,0,0,1,3.68.88,11.14,11.14,0,0,1,6,4,11.12,11.12,0,0,1,1.95,6.72Z"/><g id="g3688"><path id="path3686" d="M234,39.94a27,27,0,0,1-1.35,8.75,19.27,19.27,0,0,1-3.83,6.68,16.22,16.22,0,0,1-5.43,4,15.68,15.68,0,0,1-6.58,1.4,21.24,21.24,0,0,1-5.49-.66,22.68,22.68,0,0,1-5-2.08V76.9h-6.54V20.79h6.54V24.9a25.42,25.42,0,0,1,5.85-3.69,16.5,16.5,0,0,1,7-1.51A12.71,12.71,0,0,1,230,25.08Q234,30.42,234,39.94Zm-6.75.18q0-7.09-2.4-10.61T217.42,26a14.29,14.29,0,0,0-5.67,1.23,25.87,25.87,0,0,0-5.46,3.23V52.7a26.67,26.67,0,0,0,4.77,1.72,20.93,20.93,0,0,0,4.56.46,10.43,10.43,0,0,0,8.52-3.73q3.06-3.72,3.06-11Z"/></g></g></g><path id="path3694" class="cls-1" d="M12.66,8a8.21,8.21,0,0,1-.3,2.34,3.66,3.66,0,0,1-1,1.66A3.91,3.91,0,0,1,9.9,13a6.28,6.28,0,0,1-2,.29,6.13,6.13,0,0,1-2-.31A3.89,3.89,0,0,1,4.43,12a4,4,0,0,1-1-1.64A8.4,8.4,0,0,1,3.17,8V.64H4.82V8.12A7.27,7.27,0,0,0,5,9.7a3.25,3.25,0,0,0,.46,1.06,2.31,2.31,0,0,0,1,.81,3.84,3.84,0,0,0,1.51.28,3.78,3.78,0,0,0,1.51-.27,2.3,2.3,0,0,0,1-.82,3.07,3.07,0,0,0,.46-1.08A7.22,7.22,0,0,0,11,8.16V.64h1.64Z"/><path id="path3696" class="cls-1" d="M25.73,13H24.17V7.72a9.12,9.12,0,0,0-.07-1.2,2.12,2.12,0,0,0-.28-.88,1.21,1.21,0,0,0-.6-.51,2.42,2.42,0,0,0-1-.17,3.21,3.21,0,0,0-1.33.31,6.65,6.65,0,0,0-1.34.81V13H18V3.73h1.56v1a6.33,6.33,0,0,1,1.51-.95,3.9,3.9,0,0,1,1.6-.34,2.88,2.88,0,0,1,2.29.9A3.86,3.86,0,0,1,25.73,7Z"/><path id="path3698" class="cls-1" d="M33.09,2.22H31.33V.6h1.76ZM33,13.05H31.43V3.77H33Z"/><path id="path3700" class="cls-1" d="M46.78,3.73,43,13H41.46L37.73,3.73h1.7l2.87,7.38,2.85-7.38Z"/><path id="path3702" class="cls-1" d="M58.65,8.52H51.82a4.06,4.06,0,0,0,.26,1.5,2.79,2.79,0,0,0,.71,1,2.71,2.71,0,0,0,1,.59,3.87,3.87,0,0,0,1.31.2,5.17,5.17,0,0,0,1.9-.37,4.5,4.5,0,0,0,1.37-.75h.08v1.7a11.36,11.36,0,0,1-1.61.56,6.51,6.51,0,0,1-1.73.22A5,5,0,0,1,51.53,12a4.73,4.73,0,0,1-1.29-3.55,5.11,5.11,0,0,1,1.23-3.61,4.27,4.27,0,0,1,3.27-1.34,3.72,3.72,0,0,1,2.89,1.1,4.38,4.38,0,0,1,1,3.11ZM57.14,7.33a2.77,2.77,0,0,0-.63-1.9,2.35,2.35,0,0,0-1.85-.67,2.7,2.7,0,0,0-2,.74,2.89,2.89,0,0,0-.84,1.83Z"/><path id="path3704" class="cls-1" d="M68.63,5.48h-.08a4.23,4.23,0,0,0-.68-.12,5.78,5.78,0,0,0-.77,0,3.29,3.29,0,0,0-1.4.32,6.66,6.66,0,0,0-1.29.82v6.59H62.85V3.77h1.56V5.14a7.65,7.65,0,0,1,1.63-1,3.59,3.59,0,0,1,1.46-.32,4.17,4.17,0,0,1,.59,0l.54.07Z"/><path id="path3706" class="cls-1" d="M81.57,10.33a2.52,2.52,0,0,1-1,2.08,4.58,4.58,0,0,1-2.87.81A7.09,7.09,0,0,1,75.76,13a7.42,7.42,0,0,1-1.43-.54V10.69h.08a6.33,6.33,0,0,0,1.64.89,5,5,0,0,0,1.74.32,3.3,3.3,0,0,0,1.61-.33,1.13,1.13,0,0,0,.58-1,1,1,0,0,0-.32-.83,2.87,2.87,0,0,0-1.21-.49L77.58,9c-.36-.07-.68-.14-1-.22a3.29,3.29,0,0,1-1.74-.94,2.44,2.44,0,0,1-.5-1.55,2.5,2.5,0,0,1,.23-1.08,2.75,2.75,0,0,1,.72-.9,3.21,3.21,0,0,1,1.18-.61,5.09,5.09,0,0,1,1.61-.24,7,7,0,0,1,1.68.21,6.32,6.32,0,0,1,1.42.49V5.87h-.09a5.63,5.63,0,0,0-1.45-.74A5.07,5.07,0,0,0,78,4.82a2.89,2.89,0,0,0-1.44.33,1.06,1.06,0,0,0-.59,1,1,1,0,0,0,.36.86,2.81,2.81,0,0,0,1.13.47c.28.07.6.14,1,.2l.9.18A3.36,3.36,0,0,1,81,8.7a2.22,2.22,0,0,1,.59,1.63Z"/><path id="path3708" class="cls-1" d="M89.15,2.17H87.39V.56h1.76ZM89.05,13H87.49V3.73h1.56Z"/><path id="path3710" class="cls-1" d="M100.81,12.92c-.29.07-.62.14-1,.19a6.49,6.49,0,0,1-.93.07,2.85,2.85,0,0,1-2.15-.76A3.4,3.4,0,0,1,96,10V5H95V3.73H96V1.06h1.56V3.73h3.22V5H97.59V9.26c0,.49,0,.87,0,1.15a1.82,1.82,0,0,0,.23.76,1.18,1.18,0,0,0,.5.49,2.45,2.45,0,0,0,1,.15,2.85,2.85,0,0,0,.8-.11,5.54,5.54,0,0,0,.6-.19h.08Z"/><path id="path3712" class="cls-1" d="M114.12,3.73l-5.41,12.69H107l1.73-3.87-3.7-8.82h1.7l2.85,6.87,2.87-6.87Z"/><path id="path3714" class="cls-1" d="M134.4,8.37a5.15,5.15,0,0,1-1.16,3.57,4.35,4.35,0,0,1-6.24,0,5.2,5.2,0,0,1-1.16-3.57A5.23,5.23,0,0,1,127,4.79a4.35,4.35,0,0,1,6.24,0A5.18,5.18,0,0,1,134.4,8.37Zm-1.61,0a4.25,4.25,0,0,0-.7-2.68,2.65,2.65,0,0,0-3.94,0,4.31,4.31,0,0,0-.7,2.68,4.27,4.27,0,0,0,.71,2.65,2.38,2.38,0,0,0,2,.89,2.33,2.33,0,0,0,2-.89A4.21,4.21,0,0,0,132.79,8.37Z"/><path id="path3716" class="cls-1" d="M143,1.59h-.09a6.45,6.45,0,0,0-.67-.15,4.15,4.15,0,0,0-.73-.08,2,2,0,0,0-1.46.45,2.22,2.22,0,0,0-.45,1.6v.32h2.82V5h-2.77v8h-1.56V5H137V3.73h1.05V3.42A3.6,3.6,0,0,1,138.9.89,3.09,3.09,0,0,1,141.28,0a8.75,8.75,0,0,1,.94.05c.28,0,.53.07.77.12Z"/><path id="path3718" class="cls-1" d="M164.91,2.19h-6.25V5.68H164V7.14h-5.37v6H157V.73h7.9Z"/><path id="path3720" class="cls-1" d="M171.74,13.19h-1.56V.27h1.56Z"/><path id="path3722" class="cls-1" d="M186.78,8.37a5.2,5.2,0,0,1-1.16,3.57,4.35,4.35,0,0,1-6.24,0,5.2,5.2,0,0,1-1.16-3.57,5.23,5.23,0,0,1,1.16-3.58,4.35,4.35,0,0,1,6.24,0A5.23,5.23,0,0,1,186.78,8.37Zm-1.61,0a4.25,4.25,0,0,0-.7-2.68,2.65,2.65,0,0,0-3.94,0,4.31,4.31,0,0,0-.7,2.68,4.27,4.27,0,0,0,.71,2.65,2.38,2.38,0,0,0,2,.89,2.33,2.33,0,0,0,2-.89A4.21,4.21,0,0,0,185.17,8.37Z"/><path id="path3724" class="cls-1" d="M198.51,5.43h-.09a4.23,4.23,0,0,0-.68-.12,5.69,5.69,0,0,0-.77,0,3.21,3.21,0,0,0-1.39.32,6.78,6.78,0,0,0-1.3.83V13h-1.56V3.73h1.56V5.1A7.78,7.78,0,0,1,195.92,4a3.54,3.54,0,0,1,1.45-.31l.59,0,.55.08Z"/><path id="path3726" class="cls-1" d="M205.42,2.27h-1.76V.65h1.76Zm-.1,10.82h-1.56V3.82h1.56Z"/><path id="path3728" class="cls-1" d="M219.09,13.09h-1.57v-1a5.5,5.5,0,0,1-1.4.91,3.91,3.91,0,0,1-1.58.32,3.15,3.15,0,0,1-2.64-1.28,5.71,5.71,0,0,1-1-3.54,6.17,6.17,0,0,1,.33-2.1,4.74,4.74,0,0,1,.91-1.57,3.83,3.83,0,0,1,1.31-1A3.75,3.75,0,0,1,215,3.56a5.08,5.08,0,0,1,1.3.16,6.16,6.16,0,0,1,1.18.47v-4h1.57Zm-1.57-2.28V5.49a5.58,5.58,0,0,0-1.12-.39A5.37,5.37,0,0,0,215.31,5a2.47,2.47,0,0,0-2,.91,4.05,4.05,0,0,0-.73,2.59A4.59,4.59,0,0,0,213.1,11a2,2,0,0,0,1.81.85,3.27,3.27,0,0,0,1.34-.29,5.63,5.63,0,0,0,1.27-.76Z"/><path id="path3730" class="cls-1" d="M231.47,13h-1.55V12l-.57.4a3.45,3.45,0,0,1-.68.4,4,4,0,0,1-.89.31,4.68,4.68,0,0,1-1.19.14,3,3,0,0,1-2.12-.83,2.78,2.78,0,0,1-.88-2.12,2.92,2.92,0,0,1,.45-1.7,3.07,3.07,0,0,1,1.3-1,6.92,6.92,0,0,1,2-.51c.79-.09,1.64-.15,2.55-.2V6.63a1.79,1.79,0,0,0-.19-.88,1.4,1.4,0,0,0-.53-.55,2.28,2.28,0,0,0-.8-.25,6.07,6.07,0,0,0-1-.07,6.48,6.48,0,0,0-1.37.17,10.43,10.43,0,0,0-1.56.46h-.08V3.93a12.27,12.27,0,0,1,1.32-.28,9.85,9.85,0,0,1,1.7-.15,7.69,7.69,0,0,1,1.7.17,3.14,3.14,0,0,1,1.26.55,2.48,2.48,0,0,1,.8,1,3.74,3.74,0,0,1,.27,1.51Zm-1.55-2.28V8.13l-1.69.13a7.68,7.68,0,0,0-1.52.24,2.55,2.55,0,0,0-1.09.6,1.43,1.43,0,0,0-.42,1.1,1.49,1.49,0,0,0,.49,1.21,2.29,2.29,0,0,0,1.46.39,3.58,3.58,0,0,0,1.51-.31,8,8,0,0,0,1.26-.77Z"/><g id="text3736" class="cls-2"><text class="cls-3" transform="translate(213.31 76.97)">Jan. 31st - Feb. 2nd, 2020</text></g></g></g></g></svg>