<svg xmlns="http://www.w3.org/2000/svg" viewBox="0 0 958.74 568.44"><defs><style>.cls-1{fill:#784421;}.cls-2{fill:#d38d5f;}.cls-3,.cls-4{isolation:isolate;}.cls-4{font-size:60px;font-family:Ink Free;}.cls-5,.cls-6,.cls-7{fill:none;stroke:#5f4512;}.cls-5{stroke-width:0.49px;}.cls-6{stroke-width:0.46px;}.cls-7{stroke-width:0.45px;}</style></defs><title>pre-register-sign</title><g id="Layer_2" data-name="Layer 2"><g id="svg1279"><g id="layer1"><g id="g987"><path id="path1041" class="cls-1" d="M840.37,487.3c.12-2.27.39-4.83.71-7.15.25-1.81,0-3.76,1-5.23,1.29-1.76,5-1.11,6.26-2.85,1-1.35,1-3.34.62-5.05-.11-.5-.8-.87-.79-1.36,0-1.67,3.16-2.42,2.83-4.1s-2.46-2.63-4.11-3.3c-1.21-.49-2.9.48-3.86-.38-3.44-3.08-1.68-8.43-1.76-12.63-.1-4.73-1.57-10.37,1.42-14,1.41-1.72,5.18-.68,6.7-2.32a3.51,3.51,0,0,0,.74-3.35c-.38-1.18-2.57-1.59-2.78-2.8-.17-1,1.37-1.53,1.41-2.5a4.22,4.22,0,0,0-1-2.37,5.5,5.5,0,0,0-2.22-2.06c-1-.42-2.25.39-3.2-.14a4.55,4.55,0,0,1-1.9-2.84c-1.37-4.75-1.41-10.13.76-14.35.71-1.38,2.91-1.69,3.72-3,.58-1,0-2.42.63-3.35.78-1.13,3-1,3.61-2.24a4.14,4.14,0,0,0-.26-4.42c-1.2-1.43-4.17-.39-5.52-1.7-4-3.87-3.29-11.21-4.43-15-.54-1.82-6.16-2.69-6.07-.84.26,5.28,4.56,17,4.56,17l-.41,3.68s-5.16.46-6.15,2.25c-.78,1.41.3,3.37,1.14,4.89a18.41,18.41,0,0,0,3.34,3.44L835,413.47l1.93,6.55s-4.29,2.94-4.25,5.19c0,1.08,2.12,2.76,2.12,2.76l2.77,1.8-1.63,15,.65,11.95s1.45,2.76,1.14,4.08c-.54,2.33-4.67,3-4.91,5.35s3.47,6.35,3.47,6.35L835,486.1s5.32,2.84,5.41,1.2Z"/><path id="path977" class="cls-1" d="M838.91,369.66c.11-2.26.39-4.82.7-7.15.25-1.8,0-3.75,1.06-5.22,1.29-1.76,4.94-1.11,6.26-2.85,1-1.36,1-3.35.61-5.06-.1-.49-.79-.86-.78-1.35,0-1.68,3.16-2.43,2.83-4.1s-2.46-2.63-4.11-3.3c-1.21-.49-2.9.48-3.86-.38-3.44-3.08-1.68-8.43-1.76-12.63-.1-4.74-1.58-10.38,1.41-14,1.42-1.72,5.19-.67,6.7-2.31a3.54,3.54,0,0,0,.75-3.35c-.38-1.18-2.57-1.6-2.78-2.8-.17-1,1.37-1.53,1.41-2.5a4.17,4.17,0,0,0-1-2.37,5.6,5.6,0,0,0-2.22-2.07c-1-.41-2.25.39-3.19-.13a4.56,4.56,0,0,1-1.9-2.84c-1.37-4.75-1.41-10.13.75-14.35.71-1.39,2.92-1.69,3.72-3,.59-1,0-2.42.63-3.36.79-1.12,3-1,3.62-2.24a4.16,4.16,0,0,0-.26-4.42c-1.21-1.42-4.17-.39-5.53-1.7-4-3.87-3.29-11.21-4.43-15-.54-1.81-6.16-2.68-6.07-.84.27,5.29,4.56,17,4.56,17l-.4,3.67s-5.16.47-6.15,2.26c-.79,1.41.3,3.37,1.14,4.88a18.24,18.24,0,0,0,3.34,3.45l-.43,14.27,1.93,6.54s-4.28,2.95-4.25,5.2c0,1.07,2.12,2.75,2.12,2.75l2.77,1.8-1.63,15,.66,12s1.44,2.76,1.14,4.08c-.54,2.33-4.67,2.95-4.91,5.35s3.47,6.35,3.47,6.35l-1.31,13.61s5.32,2.84,5.41,1.19Z"/></g><g id="g983"><path id="path1039" class="cls-1" d="M103.49,461.47c-.16-2.19-.47-4.68-.83-6.93-.28-1.76,0-3.64-1.15-5.08-1.31-1.72-5-1.14-6.3-2.85a6.07,6.07,0,0,1-.7-4.91c.1-.47.78-.82.76-1.3-.06-1.62-3.2-2.39-2.9-4s2.42-2.51,4-3.14c1.2-.46,2.91.51,3.85-.31,3.39-2.94.3-7.74.31-11.81,0-4.58,2.63-10.43-.42-14-1.45-1.68-5.19-.72-6.74-2.34a3.41,3.41,0,0,1-.8-3.25c.36-1.14,2.54-1.51,2.73-2.68.15-.93-1.39-1.5-1.45-2.44a3.85,3.85,0,0,1,1-2.28,5.29,5.29,0,0,1,2.19-2c1-.39,2.25.41,3.19-.08a4.3,4.3,0,0,0,1.85-2.73c1.28-4.59,1.23-9.79-1-13.91-.73-1.35-2.94-1.68-3.76-3-.61-1,0-2.35-.69-3.26-.81-1.1-3-1-3.66-2.22a3.91,3.91,0,0,1,.19-4.28c1.18-1.36,4.15-.32,5.49-1.57,3.92-3.69,3.09-10.81,4.17-14.5.51-1.75,6.1-2.51,6-.73-.17,5.12-4.26,16.45-4.26,16.45l.47,3.56s5.17.52,6.19,2.27c.81,1.38-.24,3.26-1.06,4.72a17.1,17.1,0,0,1-3.27,3.29l.67,13.83-1.82,6.31s4.33,2.91,4.34,5.09c0,1-2.07,2.64-2.07,2.64l-2.74,1.71,1.89,14.54-.45,11.57s-1.4,2.66-1.07,3.94c.58,2.27,4.72,2.93,5,5.25s-3.36,6.11-3.36,6.11l1.54,13.2s-5.26,2.68-5.38,1.08Z"/><path id="path975" class="cls-1" d="M104.17,346.89c-.16-2.2-.47-4.68-.83-6.94-.28-1.75,0-3.63-1.15-5.07-1.31-1.72-5-1.14-6.3-2.85a6.07,6.07,0,0,1-.7-4.91c.1-.47.78-.82.76-1.3-.06-1.62-3.2-2.39-2.9-4s2.41-2.51,4-3.14c1.2-.46,2.91.5,3.85-.31,3.39-2.94.3-7.74.31-11.81,0-4.58,2.63-10.43-.42-14-1.45-1.69-5.19-.73-6.74-2.34a3.41,3.41,0,0,1-.8-3.25c.36-1.14,2.54-1.51,2.73-2.68.15-.93-1.4-1.5-1.45-2.44a3.79,3.79,0,0,1,1-2.28,5.25,5.25,0,0,1,2.18-2c1-.39,2.26.41,3.2-.09a4.21,4.21,0,0,0,1.84-2.72c1.29-4.59,1.23-9.8-1-13.91-.73-1.36-2.94-1.68-3.77-3-.6-.95,0-2.35-.69-3.26-.8-1.1-3-1-3.65-2.22a3.93,3.93,0,0,1,.18-4.28c1.19-1.36,4.16-.32,5.5-1.57,3.92-3.69,3.09-10.81,4.16-14.5.51-1.75,6.11-2.51,6-.73-.17,5.12-4.26,16.45-4.26,16.45l.47,3.56s5.16.52,6.19,2.27c.81,1.37-.25,3.26-1.06,4.71a17.07,17.07,0,0,1-3.28,3.29l.67,13.84-1.81,6.31s4.33,2.91,4.33,5.09c0,1-2.06,2.64-2.06,2.64L106,291.2l1.89,14.54-.46,11.57s-1.39,2.66-1.06,3.94c.58,2.26,4.71,2.93,5,5.25s-3.36,6.11-3.36,6.11l1.54,13.2s-5.27,2.68-5.38,1.08Z"/></g><g id="g1173"><path id="path1139" class="cls-2" d="M940.23,447.34c-91.92-13.08-195,1.23-292.49,1.69-57.59.28-115.26-.56-172.78.65-7.9.17-15.72.76-23.62.91-55,1-110.22-.22-165.34-.13-54.46.09-108.92.68-163.39.65-35.27,0-71.09-3-105.8-.52-3.53.26-7.65.49-10,1.56-4,1.81-3.77,4.63-4.53,7-.83,2.63-.09,5.29,0,7.94.16,5.12-.62,10.27,1,15.35.84,2.7,3.86,5.24,4.53,7.94.78,3.15-.1,6.34-.65,9.5A34.93,34.93,0,0,1,4.84,508c-.48,1.09-1.67,2.14-1.94,3.25C-.87,526.78-2.49,543,7.75,558.07a9.12,9.12,0,0,0,4.85,3.64c2.87,1,7,1.3,10.68,1.56,43.25,3,87.79-.28,131.69-.26,72.15,0,144.3.44,216.45.66q149.32.45,298.64.91c90.7.24,183.33,8.11,272.11.65,4.16-.35,9-.74,11.65-2.08,3.78-1.95,2.81-4.83,3.23-7.29,2.15-12.43,3.4-25.21-3.55-37.35-1.33-2.3-6-4.18-7.12-6.5A11.33,11.33,0,0,1,947,501c.76-1.3,3.43-2.34,4.21-3.64,4.42-7.35,4.65-15.15,2.26-22.64-.8-2.52-4.88-4.77-5.5-7.29-.75-3.08,1.53-6.16,2.27-9.24.55-2.3,3.8-4.76,1.62-6.9-1.93-1.87-6.89-3.22-11.65-3.9Z"/><g id="text1143" class="cls-3"><text class="cls-4" transform="translate(311.45 521.14)">Pre-Register!</text></g><path id="path1145" class="cls-5" d="M15.22,553.25l364.84-6.16"/><path id="path1147" class="cls-5" d="M681.58,535.94l-495.19,7.18"/><path id="path1149" class="cls-5" d="M473.34,544.18l309.32.9"/><path id="path1151" class="cls-5" d="M121.38,490.69,14.49,487.9"/><path id="path1153" class="cls-5" d="M112.81,508.44,35,507"/><path id="path1155" class="cls-5" d="M796,459.92l-566.41-1"/><path id="path1157" class="cls-6" d="M208.3,525.78,14.17,532.41"/><path id="path1159" class="cls-5" d="M18.31,461.33l166.91,3.84"/><path id="path1161" class="cls-7" d="M802.83,516.76l134.7,2.68"/><path id="path1163" class="cls-5" d="M856.45,503.64l90.53-.26"/><path id="path1165" class="cls-5" d="M763.63,471.58l178.6-4.24"/><path id="path1167" class="cls-5" d="M597.9,466.37l-259.39.73"/><path id="path1169" class="cls-5" d="M813.49,538.67l129.57.9"/><path id="path1171" class="cls-5" d="M817.08,530l129.57.9"/></g><g id="g999"><path id="path995" class="cls-1" d="M837.34,250.92c.12-2.26.39-4.82.71-7.15.25-1.81,0-3.75,1.05-5.22,1.29-1.76,4.95-1.11,6.26-2.85,1-1.36,1-3.35.62-5.06-.11-.49-.8-.87-.79-1.36,0-1.67,3.16-2.42,2.83-4.09s-2.46-2.63-4.11-3.3c-1.21-.5-2.9.47-3.86-.38-3.44-3.08-1.68-8.43-1.76-12.64-.1-4.73-1.57-10.37,1.42-14,1.41-1.72,5.18-.67,6.7-2.31a3.56,3.56,0,0,0,.74-3.35c-.38-1.18-2.57-1.6-2.78-2.8-.17-1,1.37-1.54,1.41-2.5a4.25,4.25,0,0,0-1-2.38,5.65,5.65,0,0,0-2.22-2.06c-1-.42-2.25.39-3.2-.13a4.61,4.61,0,0,1-1.9-2.84c-1.37-4.76-1.41-10.13.76-14.35.71-1.39,2.91-1.7,3.71-3,.59-1,0-2.42.64-3.36.78-1.12,3-1,3.61-2.24a4.14,4.14,0,0,0-.26-4.42c-1.2-1.43-4.17-.39-5.52-1.7-4-3.87-3.29-11.21-4.43-15-.55-1.81-6.16-2.68-6.07-.84.26,5.28,4.56,17,4.56,17l-.41,3.67s-5.16.47-6.15,2.26c-.78,1.4.3,3.37,1.14,4.88a18.41,18.41,0,0,0,3.34,3.44L832,177.1l1.93,6.54s-4.29,2.94-4.25,5.2c0,1.07,2.11,2.75,2.11,2.75l2.78,1.8-1.63,15,.65,12s1.45,2.77,1.14,4.09c-.54,2.33-4.67,3-4.91,5.34s3.47,6.36,3.47,6.36l-1.31,13.61s5.32,2.84,5.41,1.19Z"/><path id="path997" class="cls-1" d="M835.88,133.29c.11-2.27.38-4.83.7-7.15.25-1.81,0-3.75,1.06-5.23,1.29-1.76,4.94-1.11,6.26-2.85,1-1.35,1-3.34.61-5-.1-.5-.79-.87-.78-1.36,0-1.67,3.16-2.42,2.83-4.1s-2.46-2.62-4.11-3.3c-1.21-.49-2.9.48-3.86-.38-3.44-3.08-1.68-8.43-1.77-12.63-.09-4.73-1.57-10.37,1.42-14,1.42-1.72,5.18-.68,6.7-2.32a3.52,3.52,0,0,0,.75-3.34c-.38-1.19-2.57-1.6-2.78-2.81-.17-1,1.37-1.53,1.41-2.5a4.17,4.17,0,0,0-1-2.37,5.5,5.5,0,0,0-2.22-2.06c-1-.42-2.25.39-3.2-.14A4.54,4.54,0,0,1,836,58.87c-1.37-4.76-1.41-10.14.75-14.36.71-1.38,2.92-1.69,3.72-3,.59-1,0-2.42.63-3.35.78-1.12,3-1,3.62-2.24a4.16,4.16,0,0,0-.26-4.42c-1.21-1.43-4.17-.39-5.53-1.7-4-3.87-3.29-11.21-4.43-15-.54-1.82-6.16-2.69-6.07-.84.27,5.28,4.56,17,4.56,17l-.4,3.67s-5.16.46-6.16,2.25c-.78,1.41.31,3.37,1.15,4.89a18.1,18.1,0,0,0,3.34,3.44l-.43,14.28L832.41,66s-4.29,2.94-4.25,5.19c0,1.08,2.12,2.76,2.12,2.76l2.77,1.8-1.63,15,.66,12s1.44,2.76,1.14,4.08c-.54,2.33-4.67,3-4.91,5.35s3.47,6.35,3.47,6.35l-1.31,13.61s5.32,2.84,5.41,1.2Z"/></g><g id="g1005"><path id="path1001" class="cls-1" d="M104.5,231.16c-.16-2.2-.47-4.68-.83-6.94-.28-1.75,0-3.63-1.15-5.08-1.31-1.72-5-1.14-6.3-2.84a6.07,6.07,0,0,1-.7-4.91c.1-.48.78-.83.76-1.3-.06-1.63-3.2-2.39-2.9-4s2.42-2.51,4.05-3.14c1.2-.46,2.91.5,3.85-.31,3.39-2.94.3-7.74.31-11.81,0-4.58,2.63-10.44-.42-14-1.45-1.69-5.19-.73-6.74-2.34a3.41,3.41,0,0,1-.8-3.25c.36-1.14,2.54-1.52,2.73-2.68.15-.94-1.39-1.5-1.45-2.44a3.85,3.85,0,0,1,1-2.29,5.26,5.26,0,0,1,2.19-2c1-.39,2.25.41,3.19-.09a4.28,4.28,0,0,0,1.85-2.72c1.28-4.59,1.23-9.8-1-13.92-.73-1.35-2.94-1.68-3.76-3-.61-1,0-2.34-.69-3.26-.81-1.09-3-1-3.66-2.21a3.91,3.91,0,0,1,.19-4.28c1.18-1.37,4.15-.32,5.49-1.57,3.92-3.69,3.09-10.82,4.17-14.5.51-1.75,6.1-2.52,6-.73-.17,5.12-4.26,16.44-4.26,16.44l.47,3.56s5.17.52,6.19,2.27c.81,1.38-.24,3.27-1.06,4.72a17.1,17.1,0,0,1-3.27,3.29l.67,13.84L106.8,166s4.34,2.91,4.34,5.09c0,1-2.07,2.64-2.07,2.64l-2.74,1.7L108.22,190l-.45,11.57s-1.4,2.65-1.07,3.94c.58,2.26,4.72,2.92,5,5.25.27,2.18-3.36,6.1-3.36,6.1l1.54,13.21s-5.26,2.67-5.38,1.08Z"/><path id="path1003" class="cls-1" d="M105.18,116.58c-.16-2.2-.47-4.68-.83-6.94-.28-1.76,0-3.63-1.15-5.08-1.31-1.72-5-1.14-6.3-2.84a6.07,6.07,0,0,1-.7-4.91c.1-.48.78-.83.76-1.31-.06-1.62-3.2-2.39-2.9-4s2.41-2.51,4-3.14c1.2-.46,2.91.5,3.85-.32,3.39-2.93.3-7.73.31-11.8,0-4.59,2.63-10.44-.42-14-1.45-1.68-5.19-.72-6.74-2.33a3.43,3.43,0,0,1-.8-3.26c.36-1.14,2.54-1.51,2.73-2.67.15-.94-1.4-1.51-1.45-2.44a3.79,3.79,0,0,1,1-2.29,5.3,5.3,0,0,1,2.18-2c1-.39,2.26.4,3.2-.09a4.23,4.23,0,0,0,1.84-2.72c1.29-4.59,1.23-9.8-1-13.92-.73-1.35-2.94-1.68-3.77-3-.6-.95,0-2.34-.69-3.26-.8-1.09-3-1-3.65-2.22a3.9,3.9,0,0,1,.19-4.27c1.18-1.37,4.15-.32,5.49-1.58,3.92-3.69,3.09-10.81,4.16-14.49.52-1.75,6.11-2.52,6-.73-.17,5.11-4.26,16.44-4.26,16.44l.47,3.56s5.16.52,6.19,2.27c.81,1.38-.24,3.27-1.06,4.72a17.07,17.07,0,0,1-3.28,3.29l.67,13.83-1.81,6.32s4.33,2.91,4.33,5.09c0,1-2.06,2.64-2.06,2.64L107,60.88l1.89,14.55L108.45,87s-1.4,2.65-1.07,3.94c.58,2.26,4.71,2.92,5,5.24s-3.36,6.11-3.36,6.11l1.54,13.2s-5.27,2.68-5.38,1.08Z"/></g></g></g></g></svg>