<svg xmlns="http://www.w3.org/2000/svg" viewBox="0 0 958.74 568.44"><defs><style>.cls-1{fill:#784421;}.cls-2{fill:#d38d5f;}.cls-3{isolation:isolate;}.cls-4,.cls-5,.cls-6{fill:none;stroke:#5f4512;}.cls-4{stroke-width:0.49px;}.cls-5{stroke-width:0.46px;}.cls-6{stroke-width:0.45px;}</style></defs><title>Asset 1</title><g id="Layer_2" data-name="Layer 2"><g id="svg1279"><g id="layer1"><g id="g987"><path id="path1041" class="cls-1" d="M840.37,487.3c.12-2.27.39-4.83.71-7.15.25-1.81,0-3.76,1-5.23,1.29-1.76,5-1.11,6.26-2.85,1-1.35,1-3.34.62-5.05-.11-.5-.8-.87-.79-1.36,0-1.67,3.16-2.42,2.83-4.1s-2.46-2.63-4.11-3.3c-1.21-.49-2.9.48-3.86-.38-3.44-3.08-1.68-8.43-1.76-12.63-.1-4.73-1.57-10.37,1.42-14,1.41-1.72,5.18-.68,6.7-2.32a3.51,3.51,0,0,0,.74-3.35c-.38-1.18-2.57-1.59-2.78-2.8-.17-1,1.37-1.53,1.41-2.5a4.22,4.22,0,0,0-1-2.37,5.5,5.5,0,0,0-2.22-2.06c-1-.42-2.25.39-3.2-.14a4.55,4.55,0,0,1-1.9-2.84c-1.37-4.75-1.41-10.13.76-14.35.71-1.38,2.91-1.69,3.72-3,.58-1,0-2.42.63-3.35.78-1.13,3-1,3.61-2.24a4.14,4.14,0,0,0-.26-4.42c-1.2-1.43-4.17-.39-5.52-1.7-4-3.87-3.29-11.21-4.43-15-.54-1.82-6.16-2.69-6.07-.84.26,5.28,4.56,17,4.56,17l-.41,3.68s-5.16.46-6.15,2.25c-.78,1.41.3,3.37,1.14,4.89a18.41,18.41,0,0,0,3.34,3.44L835,413.47l1.93,6.55s-4.29,2.94-4.25,5.19c0,1.08,2.12,2.76,2.12,2.76l2.77,1.8-1.63,15,.65,11.95s1.45,2.76,1.14,4.08c-.54,2.33-4.67,3-4.91,5.35s3.47,6.35,3.47,6.35L835,486.1s5.32,2.84,5.41,1.2Z"/><path id="path977" class="cls-1" d="M838.91,369.66c.11-2.26.39-4.82.7-7.15.25-1.8,0-3.75,1.06-5.22,1.29-1.76,4.94-1.11,6.26-2.85,1-1.36,1-3.35.61-5.06-.1-.49-.79-.86-.78-1.35,0-1.68,3.16-2.43,2.83-4.1s-2.46-2.63-4.11-3.3c-1.21-.49-2.9.48-3.86-.38-3.44-3.08-1.68-8.43-1.76-12.63-.1-4.74-1.58-10.38,1.41-14,1.42-1.72,5.19-.67,6.7-2.31a3.54,3.54,0,0,0,.75-3.35c-.38-1.18-2.57-1.6-2.78-2.8-.17-1,1.37-1.53,1.41-2.5a4.17,4.17,0,0,0-1-2.37,5.6,5.6,0,0,0-2.22-2.07c-1-.41-2.25.39-3.19-.13a4.56,4.56,0,0,1-1.9-2.84c-1.37-4.75-1.41-10.13.75-14.35.71-1.39,2.92-1.69,3.72-3,.59-1,0-2.42.63-3.36.79-1.12,3-1,3.62-2.24a4.16,4.16,0,0,0-.26-4.42c-1.21-1.42-4.17-.39-5.53-1.7-4-3.87-3.29-11.21-4.43-15-.54-1.81-6.16-2.68-6.07-.84.27,5.29,4.56,17,4.56,17l-.4,3.67s-5.16.47-6.15,2.26c-.79,1.41.3,3.37,1.14,4.88a18.24,18.24,0,0,0,3.34,3.45l-.43,14.27,1.93,6.54s-4.28,2.95-4.25,5.2c0,1.07,2.12,2.75,2.12,2.75l2.77,1.8-1.63,15,.66,12s1.44,2.76,1.14,4.08c-.54,2.33-4.67,2.95-4.91,5.35s3.47,6.35,3.47,6.35l-1.31,13.61s5.32,2.84,5.41,1.19Z"/></g><g id="g983"><path id="path1039" class="cls-1" d="M103.49,461.47c-.16-2.19-.47-4.68-.83-6.93-.28-1.76,0-3.64-1.15-5.08-1.31-1.72-5-1.14-6.3-2.85a6.07,6.07,0,0,1-.7-4.91c.1-.47.78-.82.76-1.3-.06-1.62-3.2-2.39-2.9-4s2.42-2.51,4-3.14c1.2-.46,2.91.51,3.85-.31,3.39-2.94.3-7.74.31-11.81,0-4.58,2.63-10.43-.42-14-1.45-1.68-5.19-.72-6.74-2.34a3.41,3.41,0,0,1-.8-3.25c.36-1.14,2.54-1.51,2.73-2.68.15-.93-1.39-1.5-1.45-2.44a3.85,3.85,0,0,1,1-2.28,5.29,5.29,0,0,1,2.19-2c1-.39,2.25.41,3.19-.08a4.3,4.3,0,0,0,1.85-2.73c1.28-4.59,1.23-9.79-1-13.91-.73-1.35-2.94-1.68-3.76-3-.61-1,0-2.35-.69-3.26-.81-1.1-3-1-3.66-2.22a3.91,3.91,0,0,1,.19-4.28c1.18-1.36,4.15-.32,5.49-1.57,3.92-3.69,3.09-10.81,4.17-14.5.51-1.75,6.1-2.51,6-.73-.17,5.12-4.26,16.45-4.26,16.45l.47,3.56s5.17.52,6.19,2.27c.81,1.38-.24,3.26-1.06,4.72a17.1,17.1,0,0,1-3.27,3.29l.67,13.83-1.82,6.31s4.33,2.91,4.34,5.09c0,1-2.07,2.64-2.07,2.64l-2.74,1.71,1.89,14.54-.45,11.57s-1.4,2.66-1.07,3.94c.58,2.27,4.72,2.93,5,5.25s-3.36,6.11-3.36,6.11l1.54,13.2s-5.26,2.68-5.38,1.08Z"/><path id="path975" class="cls-1" d="M104.17,346.89c-.16-2.2-.47-4.68-.83-6.94-.28-1.75,0-3.63-1.15-5.07-1.31-1.72-5-1.14-6.3-2.85a6.07,6.07,0,0,1-.7-4.91c.1-.47.78-.82.76-1.3-.06-1.62-3.2-2.39-2.9-4s2.41-2.51,4-3.14c1.2-.46,2.91.5,3.85-.31,3.39-2.94.3-7.74.31-11.81,0-4.58,2.63-10.43-.42-14-1.45-1.69-5.19-.73-6.74-2.34a3.41,3.41,0,0,1-.8-3.25c.36-1.14,2.54-1.51,2.73-2.68.15-.93-1.4-1.5-1.45-2.44a3.79,3.79,0,0,1,1-2.28,5.25,5.25,0,0,1,2.18-2c1-.39,2.26.41,3.2-.09a4.21,4.21,0,0,0,1.84-2.72c1.29-4.59,1.23-9.8-1-13.91-.73-1.36-2.94-1.68-3.77-3-.6-.95,0-2.35-.69-3.26-.8-1.1-3-1-3.65-2.22a3.93,3.93,0,0,1,.18-4.28c1.19-1.36,4.16-.32,5.5-1.57,3.92-3.69,3.09-10.81,4.16-14.5.51-1.75,6.11-2.51,6-.73-.17,5.12-4.26,16.45-4.26,16.45l.47,3.56s5.16.52,6.19,2.27c.81,1.37-.25,3.26-1.06,4.71a17.07,17.07,0,0,1-3.28,3.29l.67,13.84-1.81,6.31s4.33,2.91,4.33,5.09c0,1-2.06,2.64-2.06,2.64L106,291.2l1.89,14.54-.46,11.57s-1.39,2.66-1.06,3.94c.58,2.26,4.71,2.93,5,5.25s-3.36,6.11-3.36,6.11l1.54,13.2s-5.27,2.68-5.38,1.08Z"/></g><g id="g1173"><path id="path1139" class="cls-2" d="M940.23,447.34c-91.92-13.08-195,1.23-292.49,1.69-57.59.28-115.26-.56-172.78.65-7.9.17-15.72.76-23.62.91-55,1-110.22-.22-165.34-.13-54.46.09-108.92.68-163.39.65-35.27,0-71.09-3-105.8-.52-3.53.26-7.65.49-10,1.56-4,1.81-3.77,4.63-4.53,7-.83,2.63-.09,5.29,0,7.94.16,5.12-.62,10.27,1,15.35.84,2.7,3.86,5.24,4.53,7.94.78,3.15-.1,6.34-.65,9.5A34.93,34.93,0,0,1,4.84,508c-.48,1.09-1.67,2.14-1.94,3.25C-.87,526.78-2.49,543,7.75,558.07a9.12,9.12,0,0,0,4.85,3.64c2.87,1,7,1.3,10.68,1.56,43.25,3,87.79-.28,131.69-.26,72.15,0,144.3.44,216.45.66q149.32.45,298.64.91c90.7.24,183.33,8.11,272.11.65,4.16-.35,9-.74,11.65-2.08,3.78-1.95,2.81-4.83,3.23-7.29,2.15-12.43,3.4-25.21-3.55-37.35-1.33-2.3-6-4.18-7.12-6.5A11.33,11.33,0,0,1,947,501c.76-1.3,3.43-2.34,4.21-3.64,4.42-7.35,4.65-15.15,2.26-22.64-.8-2.52-4.88-4.77-5.5-7.29-.75-3.08,1.53-6.16,2.27-9.24.55-2.3,3.8-4.76,1.62-6.9-1.93-1.87-6.89-3.22-11.65-3.9Z"/><g id="text1143" class="cls-3"><g class="cls-3"><path d="M340.13,498.19a31.18,31.18,0,0,1-8,4.83q-1.86.84-3.78,1.56t-2.52.9q.3,7.32.3,12.48a8,8,0,0,0,.39,2.73,5.44,5.44,0,0,1,.39,1.35,1.32,1.32,0,0,1-.66,1.11,2.41,2.41,0,0,1-1.38.45q-.9,0-1.14-1.26,0-.12-.15-1.08a18.58,18.58,0,0,1-.15-2.7q0-4.68-.36-15.36-.18-5.4-.18-7.68,0-1.92.06-3.57t.06-2.25a63.68,63.68,0,0,0-6.54,2.1q-.9.42-2.52,1.38-.72.42-1.41.78a2.57,2.57,0,0,1-1.05.36,1.08,1.08,0,0,1-.84-.42,1.51,1.51,0,0,1-.36-1q0-.78,2.28-1.95a39.22,39.22,0,0,1,5.55-2.25,50,50,0,0,1,6-1.62,39.68,39.68,0,0,1,7.2-.6,21.27,21.27,0,0,1,8.58,1.41q3.12,1.41,3.12,4.23A7.87,7.87,0,0,1,340.13,498.19Zm-2.46-8.49a20.77,20.77,0,0,0-6.36-.84,45.45,45.45,0,0,0-5.64.36q-.06.48-.15,2.22t-.09,3.3l.06,4.38q.06,1.44.06,3.66a25.4,25.4,0,0,0,5.34-1.8,30.6,30.6,0,0,0,6.66-3.87q2.7-2.13,2.7-4.53Q340.25,490.54,337.67,489.7Z"/><path d="M367.7,497.11a2.1,2.1,0,0,1-1.29.69,1.19,1.19,0,0,1-.81-.36,7.06,7.06,0,0,1-.87-1,3.64,3.64,0,0,0-1.11-1,2.68,2.68,0,0,0-1.41-.42q-1.74,0-4.68,4.59a71.18,71.18,0,0,0-5.76,11.55q.06,1.38.21,3.48t.21,3.12l.18,2.4a2.91,2.91,0,0,1-.36,1.47,1.39,1.39,0,0,1-1.32.63q-1,0-1.32-2.73t-.36-7.95q-.06-1.32-.09-3.78t-.15-5.88q-.18-5.16-.18-7.38,0-1.38,1.68-1.38a1.11,1.11,0,0,1,1.23.87,17,17,0,0,1,.21,3.33v9.54a47.89,47.89,0,0,1,3.9-8,23.27,23.27,0,0,1,4.11-5.13,5.78,5.78,0,0,1,3.57-1.77,5.56,5.56,0,0,1,2.52.6,5.47,5.47,0,0,1,1.92,1.53,2.94,2.94,0,0,1,.72,1.77A1.86,1.86,0,0,1,367.7,497.11Z"/><path d="M395.81,506.74a16.71,16.71,0,0,1-1.59,4.74,21.3,21.3,0,0,1-4.8,6.78,10.89,10.89,0,0,1-7.89,3.12,9.07,9.07,0,0,1-6.42-2.4q-2.58-2.4-2.58-7.38a22.89,22.89,0,0,1,7.8-16.77,11.13,11.13,0,0,1,7.2-2.91,6.76,6.76,0,0,1,3.75,1,3.19,3.19,0,0,1,1.53,2.85q0,2.1-2.37,4.08a22.48,22.48,0,0,1-6.15,3.48,37.6,37.6,0,0,1-7.8,2.16,21.34,21.34,0,0,0-.72,5.4,8,8,0,0,0,1.65,5.4,5.87,5.87,0,0,0,4.71,1.92,9.48,9.48,0,0,0,7.5-3.3,31.21,31.21,0,0,0,4.8-7.44q.12-.24.42-.93t.54-.69Q395.81,505.84,395.81,506.74Zm-6.69-11.82a4.75,4.75,0,0,0-2.31-.54,7.43,7.43,0,0,0-4.38,1.5,14,14,0,0,0-3.51,3.6,12.65,12.65,0,0,0-1.83,3.72,21.43,21.43,0,0,0,5.82-1.56,24.92,24.92,0,0,0,5.13-2.76q2.07-1.5,2.07-2.46A1.66,1.66,0,0,0,389.12,494.92Z"/><path d="M414.47,507a11.45,11.45,0,0,1-3.18.63l-4,.48q-1.44.18-2.7.27t-3.06.09a3,3,0,0,1-1.38-.3,1,1,0,0,1-.6-1,1,1,0,0,1,.54-1,4.82,4.82,0,0,1,1.8-.24q2.28,0,3.21,0a7.89,7.89,0,0,0,1.65-.21l1.38-.27q1.14-.21,3.66-.57.48-.06.81-.78t.69-.72a1.91,1.91,0,0,1,1.35.75,2.26,2.26,0,0,1,.69,1.53A1.42,1.42,0,0,1,414.47,507Z"/><path d="M455.33,518.44q-.6,1-1.26,1a3.12,3.12,0,0,1-1.14-.21,14.79,14.79,0,0,1-1.62-.81,55.39,55.39,0,0,0-9.9-4.32q-2.7-.9-6.39-1.89t-5.79-1.47l.42,7.74a10.18,10.18,0,0,0,.42,2.73,6.51,6.51,0,0,1,.36,1.41,1.32,1.32,0,0,1-.66,1.11,2.41,2.41,0,0,1-1.38.45q-.9,0-1.14-1.26,0-.12-.15-1.08a18.58,18.58,0,0,1-.15-2.7q0-1.14-.24-4.86-.06-1.26-.12-2.43t-.06-2.07l-.45-.42a1.83,1.83,0,0,1-.45-.66,9.49,9.49,0,0,1-.3-1.14,5.05,5.05,0,0,1-.12-.9.89.89,0,0,1,.24-.66,4.16,4.16,0,0,1,.72-.54q-.36-15-.36-17.16,0-1.92.06-3.54t.06-2.16l-2.16.3q-1.8.24-2.88.48a42.62,42.62,0,0,0-5.85,1.71,36.11,36.11,0,0,0-3.87,1.83,6.08,6.08,0,0,1-1.05.57,2.59,2.59,0,0,1-1,.21,1.06,1.06,0,0,1-.84-.45,1.72,1.72,0,0,1-.36-1.11q0-1.14,3.84-2.64a53.7,53.7,0,0,1,8.34-2.46,60.15,60.15,0,0,1,6.42-.93q3.9-.39,7.26-.39A33.31,33.31,0,0,1,443.6,481a13.48,13.48,0,0,1,6.12,3.54,7.54,7.54,0,0,1,2.07,5.22,10.05,10.05,0,0,1-2.16,6.48,19,19,0,0,1-5.73,4.68,96.38,96.38,0,0,1-9.69,4.5q-1.56.72-3.09,1.32t-2.07.84a1.82,1.82,0,0,0,.06.54q6.48,1.44,12.78,3.3l1.26.36q6.54,2,9.66,3.09t3.12,1.83A3.61,3.61,0,0,1,455.33,518.44Zm-8.28-32.34a12.75,12.75,0,0,0-5.25-2.73,29.91,29.91,0,0,0-8.49-1.05q-3.72,0-4.68.12-.06.42-.15,2t-.09,3.12l.24,9.6.24,7.44A13.93,13.93,0,0,0,431,504a27,27,0,0,0,2.67-1q7.62-3.06,11.37-6.15t3.75-7.11A5,5,0,0,0,447.05,486.1Z"/><path d="M481.55,506.74a16.71,16.71,0,0,1-1.59,4.74,21.3,21.3,0,0,1-4.8,6.78,10.89,10.89,0,0,1-7.89,3.12,9.07,9.07,0,0,1-6.42-2.4q-2.58-2.4-2.58-7.38a22.89,22.89,0,0,1,7.8-16.77,11.13,11.13,0,0,1,7.2-2.91,6.76,6.76,0,0,1,3.75,1,3.19,3.19,0,0,1,1.53,2.85q0,2.1-2.37,4.08a22.48,22.48,0,0,1-6.15,3.48,37.6,37.6,0,0,1-7.8,2.16,21.34,21.34,0,0,0-.72,5.4,8,8,0,0,0,1.65,5.4,5.87,5.87,0,0,0,4.71,1.92,9.48,9.48,0,0,0,7.5-3.3,31.21,31.21,0,0,0,4.8-7.44q.12-.24.42-.93t.54-.69Q481.55,505.84,481.55,506.74Zm-6.69-11.82a4.75,4.75,0,0,0-2.31-.54,7.43,7.43,0,0,0-4.38,1.5,14,14,0,0,0-3.51,3.6,12.65,12.65,0,0,0-1.83,3.72,21.43,21.43,0,0,0,5.82-1.56,24.92,24.92,0,0,0,5.13-2.76q2.07-1.5,2.07-2.46A1.66,1.66,0,0,0,474.86,494.92Z"/><path d="M511.13,529.06a21.36,21.36,0,0,1-4.38,6.24,25.76,25.76,0,0,1-5.37,4,10.43,10.43,0,0,1-4.83,1.53,1.83,1.83,0,0,1-2.1-1.92q0-.72,2.7-1.68a20.93,20.93,0,0,0,7.56-4.44,14.83,14.83,0,0,0,4-5.46,16.25,16.25,0,0,0,1.26-6.24,44.66,44.66,0,0,0-.45-6.6q-.45-3-1.41-7.38-1.08-4.62-1.5-7.86a52.11,52.11,0,0,1-3.15,6.66,48.94,48.94,0,0,1-5.07,7.5,29.61,29.61,0,0,1-5,5.1,7.33,7.33,0,0,1-4.35,1.68,2.92,2.92,0,0,1-2.67-1.41,7.35,7.35,0,0,1-.87-3.87,23.79,23.79,0,0,1,2.52-9.6,34.08,34.08,0,0,1,6.3-9.48q3.78-4,7.44-4a2.31,2.31,0,0,1,2,.9,3.45,3.45,0,0,1,.69,2.16q0,1.62-.66,1.62-.18,0-.45-.45a4.18,4.18,0,0,0-.63-.81,1.09,1.09,0,0,0-.78-.36q-3.06,0-6.21,3.42a29.79,29.79,0,0,0-5.22,8,19.4,19.4,0,0,0-2.07,7.53,4.59,4.59,0,0,0,.45,2.34,1.54,1.54,0,0,0,1.41.72,6,6,0,0,0,3.48-1.68,34.89,34.89,0,0,0,4.86-5.28,40.67,40.67,0,0,0,4.59-7.41,48.1,48.1,0,0,0,3.15-8.07,1.36,1.36,0,0,1,.39-.6.92.92,0,0,1,.63-.24,2.21,2.21,0,0,1,1.11.33q.57.33.57.69a1.61,1.61,0,0,1-.09.51,1,1,0,0,1-.15.33q.42,3.3,2,10.26,1.14,4.92,1.71,8.25a38.55,38.55,0,0,1,.57,6.51A19.29,19.29,0,0,1,511.13,529.06Z"/><path d="M522.77,484.48h-2a3.33,3.33,0,0,1-2.07-.84q-1.05-.84-1.05-1.38a1.74,1.74,0,0,1,.63-1.26,1.88,1.88,0,0,1,1.29-.6,3.47,3.47,0,0,1,1.5,1,13.13,13.13,0,0,1,1.08,1.26,2.94,2.94,0,0,1,.6,1Zm1,37.77a1.79,1.79,0,0,1-1.17.27q-.84-.06-1.23-2.7t-.81-10q-.24-4.86-.42-9.51t-.24-7.17a1.87,1.87,0,0,1,.21-1,.89.89,0,0,1,.81-.33,1.62,1.62,0,0,1,1.74,1.14,17.26,17.26,0,0,1,.36,4.38L523,504.4q0,6.06.36,9.72,0,.18.54,3.84a25.77,25.77,0,0,1,.42,3.36A1,1,0,0,1,523.76,522.25Z"/><path d="M551.36,517.81a15.14,15.14,0,0,1-5.61,3.9,18.47,18.47,0,0,1-7.26,1.47,8.4,8.4,0,0,1-3.48-.48,1.46,1.46,0,0,1-.9-1.32q0-.54,1.38-1.89t1.86-1.35q.72,0,.72.3a.65.65,0,0,1-.3.48q-.3.24-.3.42t.75.48a6.06,6.06,0,0,0,1.83.24,14.72,14.72,0,0,0,5.07-.93,12.21,12.21,0,0,0,4.17-2.43,4.34,4.34,0,0,0,1.62-3.18,3.37,3.37,0,0,0-1-2.58,6.2,6.2,0,0,0-2.55-1.41q-1.53-.45-5.13-1.29-4-.9-6.15-1.59a10.85,10.85,0,0,1-3.51-1.74,3.27,3.27,0,0,1-1.32-2.67,6.91,6.91,0,0,1,2.82-5.28,21.73,21.73,0,0,1,6.48-3.78,17.53,17.53,0,0,1,5.64-1.38q2,0,2,1.2a3.34,3.34,0,0,1-.48,1.59,1.55,1.55,0,0,1-1.44.87,1.47,1.47,0,0,1-.78-.27,1.54,1.54,0,0,0-.84-.27,14.84,14.84,0,0,0-3.78.78,15.12,15.12,0,0,0-4.68,2.34,4.6,4.6,0,0,0-2.1,3.78,2.27,2.27,0,0,0,1.65,2.13,43.54,43.54,0,0,0,6.15,1.71,7.11,7.11,0,0,0,1.08.27,8.77,8.77,0,0,1,1,.21A28,28,0,0,1,551,508.6a4.46,4.46,0,0,1,2.46,4.14A7.63,7.63,0,0,1,551.36,517.81Z"/><path d="M584.3,497.86a8.65,8.65,0,0,1-3.15.84L575,499.78l-3.9.66q0,3.12.09,6.54t.27,6a23.64,23.64,0,0,0,.84,5.34q.6,1.86.66,2.1a1.4,1.4,0,0,1-.75,1.11,2.54,2.54,0,0,1-1.41.51.88.88,0,0,1-.6-.21,1.7,1.7,0,0,1-.42-.69,14.33,14.33,0,0,1-.69-3.12q-.33-2.28-.51-5-.18-2.46-.27-5.73t-.09-6.33q-3.36.54-6.9,1.32a31.43,31.43,0,0,1-3.78.66,2.39,2.39,0,0,1-1.35-.42,1.3,1.3,0,0,1-.63-1.14,1,1,0,0,1,.54-1,4.82,4.82,0,0,1,1.8-.24,15.45,15.45,0,0,0,2.64-.33q1.74-.33,2.22-.45,4-.78,5.46-1,0-1.26-.12-3.3-.12-2.76-.12-4.2a33.48,33.48,0,0,1,.15-3.63,8.69,8.69,0,0,1,.57-2.31,1.78,1.78,0,0,1,1.8-1.2,1,1,0,0,1,.72.18.93.93,0,0,1,.18.66,19.68,19.68,0,0,1-.3,2.1,28.34,28.34,0,0,0-.3,4.62q0,2.22.12,5l.06,1.62q2.7-.42,10.68-2.22a1.34,1.34,0,0,0,.81-.84q.33-.72.69-.72a1.91,1.91,0,0,1,1.35.75,2.26,2.26,0,0,1,.69,1.53A1.73,1.73,0,0,1,584.3,497.86Z"/><path d="M611.33,506.74a16.71,16.71,0,0,1-1.59,4.74,21.3,21.3,0,0,1-4.8,6.78,10.89,10.89,0,0,1-7.89,3.12,9.07,9.07,0,0,1-6.42-2.4q-2.58-2.4-2.58-7.38a22.89,22.89,0,0,1,7.8-16.77,11.13,11.13,0,0,1,7.2-2.91,6.76,6.76,0,0,1,3.75,1,3.19,3.19,0,0,1,1.53,2.85q0,2.1-2.37,4.08a22.48,22.48,0,0,1-6.15,3.48,37.6,37.6,0,0,1-7.8,2.16,21.34,21.34,0,0,0-.72,5.4,8,8,0,0,0,1.65,5.4,5.87,5.87,0,0,0,4.71,1.92,9.48,9.48,0,0,0,7.5-3.3,31.21,31.21,0,0,0,4.8-7.44q.12-.24.42-.93t.54-.69Q611.33,505.84,611.33,506.74Zm-6.69-11.82a4.75,4.75,0,0,0-2.31-.54,7.43,7.43,0,0,0-4.38,1.5,14,14,0,0,0-3.51,3.6,12.65,12.65,0,0,0-1.83,3.72,21.43,21.43,0,0,0,5.82-1.56,24.92,24.92,0,0,0,5.13-2.76q2.07-1.5,2.07-2.46A1.66,1.66,0,0,0,604.64,494.92Z"/><path d="M635.9,497.11a2.13,2.13,0,0,1-1.29.69,1.19,1.19,0,0,1-.81-.36,7.06,7.06,0,0,1-.87-1,3.64,3.64,0,0,0-1.11-1,2.68,2.68,0,0,0-1.41-.42q-1.74,0-4.68,4.59A71.18,71.18,0,0,0,620,511.12q.06,1.38.21,3.48t.21,3.12l.18,2.4a2.91,2.91,0,0,1-.36,1.47,1.39,1.39,0,0,1-1.32.63q-1,0-1.32-2.73t-.36-7.95q-.06-1.32-.09-3.78t-.15-5.88q-.18-5.16-.18-7.38,0-1.38,1.68-1.38a1.11,1.11,0,0,1,1.23.87,17,17,0,0,1,.21,3.33v9.54a47.89,47.89,0,0,1,3.9-8,23.27,23.27,0,0,1,4.11-5.13,5.78,5.78,0,0,1,3.57-1.77,5.56,5.56,0,0,1,2.52.6,5.47,5.47,0,0,1,1.92,1.53,2.94,2.94,0,0,1,.72,1.77A1.86,1.86,0,0,1,635.9,497.11Z"/><path d="M645.89,486.88a173.67,173.67,0,0,0-.91,17.64,30.5,30.5,0,0,0,.25,3.9q.24,2,.24,2.34c0,1-.41,1.44-1.2,1.44q-.43,0-.9-1a10.35,10.35,0,0,1-.81-2.58,15.67,15.67,0,0,1-.33-3.33q0-4.8.48-19.2a9.53,9.53,0,0,1,.63-3.24,2,2,0,0,1,2-1.5.63.63,0,0,1,.63.51,8.81,8.81,0,0,1,.15,1.95C646.13,483.94,646,485,645.89,486.88Zm.29,35.76a2.59,2.59,0,0,1-1.86-.69,3.89,3.89,0,0,1-1-1.56A4.21,4.21,0,0,1,643,519a1.74,1.74,0,0,1,.63-1.26,1.86,1.86,0,0,1,1.29-.6.78.78,0,0,1,.66.36,10.76,10.76,0,0,1,.54,1,3.49,3.49,0,0,0,1,1.44,3,3,0,0,1,.78.93,2.25,2.25,0,0,1,.29.81C648.16,522.34,647.51,522.64,646.18,522.64Z"/></g></g><path id="path1145" class="cls-4" d="M15.22,553.25l364.84-6.16"/><path id="path1147" class="cls-4" d="M681.58,535.94l-495.19,7.18"/><path id="path1149" class="cls-4" d="M473.34,544.18l309.32.9"/><path id="path1151" class="cls-4" d="M121.38,490.69,14.49,487.9"/><path id="path1153" class="cls-4" d="M112.81,508.44,35,507"/><path id="path1155" class="cls-4" d="M796,459.92l-566.41-1"/><path id="path1157" class="cls-5" d="M208.3,525.78,14.17,532.41"/><path id="path1159" class="cls-4" d="M18.31,461.33l166.91,3.84"/><path id="path1161" class="cls-6" d="M802.83,516.76l134.7,2.68"/><path id="path1163" class="cls-4" d="M856.45,503.64l90.53-.26"/><path id="path1165" class="cls-4" d="M763.63,471.58l178.6-4.24"/><path id="path1167" class="cls-4" d="M597.9,466.37l-259.39.73"/><path id="path1169" class="cls-4" d="M813.49,538.67l129.57.9"/><path id="path1171" class="cls-4" d="M817.08,530l129.57.9"/></g><g id="g999"><path id="path995" class="cls-1" d="M837.34,250.92c.12-2.26.39-4.82.71-7.15.25-1.81,0-3.75,1.05-5.22,1.29-1.76,4.95-1.11,6.26-2.85,1-1.36,1-3.35.62-5.06-.11-.49-.8-.87-.79-1.36,0-1.67,3.16-2.42,2.83-4.09s-2.46-2.63-4.11-3.3c-1.21-.5-2.9.47-3.86-.38-3.44-3.08-1.68-8.43-1.76-12.64-.1-4.73-1.57-10.37,1.42-14,1.41-1.72,5.18-.67,6.7-2.31a3.56,3.56,0,0,0,.74-3.35c-.38-1.18-2.57-1.6-2.78-2.8-.17-1,1.37-1.54,1.41-2.5a4.25,4.25,0,0,0-1-2.38,5.65,5.65,0,0,0-2.22-2.06c-1-.42-2.25.39-3.2-.13a4.61,4.61,0,0,1-1.9-2.84c-1.37-4.76-1.41-10.13.76-14.35.71-1.39,2.91-1.7,3.71-3,.59-1,0-2.42.64-3.36.78-1.12,3-1,3.61-2.24a4.14,4.14,0,0,0-.26-4.42c-1.2-1.43-4.17-.39-5.52-1.7-4-3.87-3.29-11.21-4.43-15-.55-1.81-6.16-2.68-6.07-.84.26,5.28,4.56,17,4.56,17l-.41,3.67s-5.16.47-6.15,2.26c-.78,1.4.3,3.37,1.14,4.88a18.41,18.41,0,0,0,3.34,3.44L832,177.1l1.93,6.54s-4.29,2.94-4.25,5.2c0,1.07,2.11,2.75,2.11,2.75l2.78,1.8-1.63,15,.65,12s1.45,2.77,1.14,4.09c-.54,2.33-4.67,3-4.91,5.34s3.47,6.36,3.47,6.36l-1.31,13.61s5.32,2.84,5.41,1.19Z"/><path id="path997" class="cls-1" d="M835.88,133.29c.11-2.27.38-4.83.7-7.15.25-1.81,0-3.75,1.06-5.23,1.29-1.76,4.94-1.11,6.26-2.85,1-1.35,1-3.34.61-5-.1-.5-.79-.87-.78-1.36,0-1.67,3.16-2.42,2.83-4.1s-2.46-2.62-4.11-3.3c-1.21-.49-2.9.48-3.86-.38-3.44-3.08-1.68-8.43-1.77-12.63-.09-4.73-1.57-10.37,1.42-14,1.42-1.72,5.18-.68,6.7-2.32a3.52,3.52,0,0,0,.75-3.34c-.38-1.19-2.57-1.6-2.78-2.81-.17-1,1.37-1.53,1.41-2.5a4.17,4.17,0,0,0-1-2.37,5.5,5.5,0,0,0-2.22-2.06c-1-.42-2.25.39-3.2-.14A4.54,4.54,0,0,1,836,58.87c-1.37-4.76-1.41-10.14.75-14.36.71-1.38,2.92-1.69,3.72-3,.59-1,0-2.42.63-3.35.78-1.12,3-1,3.62-2.24a4.16,4.16,0,0,0-.26-4.42c-1.21-1.43-4.17-.39-5.53-1.7-4-3.87-3.29-11.21-4.43-15-.54-1.82-6.16-2.69-6.07-.84.27,5.28,4.56,17,4.56,17l-.4,3.67s-5.16.46-6.16,2.25c-.78,1.41.31,3.37,1.15,4.89a18.1,18.1,0,0,0,3.34,3.44l-.43,14.28L832.41,66s-4.29,2.94-4.25,5.19c0,1.08,2.12,2.76,2.12,2.76l2.77,1.8-1.63,15,.66,12s1.44,2.76,1.14,4.08c-.54,2.33-4.67,3-4.91,5.35s3.47,6.35,3.47,6.35l-1.31,13.61s5.32,2.84,5.41,1.2Z"/></g><g id="g1005"><path id="path1001" class="cls-1" d="M104.5,231.16c-.16-2.2-.47-4.68-.83-6.94-.28-1.75,0-3.63-1.15-5.08-1.31-1.72-5-1.14-6.3-2.84a6.07,6.07,0,0,1-.7-4.91c.1-.48.78-.83.76-1.3-.06-1.63-3.2-2.39-2.9-4s2.42-2.51,4.05-3.14c1.2-.46,2.91.5,3.85-.31,3.39-2.94.3-7.74.31-11.81,0-4.58,2.63-10.44-.42-14-1.45-1.69-5.19-.73-6.74-2.34a3.41,3.41,0,0,1-.8-3.25c.36-1.14,2.54-1.52,2.73-2.68.15-.94-1.39-1.5-1.45-2.44a3.85,3.85,0,0,1,1-2.29,5.26,5.26,0,0,1,2.19-2c1-.39,2.25.41,3.19-.09a4.28,4.28,0,0,0,1.85-2.72c1.28-4.59,1.23-9.8-1-13.92-.73-1.35-2.94-1.68-3.76-3-.61-1,0-2.34-.69-3.26-.81-1.09-3-1-3.66-2.21a3.91,3.91,0,0,1,.19-4.28c1.18-1.37,4.15-.32,5.49-1.57,3.92-3.69,3.09-10.82,4.17-14.5.51-1.75,6.1-2.52,6-.73-.17,5.12-4.26,16.44-4.26,16.44l.47,3.56s5.17.52,6.19,2.27c.81,1.38-.24,3.27-1.06,4.72a17.1,17.1,0,0,1-3.27,3.29l.67,13.84L106.8,166s4.34,2.91,4.34,5.09c0,1-2.07,2.64-2.07,2.64l-2.74,1.7L108.22,190l-.45,11.57s-1.4,2.65-1.07,3.94c.58,2.26,4.72,2.92,5,5.25.27,2.18-3.36,6.1-3.36,6.1l1.54,13.21s-5.26,2.67-5.38,1.08Z"/><path id="path1003" class="cls-1" d="M105.18,116.58c-.16-2.2-.47-4.68-.83-6.94-.28-1.76,0-3.63-1.15-5.08-1.31-1.72-5-1.14-6.3-2.84a6.07,6.07,0,0,1-.7-4.91c.1-.48.78-.83.76-1.31-.06-1.62-3.2-2.39-2.9-4s2.41-2.51,4-3.14c1.2-.46,2.91.5,3.85-.32,3.39-2.93.3-7.73.31-11.8,0-4.59,2.63-10.44-.42-14-1.45-1.68-5.19-.72-6.74-2.33a3.43,3.43,0,0,1-.8-3.26c.36-1.14,2.54-1.51,2.73-2.67.15-.94-1.4-1.51-1.45-2.44a3.79,3.79,0,0,1,1-2.29,5.3,5.3,0,0,1,2.18-2c1-.39,2.26.4,3.2-.09a4.23,4.23,0,0,0,1.84-2.72c1.29-4.59,1.23-9.8-1-13.92-.73-1.35-2.94-1.68-3.77-3-.6-.95,0-2.34-.69-3.26-.8-1.09-3-1-3.65-2.22a3.9,3.9,0,0,1,.19-4.27c1.18-1.37,4.15-.32,5.49-1.58,3.92-3.69,3.09-10.81,4.16-14.49.52-1.75,6.11-2.52,6-.73-.17,5.11-4.26,16.44-4.26,16.44l.47,3.56s5.16.52,6.19,2.27c.81,1.38-.24,3.27-1.06,4.72a17.07,17.07,0,0,1-3.28,3.29l.67,13.83-1.81,6.32s4.33,2.91,4.33,5.09c0,1-2.06,2.64-2.06,2.64L107,60.88l1.89,14.55L108.45,87s-1.4,2.65-1.07,3.94c.58,2.26,4.71,2.92,5,5.24s-3.36,6.11-3.36,6.11l1.54,13.2s-5.27,2.68-5.38,1.08Z"/></g></g></g></g></svg>