<svg xmlns="http://www.w3.org/2000/svg" viewBox="0 0 958.74 126.59"><defs><style>.cls-1{fill:#d38d5f;}.cls-2{isolation:isolate;}.cls-3,.cls-4,.cls-5{fill:none;stroke:#5f4512;}.cls-3{stroke-width:0.49px;}.cls-4{stroke-width:0.46px;}.cls-5{stroke-width:0.45px;}</style></defs><title>pre-register-sign</title><g id="Layer_2" data-name="Layer 2"><g id="svg1279"><g id="g1173"><path id="path1139" class="cls-1" d="M940.23,5.5c-91.92-13.08-195,1.23-292.49,1.69-57.59.28-115.26-.56-172.78.65-7.9.17-15.72.76-23.62.91-55,1-110.22-.22-165.34-.13-54.46.09-108.92.68-163.39.65-35.27,0-71.09-3-105.8-.52-3.53.26-7.65.49-10,1.56-4,1.81-3.77,4.63-4.53,7-.83,2.62-.09,5.29,0,7.94.16,5.12-.62,10.27,1,15.35.84,2.69,3.86,5.24,4.53,7.94.78,3.15-.1,6.34-.65,9.5a34.71,34.71,0,0,1-2.26,8.06c-.48,1.1-1.67,2.15-1.94,3.26-3.77,15.55-5.39,31.76,4.85,46.84a9.12,9.12,0,0,0,4.85,3.64c2.87,1,7,1.3,10.68,1.56,43.25,3,87.79-.28,131.69-.26,72.15,0,144.3.44,216.45.65q149.32.47,298.64.92c90.7.24,183.33,8.11,272.11.65,4.16-.35,9-.74,11.65-2.09,3.78-1.94,2.81-4.82,3.23-7.28,2.15-12.43,3.4-25.21-3.55-37.35-1.33-2.3-6-4.18-7.12-6.5A11.33,11.33,0,0,1,947,59.11c.76-1.31,3.43-2.34,4.21-3.65,4.42-7.34,4.65-15.14,2.26-22.64-.8-2.51-4.88-4.76-5.5-7.28-.75-3.08,1.53-6.16,2.27-9.24.55-2.3,3.8-4.76,1.62-6.9C950,7.52,945,6.18,940.23,5.5Z"/><g id="text1143" class="cls-2"><g class="cls-2"><path d="M340.13,56.35a31.18,31.18,0,0,1-8,4.83q-1.86.84-3.78,1.56t-2.52.9q.3,7.32.3,12.48a8,8,0,0,0,.39,2.73,5.44,5.44,0,0,1,.39,1.35,1.32,1.32,0,0,1-.66,1.11,2.41,2.41,0,0,1-1.38.45q-.9,0-1.14-1.26,0-.12-.15-1.08a18.58,18.58,0,0,1-.15-2.7q0-4.68-.36-15.36-.18-5.4-.18-7.68,0-1.92.06-3.57t.06-2.25a63.68,63.68,0,0,0-6.54,2.1q-.9.42-2.52,1.38-.72.42-1.41.78a2.57,2.57,0,0,1-1.05.36,1.08,1.08,0,0,1-.84-.42,1.51,1.51,0,0,1-.36-1q0-.78,2.28-1.95a39.22,39.22,0,0,1,5.55-2.25,50,50,0,0,1,6-1.62,39.68,39.68,0,0,1,7.2-.6A21.27,21.27,0,0,1,339.89,46Q343,47.44,343,50.26A7.87,7.87,0,0,1,340.13,56.35Zm-2.46-8.49a20.77,20.77,0,0,0-6.36-.84,45.45,45.45,0,0,0-5.64.36q-.06.48-.15,2.22t-.09,3.3l.06,4.38q.06,1.44.06,3.66a25.4,25.4,0,0,0,5.34-1.8,30.6,30.6,0,0,0,6.66-3.87q2.7-2.13,2.7-4.53Q340.25,48.7,337.67,47.86Z"/><path d="M367.7,55.27a2.1,2.1,0,0,1-1.29.69,1.19,1.19,0,0,1-.81-.36,7.06,7.06,0,0,1-.87-1,3.64,3.64,0,0,0-1.11-1,2.68,2.68,0,0,0-1.41-.42q-1.74,0-4.68,4.59a71.18,71.18,0,0,0-5.76,11.55q.06,1.38.21,3.48t.21,3.12l.18,2.4a2.91,2.91,0,0,1-.36,1.47,1.39,1.39,0,0,1-1.32.63q-1,0-1.32-2.73t-.36-8q-.06-1.32-.09-3.78T348.77,60q-.18-5.16-.18-7.38,0-1.38,1.68-1.38a1.11,1.11,0,0,1,1.23.87,17,17,0,0,1,.21,3.33V65a47.89,47.89,0,0,1,3.9-8,23.27,23.27,0,0,1,4.11-5.13,5.78,5.78,0,0,1,3.57-1.77,5.56,5.56,0,0,1,2.52.6,5.47,5.47,0,0,1,1.92,1.53,2.94,2.94,0,0,1,.72,1.77A1.86,1.86,0,0,1,367.7,55.27Z"/><path d="M395.81,64.9a16.71,16.71,0,0,1-1.59,4.74,21.3,21.3,0,0,1-4.8,6.78,10.89,10.89,0,0,1-7.89,3.12,9.07,9.07,0,0,1-6.42-2.4q-2.58-2.4-2.58-7.38A22.89,22.89,0,0,1,380.33,53a11.13,11.13,0,0,1,7.2-2.91,6.76,6.76,0,0,1,3.75,1,3.19,3.19,0,0,1,1.53,2.85q0,2.1-2.37,4.08a22.48,22.48,0,0,1-6.15,3.48,37.6,37.6,0,0,1-7.8,2.16,21.34,21.34,0,0,0-.72,5.4,8,8,0,0,0,1.65,5.4,5.87,5.87,0,0,0,4.71,1.92,9.48,9.48,0,0,0,7.5-3.3,31.21,31.21,0,0,0,4.8-7.44q.12-.24.42-.93t.54-.69Q395.81,64,395.81,64.9Zm-6.69-11.82a4.75,4.75,0,0,0-2.31-.54,7.43,7.43,0,0,0-4.38,1.5,14,14,0,0,0-3.51,3.6,12.65,12.65,0,0,0-1.83,3.72,21.43,21.43,0,0,0,5.82-1.56A24.92,24.92,0,0,0,388,57q2.07-1.5,2.07-2.46A1.66,1.66,0,0,0,389.12,53.08Z"/><path d="M414.47,65.17a11.45,11.45,0,0,1-3.18.63l-4,.48q-1.44.18-2.7.27t-3.06.09a3,3,0,0,1-1.38-.3,1,1,0,0,1-.6-1,1,1,0,0,1,.54-1,4.82,4.82,0,0,1,1.8-.24q2.28,0,3.21,0a7.89,7.89,0,0,0,1.65-.21l1.38-.27q1.14-.21,3.66-.57.48-.06.81-.78t.69-.72a1.91,1.91,0,0,1,1.35.75,2.26,2.26,0,0,1,.69,1.53A1.42,1.42,0,0,1,414.47,65.17Z"/><path d="M455.33,76.6q-.6,1-1.26,1a3.12,3.12,0,0,1-1.14-.21,14.79,14.79,0,0,1-1.62-.81,55.39,55.39,0,0,0-9.9-4.32q-2.7-.9-6.39-1.89t-5.79-1.47l.42,7.74a10.18,10.18,0,0,0,.42,2.73,6.51,6.51,0,0,1,.36,1.41,1.32,1.32,0,0,1-.66,1.11,2.41,2.41,0,0,1-1.38.45q-.9,0-1.14-1.26,0-.12-.15-1.08a18.58,18.58,0,0,1-.15-2.7q0-1.14-.24-4.86-.06-1.26-.12-2.43T426.53,68l-.45-.42a1.83,1.83,0,0,1-.45-.66,9.49,9.49,0,0,1-.3-1.14,5.05,5.05,0,0,1-.12-.9.89.89,0,0,1,.24-.66,4.16,4.16,0,0,1,.72-.54q-.36-15-.36-17.16,0-1.92.06-3.54t.06-2.16l-2.16.3q-1.8.24-2.88.48A42.62,42.62,0,0,0,415,43.27a36.11,36.11,0,0,0-3.87,1.83,6.08,6.08,0,0,1-1.05.57,2.59,2.59,0,0,1-1,.21,1.06,1.06,0,0,1-.84-.45,1.72,1.72,0,0,1-.36-1.11q0-1.14,3.84-2.64a53.7,53.7,0,0,1,8.34-2.46,60.15,60.15,0,0,1,6.42-.93q3.9-.39,7.26-.39a33.31,33.31,0,0,1,9.81,1.26,13.48,13.48,0,0,1,6.12,3.54,7.54,7.54,0,0,1,2.07,5.22,10.05,10.05,0,0,1-2.16,6.48,19,19,0,0,1-5.73,4.68,96.38,96.38,0,0,1-9.69,4.5q-1.56.72-3.09,1.32t-2.07.84a1.82,1.82,0,0,0,.06.54q6.48,1.44,12.78,3.3l1.26.36q6.54,2,9.66,3.09t3.12,1.83A3.61,3.61,0,0,1,455.33,76.6Zm-8.28-32.34a12.75,12.75,0,0,0-5.25-2.73,29.91,29.91,0,0,0-8.49-1.05q-3.72,0-4.68.12-.06.42-.15,2t-.09,3.12l.24,9.6.24,7.44a13.93,13.93,0,0,0,2.13-.57,27,27,0,0,0,2.67-1Q441.29,58.12,445,55t3.75-7.11A5,5,0,0,0,447.05,44.26Z"/><path d="M481.55,64.9A16.71,16.71,0,0,1,480,69.64a21.3,21.3,0,0,1-4.8,6.78,10.89,10.89,0,0,1-7.89,3.12,9.07,9.07,0,0,1-6.42-2.4q-2.58-2.4-2.58-7.38A22.89,22.89,0,0,1,466.07,53a11.13,11.13,0,0,1,7.2-2.91,6.76,6.76,0,0,1,3.75,1,3.19,3.19,0,0,1,1.53,2.85q0,2.1-2.37,4.08A22.48,22.48,0,0,1,470,61.48a37.6,37.6,0,0,1-7.8,2.16,21.34,21.34,0,0,0-.72,5.4,8,8,0,0,0,1.65,5.4,5.87,5.87,0,0,0,4.71,1.92,9.48,9.48,0,0,0,7.5-3.3,31.21,31.21,0,0,0,4.8-7.44q.12-.24.42-.93t.54-.69Q481.55,64,481.55,64.9Zm-6.69-11.82a4.75,4.75,0,0,0-2.31-.54,7.43,7.43,0,0,0-4.38,1.5,14,14,0,0,0-3.51,3.6,12.65,12.65,0,0,0-1.83,3.72,21.43,21.43,0,0,0,5.82-1.56A24.92,24.92,0,0,0,473.78,57q2.07-1.5,2.07-2.46A1.66,1.66,0,0,0,474.86,53.08Z"/><path d="M511.13,87.22a21.36,21.36,0,0,1-4.38,6.24,25.76,25.76,0,0,1-5.37,4A10.43,10.43,0,0,1,496.55,99a1.83,1.83,0,0,1-2.1-1.92q0-.72,2.7-1.68a20.93,20.93,0,0,0,7.56-4.44,14.83,14.83,0,0,0,4-5.46,16.25,16.25,0,0,0,1.26-6.24,44.66,44.66,0,0,0-.45-6.6q-.45-3-1.41-7.38-1.08-4.62-1.5-7.86a52.11,52.11,0,0,1-3.15,6.66,48.94,48.94,0,0,1-5.07,7.5,29.61,29.61,0,0,1-5,5.1A7.33,7.33,0,0,1,489,78.34a2.92,2.92,0,0,1-2.67-1.41,7.35,7.35,0,0,1-.87-3.87,23.79,23.79,0,0,1,2.52-9.6,34.08,34.08,0,0,1,6.3-9.48q3.78-4,7.44-4a2.31,2.31,0,0,1,2,.9,3.45,3.45,0,0,1,.69,2.16q0,1.62-.66,1.62-.18,0-.45-.45a4.18,4.18,0,0,0-.63-.81,1.09,1.09,0,0,0-.78-.36q-3.06,0-6.21,3.42a29.79,29.79,0,0,0-5.22,8A19.4,19.4,0,0,0,488.33,72a4.59,4.59,0,0,0,.45,2.34,1.54,1.54,0,0,0,1.41.72,6,6,0,0,0,3.48-1.68,34.89,34.89,0,0,0,4.86-5.28,40.67,40.67,0,0,0,4.59-7.41,48.1,48.1,0,0,0,3.15-8.07,1.36,1.36,0,0,1,.39-.6.92.92,0,0,1,.63-.24,2.21,2.21,0,0,1,1.11.33q.57.33.57.69a1.61,1.61,0,0,1-.09.51,1,1,0,0,1-.15.33q.42,3.3,2,10.26,1.14,4.92,1.71,8.25A38.55,38.55,0,0,1,513,78.7,19.29,19.29,0,0,1,511.13,87.22Z"/><path d="M522.77,42.64h-2a3.33,3.33,0,0,1-2.07-.84q-1.05-.84-1.05-1.38a1.74,1.74,0,0,1,.63-1.26,1.88,1.88,0,0,1,1.29-.6,3.47,3.47,0,0,1,1.5,1,13.13,13.13,0,0,1,1.08,1.26,2.94,2.94,0,0,1,.6,1Zm1,37.77a1.79,1.79,0,0,1-1.17.27q-.84-.06-1.23-2.7t-.81-10q-.24-4.86-.42-9.51t-.24-7.17a1.87,1.87,0,0,1,.21-1,.89.89,0,0,1,.81-.33,1.62,1.62,0,0,1,1.74,1.14,17.26,17.26,0,0,1,.36,4.38L523,62.56q0,6.06.36,9.72,0,.18.54,3.84a25.77,25.77,0,0,1,.42,3.36A1,1,0,0,1,523.76,80.41Z"/><path d="M551.36,76a15.14,15.14,0,0,1-5.61,3.9,18.47,18.47,0,0,1-7.26,1.47,8.4,8.4,0,0,1-3.48-.48,1.46,1.46,0,0,1-.9-1.32q0-.54,1.38-1.89t1.86-1.35q.72,0,.72.3a.65.65,0,0,1-.3.48q-.3.24-.3.42t.75.48a6.06,6.06,0,0,0,1.83.24,14.72,14.72,0,0,0,5.07-.93,12.21,12.21,0,0,0,4.17-2.43,4.34,4.34,0,0,0,1.62-3.18,3.37,3.37,0,0,0-1-2.58,6.2,6.2,0,0,0-2.55-1.41q-1.53-.45-5.13-1.29-4-.9-6.15-1.59a10.85,10.85,0,0,1-3.51-1.74,3.27,3.27,0,0,1-1.32-2.67,6.91,6.91,0,0,1,2.82-5.28,21.73,21.73,0,0,1,6.48-3.78A17.53,17.53,0,0,1,546.17,50q2,0,2,1.2a3.34,3.34,0,0,1-.48,1.59,1.55,1.55,0,0,1-1.44.87,1.47,1.47,0,0,1-.78-.27,1.54,1.54,0,0,0-.84-.27,14.84,14.84,0,0,0-3.78.78,15.12,15.12,0,0,0-4.68,2.34,4.6,4.6,0,0,0-2.1,3.78,2.27,2.27,0,0,0,1.65,2.13,43.54,43.54,0,0,0,6.15,1.71,7.11,7.11,0,0,0,1.08.27,8.77,8.77,0,0,1,1,.21A28,28,0,0,1,551,66.76a4.46,4.46,0,0,1,2.46,4.14A7.63,7.63,0,0,1,551.36,76Z"/><path d="M584.3,56a8.65,8.65,0,0,1-3.15.84L575,57.94l-3.9.66q0,3.12.09,6.54t.27,6a23.64,23.64,0,0,0,.84,5.34q.6,1.86.66,2.1a1.4,1.4,0,0,1-.75,1.11,2.54,2.54,0,0,1-1.41.51.88.88,0,0,1-.6-.21,1.7,1.7,0,0,1-.42-.69,14.33,14.33,0,0,1-.69-3.12q-.33-2.28-.51-5-.18-2.46-.27-5.73t-.09-6.33q-3.36.54-6.9,1.32a31.43,31.43,0,0,1-3.78.66,2.39,2.39,0,0,1-1.35-.42,1.3,1.3,0,0,1-.63-1.14,1,1,0,0,1,.54-1,4.82,4.82,0,0,1,1.8-.24,15.45,15.45,0,0,0,2.64-.33q1.74-.33,2.22-.45,4-.78,5.46-1,0-1.26-.12-3.3-.12-2.76-.12-4.2a33.48,33.48,0,0,1,.15-3.63,8.69,8.69,0,0,1,.57-2.31,1.78,1.78,0,0,1,1.8-1.2,1,1,0,0,1,.72.18.93.93,0,0,1,.18.66,19.68,19.68,0,0,1-.3,2.1,28.34,28.34,0,0,0-.3,4.62q0,2.22.12,5L571,56q2.7-.42,10.68-2.22a1.34,1.34,0,0,0,.81-.84q.33-.72.69-.72a1.91,1.91,0,0,1,1.35.75,2.26,2.26,0,0,1,.69,1.53A1.73,1.73,0,0,1,584.3,56Z"/><path d="M611.33,64.9a16.71,16.71,0,0,1-1.59,4.74,21.3,21.3,0,0,1-4.8,6.78,10.89,10.89,0,0,1-7.89,3.12,9.07,9.07,0,0,1-6.42-2.4q-2.58-2.4-2.58-7.38A22.89,22.89,0,0,1,595.85,53a11.13,11.13,0,0,1,7.2-2.91,6.76,6.76,0,0,1,3.75,1,3.19,3.19,0,0,1,1.53,2.85q0,2.1-2.37,4.08a22.48,22.48,0,0,1-6.15,3.48,37.6,37.6,0,0,1-7.8,2.16,21.34,21.34,0,0,0-.72,5.4,8,8,0,0,0,1.65,5.4,5.87,5.87,0,0,0,4.71,1.92,9.48,9.48,0,0,0,7.5-3.3,31.21,31.21,0,0,0,4.8-7.44q.12-.24.42-.93t.54-.69Q611.33,64,611.33,64.9Zm-6.69-11.82a4.75,4.75,0,0,0-2.31-.54A7.43,7.43,0,0,0,598,54a14,14,0,0,0-3.51,3.6,12.65,12.65,0,0,0-1.83,3.72,21.43,21.43,0,0,0,5.82-1.56A24.92,24.92,0,0,0,603.56,57q2.07-1.5,2.07-2.46A1.66,1.66,0,0,0,604.64,53.08Z"/><path d="M635.9,55.27a2.1,2.1,0,0,1-1.29.69,1.19,1.19,0,0,1-.81-.36,7.06,7.06,0,0,1-.87-1,3.64,3.64,0,0,0-1.11-1,2.68,2.68,0,0,0-1.41-.42q-1.74,0-4.68,4.59A71.18,71.18,0,0,0,620,69.28q.06,1.38.21,3.48t.21,3.12l.18,2.4a2.91,2.91,0,0,1-.36,1.47,1.39,1.39,0,0,1-1.32.63q-1,0-1.32-2.73t-.36-8q-.06-1.32-.09-3.78T617,60q-.18-5.16-.18-7.38,0-1.38,1.68-1.38a1.11,1.11,0,0,1,1.23.87,17,17,0,0,1,.21,3.33V65a47.89,47.89,0,0,1,3.9-8,23.27,23.27,0,0,1,4.11-5.13,5.78,5.78,0,0,1,3.57-1.77,5.56,5.56,0,0,1,2.52.6,5.47,5.47,0,0,1,1.92,1.53,2.94,2.94,0,0,1,.72,1.77A1.86,1.86,0,0,1,635.9,55.27Z"/><path d="M645.89,45A173.67,173.67,0,0,0,645,62.68a30.5,30.5,0,0,0,.25,3.9c.15,1.32.24,2.1.24,2.34,0,1-.41,1.44-1.2,1.44-.29,0-.59-.33-.91-1a10.82,10.82,0,0,1-.8-2.58,15.67,15.67,0,0,1-.33-3.33q0-4.8.48-19.2a9.53,9.53,0,0,1,.63-3.24,2,2,0,0,1,2-1.5A.63.63,0,0,1,646,40a8.81,8.81,0,0,1,.15,1.95C646.13,42.1,646,43.12,645.89,45Zm.29,35.76a2.57,2.57,0,0,1-1.85-.69,3.91,3.91,0,0,1-1-1.56,4.21,4.21,0,0,1-.3-1.35,1.74,1.74,0,0,1,.63-1.26,1.86,1.86,0,0,1,1.29-.6.76.76,0,0,1,.66.36,10.76,10.76,0,0,1,.54,1,3.49,3.49,0,0,0,1,1.44,2.82,2.82,0,0,1,.77.93,2.21,2.21,0,0,1,.31.81C648.17,80.5,647.51,80.8,646.18,80.8Z"/></g></g><path id="path1145" class="cls-3" d="M15.22,111.41l364.84-6.16"/><path id="path1147" class="cls-3" d="M681.58,94.1l-495.19,7.18"/><path id="path1149" class="cls-3" d="M473.34,102.34l309.32.89"/><path id="path1151" class="cls-3" d="M121.38,48.85,14.49,46.06"/><path id="path1153" class="cls-3" d="M112.81,66.6,35,65.16"/><path id="path1155" class="cls-3" d="M796,18.08l-566.41-1"/><path id="path1157" class="cls-4" d="M208.3,83.94,14.17,90.56"/><path id="path1159" class="cls-3" d="M18.31,19.49l166.91,3.84"/><path id="path1161" class="cls-5" d="M802.83,74.92l134.7,2.68"/><path id="path1163" class="cls-3" d="M856.45,61.79,947,61.54"/><path id="path1165" class="cls-3" d="M763.63,29.74l178.6-4.24"/><path id="path1167" class="cls-3" d="M597.9,24.53l-259.39.73"/><path id="path1169" class="cls-3" d="M813.49,96.83l129.57.9"/><path id="path1171" class="cls-3" d="M817.08,88.17l129.57.9"/></g></g></g></svg>