<svg xmlns="http://www.w3.org/2000/svg" viewBox="0 0 24.92 474.94"><defs><style>.cls-1{fill:#784421;}</style></defs><title>rope</title><g id="Layer_2" data-name="Layer 2"><g id="svg1279"><g id="g987"><path id="path1041" class="cls-1" d="M14.22,474.42c.11-2.26.39-4.82.7-7.15.25-1.8,0-3.75,1.06-5.22,1.29-1.76,4.94-1.11,6.26-2.85,1-1.36,1-3.35.61-5.06-.1-.49-.79-.86-.78-1.35,0-1.68,3.16-2.43,2.83-4.1s-2.46-2.63-4.11-3.3c-1.21-.49-2.9.48-3.86-.38-3.44-3.08-1.68-8.43-1.76-12.63-.1-4.74-1.58-10.38,1.41-14,1.42-1.72,5.19-.67,6.71-2.31a3.56,3.56,0,0,0,.74-3.35c-.38-1.18-2.57-1.6-2.78-2.8-.17-1,1.37-1.54,1.41-2.5a4.17,4.17,0,0,0-1-2.37A5.6,5.6,0,0,0,19.42,403c-1-.41-2.25.39-3.19-.13a4.61,4.61,0,0,1-1.9-2.84c-1.37-4.75-1.41-10.13.75-14.35.71-1.39,2.92-1.69,3.72-3,.59-1,0-2.42.63-3.36.79-1.12,3-1,3.62-2.24a4.16,4.16,0,0,0-.26-4.42c-1.21-1.42-4.17-.39-5.53-1.7-4-3.87-3.29-11.21-4.43-15-.54-1.81-6.16-2.68-6.06-.84.26,5.29,4.55,17,4.55,17l-.4,3.67s-5.16.47-6.15,2.26c-.79,1.41.3,3.37,1.14,4.88a18.24,18.24,0,0,0,3.34,3.45L8.82,400.6l1.93,6.54s-4.28,2.95-4.25,5.2c0,1.07,2.12,2.75,2.12,2.75l2.77,1.8-1.63,15,.66,12s1.44,2.76,1.14,4.08c-.54,2.33-4.67,2.95-4.91,5.35s3.47,6.35,3.47,6.35L8.81,473.23s5.32,2.84,5.41,1.19Z"/><path id="path977" class="cls-1" d="M12.75,356.79c.12-2.27.39-4.82.71-7.15.25-1.81,0-3.75,1.06-5.23,1.28-1.75,4.94-1.1,6.25-2.84,1-1.36,1-3.35.62-5.06-.11-.49-.8-.87-.79-1.36,0-1.67,3.16-2.42,2.83-4.09s-2.46-2.63-4.1-3.3c-1.21-.5-2.91.47-3.86-.38C12,324.3,13.79,319,13.7,314.74c-.09-4.73-1.57-10.37,1.42-14,1.42-1.72,5.18-.67,6.7-2.31a3.51,3.51,0,0,0,.74-3.35c-.38-1.19-2.57-1.6-2.78-2.81-.17-1,1.37-1.53,1.41-2.49a4.25,4.25,0,0,0-1-2.38A5.57,5.57,0,0,0,18,285.34c-1-.42-2.25.39-3.2-.13a4.65,4.65,0,0,1-1.9-2.84c-1.37-4.76-1.4-10.13.76-14.35.71-1.39,2.91-1.7,3.72-3,.58-1,0-2.42.63-3.35.78-1.12,3-1,3.61-2.24a4.14,4.14,0,0,0-.26-4.42c-1.2-1.43-4.16-.39-5.52-1.7-4-3.87-3.29-11.21-4.43-15-.54-1.81-6.16-2.68-6.07-.84.26,5.28,4.56,17,4.56,17l-.41,3.67s-5.15.47-6.15,2.25c-.78,1.41.3,3.38,1.15,4.89a18.14,18.14,0,0,0,3.33,3.44L7.36,283l1.93,6.54S5,292.45,5,294.7c0,1.08,2.12,2.76,2.12,2.76l2.77,1.8-1.63,15L9,326.2s1.45,2.76,1.14,4.09c-.54,2.32-4.67,2.95-4.91,5.34S8.65,342,8.65,342L7.34,355.6s5.32,2.84,5.41,1.19Z"/></g><g id="g999"><path id="path995" class="cls-1" d="M11.19,238.05c.11-2.27.39-4.83.7-7.15.25-1.81,0-3.75,1.06-5.23,1.29-1.76,4.94-1.11,6.26-2.85,1-1.35,1-3.34.61-5-.1-.5-.79-.87-.78-1.36,0-1.67,3.16-2.42,2.83-4.1s-2.46-2.62-4.11-3.3c-1.21-.49-2.9.48-3.86-.38-3.44-3.08-1.68-8.43-1.76-12.63-.1-4.73-1.58-10.37,1.41-14,1.42-1.72,5.18-.68,6.7-2.32a3.52,3.52,0,0,0,.75-3.34c-.38-1.19-2.57-1.6-2.78-2.81-.17-1,1.37-1.53,1.41-2.5a4.17,4.17,0,0,0-1-2.37,5.5,5.5,0,0,0-2.22-2.06c-1-.42-2.25.39-3.19-.14a4.51,4.51,0,0,1-1.9-2.84c-1.37-4.75-1.41-10.13.75-14.35.71-1.38,2.92-1.69,3.72-3,.59-1,0-2.42.63-3.35.79-1.12,3-1,3.62-2.24a4.16,4.16,0,0,0-.26-4.42c-1.21-1.43-4.17-.39-5.53-1.7-4-3.87-3.29-11.21-4.43-15-.54-1.82-6.16-2.69-6.07-.84.27,5.28,4.56,17,4.56,17l-.4,3.67s-5.16.46-6.15,2.25C1,143,2,145,2.88,146.51A18.41,18.41,0,0,0,6.22,150l-.43,14.28,1.93,6.54S3.44,173.71,3.47,176c0,1.08,2.12,2.76,2.12,2.76l2.77,1.8-1.63,15,.66,12s1.44,2.76,1.14,4.08c-.54,2.33-4.67,3-4.91,5.35s3.47,6.35,3.47,6.35L5.78,236.85s5.32,2.84,5.41,1.2Z"/><path id="path997" class="cls-1" d="M9.72,120.42c.12-2.27.39-4.83.71-7.16.25-1.8,0-3.75,1.06-5.22,1.28-1.76,4.94-1.11,6.25-2.85,1-1.35,1-3.35.62-5.06-.11-.49-.8-.86-.79-1.35,0-1.68,3.16-2.42,2.83-4.1s-2.46-2.63-4.1-3.3c-1.21-.49-2.91.48-3.86-.38C9,87.92,10.76,82.57,10.67,78.37c-.09-4.73-1.57-10.38,1.42-14,1.42-1.71,5.18-.67,6.7-2.31a3.51,3.51,0,0,0,.74-3.35c-.38-1.18-2.57-1.6-2.78-2.8-.17-1,1.37-1.53,1.41-2.5a4.22,4.22,0,0,0-1-2.37A5.6,5.6,0,0,0,14.93,49c-1-.41-2.25.39-3.2-.13A4.62,4.62,0,0,1,9.83,46c-1.37-4.75-1.4-10.13.76-14.35.71-1.39,2.91-1.69,3.72-3,.58-1,0-2.42.63-3.36.78-1.12,3-1,3.61-2.23a4.16,4.16,0,0,0-.26-4.43c-1.2-1.42-4.16-.39-5.52-1.7-4-3.86-3.29-11.21-4.43-15C7.8.05,2.18-.82,2.27,1c.26,5.29,4.56,17,4.56,17l-.41,3.67S1.26,22.2.27,24c-.78,1.41.3,3.37,1.15,4.88a18,18,0,0,0,3.33,3.45L4.33,46.59l1.93,6.55S2,56.08,2,58.33c0,1.07,2.12,2.75,2.12,2.75L6.9,62.89l-1.63,15,.65,12s1.45,2.76,1.14,4.08c-.54,2.33-4.67,3-4.91,5.35-.23,2.25,3.47,6.35,3.47,6.35L4.31,119.22s5.32,2.84,5.41,1.19Z"/></g></g></g></svg>