<svg xmlns="http://www.w3.org/2000/svg" viewBox="0 0 20.9 461.98"><defs><style>.cls-1{fill:#784421;}</style></defs><title>rope</title><g id="Layer_2" data-name="Layer 2"><g id="svg1279"><g id="g983"><path id="path1039" class="cls-1" d="M11.14,461.47c-.16-2.19-.47-4.68-.83-6.93-.28-1.76-.05-3.64-1.15-5.08-1.31-1.72-5-1.14-6.3-2.85-1-1.33-1-3.25-.7-4.91.1-.47.78-.82.76-1.3-.06-1.62-3.2-2.39-2.9-4s2.41-2.51,4.05-3.14c1.2-.46,2.91.51,3.85-.31,3.38-2.94.3-7.74.31-11.81,0-4.58,2.63-10.43-.43-14-1.44-1.68-5.18-.72-6.73-2.34a3.41,3.41,0,0,1-.8-3.25C.63,400.41,2.81,400,3,398.87c.15-.93-1.4-1.5-1.45-2.44a3.79,3.79,0,0,1,1-2.28,5.32,5.32,0,0,1,2.18-2c1-.39,2.26.41,3.19-.08a4.23,4.23,0,0,0,1.85-2.73c1.29-4.59,1.23-9.79-1-13.91-.73-1.35-2.94-1.68-3.77-3-.6-1,0-2.35-.69-3.26-.8-1.1-3-1-3.65-2.22a3.91,3.91,0,0,1,.18-4.28c1.19-1.36,4.16-.32,5.5-1.57,3.92-3.69,3.09-10.81,4.16-14.5.51-1.75,6.11-2.51,6-.73-.17,5.12-4.26,16.45-4.26,16.45l.47,3.56s5.16.52,6.19,2.27c.8,1.38-.25,3.26-1.06,4.72a17.07,17.07,0,0,1-3.28,3.29L15.25,390l-1.81,6.31s4.33,2.91,4.33,5.09c0,1-2.07,2.64-2.07,2.64L13,405.78l1.88,14.54-.45,11.57s-1.39,2.66-1.06,3.94c.58,2.27,4.71,2.93,5,5.25S15,447.19,15,447.19l1.54,13.2s-5.27,2.68-5.38,1.08Z"/><path id="path975" class="cls-1" d="M11.81,346.89c-.15-2.2-.47-4.68-.83-6.94-.28-1.75,0-3.63-1.14-5.07-1.32-1.72-5-1.14-6.3-2.85-1-1.33-1-3.26-.7-4.91.09-.47.77-.82.76-1.3-.06-1.62-3.2-2.39-2.9-4s2.41-2.51,4.05-3.14c1.2-.46,2.9.5,3.85-.31,3.38-2.94.3-7.74.31-11.81,0-4.58,2.62-10.43-.43-14-1.44-1.69-5.19-.73-6.73-2.34A3.38,3.38,0,0,1,1,287c.36-1.14,2.54-1.51,2.73-2.68.15-.93-1.4-1.5-1.45-2.44a3.79,3.79,0,0,1,1-2.28,5.25,5.25,0,0,1,2.18-2c1-.39,2.26.41,3.19-.09a4.22,4.22,0,0,0,1.85-2.72c1.29-4.59,1.23-9.8-1-13.91-.73-1.36-2.94-1.68-3.77-3-.6-.95,0-2.35-.69-3.26-.8-1.1-3-1-3.65-2.22a3.91,3.91,0,0,1,.18-4.28c1.18-1.36,4.16-.32,5.49-1.57,3.93-3.69,3.1-10.81,4.17-14.5.51-1.75,6.11-2.51,6-.73-.17,5.12-4.26,16.45-4.26,16.45l.47,3.56s5.16.52,6.19,2.27c.8,1.37-.25,3.26-1.06,4.71a17.36,17.36,0,0,1-3.28,3.29l.67,13.84-1.82,6.31s4.34,2.91,4.34,5.09c0,1-2.07,2.64-2.07,2.64l-2.73,1.71,1.88,14.54-.45,11.57S13.69,320,14,321.25c.57,2.26,4.71,2.93,5,5.25s-3.36,6.11-3.36,6.11l1.55,13.2s-5.27,2.68-5.38,1.08Z"/></g><g id="g1005"><path id="path1001" class="cls-1" d="M12.15,231.16c-.16-2.2-.47-4.68-.83-6.94-.28-1.75-.05-3.63-1.15-5.08-1.31-1.72-5-1.14-6.3-2.84-1.05-1.33-1-3.26-.7-4.91.1-.48.78-.83.76-1.3-.06-1.63-3.2-2.39-2.9-4s2.41-2.51,4.05-3.14c1.2-.46,2.91.5,3.85-.31,3.38-2.94.3-7.74.31-11.81,0-4.58,2.63-10.44-.43-14-1.44-1.69-5.18-.73-6.73-2.34a3.41,3.41,0,0,1-.8-3.25c.36-1.14,2.54-1.52,2.73-2.68.15-.94-1.4-1.5-1.45-2.44a3.79,3.79,0,0,1,1-2.29,5.3,5.3,0,0,1,2.18-2c1-.39,2.26.41,3.2-.09a4.23,4.23,0,0,0,1.84-2.72c1.29-4.59,1.23-9.8-1-13.92-.73-1.35-2.94-1.68-3.77-3-.6-1,0-2.34-.69-3.26-.8-1.09-3-1-3.65-2.21a3.91,3.91,0,0,1,.18-4.28C3,131,6,132.08,7.32,130.83c3.92-3.69,3.09-10.82,4.16-14.5.51-1.75,6.11-2.52,6.05-.73-.17,5.12-4.26,16.44-4.26,16.44l.47,3.56s5.16.52,6.19,2.27c.8,1.38-.25,3.27-1.06,4.72a17.07,17.07,0,0,1-3.28,3.29l.67,13.84L14.45,166s4.33,2.91,4.33,5.09c0,1-2.07,2.64-2.07,2.64L14,175.46,15.86,190l-.45,11.57s-1.39,2.65-1.06,3.94c.58,2.26,4.71,2.92,5,5.25.26,2.18-3.36,6.1-3.36,6.1l1.54,13.21s-5.27,2.67-5.38,1.08Z"/><path id="path1003" class="cls-1" d="M12.83,116.58c-.16-2.2-.48-4.68-.84-6.94-.28-1.76,0-3.63-1.14-5.08-1.32-1.72-5-1.14-6.3-2.84-1-1.33-1-3.26-.7-4.91.09-.48.77-.83.76-1.31-.06-1.62-3.2-2.39-2.9-4S4.12,89,5.76,88.36c1.2-.46,2.9.5,3.85-.32,3.38-2.93.3-7.73.31-11.8,0-4.59,2.62-10.44-.43-14-1.44-1.68-5.19-.72-6.73-2.33A3.41,3.41,0,0,1,2,56.65C2.32,55.51,4.5,55.14,4.69,54c.15-.94-1.4-1.51-1.45-2.44a3.79,3.79,0,0,1,1-2.29,5.3,5.3,0,0,1,2.18-2c1-.39,2.26.4,3.19-.09a4.24,4.24,0,0,0,1.85-2.72c1.29-4.59,1.23-9.8-1-13.92-.73-1.35-2.94-1.68-3.77-3-.6-.95,0-2.34-.69-3.26-.8-1.09-3-1-3.65-2.22a3.9,3.9,0,0,1,.18-4.27C3.68,16.45,6.66,17.5,8,16.24c3.93-3.69,3.1-10.81,4.17-14.49C12.67,0,18.27-.77,18.21,1,18,6.13,14,17.46,14,17.46L14.42,21s5.16.52,6.19,2.27c.8,1.38-.25,3.27-1.06,4.72a17.36,17.36,0,0,1-3.28,3.29l.67,13.83-1.82,6.32s4.34,2.91,4.34,5.09c0,1-2.07,2.64-2.07,2.64l-2.73,1.7,1.88,14.55L16.09,87S14.7,89.65,15,90.94c.57,2.26,4.71,2.92,5,5.24s-3.37,6.11-3.37,6.11l1.55,13.2s-5.27,2.68-5.38,1.08Z"/></g></g></g></svg>