<svg xmlns="http://www.w3.org/2000/svg" viewBox="0 0 958.74 126.59"><defs><style>.cls-1{fill:#d38d5f;}.cls-2,.cls-3,.cls-4{fill:none;stroke:#5f4512;}.cls-2{stroke-width:0.49px;}.cls-3{stroke-width:0.46px;}.cls-4{stroke-width:0.45px;}</style></defs><title>sign-wood</title><g id="Layer_2" data-name="Layer 2"><g id="svg1279"><g id="g1173"><path id="path1139" class="cls-1" d="M940.23,5.5c-91.92-13.08-195,1.23-292.49,1.69-57.59.28-115.26-.56-172.78.65-7.9.17-15.72.76-23.62.91-55,1-110.22-.22-165.34-.13-54.46.09-108.92.68-163.39.65-35.27,0-71.09-3-105.8-.52-3.53.26-7.65.49-10,1.56-4,1.81-3.77,4.63-4.53,7-.83,2.62-.09,5.29,0,7.94.16,5.12-.62,10.27,1,15.35.84,2.69,3.86,5.24,4.53,7.94.78,3.15-.1,6.34-.65,9.5a34.71,34.71,0,0,1-2.26,8.06c-.48,1.1-1.67,2.15-1.94,3.26-3.77,15.55-5.39,31.76,4.85,46.84a9.12,9.12,0,0,0,4.85,3.64c2.87,1,7,1.3,10.68,1.56,43.25,3,87.79-.28,131.69-.26,72.15,0,144.3.44,216.45.65q149.32.47,298.64.92c90.7.24,183.33,8.11,272.11.65,4.16-.35,9-.74,11.65-2.09,3.78-1.94,2.81-4.82,3.23-7.28,2.15-12.43,3.4-25.21-3.55-37.35-1.33-2.3-6-4.18-7.12-6.5A11.33,11.33,0,0,1,947,59.11c.76-1.31,3.43-2.34,4.21-3.65,4.42-7.34,4.65-15.14,2.26-22.64-.8-2.51-4.88-4.76-5.5-7.28-.75-3.08,1.53-6.16,2.27-9.24.55-2.3,3.8-4.76,1.62-6.9C950,7.52,945,6.18,940.23,5.5Z"/><path id="path1145" class="cls-2" d="M15.22,111.41l364.84-6.16"/><path id="path1147" class="cls-2" d="M681.58,94.1l-495.19,7.18"/><path id="path1149" class="cls-2" d="M473.34,102.34l309.32.89"/><path id="path1151" class="cls-2" d="M121.38,48.85,14.49,46.06"/><path id="path1153" class="cls-2" d="M112.81,66.6,35,65.16"/><path id="path1155" class="cls-2" d="M796,18.08l-566.41-1"/><path id="path1157" class="cls-3" d="M208.3,83.94,14.17,90.56"/><path id="path1159" class="cls-2" d="M18.31,19.49l166.91,3.84"/><path id="path1161" class="cls-4" d="M802.83,74.92l134.7,2.68"/><path id="path1163" class="cls-2" d="M856.45,61.79,947,61.54"/><path id="path1165" class="cls-2" d="M763.63,29.74l178.6-4.24"/><path id="path1167" class="cls-2" d="M597.9,24.53l-259.39.73"/><path id="path1169" class="cls-2" d="M813.49,96.83l129.57.9"/><path id="path1171" class="cls-2" d="M817.08,88.17l129.57.9"/></g></g></g></svg>